<svg width="23" height="24" viewBox="0 0 23 24" fill="none" xmlns="http://www.w3.org/2000/svg">
<g id="file-icons:instagram">
<path id="Vector" d="M13 2C15.717 2 16.056 2.01 17.122 2.06C18.187 2.11 18.912 2.277 19.55 2.525C20.21 2.779 20.766 3.123 21.322 3.678C21.8305 4.1779 22.224 4.78259 22.475 5.45C22.722 6.087 22.89 6.813 22.94 7.878C22.987 8.944 23 9.283 23 12C23 14.717 22.99 15.056 22.94 16.122C22.89 17.187 22.722 17.912 22.475 18.55C22.2247 19.2178 21.8311 19.8226 21.322 20.322C20.822 20.8303 20.2173 21.2238 19.55 21.475C18.913 21.722 18.187 21.89 17.122 21.94C16.056 21.987 15.717 22 13 22C10.283 22 9.944 21.99 8.878 21.94C7.813 21.89 7.088 21.722 6.45 21.475C5.78233 21.2245 5.17753 20.8309 4.678 20.322C4.16941 19.8222 3.77593 19.2175 3.525 18.55C3.277 17.913 3.11 17.187 3.06 16.122C3.013 15.056 3 14.717 3 12C3 9.283 3.01 8.944 3.06 7.878C3.11 6.812 3.277 6.088 3.525 5.45C3.77524 4.78218 4.1688 4.17732 4.678 3.678C5.17767 3.16923 5.78243 2.77573 6.45 2.525C7.088 2.277 7.812 2.11 8.878 2.06C9.944 2.013 10.283 2 13 2ZM13 7C11.6739 7 10.4021 7.52678 9.46447 8.46447C8.52678 9.40215 8 10.6739 8 12C8 13.3261 8.52678 14.5979 9.46447 15.5355C10.4021 16.4732 11.6739 17 13 17C14.3261 17 15.5979 16.4732 16.5355 15.5355C17.4732 14.5979 18 13.3261 18 12C18 10.6739 17.4732 9.40215 16.5355 8.46447C15.5979 7.52678 14.3261 7 13 7ZM19.5 6.75C19.5 6.41848 19.3683 6.10054 19.1339 5.86612C18.8995 5.6317 18.5815 5.5 18.25 5.5C17.9185 5.5 17.6005 5.6317 17.3661 5.86612C17.1317 6.10054 17 6.41848 17 6.75C17 7.08152 17.1317 7.39946 17.3661 7.63388C17.6005 7.8683 17.9185 8 18.25 8C18.5815 8 18.8995 7.8683 19.1339 7.63388C19.3683 7.39946 19.5 7.08152 19.5 6.75ZM13 9C13.7956 9 14.5587 9.31607 15.1213 9.87868C15.6839 10.4413 16 11.2044 16 12C16 12.7956 15.6839 13.5587 15.1213 14.1213C14.5587 14.6839 13.7956 15 13 15C12.2044 15 11.4413 14.6839 10.8787 14.1213C10.3161 13.5587 10 12.7956 10 12C10 11.2044 10.3161 10.4413 10.8787 9.87868C11.4413 9.31607 12.2044 9 13 9Z" fill="#595959"/>
</g>
</svg>
