<svg width="32" height="33" viewBox="0 0 32 33" fill="none" xmlns="http://www.w3.org/2000/svg">
<g id="file-icons:instagram">
<path id="Vector" d="M16.5 5.54199C19.6245 5.54199 20.0144 5.55299 21.2403 5.60799C22.465 5.66299 23.2988 5.84669 24.0325 6.11949C24.7915 6.39889 25.4309 6.77729 26.0703 7.38779C26.6551 7.93768 27.1075 8.60284 27.3962 9.33699C27.6803 10.0377 27.8735 10.8363 27.931 12.0078C27.9851 13.1804 28 13.5533 28 16.542C28 19.5307 27.9885 19.9036 27.931 21.0762C27.8735 22.2477 27.6803 23.0452 27.3962 23.747C27.1084 24.4815 26.6558 25.1469 26.0703 25.6962C25.4953 26.2553 24.7999 26.6881 24.0325 26.9645C23.2999 27.2362 22.465 27.421 21.2403 27.476C20.0144 27.5277 19.6245 27.542 16.5 27.542C13.3755 27.542 12.9856 27.531 11.7597 27.476C10.5349 27.421 9.7012 27.2362 8.9675 26.9645C8.19967 26.6889 7.50416 26.256 6.9297 25.6962C6.34482 25.1464 5.89232 24.4812 5.60375 23.747C5.31855 23.0463 5.1265 22.2477 5.069 21.0762C5.01495 19.9036 5 19.5307 5 16.542C5 13.5533 5.0115 13.1804 5.069 12.0078C5.1265 10.8352 5.31855 10.0388 5.60375 9.33699C5.89152 8.60239 6.34412 7.93705 6.9297 7.38779C7.50432 6.82815 8.19979 6.39529 8.9675 6.11949C9.7012 5.84669 10.5338 5.66299 11.7597 5.60799C12.9856 5.55629 13.3755 5.54199 16.5 5.54199ZM16.5 11.042C14.975 11.042 13.5125 11.6215 12.4341 12.6529C11.3558 13.6844 10.75 15.0833 10.75 16.542C10.75 18.0007 11.3558 19.3996 12.4341 20.4311C13.5125 21.4625 14.975 22.042 16.5 22.042C18.025 22.042 19.4875 21.4625 20.5659 20.4311C21.6442 19.3996 22.25 18.0007 22.25 16.542C22.25 15.0833 21.6442 13.6844 20.5659 12.6529C19.4875 11.6215 18.025 11.042 16.5 11.042ZM23.975 10.767C23.975 10.4023 23.8236 10.0526 23.554 9.79472C23.2844 9.53686 22.9187 9.39199 22.5375 9.39199C22.1562 9.39199 21.7906 9.53686 21.521 9.79472C21.2514 10.0526 21.1 10.4023 21.1 10.767C21.1 11.1317 21.2514 11.4814 21.521 11.7393C21.7906 11.9971 22.1562 12.142 22.5375 12.142C22.9187 12.142 23.2844 11.9971 23.554 11.7393C23.8236 11.4814 23.975 11.1317 23.975 10.767ZM16.5 13.242C17.415 13.242 18.2925 13.5897 18.9395 14.2085C19.5865 14.8274 19.95 15.6668 19.95 16.542C19.95 17.4172 19.5865 18.2566 18.9395 18.8754C18.2925 19.4943 17.415 19.842 16.5 19.842C15.585 19.842 14.7075 19.4943 14.0605 18.8754C13.4135 18.2566 13.05 17.4172 13.05 16.542C13.05 15.6668 13.4135 14.8274 14.0605 14.2085C14.7075 13.5897 15.585 13.242 16.5 13.242Z" fill="#ECEDED"/>
</g>
</svg>
