<svg width="32" height="33" viewBox="0 0 32 33" fill="none" xmlns="http://www.w3.org/2000/svg">
<g id="file-icons:youtube">
<path id="Vector" d="M28.9942 13.8858C29.0504 12.2202 28.6949 10.5671 27.9608 9.07995C27.4627 8.46974 26.7715 8.05794 26.0075 7.91631C22.8476 7.62253 19.6746 7.50211 16.5021 7.55559C13.3412 7.49968 10.1796 7.61621 7.03083 7.90468C6.40829 8.02071 5.83218 8.31991 5.37279 8.76577C4.35071 9.73158 4.23714 11.3839 4.12358 12.7803C3.95881 15.2909 3.95881 17.81 4.12358 20.3207C4.15643 21.1066 4.27064 21.8867 4.46427 22.6479C4.6012 23.2356 4.87824 23.7794 5.27058 24.2305C5.73309 24.6999 6.32263 25.0162 6.96269 25.1381C9.41105 25.4478 11.878 25.5761 14.3444 25.5221C18.3192 25.5803 21.8056 25.5221 25.928 25.1963C26.5838 25.0818 27.1899 24.7652 27.6655 24.2886C27.9835 23.9627 28.221 23.5638 28.3583 23.125C28.7644 21.8481 28.9639 20.5116 28.9488 19.1687C28.9942 18.517 28.9942 14.5839 28.9942 13.8858ZM13.9356 19.8668V12.6639L20.6586 16.2828C18.7734 17.3534 16.2864 18.5636 13.9356 19.8668Z" fill="#ECEDED"/>
</g>
</svg>
