<svg width="63" height="57" viewBox="0 0 63 57" fill="none" xmlns="http://www.w3.org/2000/svg">
<g clip-path="url(#clip0_242_1578)">
<path d="M31.2275 25.1473C26.3739 25.1422 21.7204 23.2021 18.2881 19.7528C14.8558 16.3035 12.9249 11.6266 12.9189 6.74805H13.6968C13.6968 9.06243 14.1503 11.3542 15.0315 13.4924C15.9127 15.6306 17.2042 17.5734 18.8324 19.2099C20.4605 20.8465 22.3934 22.1446 24.5207 23.0303C26.6481 23.916 28.9281 24.3718 31.2307 24.3718C33.5332 24.3718 35.8133 23.916 37.9406 23.0303C40.0679 22.1446 42.0008 20.8465 43.629 19.2099C45.2571 17.5734 46.5487 15.6306 47.4298 13.4924C48.311 11.3542 48.7645 9.06243 48.7645 6.74805H49.5424C49.5365 11.6277 47.6047 16.3056 44.171 19.7551C40.7373 23.2046 36.0822 25.1439 31.2275 25.1473Z" fill="black"/>
<path d="M13.2987 7.35932C12.653 7.35932 12.0219 7.16688 11.485 6.80633C10.9482 6.44579 10.5298 5.93333 10.2827 5.33377C10.0356 4.7342 9.97095 4.07446 10.0969 3.43796C10.2229 2.80147 10.5338 2.21681 10.9903 1.75792C11.4469 1.29904 12.0285 0.986532 12.6618 0.859925C13.295 0.733319 13.9514 0.798294 14.5479 1.04664C15.1444 1.29499 15.6543 1.71555 16.013 2.25515C16.3717 2.79474 16.5631 3.42914 16.5631 4.0781C16.5623 4.94808 16.2181 5.78217 15.6061 6.39733C14.994 7.0125 14.1642 7.35847 13.2987 7.35932ZM13.2987 1.59155C12.806 1.59091 12.3241 1.73722 11.9142 2.01197C11.5043 2.28671 11.1847 2.67753 10.9958 3.13495C10.807 3.59236 10.7574 4.09581 10.8534 4.58156C10.9493 5.06731 11.1865 5.51352 11.5349 5.8637C11.8833 6.21389 12.3272 6.4523 12.8105 6.54876C13.2938 6.64522 13.7947 6.59539 14.2498 6.40558C14.7048 6.21576 15.0937 5.89451 15.367 5.48248C15.6403 5.07044 15.7859 4.58615 15.7853 4.09091C15.7865 3.76173 15.7232 3.43553 15.5988 3.131C15.4745 2.82648 15.2915 2.54961 15.0606 2.31624C14.8296 2.08288 14.555 1.89762 14.2527 1.77107C13.9504 1.64451 13.6262 1.57915 13.2987 1.57873V1.59155Z" fill="black"/>
<path d="M49.2625 7.35932C48.6169 7.35932 47.9857 7.16688 47.4489 6.80633C46.912 6.44579 46.4936 5.93333 46.2465 5.33377C45.9995 4.7342 45.9348 4.07446 46.0608 3.43796C46.1867 2.80147 46.4976 2.21681 46.9542 1.75792C47.4107 1.29904 47.9924 0.986532 48.6257 0.859925C49.2589 0.733319 49.9153 0.798294 50.5118 1.04664C51.1083 1.29499 51.6181 1.71555 51.9769 2.25515C52.3356 2.79474 52.527 3.42914 52.527 4.0781C52.5262 4.94808 52.182 5.78217 51.5699 6.39733C50.9579 7.0125 50.1281 7.35847 49.2625 7.35932ZM49.2625 1.59155C48.7698 1.59091 48.288 1.73722 47.8781 2.01197C47.4681 2.28671 47.1485 2.67753 46.9597 3.13495C46.7708 3.59236 46.7213 4.09581 46.8172 4.58156C46.9132 5.06731 47.1504 5.51352 47.4988 5.8637C47.8472 6.21389 48.2911 6.4523 48.7744 6.54876C49.2577 6.64522 49.7585 6.59539 50.2136 6.40558C50.6687 6.21576 51.0575 5.89451 51.3309 5.48248C51.6042 5.07044 51.7498 4.58615 51.7492 4.09091C51.75 3.76185 51.6863 3.43584 51.5618 3.1315C51.4373 2.82717 51.2544 2.55046 51.0235 2.31718C50.7926 2.0839 50.5182 1.89862 50.2161 1.77192C49.9139 1.64521 49.5899 1.57957 49.2625 1.57873V1.59155Z" fill="black"/>
<path d="M31.1734 7.35932C30.5279 7.35869 29.897 7.16571 29.3606 6.80478C28.8242 6.44385 28.4063 5.93117 28.1597 5.33155C27.9131 4.73193 27.8489 4.07228 27.9752 3.436C28.1015 2.79971 28.4127 2.21536 28.8694 1.75679C29.3261 1.29822 29.9077 0.986039 30.5409 0.859692C31.1741 0.733345 31.8303 0.798504 32.4266 1.04695C33.0229 1.29539 33.5326 1.71596 33.8911 2.25548C34.2497 2.795 34.4411 3.42928 34.4411 4.0781C34.4402 4.94863 34.0956 5.78321 33.4829 6.39847C32.8702 7.01373 32.0395 7.35932 31.1734 7.35932ZM31.1734 1.59155C30.6808 1.59155 30.1993 1.7384 29.7898 2.01353C29.3803 2.28866 29.0612 2.67969 28.8728 3.13717C28.6845 3.59464 28.6353 4.09799 28.7317 4.58353C28.828 5.06907 29.0655 5.51498 29.414 5.86484C29.7625 6.2147 30.2064 6.45279 30.6896 6.54899C31.1728 6.64519 31.6735 6.59518 32.1284 6.40527C32.5833 6.21537 32.972 5.89411 33.2452 5.48215C33.5184 5.07018 33.6638 4.58601 33.6632 4.09091C33.6645 3.76146 33.601 3.43501 33.4764 3.13027C33.3519 2.82554 33.1687 2.54852 32.9374 2.31511C32.706 2.08171 32.4311 1.8965 32.1284 1.77014C31.8257 1.64377 31.5012 1.57873 31.1734 1.57873V1.59155Z" fill="black"/>
<path d="M31.1734 43.7802C30.5279 43.7796 29.897 43.5866 29.3606 43.2257C28.8242 42.8647 28.4063 42.3521 28.1597 41.7525C27.9131 41.1528 27.8489 40.4932 27.9752 39.8569C28.1015 39.2206 28.4127 38.6363 28.8694 38.1777C29.3261 37.7191 29.9077 37.4069 30.5409 37.2806C31.1741 37.1542 31.8303 37.2194 32.4266 37.4679C33.0229 37.7163 33.5326 38.1369 33.8911 38.6764C34.2497 39.2159 34.4411 39.8502 34.4411 40.499C34.4402 41.3695 34.0956 42.2041 33.4829 42.8194C32.8702 43.4346 32.0395 43.7802 31.1734 43.7802ZM31.1734 38.0125C30.6808 38.0125 30.1993 38.1593 29.7898 38.4344C29.3803 38.7096 29.0612 39.1006 28.8728 39.5581C28.6845 40.0155 28.6353 40.5189 28.7317 41.0044C28.828 41.49 29.0655 41.9359 29.414 42.2857C29.7625 42.6356 30.2064 42.8737 30.6896 42.9699C31.1728 43.0661 31.6735 43.0161 32.1284 42.8262C32.5833 42.6363 32.972 42.315 33.2452 41.9031C33.5184 41.4911 33.6638 41.0069 33.6632 40.5118C33.6645 40.1824 33.601 39.8559 33.4764 39.5512C33.3519 39.2464 33.1687 38.9694 32.9374 38.736C32.706 38.5026 32.4311 38.3174 32.1284 38.191C31.8257 38.0647 31.5012 37.9996 31.1734 37.9996V38.0125Z" fill="black"/>
<path d="M41.1434 29.1271H20.8559C20.7948 29.1244 20.7353 29.1064 20.6834 29.0748C20.6314 29.0432 20.5887 28.9991 20.5593 28.9468C20.5299 28.8944 20.5149 28.8356 20.5157 28.776C20.5164 28.7164 20.5329 28.6579 20.5636 28.6063L30.7073 11.5008C30.7387 11.4478 30.7839 11.4039 30.8383 11.3734C30.8927 11.3429 30.9544 11.327 31.0172 11.3271C31.0795 11.3272 31.1408 11.3433 31.1947 11.3737C31.2486 11.4042 31.2932 11.4481 31.3241 11.5008L41.4678 28.6063C41.4992 28.6591 41.5157 28.7191 41.5156 28.7802C41.5156 28.8412 41.499 28.9011 41.4676 28.9539C41.4362 29.0068 41.391 29.0506 41.3366 29.081C41.2823 29.1114 41.2207 29.1273 41.158 29.1271H41.1434ZM21.4728 28.4327H40.5207L30.9967 12.366L21.4728 28.4327Z" fill="black"/>
<path d="M44.0022 51.5182H18.4537C18.3858 51.5178 18.3192 51.4995 18.2605 51.4653C18.2017 51.431 18.153 51.3818 18.119 51.3227C18.0846 51.2634 18.0664 51.1959 18.0664 51.1272C18.0664 51.0585 18.0846 50.9911 18.119 50.9318L30.8932 28.6906C30.9274 28.631 30.9767 28.5815 31.0361 28.5472C31.0954 28.5129 31.1627 28.4949 31.2311 28.4951C31.2991 28.4952 31.3659 28.5132 31.4247 28.5476C31.4835 28.5819 31.5322 28.6312 31.5659 28.6906L44.3401 50.9318C44.3745 50.9911 44.3927 51.0585 44.3927 51.1272C44.3927 51.1959 44.3745 51.2634 44.3401 51.3227C44.3054 51.3819 44.256 51.431 44.1968 51.4652C44.1375 51.4995 44.0705 51.5177 44.0022 51.5182ZM19.136 50.7363H43.3391L31.2407 29.6679L19.136 50.7363Z" fill="black"/>
<path d="M31.6197 6.96875H30.8418V43.7223H31.6197V6.96875Z" fill="black"/>
<path d="M31.5001 43.6914H30.6924V55.0187H31.5001V43.6914Z" fill="black"/>
<path d="M24.8578 54.5469H12.9443V55.3287H24.8578V54.5469Z" fill="black"/>
<path d="M49.5844 54.5469H37.6709V55.3287H49.5844V54.5469Z" fill="black"/>
<path d="M20.3056 41.1233C20.228 40.989 20.2066 40.8292 20.246 40.679C20.2854 40.5288 20.3826 40.4005 20.5161 40.3222C20.6497 40.2441 20.8086 40.2226 20.9581 40.2622C21.1075 40.3019 21.2352 40.3995 21.313 40.5337C21.3901 40.6678 21.4116 40.827 21.3728 40.9769C21.334 41.1268 21.2381 41.2553 21.1058 41.3347C21.0161 41.3886 20.9138 41.4173 20.8093 41.4181C20.707 41.4176 20.6067 41.3902 20.5182 41.3384C20.4298 41.2867 20.3565 41.2125 20.3056 41.1233ZM18.7308 38.4316C18.692 38.3655 18.6667 38.2923 18.6562 38.2162C18.6458 38.1401 18.6505 38.0627 18.6701 37.9885C18.6897 37.9143 18.7237 37.8447 18.7703 37.7838C18.8168 37.7229 18.8749 37.6719 18.9412 37.6338C19.0068 37.594 19.0795 37.5677 19.1553 37.5565C19.231 37.5453 19.3083 37.5494 19.3824 37.5685C19.4566 37.5876 19.5263 37.6213 19.5874 37.6677C19.6484 37.7141 19.6997 37.7723 19.7382 37.8388C19.8161 37.9728 19.838 38.1323 19.7992 38.2824C19.7604 38.4326 19.6639 38.5611 19.531 38.6399C19.4423 38.6933 19.3411 38.7221 19.2377 38.7232C19.1349 38.723 19.034 38.6957 18.945 38.644C18.8561 38.5922 18.7822 38.5179 18.7308 38.4284V38.4316ZM43.3005 38.1945C43.234 38.1558 43.1757 38.1042 43.1291 38.0427C43.0825 37.9812 43.0485 37.9111 43.0289 37.8364C43.0093 37.7616 43.0047 37.6837 43.0152 37.6072C43.0257 37.5306 43.0511 37.4569 43.0901 37.3902C43.1697 37.257 43.2981 37.1606 43.4478 37.1216C43.5975 37.0827 43.7563 37.1043 43.8903 37.182C44.0226 37.2614 44.1185 37.3899 44.1572 37.5398C44.196 37.6897 44.1745 37.8489 44.0975 37.983C44.0458 38.0711 43.9721 38.144 43.8838 38.1946C43.7954 38.2451 43.6955 38.2716 43.5938 38.2714C43.4907 38.2715 43.3894 38.2439 43.3005 38.1913V38.1945ZM17.1591 35.7368C17.1202 35.6709 17.0947 35.5978 17.084 35.5219C17.0734 35.4459 17.0778 35.3686 17.0971 35.2944C17.1163 35.2202 17.1501 35.1506 17.1963 35.0896C17.2425 35.0286 17.3003 34.9774 17.3663 34.9389C17.432 34.8996 17.5048 34.8737 17.5804 34.8627C17.6561 34.8517 17.7332 34.8559 17.8072 34.8749C17.8813 34.894 17.9509 34.9276 18.012 34.9737C18.0731 35.0199 18.1245 35.0778 18.1633 35.144C18.2023 35.2102 18.2279 35.2835 18.2386 35.3597C18.2493 35.4359 18.2449 35.5134 18.2256 35.5879C18.2064 35.6624 18.1726 35.7323 18.1264 35.7936C18.0801 35.8549 18.0223 35.9064 17.9561 35.9451C17.8675 35.9988 17.7662 36.0275 17.6628 36.0284C17.5604 36.0286 17.4597 36.0014 17.3712 35.9496C17.2827 35.8978 17.2095 35.8233 17.1591 35.7336V35.7368ZM44.8722 35.4997C44.8059 35.4607 44.7479 35.4089 44.7017 35.3472C44.6555 35.2855 44.6219 35.2152 44.6029 35.1404C44.5839 35.0656 44.5799 34.9877 44.5911 34.9113C44.6023 34.8349 44.6285 34.7615 44.6681 34.6954C44.7069 34.6292 44.7584 34.5713 44.8195 34.5252C44.8806 34.479 44.9502 34.4454 45.0242 34.4263C45.0983 34.4073 45.1754 34.4031 45.251 34.4141C45.3267 34.4251 45.3994 34.451 45.4651 34.4903C45.5973 34.5691 45.693 34.6973 45.7313 34.8469C45.7695 34.9964 45.7472 35.1552 45.6692 35.2882C45.6188 35.3772 45.546 35.4513 45.4582 35.503C45.3703 35.5547 45.2705 35.5823 45.1686 35.583C45.064 35.5808 44.9617 35.551 44.8722 35.4965V35.4997ZM15.6193 33.0099C15.582 32.9426 15.5583 32.8686 15.5495 32.792C15.5407 32.7155 15.547 32.6379 15.568 32.5638C15.589 32.4897 15.6244 32.4205 15.672 32.3602C15.7196 32.2998 15.7787 32.2495 15.8457 32.2121C15.9806 32.1374 16.1395 32.1193 16.2876 32.162C16.4358 32.2046 16.5611 32.3044 16.6363 32.4396C16.6736 32.5065 16.6975 32.5801 16.7065 32.6562C16.7155 32.7324 16.7095 32.8096 16.6887 32.8834C16.668 32.9572 16.633 33.0262 16.5857 33.0864C16.5384 33.1466 16.4798 33.1968 16.4131 33.2342C16.3266 33.2832 16.2288 33.3086 16.1294 33.3079C16.0253 33.3087 15.9228 33.2811 15.833 33.228C15.7432 33.175 15.6694 33.0985 15.6193 33.0067V33.0099ZM46.4088 32.7824C46.3418 32.745 46.2827 32.6947 46.2351 32.6343C46.1874 32.5739 46.1521 32.5047 46.1311 32.4306C46.1101 32.3565 46.1038 32.279 46.1126 32.2025C46.1214 32.1259 46.1451 32.0519 46.1824 31.9845C46.2588 31.8497 46.3849 31.7505 46.5335 31.7085C46.6821 31.6666 46.8412 31.6851 46.9762 31.7603C47.0432 31.7973 47.1021 31.8474 47.1496 31.9075C47.1972 31.9677 47.2323 32.0368 47.2531 32.1107C47.2739 32.1846 47.2798 32.262 47.2706 32.3382C47.2614 32.4145 47.2372 32.4881 47.1994 32.5549C47.1493 32.646 47.0759 32.722 46.9868 32.775C46.8976 32.8279 46.796 32.8559 46.6925 32.8561C46.594 32.8602 46.4961 32.8381 46.4088 32.792V32.7824ZM14.0987 30.283C14.025 30.1467 14.0075 29.9868 14.0498 29.8377C14.0921 29.6885 14.1909 29.562 14.325 29.4852C14.4605 29.4103 14.6198 29.3922 14.7685 29.4348C14.9171 29.4774 15.043 29.5773 15.1188 29.7127C15.1935 29.8484 15.212 30.0083 15.1702 30.1577C15.1285 30.307 15.0298 30.4338 14.8957 30.5106C14.8074 30.5581 14.7089 30.5834 14.6087 30.5843C14.5045 30.5837 14.4023 30.5551 14.3126 30.5016C14.2229 30.4481 14.1491 30.3716 14.0987 30.2798V30.283ZM47.9262 30.0556C47.7921 29.9788 47.6934 29.852 47.6516 29.7027C47.6099 29.5533 47.6284 29.3934 47.7031 29.2577C47.7788 29.123 47.9044 29.0239 48.0525 28.9819C48.2005 28.9399 48.3591 28.9584 48.4937 29.0334C48.6293 29.1096 48.7292 29.2367 48.7716 29.3869C48.8141 29.5371 48.7955 29.698 48.72 29.8345C48.6689 29.9248 48.5946 29.9998 48.5049 30.0517C48.4153 30.1035 48.3134 30.1303 48.21 30.1292C48.1103 30.1289 48.0125 30.1024 47.9262 30.0523V30.0556ZM12.5812 27.5562C12.544 27.4891 12.5203 27.4153 12.5115 27.339C12.5028 27.2627 12.5091 27.1854 12.5301 27.1116C12.5511 27.0377 12.5865 26.9688 12.6341 26.9087C12.6817 26.8487 12.7406 26.7986 12.8075 26.7615C12.8741 26.724 12.9473 26.7 13.0231 26.6909C13.0989 26.6819 13.1757 26.688 13.2491 26.7088C13.3226 26.7296 13.3912 26.7648 13.4511 26.8124C13.511 26.8599 13.561 26.9188 13.5982 26.9858C13.636 27.0528 13.6603 27.1267 13.6695 27.2032C13.6788 27.2797 13.6729 27.3573 13.6521 27.4315C13.6314 27.5057 13.5962 27.575 13.5486 27.6355C13.5011 27.6959 13.442 27.7463 13.375 27.7837C13.2884 27.8327 13.1906 27.8581 13.0913 27.8574C12.987 27.8568 12.8848 27.8283 12.7951 27.7748C12.7055 27.7213 12.6316 27.6447 12.5812 27.553V27.5562ZM49.4469 27.3287C49.3797 27.2919 49.3204 27.242 49.2726 27.182C49.2247 27.1219 49.1892 27.0529 49.1682 26.979C49.1471 26.905 49.1409 26.8276 49.1499 26.7512C49.1589 26.6748 49.1829 26.601 49.2206 26.534C49.2964 26.3986 49.4223 26.2988 49.5709 26.2562C49.7196 26.2136 49.8789 26.2316 50.0144 26.3065C50.0815 26.3442 50.1406 26.3948 50.1882 26.4556C50.2358 26.5163 50.271 26.5859 50.2917 26.6604C50.3125 26.7348 50.3184 26.8127 50.3091 26.8894C50.2998 26.9662 50.2754 27.0403 50.2375 27.1076C50.1868 27.1979 50.1131 27.273 50.0241 27.3253C49.9351 27.3777 49.8338 27.4054 49.7306 27.4056C49.6307 27.4045 49.5328 27.3768 49.4469 27.3255V27.3287ZM11.0605 24.8293C10.9871 24.6935 10.9696 24.5341 11.0119 24.3854C11.0543 24.2368 11.153 24.1108 11.2869 24.0346C11.4219 23.9595 11.581 23.9409 11.7296 23.9829C11.8782 24.0249 12.0043 24.1241 12.0807 24.2589C12.1185 24.326 12.1428 24.3998 12.1521 24.4764C12.1613 24.5529 12.1554 24.6305 12.1346 24.7046C12.1139 24.7788 12.0787 24.8482 12.0312 24.9086C11.9836 24.9691 11.9246 25.0194 11.8575 25.0568C11.7698 25.1058 11.671 25.1312 11.5706 25.1305C11.4663 25.1299 11.3641 25.1014 11.2745 25.0479C11.1848 24.9944 11.111 24.9178 11.0605 24.8261V24.8293ZM50.9644 24.605C50.8973 24.5676 50.8383 24.5172 50.7907 24.4568C50.7432 24.3963 50.708 24.327 50.6872 24.2528C50.6665 24.1787 50.6606 24.1011 50.6698 24.0246C50.6791 23.948 50.7034 23.8742 50.7412 23.8071C50.817 23.6726 50.9423 23.5733 51.0902 23.5308C51.2381 23.4882 51.3967 23.5058 51.5318 23.5796C51.6674 23.6558 51.7673 23.7829 51.8098 23.9331C51.8522 24.0833 51.8337 24.2443 51.7582 24.3807C51.7072 24.4715 51.633 24.5469 51.5434 24.5993C51.4537 24.6517 51.3518 24.6791 51.2481 24.6787C51.1485 24.6784 51.0507 24.6519 50.9644 24.6018V24.605ZM9.54305 22.1056C9.46859 21.9695 9.45059 21.8093 9.49297 21.6599C9.53535 21.5105 9.6347 21.3839 9.7694 21.3077C9.90436 21.233 10.0632 21.2151 10.2114 21.2577C10.3595 21.3003 10.4848 21.4001 10.56 21.5353C10.5975 21.602 10.6215 21.6754 10.6308 21.7514C10.64 21.8275 10.6342 21.9046 10.6138 21.9784C10.5934 22.0522 10.5587 22.1212 10.5117 22.1815C10.4647 22.2419 10.4064 22.2923 10.34 22.3299C10.2535 22.3795 10.1559 22.406 10.0563 22.4068C9.95164 22.4062 9.84902 22.3776 9.75887 22.3242C9.66872 22.2707 9.59426 22.1942 9.54305 22.1024V22.1056ZM52.485 21.8781C52.418 21.8407 52.359 21.7904 52.3114 21.73C52.2637 21.6697 52.2284 21.6004 52.2074 21.5263C52.1863 21.4522 52.18 21.3747 52.1889 21.2982C52.1977 21.2216 52.2214 21.1476 52.2587 21.0802C52.335 20.9453 52.4613 20.8463 52.6101 20.8048C52.7589 20.7634 52.918 20.7829 53.0525 20.8592C53.1195 20.8966 53.1785 20.9469 53.2262 21.0073C53.2738 21.0676 53.3092 21.1368 53.3302 21.2109C53.3512 21.285 53.3575 21.3626 53.3487 21.4391C53.3399 21.5157 53.3161 21.5897 53.2788 21.657C53.2265 21.7463 53.1519 21.8204 53.0625 21.8721C52.9731 21.9237 52.8719 21.9512 52.7688 21.9518C52.6691 21.952 52.5711 21.9254 52.485 21.8749V21.8781ZM8.02877 19.382C7.99071 19.3149 7.96622 19.2409 7.95668 19.1643C7.94714 19.0877 7.95276 19.0099 7.97319 18.9355C7.99363 18.8611 8.02849 18.7914 8.07578 18.7306C8.12306 18.6697 8.18184 18.6188 8.24873 18.5809C8.38418 18.506 8.54355 18.4879 8.69219 18.5305C8.84083 18.5731 8.96673 18.673 9.04254 18.8084C9.08039 18.8754 9.10465 18.9493 9.11391 19.0258C9.12318 19.1023 9.11726 19.1799 9.09651 19.2541C9.07576 19.3283 9.04058 19.3976 8.99302 19.4581C8.94545 19.5185 8.88643 19.5689 8.81938 19.6063C8.73264 19.6548 8.63494 19.6802 8.53565 19.68C8.4319 19.6808 8.32988 19.6532 8.24057 19.6001C8.15126 19.5471 8.07803 19.4705 8.02877 19.3788V19.382ZM54.0025 19.1512C53.9356 19.1142 53.8766 19.0641 53.8291 19.004C53.7816 18.9438 53.7464 18.8747 53.7256 18.8008C53.7049 18.7269 53.6989 18.6495 53.7082 18.5733C53.7174 18.497 53.7416 18.4234 53.7794 18.3566C53.8545 18.2214 53.9799 18.1216 54.128 18.079C54.2761 18.0364 54.435 18.0544 54.57 18.1291C54.7055 18.2053 54.8055 18.3324 54.8479 18.4826C54.8904 18.6327 54.8718 18.7937 54.7963 18.9301C54.7452 19.0205 54.6709 19.0955 54.5812 19.1474C54.4915 19.1992 54.3897 19.226 54.2862 19.2249C54.1866 19.2246 54.0888 19.1981 54.0025 19.148V19.1512ZM6.50173 16.6519C6.46425 16.5852 6.44021 16.5117 6.43098 16.4357C6.42175 16.3597 6.42751 16.2825 6.44794 16.2087C6.46836 16.1349 6.50306 16.0659 6.55003 16.0056C6.597 15.9453 6.65533 15.8949 6.72169 15.8572C6.85676 15.7821 7.01583 15.7635 7.16442 15.8055C7.31302 15.8475 7.43916 15.9467 7.5155 16.0815C7.59134 16.2167 7.61077 16.3766 7.56954 16.5261C7.52831 16.6757 7.42978 16.8027 7.29553 16.8794C7.20895 16.9284 7.11115 16.9538 7.0118 16.9531C6.90848 16.952 6.80732 16.9232 6.71877 16.8697C6.63021 16.8162 6.55749 16.7399 6.5081 16.6487L6.50173 16.6519ZM55.5168 16.4276C55.3821 16.3514 55.2828 16.2248 55.2404 16.0754C55.198 15.926 55.216 15.7658 55.2905 15.6297C55.3668 15.4949 55.4929 15.3957 55.6415 15.3537C55.7901 15.3117 55.9492 15.3303 56.0843 15.4054C56.219 15.4816 56.3183 15.6081 56.3607 15.7575C56.4031 15.907 56.3851 16.0671 56.3106 16.2033C56.2593 16.294 56.1851 16.3695 56.0956 16.4224C56.0061 16.4752 55.9044 16.5035 55.8005 16.5045C55.703 16.5009 55.6078 16.4734 55.5232 16.4244L55.5168 16.4276ZM4.98106 13.9314C4.90533 13.7954 4.8863 13.6347 4.92812 13.4846C4.96994 13.3344 5.06921 13.2071 5.20422 13.1303C5.34015 13.0553 5.49999 13.0372 5.64915 13.0797C5.79832 13.1223 5.9248 13.2222 6.00121 13.3578C6.07553 13.4935 6.09344 13.6532 6.05103 13.8021C6.00863 13.951 5.90935 14.0769 5.77487 14.1525C5.68845 14.2019 5.59054 14.2273 5.49114 14.2262C5.38832 14.2264 5.28732 14.1989 5.19871 14.1465C5.1101 14.0941 5.03714 14.0187 4.98744 13.9282L4.98106 13.9314ZM57.0375 13.7039C56.97 13.6665 56.9106 13.616 56.8627 13.5554C56.8148 13.4948 56.7793 13.4252 56.7583 13.3508C56.7372 13.2763 56.731 13.1984 56.7401 13.1215C56.7492 13.0446 56.7733 12.9703 56.8111 12.9028C56.8874 12.7679 57.0138 12.6689 57.1626 12.6274C57.3114 12.586 57.4704 12.6055 57.6049 12.6817C57.6716 12.7191 57.7302 12.7693 57.7775 12.8295C57.8248 12.8897 57.8598 12.9587 57.8805 13.0325C57.9012 13.1063 57.9073 13.1835 57.8983 13.2597C57.8893 13.3359 57.8654 13.4095 57.8281 13.4764C57.7772 13.5675 57.7032 13.6434 57.6136 13.6964C57.524 13.7493 57.422 13.7773 57.318 13.7776C57.2218 13.7747 57.1277 13.7483 57.0438 13.7007L57.0375 13.7039ZM3.47953 11.2013C3.40369 11.0661 3.38425 10.9063 3.42549 10.7567C3.46672 10.6071 3.56525 10.4801 3.6995 10.4035C3.83542 10.3285 3.99527 10.3103 4.14443 10.3529C4.2936 10.3954 4.42007 10.4954 4.49649 10.631C4.57107 10.7662 4.58946 10.9256 4.54766 11.0745C4.50587 11.2233 4.40727 11.3495 4.27333 11.4256C4.18683 11.4752 4.08916 11.5017 3.9896 11.5025C3.88345 11.5051 3.77867 11.478 3.68693 11.4242C3.59518 11.3705 3.52008 11.2922 3.46996 11.1981L3.47953 11.2013ZM58.5677 10.9738C58.4338 10.8977 58.3352 10.7715 58.2934 10.6227C58.2516 10.4738 58.27 10.3144 58.3445 10.1791C58.3817 10.1118 58.4318 10.0524 58.492 10.0046C58.5521 9.9568 58.6211 9.92146 58.6949 9.90061C58.7687 9.87975 58.8459 9.87379 58.922 9.8831C58.9981 9.89241 59.0717 9.9168 59.1383 9.95484C59.273 10.031 59.3724 10.1576 59.4148 10.307C59.4571 10.4564 59.4392 10.6166 59.3647 10.7527C59.3129 10.8428 59.2386 10.9177 59.1491 10.97C59.0597 11.0223 58.9581 11.0501 58.8546 11.0507C58.7505 11.0505 58.6483 11.0229 58.5581 10.9706L58.5677 10.9738ZM55.3191 10.3618C55.3187 10.2847 55.3335 10.2082 55.3627 10.1369C55.3919 10.0655 55.4348 10.0008 55.4891 9.94622C55.5433 9.89168 55.6078 9.84849 55.6788 9.81917C55.7498 9.78985 55.8258 9.77497 55.9025 9.7754C55.9793 9.77497 56.0553 9.78985 56.1263 9.81917C56.1973 9.84849 56.2618 9.89168 56.316 9.94622C56.3703 10.0008 56.4132 10.0655 56.4424 10.1369C56.4716 10.2082 56.4864 10.2847 56.4859 10.3618C56.486 10.4387 56.4708 10.5147 56.4415 10.5857C56.4121 10.6567 56.3691 10.7211 56.3149 10.7753C56.2607 10.8295 56.1963 10.8724 56.1256 10.9015C56.0548 10.9306 55.979 10.9454 55.9025 10.945C55.8261 10.9454 55.7503 10.9306 55.6795 10.9015C55.6088 10.8724 55.5444 10.8295 55.4902 10.7753C55.436 10.7211 55.393 10.6567 55.3636 10.5857C55.3343 10.5147 55.3191 10.4387 55.3191 10.3618ZM52.2109 10.3618C52.2105 10.2847 52.2253 10.2082 52.2544 10.1369C52.2836 10.0655 52.3266 10.0008 52.3808 9.94622C52.4351 9.89168 52.4995 9.84849 52.5705 9.81917C52.6415 9.78985 52.7175 9.77497 52.7943 9.7754C52.871 9.77497 52.9471 9.78985 53.018 9.81917C53.089 9.84849 53.1535 9.89168 53.2077 9.94622C53.262 10.0008 53.305 10.0655 53.3341 10.1369C53.3633 10.2082 53.3781 10.2847 53.3777 10.3618C53.3777 10.4387 53.3626 10.5147 53.3332 10.5857C53.3038 10.6567 53.2608 10.7211 53.2066 10.7753C53.1524 10.8295 53.088 10.8724 53.0173 10.9015C52.9465 10.9306 52.8707 10.9454 52.7943 10.945C52.7173 10.9463 52.6408 10.9321 52.5693 10.9034C52.4978 10.8746 52.4327 10.8319 52.3778 10.7776C52.3229 10.7233 52.2793 10.6586 52.2496 10.5872C52.2198 10.5158 52.2045 10.4392 52.2045 10.3618H52.2109ZM49.1026 10.3618C49.1022 10.2847 49.117 10.2082 49.1461 10.1369C49.1753 10.0655 49.2183 10.0008 49.2725 9.94622C49.3268 9.89168 49.3913 9.84849 49.4622 9.81917C49.5332 9.78985 49.6093 9.77497 49.686 9.7754C49.7627 9.77497 49.8388 9.78985 49.9098 9.81917C49.9807 9.84849 50.0452 9.89168 50.0995 9.94622C50.1537 10.0008 50.1967 10.0655 50.2259 10.1369C50.255 10.2082 50.2698 10.2847 50.2694 10.3618C50.2694 10.4387 50.2543 10.5147 50.2249 10.5857C50.1956 10.6567 50.1525 10.7211 50.0983 10.7753C50.0441 10.8295 49.9798 10.8724 49.909 10.9015C49.8383 10.9306 49.7625 10.9454 49.686 10.945C49.609 10.9463 49.5325 10.9321 49.461 10.9034C49.3895 10.8746 49.3244 10.8319 49.2695 10.7776C49.2146 10.7233 49.171 10.6586 49.1413 10.5872C49.1115 10.5158 49.0962 10.4392 49.0962 10.3618H49.1026ZM45.9943 10.3618C45.9939 10.2847 46.0087 10.2082 46.0379 10.1369C46.067 10.0655 46.11 10.0008 46.1643 9.94622C46.2185 9.89168 46.283 9.84849 46.354 9.81917C46.4249 9.78985 46.501 9.77497 46.5777 9.7754C46.6545 9.77497 46.7305 9.78985 46.8015 9.81917C46.8725 9.84849 46.9369 9.89168 46.9912 9.94622C47.0455 10.0008 47.0884 10.0655 47.1176 10.1369C47.1468 10.2082 47.1615 10.2847 47.1611 10.3618C47.1611 10.4387 47.146 10.5147 47.1167 10.5857C47.0873 10.6567 47.0443 10.7211 46.9901 10.7753C46.9358 10.8295 46.8715 10.8724 46.8007 10.9015C46.73 10.9306 46.6542 10.9454 46.5777 10.945C46.5007 10.9463 46.4243 10.9321 46.3528 10.9034C46.2812 10.8746 46.2162 10.8319 46.1613 10.7776C46.1064 10.7233 46.0628 10.6586 46.033 10.5872C46.0033 10.5158 45.9879 10.4392 45.988 10.3618H45.9943ZM42.8861 10.3618C42.8856 10.2847 42.9004 10.2082 42.9296 10.1369C42.9588 10.0655 43.0017 10.0008 43.056 9.94622C43.1102 9.89168 43.1747 9.84849 43.2457 9.81917C43.3167 9.78985 43.3927 9.77497 43.4695 9.7754C43.5462 9.77497 43.6222 9.78985 43.6932 9.81917C43.7642 9.84849 43.8287 9.89168 43.8829 9.94622C43.9372 10.0008 43.9801 10.0655 44.0093 10.1369C44.0385 10.2082 44.0533 10.2847 44.0529 10.3618C44.0529 10.4387 44.0377 10.5147 44.0084 10.5857C43.979 10.6567 43.936 10.7211 43.8818 10.7753C43.8276 10.8295 43.7632 10.8724 43.6925 10.9015C43.6217 10.9306 43.5459 10.9454 43.4695 10.945C43.393 10.9454 43.3172 10.9306 43.2464 10.9015C43.1757 10.8724 43.1113 10.8295 43.0571 10.7753C43.0029 10.7211 42.9599 10.6567 42.9305 10.5857C42.9012 10.5147 42.8861 10.4387 42.8861 10.3618ZM39.7778 10.3618C39.7774 10.2847 39.7922 10.2082 39.8213 10.1369C39.8505 10.0655 39.8935 10.0008 39.9477 9.94622C40.002 9.89168 40.0665 9.84849 40.1374 9.81917C40.2084 9.78985 40.2845 9.77497 40.3612 9.7754C40.4379 9.77497 40.514 9.78985 40.5849 9.81917C40.6559 9.84849 40.7204 9.89168 40.7747 9.94622C40.8289 10.0008 40.8719 10.0655 40.901 10.1369C40.9302 10.2082 40.945 10.2847 40.9446 10.3618C40.9446 10.4387 40.9295 10.5147 40.9001 10.5857C40.8708 10.6567 40.8277 10.7211 40.7735 10.7753C40.7193 10.8295 40.655 10.8724 40.5842 10.9015C40.5134 10.9306 40.4376 10.9454 40.3612 10.945C40.2842 10.9463 40.2077 10.9321 40.1362 10.9034C40.0647 10.8746 39.9996 10.8319 39.9447 10.7776C39.8898 10.7233 39.8462 10.6586 39.8165 10.5872C39.7867 10.5158 39.7714 10.4392 39.7714 10.3618H39.7778ZM36.6695 10.3618C36.6691 10.2847 36.6839 10.2082 36.7131 10.1369C36.7422 10.0655 36.7852 10.0008 36.8394 9.94622C36.8937 9.89168 36.9582 9.84849 37.0292 9.81917C37.1001 9.78985 37.1762 9.77497 37.2529 9.7754C37.3296 9.77497 37.4057 9.78985 37.4767 9.81917C37.5476 9.84849 37.6121 9.89168 37.6664 9.94622C37.7206 10.0008 37.7636 10.0655 37.7928 10.1369C37.8219 10.2082 37.8367 10.2847 37.8363 10.3618C37.8363 10.4387 37.8212 10.5147 37.7918 10.5857C37.7625 10.6567 37.7195 10.7211 37.6652 10.7753C37.611 10.8295 37.5467 10.8724 37.4759 10.9015C37.4052 10.9306 37.3294 10.9454 37.2529 10.945C37.1759 10.9463 37.0994 10.9321 37.0279 10.9034C36.9564 10.8746 36.8913 10.8319 36.8364 10.7776C36.7815 10.7233 36.7379 10.6586 36.7082 10.5872C36.6784 10.5158 36.6631 10.4392 36.6631 10.3618H36.6695ZM33.5612 10.3618C33.5608 10.2847 33.5756 10.2082 33.6048 10.1369C33.634 10.0655 33.6769 10.0008 33.7312 9.94622C33.7854 9.89168 33.8499 9.84849 33.9209 9.81917C33.9919 9.78985 34.0679 9.77497 34.1446 9.7754C34.2214 9.77497 34.2974 9.78985 34.3684 9.81917C34.4394 9.84849 34.5038 9.89168 34.5581 9.94622C34.6124 10.0008 34.6553 10.0655 34.6845 10.1369C34.7137 10.2082 34.7285 10.2847 34.728 10.3618C34.728 10.4387 34.7129 10.5147 34.6836 10.5857C34.6542 10.6567 34.6112 10.7211 34.557 10.7753C34.5028 10.8295 34.4384 10.8724 34.3677 10.9015C34.2969 10.9306 34.2211 10.9454 34.1446 10.945C34.0676 10.9463 33.9912 10.9321 33.9197 10.9034C33.8482 10.8746 33.7831 10.8319 33.7282 10.7776C33.6733 10.7233 33.6297 10.6586 33.5999 10.5872C33.5702 10.5158 33.5548 10.4392 33.5549 10.3618H33.5612ZM30.453 10.3618C30.4525 10.2847 30.4673 10.2082 30.4965 10.1369C30.5257 10.0655 30.5686 10.0008 30.6229 9.94622C30.6772 9.89168 30.7416 9.84849 30.8126 9.81917C30.8836 9.78985 30.9596 9.77497 31.0364 9.7754C31.1131 9.77497 31.1891 9.78985 31.2601 9.81917C31.3311 9.84849 31.3956 9.89168 31.4498 9.94622C31.5041 10.0008 31.547 10.0655 31.5762 10.1369C31.6054 10.2082 31.6202 10.2847 31.6198 10.3618C31.6198 10.4387 31.6046 10.5147 31.5753 10.5857C31.5459 10.6567 31.5029 10.7211 31.4487 10.7753C31.3945 10.8295 31.3301 10.8724 31.2594 10.9015C31.1886 10.9306 31.1128 10.9454 31.0364 10.945C30.9599 10.9454 30.8841 10.9306 30.8133 10.9015C30.7426 10.8724 30.6782 10.8295 30.624 10.7753C30.5698 10.7211 30.5268 10.6567 30.4974 10.5857C30.4681 10.5147 30.453 10.4387 30.453 10.3618ZM27.3447 10.3618C27.3443 10.2847 27.3591 10.2082 27.3882 10.1369C27.4174 10.0655 27.4604 10.0008 27.5146 9.94622C27.5689 9.89168 27.6334 9.84849 27.7043 9.81917C27.7753 9.78985 27.8514 9.77497 27.9281 9.7754C28.0048 9.77497 28.0809 9.78985 28.1518 9.81917C28.2228 9.84849 28.2873 9.89168 28.3416 9.94622C28.3958 10.0008 28.4388 10.0655 28.4679 10.1369C28.4971 10.2082 28.5119 10.2847 28.5115 10.3618C28.5115 10.4387 28.4964 10.5147 28.467 10.5857C28.4377 10.6567 28.3946 10.7211 28.3404 10.7753C28.2862 10.8295 28.2219 10.8724 28.1511 10.9015C28.0803 10.9306 28.0046 10.9454 27.9281 10.945C27.8511 10.9463 27.7746 10.9321 27.7031 10.9034C27.6316 10.8746 27.5665 10.8319 27.5116 10.7776C27.4567 10.7233 27.4131 10.6586 27.3834 10.5872C27.3536 10.5158 27.3383 10.4392 27.3383 10.3618H27.3447ZM24.2364 10.3618C24.236 10.2847 24.2508 10.2082 24.28 10.1369C24.3091 10.0655 24.3521 10.0008 24.4063 9.94622C24.4606 9.89168 24.5251 9.84849 24.5961 9.81917C24.667 9.78985 24.7431 9.77497 24.8198 9.7754C24.8965 9.77497 24.9726 9.78985 25.0436 9.81917C25.1145 9.84849 25.179 9.89168 25.2333 9.94622C25.2875 10.0008 25.3305 10.0655 25.3597 10.1369C25.3888 10.2082 25.4036 10.2847 25.4032 10.3618C25.4032 10.4387 25.3881 10.5147 25.3587 10.5857C25.3294 10.6567 25.2864 10.7211 25.2321 10.7753C25.1779 10.8295 25.1136 10.8724 25.0428 10.9015C24.9721 10.9306 24.8963 10.9454 24.8198 10.945C24.7428 10.9463 24.6663 10.9321 24.5948 10.9034C24.5233 10.8746 24.4582 10.8319 24.4033 10.7776C24.3484 10.7233 24.3049 10.6586 24.2751 10.5872C24.2453 10.5158 24.23 10.4392 24.23 10.3618H24.2364ZM21.1281 10.3618C21.1277 10.2847 21.1425 10.2082 21.1717 10.1369C21.2009 10.0655 21.2438 10.0008 21.2981 9.94622C21.3523 9.89168 21.4168 9.84849 21.4878 9.81917C21.5588 9.78985 21.6348 9.77497 21.7115 9.7754C21.788 9.7754 21.8637 9.7906 21.9343 9.82011C22.0049 9.84962 22.069 9.89286 22.1229 9.94735C22.1769 10.0018 22.2195 10.0665 22.2485 10.1376C22.2775 10.2088 22.2922 10.2849 22.2918 10.3618C22.2922 10.4385 22.2775 10.5145 22.2484 10.5855C22.2194 10.6564 22.1767 10.7209 22.1228 10.7751C22.0688 10.8294 22.0047 10.8723 21.9341 10.9014C21.8635 10.9306 21.7879 10.9454 21.7115 10.945C21.6345 10.9463 21.5581 10.9321 21.4866 10.9034C21.4151 10.8746 21.35 10.8319 21.2951 10.7776C21.2402 10.7233 21.1966 10.6586 21.1668 10.5872C21.1371 10.5158 21.1218 10.4392 21.1218 10.3618H21.1281ZM18.0199 10.3618C18.0194 10.2847 18.0342 10.2082 18.0634 10.1369C18.0926 10.0655 18.1355 10.0008 18.1898 9.94622C18.2441 9.89168 18.3085 9.84849 18.3795 9.81917C18.4505 9.78985 18.5265 9.77497 18.6033 9.7754C18.6797 9.7754 18.7554 9.7906 18.826 9.82011C18.8967 9.84962 18.9608 9.89286 19.0147 9.94735C19.0686 10.0018 19.1113 10.0665 19.1402 10.1376C19.1692 10.2088 19.1839 10.2849 19.1835 10.3618C19.1839 10.4385 19.1692 10.5145 19.1402 10.5855C19.1112 10.6564 19.0684 10.7209 19.0145 10.7751C18.9605 10.8294 18.8964 10.8723 18.8258 10.9014C18.7552 10.9306 18.6796 10.9454 18.6033 10.945C18.5268 10.9454 18.451 10.9306 18.3803 10.9015C18.3095 10.8724 18.2451 10.8295 18.1909 10.7753C18.1367 10.7211 18.0937 10.6567 18.0643 10.5857C18.035 10.5147 18.0199 10.4387 18.0199 10.3618ZM14.9116 10.3618C14.9112 10.2847 14.926 10.2082 14.9551 10.1369C14.9843 10.0655 15.0273 10.0008 15.0815 9.94622C15.1358 9.89168 15.2003 9.84849 15.2712 9.81917C15.3422 9.78985 15.4183 9.77497 15.495 9.7754C15.5715 9.7754 15.6472 9.7906 15.7178 9.82011C15.7884 9.84962 15.8525 9.89286 15.9064 9.94735C15.9603 10.0018 16.003 10.0665 16.032 10.1376C16.0609 10.2088 16.0756 10.2849 16.0752 10.3618C16.0756 10.4385 16.0609 10.5145 16.0319 10.5855C16.0029 10.6564 15.9602 10.7209 15.9062 10.7751C15.8522 10.8294 15.7881 10.8723 15.7175 10.9014C15.6469 10.9306 15.5713 10.9454 15.495 10.945C15.418 10.9463 15.3415 10.9321 15.27 10.9034C15.1985 10.8746 15.1334 10.8319 15.0785 10.7776C15.0236 10.7233 14.98 10.6586 14.9503 10.5872C14.9205 10.5158 14.9052 10.4392 14.9052 10.3618H14.9116ZM11.8033 10.3618C11.8029 10.2847 11.8177 10.2082 11.8469 10.1369C11.876 10.0655 11.919 10.0008 11.9733 9.94622C12.0275 9.89168 12.092 9.84849 12.163 9.81917C12.2339 9.78985 12.31 9.77497 12.3867 9.7754C12.4632 9.7754 12.5389 9.7906 12.6095 9.82011C12.6801 9.84962 12.7442 9.89286 12.7981 9.94735C12.852 10.0018 12.8947 10.0665 12.9237 10.1376C12.9527 10.2088 12.9674 10.2849 12.9669 10.3618C12.9674 10.4385 12.9526 10.5145 12.9236 10.5855C12.8946 10.6564 12.8519 10.7209 12.7979 10.7751C12.744 10.8294 12.6798 10.8723 12.6093 10.9014C12.5387 10.9306 12.463 10.9454 12.3867 10.945C12.3097 10.9463 12.2332 10.9321 12.1617 10.9034C12.0902 10.8746 12.0251 10.8319 11.9703 10.7776C11.9154 10.7233 11.8718 10.6586 11.842 10.5872C11.8123 10.5158 11.7969 10.4392 11.7969 10.3618H11.8033ZM8.69505 10.3618C8.69463 10.2847 8.70943 10.2082 8.7386 10.1369C8.76777 10.0655 8.81072 10.0008 8.86498 9.94622C8.91924 9.89168 8.98372 9.84849 9.05469 9.81917C9.12566 9.78985 9.20172 9.77497 9.27845 9.7754C9.35491 9.7754 9.43062 9.7906 9.50122 9.82011C9.57183 9.84962 9.63593 9.89286 9.68985 9.94735C9.74377 10.0018 9.78644 10.0665 9.81541 10.1376C9.84438 10.2088 9.85908 10.2849 9.85866 10.3618C9.85908 10.4385 9.84436 10.5145 9.81535 10.5855C9.78635 10.6564 9.74362 10.7209 9.68966 10.7751C9.6357 10.8294 9.57157 10.8723 9.50099 10.9014C9.4304 10.9306 9.35476 10.9454 9.27845 10.945C9.20145 10.9463 9.12498 10.9321 9.05347 10.9034C8.98197 10.8746 8.91688 10.8319 8.86198 10.7776C8.80709 10.7233 8.76349 10.6586 8.73374 10.5872C8.70398 10.5158 8.68866 10.4392 8.68868 10.3618H8.69505ZM5.58678 10.3618C5.58635 10.2847 5.60115 10.2082 5.63032 10.1369C5.65949 10.0655 5.70245 10.0008 5.75671 9.94622C5.81097 9.89168 5.87545 9.84849 5.94642 9.81917C6.01739 9.78985 6.09345 9.77497 6.17018 9.7754C6.24664 9.7754 6.32235 9.7906 6.39295 9.82011C6.46355 9.84962 6.52766 9.89286 6.58158 9.94735C6.6355 10.0018 6.67817 10.0665 6.70714 10.1376C6.73611 10.2088 6.75081 10.2849 6.75039 10.3618C6.75081 10.4385 6.73609 10.5145 6.70708 10.5855C6.67807 10.6564 6.63535 10.7209 6.58139 10.7751C6.52743 10.8294 6.4633 10.8723 6.39271 10.9014C6.32213 10.9306 6.24649 10.9454 6.17018 10.945C6.09371 10.9454 6.01792 10.9306 5.94716 10.9015C5.8764 10.8724 5.81206 10.8295 5.75784 10.7753C5.70363 10.7211 5.6606 10.6567 5.63125 10.5857C5.60189 10.5147 5.58678 10.4387 5.58678 10.3618Z" fill="black"/>
<path d="M16.7611 49.4742C16.7234 49.4074 16.6992 49.3338 16.6899 49.2575C16.6807 49.1813 16.6867 49.1039 16.7074 49.03C16.7282 48.956 16.7633 48.887 16.8109 48.8268C16.8584 48.7667 16.9174 48.7166 16.9843 48.6795C17.0506 48.6411 17.1239 48.6164 17.1999 48.6069C17.2759 48.5974 17.353 48.6033 17.4266 48.6242C17.5003 48.6451 17.5691 48.6806 17.6289 48.7287C17.6887 48.7767 17.7384 48.8362 17.7749 48.9039C17.8129 48.9707 17.8373 49.0444 17.8468 49.1208C17.8563 49.1971 17.8507 49.2747 17.8302 49.3488C17.8098 49.423 17.7749 49.4924 17.7277 49.5529C17.6804 49.6135 17.6217 49.6641 17.5549 49.7017C17.4684 49.7507 17.3706 49.7761 17.2712 49.7754C17.1671 49.7758 17.0649 49.7481 16.9751 49.6951C16.8854 49.6421 16.8115 49.5658 16.7611 49.4742ZM46.0267 47.872C45.8925 47.7954 45.794 47.6684 45.7527 47.5188C45.7115 47.3692 45.7309 47.2094 45.8068 47.0742C45.8826 46.9396 46.0079 46.8404 46.1558 46.7978C46.3036 46.7553 46.4622 46.7728 46.5974 46.8467C46.7323 46.9235 46.8317 47.0506 46.8741 47.2005C46.9164 47.3505 46.8983 47.5111 46.8237 47.6477C46.7725 47.739 46.6978 47.8147 46.6076 47.8671C46.5173 47.9195 46.4147 47.9467 46.3105 47.9457C46.2118 47.9473 46.1143 47.9242 46.0267 47.8785V47.872ZM15.2437 46.7409C15.2062 46.6742 15.1821 46.6008 15.1729 46.5247C15.1637 46.4487 15.1695 46.3716 15.1899 46.2978C15.2103 46.224 15.245 46.155 15.292 46.0947C15.3389 46.0343 15.3973 45.9839 15.4636 45.9463C15.5986 45.8699 15.7582 45.8503 15.9075 45.8917C16.0568 45.9331 16.1837 46.0322 16.2606 46.1673C16.3352 46.304 16.3533 46.4646 16.311 46.6146C16.2686 46.7645 16.1692 46.8916 16.0343 46.9684C15.9479 47.0178 15.85 47.0433 15.7506 47.0421C15.6476 47.0429 15.5463 47.016 15.4571 46.9642C15.368 46.9123 15.2943 46.8375 15.2437 46.7473V46.7409ZM47.5474 45.1388C47.4803 45.1014 47.4213 45.051 47.3738 44.9906C47.3262 44.9301 47.291 44.8608 47.2703 44.7866C47.2495 44.7124 47.2436 44.6348 47.2529 44.5583C47.2621 44.4818 47.2864 44.4079 47.3242 44.3409C47.4005 44.2059 47.5269 44.1069 47.6757 44.0655C47.8245 44.024 47.9836 44.0436 48.118 44.1198C48.2519 44.196 48.3506 44.3219 48.393 44.4706C48.4353 44.6192 48.4179 44.7786 48.3444 44.9145C48.2933 45.0054 48.2192 45.0811 48.1296 45.134C48.0401 45.1869 47.9382 45.2151 47.8343 45.2157C47.7349 45.2187 47.6362 45.1967 47.5474 45.1516V45.1388ZM13.723 44.0108C13.6852 43.9438 13.6609 43.8699 13.6516 43.7934C13.6424 43.7169 13.6483 43.6393 13.669 43.5651C13.6898 43.4909 13.725 43.4216 13.7725 43.3612C13.8201 43.3007 13.8791 43.2504 13.9462 43.213C14.0815 43.1369 14.2414 43.1177 14.3907 43.1598C14.5401 43.2018 14.6668 43.3016 14.7432 43.4373C14.8176 43.5734 14.8356 43.7336 14.7932 43.883C14.7509 44.0324 14.6515 44.159 14.5168 44.2352C14.4305 44.2851 14.3327 44.3116 14.2331 44.3121C14.1304 44.3131 14.0292 44.287 13.9397 44.2364C13.8502 44.1858 13.7755 44.1124 13.723 44.0237V44.0108ZM49.0649 42.4087C48.9982 42.3713 48.9396 42.3211 48.8923 42.2608C48.8451 42.2005 48.8103 42.1314 48.7898 42.0575C48.7694 41.9836 48.7637 41.9063 48.7732 41.8302C48.7826 41.7541 48.807 41.6806 48.8449 41.614C48.8821 41.5466 48.9322 41.4873 48.9923 41.4395C49.0525 41.3917 49.1215 41.3563 49.1953 41.3355C49.2691 41.3146 49.3463 41.3087 49.4224 41.318C49.4985 41.3273 49.572 41.3517 49.6387 41.3897C49.7729 41.4664 49.8715 41.5932 49.9133 41.7426C49.9551 41.892 49.9366 42.0518 49.8619 42.1876C49.8113 42.2782 49.7378 42.3539 49.6488 42.4067C49.5597 42.4596 49.4584 42.488 49.355 42.4888C49.2545 42.4917 49.1549 42.4697 49.0649 42.4247V42.4087ZM12.2055 41.2808C12.1677 41.2137 12.1434 41.1398 12.1342 41.0633C12.1249 40.9868 12.1308 40.9092 12.1516 40.835C12.1723 40.7608 12.2075 40.6915 12.2551 40.6311C12.3026 40.5706 12.3616 40.5203 12.4287 40.4829C12.5641 40.408 12.7235 40.3899 12.8721 40.4325C13.0208 40.4751 13.1467 40.575 13.2225 40.7104C13.297 40.8465 13.315 41.0067 13.2726 41.1561C13.2302 41.3055 13.1309 41.4321 12.9962 41.5083C12.9097 41.5577 12.8118 41.5831 12.7124 41.582C12.6106 41.5828 12.5103 41.5569 12.4214 41.5069C12.3325 41.4569 12.2581 41.3845 12.2055 41.2968V41.2808ZM50.5855 39.6786C50.5185 39.6412 50.4595 39.5909 50.4119 39.5304C50.3643 39.47 50.3292 39.4006 50.3084 39.3264C50.2877 39.2523 50.2817 39.1747 50.291 39.0981C50.3003 39.0216 50.3245 38.9478 50.3624 38.8807C50.4381 38.7452 50.5643 38.6455 50.7131 38.6035C50.8619 38.5614 51.0213 38.5805 51.1562 38.6564C51.2909 38.7326 51.3902 38.8592 51.4326 39.0086C51.475 39.158 51.457 39.3182 51.3825 39.4543C51.3314 39.5452 51.2574 39.6209 51.1678 39.6738C51.0782 39.7267 50.9763 39.7549 50.8725 39.7555C50.7739 39.7599 50.6757 39.7413 50.5855 39.701V39.6786ZM10.6881 38.5603C10.6508 38.4932 10.6272 38.4194 10.6184 38.3431C10.6096 38.2668 10.6159 38.1895 10.637 38.1157C10.658 38.0419 10.6933 37.9729 10.7409 37.9128C10.7886 37.8528 10.8475 37.8027 10.9144 37.7656C10.9808 37.7277 11.0541 37.7033 11.13 37.694C11.2059 37.6848 11.2828 37.6908 11.3564 37.7116C11.4299 37.7325 11.4986 37.7678 11.5585 37.8156C11.6183 37.8634 11.6681 37.9226 11.705 37.9899C11.7797 38.1257 11.7982 38.2856 11.7565 38.4349C11.7147 38.5843 11.616 38.7111 11.4819 38.7878C11.3953 38.8368 11.2975 38.8622 11.1981 38.8615C11.0942 38.8612 10.9922 38.8332 10.9025 38.7803C10.8129 38.7273 10.7389 38.6514 10.6881 38.5603ZM52.1062 36.9581C51.972 36.8815 51.8734 36.7544 51.8322 36.6049C51.791 36.4553 51.8104 36.2954 51.8862 36.1603C51.9237 36.0931 51.974 36.0341 52.0343 35.9866C52.0945 35.9391 52.1635 35.9041 52.2373 35.8836C52.3111 35.863 52.3882 35.8573 52.4642 35.8669C52.5402 35.8764 52.6135 35.901 52.68 35.9392C52.814 36.0153 52.9126 36.1415 52.9544 36.2903C52.9962 36.4392 52.9778 36.5986 52.9032 36.7338C52.8521 36.8254 52.7776 36.9017 52.6873 36.9546C52.5971 37.0076 52.4944 37.0353 52.3899 37.035C52.2907 37.0396 52.1919 37.0187 52.103 36.9742L52.1062 36.9581ZM9.17058 35.8302C9.09585 35.6945 9.07737 35.5346 9.11915 35.3852C9.16092 35.2359 9.25958 35.1091 9.39374 35.0323C9.46061 34.9944 9.53431 34.9702 9.61055 34.9611C9.6868 34.9521 9.76408 34.9583 9.83792 34.9795C9.91175 35.0006 9.98068 35.0363 10.0407 35.0844C10.1007 35.1325 10.1506 35.1922 10.1875 35.2598C10.2248 35.3269 10.2484 35.4007 10.2572 35.477C10.266 35.5533 10.2597 35.6306 10.2386 35.7045C10.2176 35.7783 10.1823 35.8472 10.1347 35.9073C10.087 35.9674 10.0281 36.0174 9.9612 36.0545C9.87498 36.1047 9.77712 36.1313 9.67747 36.1314C9.5752 36.1321 9.47448 36.1062 9.3851 36.0563C9.29573 36.0063 9.22073 35.934 9.16739 35.8462L9.17058 35.8302ZM53.6269 34.228C53.56 34.1901 53.5012 34.1392 53.4539 34.0784C53.4066 34.0175 53.3718 33.9479 53.3513 33.8734C53.3309 33.799 53.3253 33.7213 53.3348 33.6446C53.3443 33.568 53.3688 33.494 53.4069 33.427C53.4444 33.3603 53.4945 33.3016 53.5545 33.2544C53.6145 33.2072 53.6832 33.1723 53.7566 33.1518C53.8301 33.1313 53.9068 33.1255 53.9824 33.1348C54.0581 33.144 54.1312 33.1682 54.1975 33.2059C54.2646 33.2433 54.3236 33.2936 54.3711 33.3541C54.4187 33.4145 54.4539 33.4838 54.4746 33.558C54.4954 33.6322 54.5013 33.7098 54.492 33.7863C54.4828 33.8628 54.4585 33.9367 54.4207 34.0038C54.3698 34.0949 54.2958 34.1708 54.2062 34.2237C54.1165 34.2767 54.0145 34.3047 53.9106 34.3049C53.8119 34.3115 53.7132 34.2928 53.6237 34.2505L53.6269 34.228ZM7.64673 33.113C7.57226 32.9768 7.55427 32.8166 7.59665 32.6672C7.63903 32.5178 7.73837 32.3913 7.87308 32.3151C7.9396 32.2768 8.01308 32.2523 8.08918 32.243C8.16528 32.2337 8.24246 32.2399 8.31616 32.2611C8.38985 32.2823 8.45858 32.3181 8.51827 32.3665C8.57796 32.4148 8.62741 32.4747 8.66369 32.5426C8.70154 32.6096 8.7258 32.6835 8.73507 32.76C8.74433 32.8365 8.73841 32.9141 8.71766 32.9883C8.69691 33.0625 8.66174 33.1318 8.61417 33.1923C8.5666 33.2527 8.50759 33.3031 8.44053 33.3405C8.35338 33.388 8.25596 33.4133 8.15681 33.4142C8.05286 33.4139 7.95085 33.3858 7.86122 33.3329C7.7716 33.28 7.69757 33.2041 7.64673 33.113ZM55.1475 31.5108C55.0125 31.434 54.9132 31.3067 54.8714 31.1566C54.8296 31.0064 54.8486 30.8458 54.9244 30.7097C54.9616 30.6423 55.0117 30.583 55.0718 30.5352C55.132 30.4874 55.2009 30.452 55.2747 30.4312C55.3485 30.4103 55.4257 30.4044 55.5019 30.4137C55.578 30.423 55.6515 30.4474 55.7182 30.4854C55.8524 30.5621 55.951 30.6891 55.9922 30.8387C56.0334 30.9882 56.014 31.1481 55.9381 31.2833C55.8883 31.3746 55.815 31.4508 55.7258 31.5038C55.6366 31.5568 55.5349 31.5846 55.4313 31.5845C55.3323 31.5906 55.2334 31.5708 55.1443 31.5268L55.1475 31.5108ZM6.12925 30.3925C6.0919 30.3256 6.06805 30.252 6.05905 30.1758C6.05005 30.0996 6.05609 30.0224 6.07682 29.9486C6.09755 29.8748 6.13256 29.8058 6.17985 29.7456C6.22714 29.6854 6.28578 29.6352 6.35241 29.5978C6.41891 29.5596 6.49226 29.5351 6.56824 29.5255C6.64422 29.516 6.72133 29.5216 6.79512 29.5422C6.86892 29.5628 6.93793 29.5978 6.99819 29.6453C7.05845 29.6928 7.10876 29.7518 7.14622 29.8189C7.22195 29.955 7.24099 30.1156 7.19917 30.2658C7.15734 30.4159 7.05807 30.5432 6.92306 30.62C6.83632 30.6685 6.73862 30.6939 6.63933 30.6937C6.53538 30.6934 6.43337 30.6654 6.34375 30.6124C6.25412 30.5595 6.1801 30.4836 6.12925 30.3925ZM56.6618 28.7903C56.5949 28.7524 56.5361 28.7015 56.4889 28.6406C56.4416 28.5798 56.4067 28.5101 56.3863 28.4357C56.3658 28.3613 56.3602 28.2835 56.3698 28.2069C56.3793 28.1303 56.4038 28.0563 56.4418 27.9892C56.479 27.9222 56.529 27.8633 56.589 27.8158C56.649 27.7684 56.7177 27.7334 56.7912 27.7128C56.8648 27.6922 56.9416 27.6865 57.0174 27.696C57.0931 27.7055 57.1662 27.73 57.2325 27.7681C57.2994 27.8052 57.3583 27.8553 57.4059 27.9154C57.4534 27.9756 57.4886 28.0446 57.5093 28.1186C57.5301 28.1925 57.536 28.2699 57.5268 28.3461C57.5176 28.4224 57.4934 28.496 57.4556 28.5628C57.4053 28.6544 57.3314 28.7307 57.2416 28.7837C57.1519 28.8367 57.0496 28.8644 56.9455 28.864C56.8471 28.8672 56.7494 28.8452 56.6618 28.7999V28.7903ZM4.60859 27.6656C4.53413 27.5295 4.51613 27.3693 4.55851 27.2199C4.6009 27.0705 4.70024 26.9439 4.83494 26.8677C4.90129 26.8301 4.97438 26.8059 5.05003 26.7966C5.12567 26.7873 5.20239 26.7931 5.27581 26.8137C5.34923 26.8342 5.41791 26.8691 5.47792 26.9163C5.53793 26.9635 5.58809 27.0221 5.62556 27.0888C5.66361 27.1559 5.6881 27.2299 5.69764 27.3065C5.70718 27.3831 5.70156 27.4609 5.68113 27.5353C5.66069 27.6097 5.62583 27.6794 5.57854 27.7402C5.53126 27.8011 5.47248 27.8519 5.40559 27.8899C5.31884 27.9385 5.22115 27.9638 5.12186 27.9636C5.01781 27.9636 4.91561 27.936 4.82552 27.8837C4.73543 27.8314 4.66061 27.7562 4.60859 27.6656ZM58.1889 26.0634C58.0538 25.9867 57.9546 25.8593 57.9127 25.7092C57.8709 25.5591 57.89 25.3984 57.9657 25.2624C58.042 25.1274 58.1684 25.0284 58.3171 24.987C58.4659 24.9455 58.625 24.965 58.7595 25.0413C58.8263 25.0789 58.885 25.1295 58.9322 25.1901C58.9795 25.2506 59.0143 25.32 59.0348 25.3942C59.0552 25.4683 59.0609 25.5458 59.0514 25.6222C59.0419 25.6986 59.0174 25.7723 58.9795 25.8391C58.929 25.9296 58.8554 26.005 58.7663 26.0574C58.6772 26.1097 58.5758 26.1373 58.4726 26.1371C58.3732 26.1378 58.2754 26.1124 58.1889 26.0634ZM56.0943 24.7817C56.0939 24.7049 56.1086 24.6287 56.1376 24.5575C56.1666 24.4864 56.2092 24.4218 56.2632 24.3673C56.3171 24.3128 56.3812 24.2695 56.4518 24.24C56.5224 24.2105 56.5981 24.1953 56.6746 24.1953C56.7513 24.1949 56.8273 24.2098 56.8983 24.2391C56.9693 24.2684 57.0338 24.3116 57.088 24.3661C57.1423 24.4207 57.1852 24.4855 57.2144 24.5568C57.2436 24.6281 57.2584 24.7046 57.258 24.7817C57.2584 24.8588 57.2436 24.9353 57.2144 25.0066C57.1852 25.078 57.1423 25.1428 57.088 25.1973C57.0338 25.2518 56.9693 25.295 56.8983 25.3243C56.8273 25.3537 56.7513 25.3685 56.6746 25.3681C56.5976 25.369 56.5212 25.3544 56.4498 25.3253C56.3785 25.2961 56.3136 25.253 56.259 25.1985C56.2044 25.1439 56.1612 25.0789 56.1318 25.0074C56.1024 24.9358 56.0876 24.8591 56.088 24.7817H56.0943ZM52.9861 24.7817C52.9857 24.7049 53.0004 24.6287 53.0293 24.5575C53.0583 24.4864 53.101 24.4218 53.1549 24.3673C53.2088 24.3128 53.2729 24.2695 53.3435 24.24C53.4141 24.2105 53.4898 24.1953 53.5663 24.1953C53.643 24.1949 53.7191 24.2098 53.79 24.2391C53.861 24.2684 53.9255 24.3116 53.9798 24.3661C54.034 24.4207 54.077 24.4855 54.1061 24.5568C54.1353 24.6281 54.1501 24.7046 54.1497 24.7817C54.1501 24.8588 54.1353 24.9353 54.1061 25.0066C54.077 25.078 54.034 25.1428 53.9798 25.1973C53.9255 25.2518 53.861 25.295 53.79 25.3243C53.7191 25.3537 53.643 25.3685 53.5663 25.3681C53.4893 25.369 53.4129 25.3544 53.3416 25.3253C53.2702 25.2961 53.2054 25.253 53.1508 25.1985C53.0962 25.1439 53.0529 25.0789 53.0235 25.0074C52.9942 24.9358 52.9793 24.8591 52.9797 24.7817H52.9861ZM49.8778 24.7817C49.8774 24.7049 49.8921 24.6287 49.9211 24.5575C49.95 24.4864 49.9927 24.4218 50.0466 24.3673C50.1005 24.3128 50.1646 24.2695 50.2352 24.24C50.3058 24.2105 50.3816 24.1953 50.458 24.1953C50.5347 24.1949 50.6108 24.2098 50.6818 24.2391C50.7527 24.2684 50.8172 24.3116 50.8715 24.3661C50.9257 24.4207 50.9687 24.4855 50.9979 24.5568C51.027 24.6281 51.0418 24.7046 51.0414 24.7817C51.0418 24.8588 51.027 24.9353 50.9979 25.0066C50.9687 25.078 50.9257 25.1428 50.8715 25.1973C50.8172 25.2518 50.7527 25.295 50.6818 25.3243C50.6108 25.3537 50.5347 25.3685 50.458 25.3681C50.381 25.369 50.3046 25.3544 50.2333 25.3253C50.1619 25.2961 50.0971 25.253 50.0425 25.1985C49.9879 25.1439 49.9446 25.0789 49.9153 25.0074C49.8859 24.9358 49.871 24.8591 49.8714 24.7817H49.8778ZM46.7695 24.7817C46.7691 24.7049 46.7838 24.6287 46.8128 24.5575C46.8418 24.4864 46.8844 24.4218 46.9383 24.3673C46.9923 24.3128 47.0564 24.2695 47.127 24.24C47.1976 24.2105 47.2733 24.1953 47.3497 24.1953C47.4265 24.1949 47.5025 24.2098 47.5735 24.2391C47.6445 24.2684 47.709 24.3116 47.7632 24.3661C47.8175 24.4207 47.8604 24.4855 47.8896 24.5568C47.9188 24.6281 47.9336 24.7046 47.9331 24.7817C47.9336 24.8588 47.9188 24.9353 47.8896 25.0066C47.8604 25.078 47.8175 25.1428 47.7632 25.1973C47.709 25.2518 47.6445 25.295 47.5735 25.3243C47.5025 25.3537 47.4265 25.3685 47.3497 25.3681C47.2727 25.369 47.1963 25.3544 47.125 25.3253C47.0537 25.2961 46.9888 25.253 46.9342 25.1985C46.8796 25.1439 46.8364 25.0789 46.807 25.0074C46.7776 24.9358 46.7627 24.8591 46.7632 24.7817H46.7695ZM43.6613 24.7817C43.6608 24.7049 43.6755 24.6287 43.7045 24.5575C43.7335 24.4864 43.7761 24.4218 43.8301 24.3673C43.884 24.3128 43.9481 24.2695 44.0187 24.24C44.0893 24.2105 44.165 24.1953 44.2415 24.1953C44.3182 24.1949 44.3943 24.2098 44.4652 24.2391C44.5362 24.2684 44.6007 24.3116 44.6549 24.3661C44.7092 24.4207 44.7522 24.4855 44.7813 24.5568C44.8105 24.6281 44.8253 24.7046 44.8249 24.7817C44.8253 24.8588 44.8105 24.9353 44.7813 25.0066C44.7522 25.078 44.7092 25.1428 44.6549 25.1973C44.6007 25.2518 44.5362 25.295 44.4652 25.3243C44.3943 25.3537 44.3182 25.3685 44.2415 25.3681C44.1645 25.369 44.0881 25.3544 44.0167 25.3253C43.9454 25.2961 43.8805 25.253 43.8259 25.1985C43.7713 25.1439 43.7281 25.0789 43.6987 25.0074C43.6694 24.9358 43.6545 24.8591 43.6549 24.7817H43.6613ZM40.553 24.7817C40.5526 24.7049 40.5673 24.6287 40.5962 24.5575C40.6252 24.4864 40.6679 24.4218 40.7218 24.3673C40.7757 24.3128 40.8398 24.2695 40.9104 24.24C40.981 24.2105 41.0567 24.1953 41.1332 24.1953C41.2099 24.1949 41.286 24.2098 41.3569 24.2391C41.4279 24.2684 41.4924 24.3116 41.5467 24.3661C41.6009 24.4207 41.6439 24.4855 41.673 24.5568C41.7022 24.6281 41.717 24.7046 41.7166 24.7817C41.717 24.8588 41.7022 24.9353 41.673 25.0066C41.6439 25.078 41.6009 25.1428 41.5467 25.1973C41.4924 25.2518 41.4279 25.295 41.3569 25.3243C41.286 25.3537 41.2099 25.3685 41.1332 25.3681C41.0562 25.369 40.9798 25.3544 40.9085 25.3253C40.8371 25.2961 40.7723 25.253 40.7177 25.1985C40.6631 25.1439 40.6198 25.0789 40.5905 25.0074C40.5611 24.9358 40.5462 24.8591 40.5466 24.7817H40.553ZM37.4447 24.7817C37.4443 24.7049 37.459 24.6287 37.488 24.5575C37.5169 24.4864 37.5596 24.4218 37.6135 24.3673C37.6674 24.3128 37.7315 24.2695 37.8021 24.24C37.8727 24.2105 37.9485 24.1953 38.0249 24.1953C38.1796 24.1953 38.328 24.2571 38.4374 24.3671C38.5469 24.477 38.6083 24.6262 38.6083 24.7817C38.6083 24.8587 38.5932 24.935 38.5639 25.0061C38.5346 25.0773 38.4916 25.1419 38.4374 25.1964C38.3833 25.2508 38.319 25.294 38.2482 25.3235C38.1774 25.3529 38.1015 25.3681 38.0249 25.3681C37.9479 25.369 37.8715 25.3544 37.8002 25.3253C37.7288 25.2961 37.664 25.253 37.6094 25.1985C37.5548 25.1439 37.5115 25.0789 37.4822 25.0074C37.4528 24.9358 37.4379 24.8591 37.4383 24.7817H37.4447ZM34.3332 24.7817C34.3332 24.6262 34.3947 24.477 34.5041 24.3671C34.6135 24.2571 34.7619 24.1953 34.9166 24.1953C35.0714 24.1953 35.2198 24.2571 35.3292 24.3671C35.4386 24.477 35.5 24.6262 35.5 24.7817C35.5 24.8587 35.485 24.935 35.4556 25.0061C35.4263 25.0773 35.3833 25.1419 35.3292 25.1964C35.275 25.2508 35.2107 25.294 35.1399 25.3235C35.0691 25.3529 34.9933 25.3681 34.9166 25.3681C34.8395 25.369 34.763 25.3544 34.6914 25.3253C34.6199 25.2962 34.5548 25.2532 34.5 25.1986C34.4451 25.1441 34.4016 25.0792 34.3719 25.0076C34.3422 24.936 34.3269 24.8593 34.3269 24.7817H34.3332ZM31.225 24.7817C31.225 24.6262 31.2864 24.477 31.3958 24.3671C31.5053 24.2571 31.6536 24.1953 31.8084 24.1953C31.9631 24.1953 32.1115 24.2571 32.2209 24.3671C32.3303 24.477 32.3918 24.6262 32.3918 24.7817C32.3918 24.8587 32.3767 24.935 32.3474 25.0061C32.318 25.0773 32.2751 25.1419 32.2209 25.1964C32.1667 25.2508 32.1024 25.294 32.0316 25.3235C31.9609 25.3529 31.885 25.3681 31.8084 25.3681C31.7312 25.369 31.6547 25.3544 31.5832 25.3253C31.5116 25.2962 31.4466 25.2532 31.3917 25.1986C31.3369 25.1441 31.2933 25.0792 31.2636 25.0076C31.2339 24.936 31.2186 24.8593 31.2186 24.7817H31.225ZM28.1167 24.7817C28.1167 24.6262 28.1782 24.477 28.2876 24.3671C28.397 24.2571 28.5454 24.1953 28.7001 24.1953C28.8548 24.1953 29.0032 24.2571 29.1126 24.3671C29.222 24.477 29.2835 24.6262 29.2835 24.7817C29.2835 24.8587 29.2684 24.935 29.2391 25.0061C29.2098 25.0773 29.1668 25.1419 29.1126 25.1964C29.0585 25.2508 28.9941 25.294 28.9234 25.3235C28.8526 25.3529 28.7767 25.3681 28.7001 25.3681C28.623 25.369 28.5464 25.3544 28.4749 25.3253C28.4034 25.2962 28.3383 25.2532 28.2834 25.1986C28.2286 25.1441 28.1851 25.0792 28.1553 25.0076C28.1256 24.936 28.1103 24.8593 28.1103 24.7817H28.1167ZM25.0084 24.7817C25.0084 24.6262 25.0699 24.477 25.1793 24.3671C25.2887 24.2571 25.4371 24.1953 25.5918 24.1953C25.7466 24.1953 25.8949 24.2571 26.0044 24.3671C26.1138 24.477 26.1752 24.6262 26.1752 24.7817C26.1752 24.8587 26.1601 24.935 26.1308 25.0061C26.1015 25.0773 26.0585 25.1419 26.0044 25.1964C25.9502 25.2508 25.8859 25.294 25.8151 25.3235C25.7443 25.3529 25.6684 25.3681 25.5918 25.3681C25.5147 25.369 25.4381 25.3544 25.3666 25.3253C25.2951 25.2962 25.23 25.2532 25.1752 25.1986C25.1203 25.1441 25.0768 25.0792 25.0471 25.0076C25.0173 24.936 25.002 24.8593 25.0021 24.7817H25.0084ZM21.9002 24.7817C21.9002 24.6262 21.9616 24.477 22.071 24.3671C22.1804 24.2571 22.3288 24.1953 22.4836 24.1953C22.6383 24.1953 22.7867 24.2571 22.8961 24.3671C23.0055 24.477 23.067 24.6262 23.067 24.7817C23.067 24.8587 23.0519 24.935 23.0225 25.0061C22.9932 25.0773 22.9503 25.1419 22.8961 25.1964C22.8419 25.2508 22.7776 25.294 22.7068 25.3235C22.636 25.3529 22.5602 25.3681 22.4836 25.3681C22.4064 25.369 22.3299 25.3544 22.2583 25.3253C22.1868 25.2962 22.1217 25.2532 22.0669 25.1986C22.012 25.1441 21.9685 25.0792 21.9388 25.0076C21.9091 24.936 21.8938 24.8593 21.8938 24.7817H21.9002ZM18.7919 24.7817C18.7919 24.7047 18.807 24.6285 18.8363 24.5573C18.8656 24.4862 18.9086 24.4215 18.9628 24.3671C19.0169 24.3126 19.0812 24.2694 19.152 24.24C19.2228 24.2105 19.2987 24.1953 19.3753 24.1953C19.53 24.1953 19.6784 24.2571 19.7878 24.3671C19.8972 24.477 19.9587 24.6262 19.9587 24.7817C19.9587 24.8587 19.9436 24.935 19.9143 25.0061C19.885 25.0773 19.842 25.1419 19.7878 25.1964C19.7336 25.2508 19.6693 25.294 19.5985 25.3235C19.5278 25.3529 19.4519 25.3681 19.3753 25.3681C19.2981 25.369 19.2216 25.3544 19.1501 25.3253C19.0785 25.2962 19.0135 25.2532 18.9586 25.1986C18.9038 25.1441 18.8602 25.0792 18.8305 25.0076C18.8008 24.936 18.7855 24.8593 18.7855 24.7817H18.7919ZM15.6836 24.7817C15.6836 24.6262 15.7451 24.477 15.8545 24.3671C15.9639 24.2571 16.1123 24.1953 16.267 24.1953C16.4217 24.1953 16.5701 24.2571 16.6795 24.3671C16.7889 24.477 16.8504 24.6262 16.8504 24.7817C16.8504 24.8587 16.8353 24.935 16.806 25.0061C16.7767 25.0773 16.7337 25.1419 16.6795 25.1964C16.6254 25.2508 16.561 25.294 16.4903 25.3235C16.4195 25.3529 16.3436 25.3681 16.267 25.3681C16.1899 25.369 16.1133 25.3544 16.0418 25.3253C15.9703 25.2962 15.9052 25.2532 15.8504 25.1986C15.7955 25.1441 15.752 25.0792 15.7222 25.0076C15.6925 24.936 15.6772 24.8593 15.6772 24.7817H15.6836ZM12.5753 24.7817C12.5753 24.6262 12.6368 24.477 12.7462 24.3671C12.8556 24.2571 13.004 24.1953 13.1587 24.1953C13.2353 24.1953 13.3112 24.2105 13.382 24.24C13.4528 24.2694 13.5171 24.3126 13.5713 24.3671C13.6254 24.4215 13.6684 24.4862 13.6977 24.5573C13.727 24.6285 13.7421 24.7047 13.7421 24.7817C13.7421 24.8587 13.727 24.935 13.6977 25.0061C13.6684 25.0773 13.6254 25.1419 13.5713 25.1964C13.5171 25.2508 13.4528 25.294 13.382 25.3235C13.3112 25.3529 13.2353 25.3681 13.1587 25.3681C13.0816 25.369 13.005 25.3544 12.9335 25.3253C12.862 25.2962 12.7969 25.2532 12.7421 25.1986C12.6872 25.1441 12.6437 25.0792 12.614 25.0076C12.5843 24.936 12.569 24.8593 12.569 24.7817H12.5753ZM9.46706 24.7817C9.46706 24.6262 9.52853 24.477 9.63794 24.3671C9.74734 24.2571 9.89573 24.1953 10.0505 24.1953C10.2052 24.1953 10.3536 24.2571 10.463 24.3671C10.5724 24.477 10.6339 24.6262 10.6339 24.7817C10.6339 24.8587 10.6188 24.935 10.5895 25.0061C10.5601 25.0773 10.5172 25.1419 10.463 25.1964C10.4088 25.2508 10.3445 25.294 10.2737 25.3235C10.2029 25.3529 10.1271 25.3681 10.0505 25.3681C9.97331 25.369 9.89677 25.3544 9.82525 25.3253C9.75373 25.2962 9.68866 25.2532 9.63381 25.1986C9.57896 25.1441 9.53541 25.0792 9.5057 25.0076C9.47598 24.936 9.46068 24.8593 9.46069 24.7817H9.46706ZM6.35879 24.7817C6.35879 24.6262 6.42025 24.477 6.52966 24.3671C6.63907 24.2571 6.78746 24.1953 6.94219 24.1953C7.09692 24.1953 7.24531 24.2571 7.35471 24.3671C7.46412 24.477 7.52559 24.6262 7.52559 24.7817C7.52559 24.8587 7.5105 24.935 7.48118 25.0061C7.45186 25.0773 7.40889 25.1419 7.35471 25.1964C7.30054 25.2508 7.23623 25.294 7.16545 25.3235C7.09466 25.3529 7.0188 25.3681 6.94219 25.3681C6.86504 25.369 6.78849 25.3544 6.71697 25.3253C6.64545 25.2962 6.58039 25.2532 6.52554 25.1986C6.47068 25.1441 6.42714 25.0792 6.39742 25.0076C6.36771 24.936 6.35241 24.8593 6.35241 24.7817H6.35879ZM3.25052 24.7817C3.25052 24.6262 3.31198 24.477 3.42139 24.3671C3.5308 24.2571 3.67919 24.1953 3.83392 24.1953C3.98864 24.1953 4.13703 24.2571 4.24644 24.3671C4.35585 24.477 4.41731 24.6262 4.41731 24.7817C4.41731 24.8587 4.40222 24.935 4.3729 25.0061C4.34359 25.0773 4.30061 25.1419 4.24644 25.1964C4.19227 25.2508 4.12795 25.294 4.05717 25.3235C3.98639 25.3529 3.91053 25.3681 3.83392 25.3681C3.75677 25.369 3.68022 25.3544 3.6087 25.3253C3.53718 25.2962 3.47211 25.2532 3.41726 25.1986C3.36241 25.1441 3.31887 25.0792 3.28915 25.0076C3.25944 24.936 3.24414 24.8593 3.24414 24.7817H3.25052Z" fill="black"/>
</g>
<defs>
<clipPath id="clip0_242_1578">
<rect width="63" height="57" fill="white"/>
</clipPath>
</defs>
</svg>
