<svg width="25" height="29" viewBox="0 0 25 29" fill="none" xmlns="http://www.w3.org/2000/svg">
<g id="iconamoon:shopping-bag-light">
<g id="Group">
<path id="Vector" d="M2 8.75H22L20.9563 20.2262C20.8998 20.8474 20.6132 21.425 20.1528 21.8457C19.6923 22.2664 19.0912 22.4998 18.4675 22.5H5.5325C4.9088 22.4998 4.30771 22.2664 3.84725 21.8457C3.38678 21.425 3.1002 20.8474 3.04375 20.2262L2 8.75Z" stroke="#595959" stroke-width="1.5" stroke-linejoin="round"/>
<path id="Vector_2" d="M7 11.25V7.5C7 6.17392 7.52678 4.90215 8.46447 3.96447C9.40215 3.02678 10.6739 2.5 12 2.5C13.3261 2.5 14.5979 3.02678 15.5355 3.96447C16.4732 4.90215 17 6.17392 17 7.5V11.25" stroke="#595959" stroke-width="1.5" stroke-linecap="round"/>
</g>
</g>
</svg>
