<svg width="231" height="17" viewBox="0 0 231 17" fill="none" xmlns="http://www.w3.org/2000/svg">
<g id="&#208;&#145;&#208;&#181;&#208;&#183;&#209;&#139;&#208;&#188;&#209;&#143;&#208;&#189;&#208;&#189;&#209;&#139;&#208;&#184;&#204;&#134;-2 [&#208;&#146;&#208;&#190;&#209;&#129;&#209;&#129;&#209;&#130;&#208;&#176;&#208;&#189;&#208;&#190;&#208;&#178;&#208;&#187;&#208;&#181;&#208;&#189;] 1" clip-path="url(#clip0_312_3)">
<path id="Vector" d="M219.151 0V6.03603C219.169 6.77843 219.019 7.51525 218.713 8.19142C218.462 8.7512 218.069 9.23488 217.573 9.59406C217.121 9.91602 216.621 10.1638 216.092 10.3281C215.573 10.4873 215.033 10.5676 214.49 10.5666C213.978 10.5629 213.474 10.4403 213.017 10.2084C212.56 9.97639 212.162 9.64132 211.855 9.22938C211.116 8.3315 210.724 7.19599 210.752 6.03135V0H208.95V6.03603C208.918 6.71272 209.048 7.38729 209.329 8.00314C209.61 8.61898 210.034 9.15813 210.566 9.57536C211.709 10.4024 213.082 10.8475 214.49 10.8475C215.899 10.8475 217.272 10.4024 218.415 9.57536C218.946 9.15735 219.369 8.61806 219.65 8.0024C219.931 7.38675 220.062 6.71257 220.031 6.03603V0H219.151Z" fill="#595959"/>
<path id="Vector_2" d="M209.216 16.71C209.272 15.8584 209.598 15.0472 210.147 14.3957C210.699 13.6995 211.407 13.145 212.214 12.778C212.986 12.4068 213.84 12.2379 214.694 12.287C215.549 12.336 216.378 12.6014 217.103 13.0585C217.861 13.5141 218.5 14.1459 218.965 14.9006C219.366 15.5295 219.585 16.2579 219.598 17.0046H219.789C219.817 16.1028 219.658 15.205 219.324 14.3676C218.953 13.4653 218.342 12.6825 217.559 12.1047C216.739 11.5181 215.771 11.1761 214.766 11.1182C213.761 11.0603 212.76 11.2888 211.879 11.7774C211.034 12.2602 210.339 12.9692 209.872 13.8253C209.384 14.7064 209.105 15.6888 209.058 16.696L209.216 16.71Z" fill="#595959"/>
<path id="Vector_3" d="M216.014 4.02119C215.67 3.94532 215.357 3.76961 215.113 3.51599C214.869 3.26237 214.704 2.9421 214.64 2.59518C214.609 2.3961 214.559 2.20042 214.491 2.01074C214.42 2.19973 214.369 2.39558 214.338 2.59518C214.274 2.94622 214.107 3.26998 213.858 3.52432C213.609 3.77866 213.289 3.9518 212.941 4.02119L212.647 4.08665C212.772 4.13553 212.899 4.17613 213.029 4.20821C213.356 4.29348 213.652 4.47079 213.882 4.71928C214.113 4.96776 214.267 5.27709 214.328 5.61085C214.358 5.7975 214.407 5.98073 214.473 6.15788C214.538 5.98073 214.587 5.7975 214.617 5.61085C214.677 5.27686 214.832 4.96726 215.062 4.71868C215.292 4.47011 215.588 4.29296 215.916 4.20821C216.045 4.17544 216.173 4.13485 216.298 4.08665L216.014 4.02119Z" fill="#595959"/>
<path id="Vector_4" d="M181.155 8.85525C178.278 8.65265 176.338 7.82197 175.336 6.36322C174.978 5.87461 174.774 5.28925 174.752 4.68311C174.73 4.07698 174.889 3.47808 175.21 2.96416C175.88 1.73919 177.068 0.916303 178.772 0.495511C179.275 0.376287 179.787 0.29965 180.303 0.266411C181.373 0.217577 182.444 0.311918 183.488 0.546942C184.451 0.738846 185.354 1.16238 186.118 1.78127L185.942 1.95425C185.216 1.33827 184.343 0.922555 183.409 0.747983C182.398 0.517181 181.362 0.424395 180.327 0.472133C179.713 0.497739 179.113 0.668103 178.577 0.969443C178.041 1.27078 177.583 1.69464 177.24 2.20673C176.876 2.6585 176.628 3.19361 176.519 3.76456C176.41 4.33552 176.444 4.92462 176.616 5.47956C177.047 6.85727 178.277 7.72223 180.303 8.07445C180.643 8.12748 180.985 8.16182 181.328 8.17731C182.307 8.24334 183.276 8.42378 184.214 8.71498C184.946 8.93274 185.636 9.27427 186.253 9.72489C186.739 10.0817 187.142 10.5394 187.436 11.0667C187.693 11.517 187.818 12.0305 187.799 12.5489C187.767 13.0829 187.598 13.5996 187.31 14.0497C186.986 14.5698 186.56 15.0184 186.058 15.3682C185.428 15.8011 184.734 16.1294 184 16.3407C183.092 16.6139 182.154 16.771 181.207 16.8082C180.142 16.8743 179.074 16.7845 178.036 16.5417C177.076 16.3401 176.178 15.9122 175.415 15.2934L175.592 15.1438C176.323 15.747 177.194 16.1541 178.125 16.3266C179.135 16.5574 180.172 16.6502 181.207 16.6025C181.853 16.5733 182.491 16.4423 183.097 16.2144C183.646 16.0148 184.157 15.7205 184.605 15.3448C185.001 15.0077 185.339 14.6082 185.606 14.1619C185.858 13.7509 186.025 13.2928 186.095 12.8154C186.162 12.3554 186.106 11.8857 185.932 11.4548C185.749 10.9994 185.471 10.5883 185.117 10.2485C184.667 9.82994 184.134 9.51132 183.553 9.31344C182.781 9.04123 181.973 8.88678 181.155 8.85525Z" fill="#595959"/>
<path id="Vector_5" d="M193.302 1.21083C194.7 0.557984 196.223 0.219727 197.765 0.219727C199.306 0.219727 200.829 0.557984 202.227 1.21083C203.569 1.85725 204.706 2.86373 205.514 4.11897C206.324 5.43641 206.753 6.95406 206.753 8.50222C206.753 10.0504 206.324 11.568 205.514 12.8855C204.708 14.1418 203.57 15.1486 202.227 15.7936C200.83 16.4496 199.307 16.7895 197.765 16.7895C196.222 16.7895 194.699 16.4496 193.302 15.7936C191.957 15.1478 190.817 14.1414 190.006 12.8855C189.185 11.5722 188.749 10.0529 188.749 8.50222C188.749 6.95151 189.185 5.43226 190.006 4.11897C190.818 2.86434 191.958 1.85827 193.302 1.21083ZM194.14 15.312C195.187 16.0895 196.455 16.5091 197.758 16.5091C199.06 16.5091 200.328 16.0895 201.375 15.312C202.49 14.5347 203.398 13.4944 204.02 12.2823C204.646 11.1242 204.974 9.82716 204.974 8.50924C204.974 7.19131 204.646 5.8943 204.02 4.73614C203.4 3.51908 202.492 2.47378 201.375 1.6924C200.328 0.914899 199.06 0.495306 197.758 0.495306C196.455 0.495306 195.187 0.914899 194.14 1.6924C193.029 2.48035 192.122 3.52404 191.496 4.73614C190.864 5.89243 190.532 7.19017 190.532 8.50924C190.532 9.8283 190.864 11.126 191.496 12.2823C192.124 13.4894 193.031 14.5282 194.14 15.312Z" fill="#595959"/>
<path id="Vector_6" d="M222.224 16.7896V0.219727H224.03V16.5091H231.014V16.7896H222.224Z" fill="#595959"/>
<path id="Vector_7" d="M153.449 9.93043C153.108 9.8579 152.796 9.6862 152.552 9.43676C152.308 9.18732 152.142 8.87119 152.075 8.52779C152.042 8.32879 151.99 8.13321 151.922 7.94336C151.853 8.13321 151.802 8.32879 151.768 8.52779C151.701 8.87456 151.532 9.19323 151.283 9.44308C151.034 9.69293 150.717 9.86261 150.371 9.93043L150.078 9.99589C150.203 10.0448 150.33 10.0854 150.46 10.1174C150.787 10.2027 151.083 10.38 151.313 10.6285C151.543 10.877 151.698 11.1863 151.759 11.5201C151.79 11.7051 151.838 11.8867 151.903 12.0624C151.969 11.8914 152.019 11.7145 152.052 11.5341C152.113 11.2004 152.268 10.891 152.498 10.6425C152.728 10.3941 153.024 10.2167 153.351 10.1315C153.481 10.0994 153.608 10.0588 153.733 10.0099L153.449 9.93043Z" fill="#595959"/>
<path id="Vector_8" d="M102.106 1.18258C103.503 0.526537 105.028 0.186523 106.571 0.186523C108.113 0.186523 109.638 0.526537 111.035 1.18258C112.377 1.82765 113.513 2.83452 114.318 4.09072C115.13 5.40634 115.56 6.92361 115.56 8.47163C115.56 10.0197 115.13 11.5369 114.318 12.8525C113.512 14.103 112.375 15.1035 111.035 15.742C109.638 16.398 108.113 16.738 106.571 16.738C105.028 16.738 103.503 16.398 102.106 15.742C100.762 15.095 99.6214 14.0888 98.8094 12.8338C97.9908 11.5205 97.5566 10.0023 97.5566 8.45293C97.5566 6.90351 97.9908 5.38536 98.8094 4.07201C99.6252 2.82507 100.765 1.82589 102.106 1.18258ZM102.948 15.2744C103.994 16.0488 105.258 16.4681 106.557 16.4714C107.861 16.4669 109.131 16.0479 110.183 15.2744C111.297 14.4931 112.204 13.4518 112.828 12.2401C113.438 11.0801 113.758 9.78823 113.759 8.47631C113.757 7.16006 113.437 5.86392 112.828 4.69853C112.206 3.48171 111.298 2.43538 110.183 1.65013C109.129 0.880041 107.86 0.462897 106.557 0.45788C105.258 0.461722 103.995 0.879176 102.948 1.65013C101.836 2.43843 100.929 3.48401 100.304 4.69853C99.6762 5.85846 99.3435 7.15617 99.3355 8.47631C99.3431 9.79205 99.6758 11.0853 100.304 12.2401C100.931 13.4496 101.838 14.4902 102.948 15.2744Z" fill="#595959"/>
<path id="Vector_9" d="M117.539 0.1875V16.7574H119.345V7.1633V0.463353H128.624V0.1875H117.539Z" fill="#595959"/>
<path id="Vector_10" d="M138.252 0.468031H133.597V0.1875H144.677V0.468031H140.022V16.7574H138.215L138.252 0.468031Z" fill="#595959"/>
<path id="Vector_11" d="M155.428 0.1875V7.41577V16.7574H157.206V0.1875H155.428Z" fill="#595959"/>
<path id="Vector_12" d="M147.932 0.1875H146.126V16.7574H147.932V7.41577V0.1875Z" fill="#595959"/>
<path id="Vector_13" d="M118.531 5.89551C120.03 5.89551 122.032 6.67164 123.596 6.67164C124.137 6.6989 124.672 6.55674 125.128 6.26487C124.909 6.50923 124.638 6.70027 124.335 6.82342C124.031 6.94657 123.704 6.9986 123.378 6.97554C121.846 6.97554 119.904 6.16669 118.405 6.16669C118.05 6.13508 117.694 6.19443 117.368 6.33917C117.042 6.48391 116.758 6.7093 116.543 6.99424C116.92 6.14798 117.642 5.89551 118.531 5.89551Z" fill="#595959" stroke="#595959" stroke-width="0.3" stroke-miterlimit="10"/>
<path id="Vector_14" d="M169.511 0.214844H159.948V16.7847H169.511V16.5089H161.485V7.44312V7.19064V0.495372H169.511V0.214844Z" fill="#595959"/>
<path id="Vector_15" d="M160.968 5.48438C162.472 5.48438 164.474 6.2605 166.039 6.2605C166.579 6.28715 167.114 6.14504 167.57 5.85374C167.351 6.09783 167.08 6.28867 166.777 6.4118C166.473 6.53493 166.146 6.58711 165.82 6.56441C164.283 6.56441 162.347 5.75555 160.843 5.75555C160.488 5.72395 160.131 5.7833 159.805 5.92804C159.48 6.07278 159.196 6.29818 158.98 6.58311C159.344 5.73685 160.061 5.48438 160.968 5.48438Z" fill="#595959" stroke="#595959" stroke-width="0.3" stroke-miterlimit="10"/>
<path id="Vector_16" d="M151.358 12.6055C151.65 13.0492 151.804 13.57 151.8 14.1017C151.8 14.1297 151.8 14.1531 151.8 14.1812C151.882 14.1694 151.965 14.1694 152.047 14.1812C152.047 14.1531 152.047 14.1204 152.047 14.0923C152.046 13.732 152.114 13.3748 152.247 13.0404C152.377 12.7064 152.566 12.399 152.806 12.1333C153.039 11.8696 153.315 11.6468 153.621 11.4741C154.339 11.0501 155.128 10.7588 155.949 10.6138C155.856 10.4221 155.767 10.2257 155.693 10.0294C154.865 10.2675 154.09 10.6592 153.407 11.1842C152.913 11.5541 152.511 12.0343 152.233 12.5868C152.154 12.7785 152.052 13.0965 151.917 13.5219L151.572 12.5868C151.309 12.033 150.916 11.5517 150.427 11.1842C149.616 10.5727 148.689 10.1351 147.703 9.89844C147.703 9.93584 147.419 10.3099 147.354 10.4455C147.289 10.5811 147.419 10.5249 147.419 10.5249C148.405 10.6395 149.356 10.9579 150.213 11.46C150.678 11.7469 151.071 12.1392 151.358 12.6055Z" fill="#595959"/>
<path id="Vector_17" d="M4.73968 13.4044C4.73892 13.1305 4.79109 12.8589 4.89332 12.6049C4.99466 12.3509 5.13964 12.1167 5.32165 11.913C5.49816 11.7107 5.70753 11.54 5.94086 11.408C6.49226 11.0861 7.09591 10.8646 7.72402 10.7534C7.65225 10.6011 7.58853 10.445 7.53313 10.2859C6.90341 10.4701 6.31305 10.7697 5.79188 11.1696C5.41464 11.4545 5.10729 11.8224 4.89332 12.2449C4.83745 12.3899 4.75365 12.633 4.65587 12.9696L4.3905 12.2449C4.1902 11.8216 3.89162 11.4528 3.51987 11.1696C2.90308 10.7021 2.1958 10.3693 1.4434 10.1924C1.4434 10.2204 1.22924 10.5056 1.17337 10.6085C1.1175 10.7114 1.22458 10.6646 1.22458 10.6646C1.97283 10.7573 2.69399 11.004 3.34295 11.3893C3.69996 11.6017 4.00283 11.8946 4.22755 12.2449C4.45137 12.5827 4.56971 12.98 4.56742 13.3857C4.56478 13.6823 4.46861 13.9704 4.29273 14.2086C4.10858 14.4627 3.86572 14.6681 3.58505 14.8071C3.30806 14.9489 3.00204 15.0241 2.69115 15.0268C3.21109 15.0305 3.70871 15.2395 4.07638 15.6088C4.44405 15.978 4.65222 16.4777 4.65587 16.9999C4.6571 16.477 4.8645 15.9758 5.23269 15.6061C5.60088 15.2363 6.0999 15.028 6.6206 15.0268C6.14188 15.0265 5.67984 14.8502 5.32165 14.5312C5.14687 14.3991 5.00385 14.2293 4.90313 14.0342C4.80241 13.8392 4.74655 13.624 4.73968 13.4044Z" fill="#595959"/>
<path id="Vector_18" d="M6.37839 0.59375H4.89786C4.88958 0.594203 4.88163 0.597111 4.875 0.602104C4.86837 0.607097 4.86336 0.613951 4.86061 0.621802L0 16.9859H0.27469L2.03456 11.0668C2.12302 10.7909 2.35116 10.0475 2.42099 9.78571L2.48617 9.51922L4.8513 1.57092C4.85416 1.56267 4.8595 1.55552 4.8666 1.55045C4.87369 1.54539 4.88217 1.54267 4.89087 1.54267C4.89957 1.54267 4.90806 1.54539 4.91515 1.55045C4.92224 1.55552 4.92759 1.56267 4.93045 1.57092C5.15858 2.34705 5.49379 3.44111 5.89884 4.84375C6.32717 6.33522 6.69032 7.67708 6.72757 7.67241L9.52102 17.0233C9.52385 17.0324 9.52938 17.0404 9.53687 17.0463C9.54436 17.0521 9.55345 17.0555 9.56292 17.0561H11.1878C11.1942 17.0562 11.2005 17.0549 11.2063 17.0522C11.2121 17.0496 11.2172 17.0456 11.2213 17.0407C11.2253 17.0357 11.2282 17.0299 11.2296 17.0236C11.2311 17.0174 11.2311 17.0109 11.2297 17.0046L6.41563 0.621802C6.41242 0.614254 6.40729 0.607685 6.40075 0.60276C6.39421 0.597836 6.3865 0.594732 6.37839 0.59375Z" fill="#595959"/>
<path id="Vector_19" d="M21.9238 16.6071C21.4326 16.6857 20.9361 16.7263 20.4386 16.7287C19.1518 16.7261 17.8994 16.3118 16.863 15.5458C15.7625 14.7686 14.8636 13.7376 14.2418 12.5395C13.6279 11.3893 13.308 10.104 13.3107 8.79908C13.3107 7.49444 13.6305 6.20986 14.2418 5.0587C14.8607 3.8547 15.7599 2.81856 16.863 2.03835C17.8994 1.27238 19.1518 0.858028 20.4386 0.855462C20.9359 0.857114 21.4324 0.896186 21.9238 0.972348V0.696497C21.4322 0.621823 20.9358 0.58276 20.4386 0.579611C18.913 0.564134 17.4044 0.901692 16.0296 1.56613C14.6997 2.20608 13.5718 3.20283 12.7706 4.44622C11.9582 5.74636 11.5273 7.25016 11.5273 8.78505C11.5273 10.3199 11.9582 11.8237 12.7706 13.1239C13.5718 14.3673 14.6997 15.364 16.0296 16.004C17.4044 16.6684 18.913 17.006 20.4386 16.9905C20.9358 16.9873 21.4322 16.9483 21.9238 16.8736V16.6071Z" fill="#595959"/>
<path id="Vector_20" d="M38.1776 0.593721C39.4995 0.575618 40.8121 0.817025 42.0419 1.30439C43.0966 1.71791 44.0496 2.35593 44.8353 3.17457C45.5427 3.9345 46.099 4.8232 46.4741 5.79284C47.2315 7.73136 47.2315 9.88567 46.4741 11.8242C46.099 12.7938 45.5427 13.6825 44.8353 14.4425C44.0496 15.2611 43.0966 15.8991 42.0419 16.3126C40.8121 16.8 39.4995 17.0414 38.1776 17.0233H36.0918V0.593721H38.1776ZM38.1776 16.7288C39.2217 16.7432 40.2547 16.5126 41.1945 16.0555C42.055 15.6412 42.8038 15.0255 43.3781 14.2601C43.9468 13.4901 44.3842 12.6306 44.6724 11.7167C45.2869 9.82062 45.2869 7.77771 44.6724 5.88167C44.3861 4.97125 43.9485 4.11603 43.3781 3.35224C42.8012 2.58936 42.0531 1.97418 41.1945 1.55687C40.2573 1.09088 39.2233 0.855302 38.1776 0.869572H37.8796V16.7288H38.1776Z" fill="#595959"/>
<path id="Vector_21" d="M61.6194 1.39325V17.0046H61.3447V0.59375H63.1279C63.7052 2.34237 64.5448 4.8079 65.6466 7.99034C66.7485 11.1728 67.481 13.3048 67.8442 14.3864L72.5372 0.59375H74.3017V17.0046H72.5372V1.39325L67.2063 17.0046L61.6194 1.39325Z" fill="#595959"/>
<path id="Vector_22" d="M83.2445 17.0046H81.4846V10.7956L76.7637 0.621802H77.2292L81.7267 10.2953L86.2195 0.59375L87.984 0.621802L83.2631 10.7956L83.2445 17.0046Z" fill="#595959"/>
<path id="Vector_23" d="M58.3038 0.59375H48.834V17H58.3038V16.7288H50.3564V7.75189V7.49942V0.864927H58.3038V0.59375Z" fill="#595959"/>
<path id="Vector_24" d="M49.8447 5.81152C51.3345 5.81152 53.3132 6.5783 54.8636 6.5783C55.3987 6.60495 55.9289 6.46448 56.3814 6.17621C56.1644 6.41742 55.8959 6.60623 55.5959 6.72849C55.296 6.85075 54.9724 6.9033 54.6494 6.88221C53.1316 6.88221 51.2088 6.07803 49.7236 6.07803C49.3696 6.04448 49.0129 6.10198 48.687 6.24513C48.3612 6.38827 48.0771 6.61234 47.8613 6.89624C48.2291 6.05933 48.9461 5.81152 49.8447 5.81152Z" fill="#595959" stroke="#595959" stroke-width="0.29" stroke-miterlimit="10"/>
<path id="Vector_25" d="M28.1349 13.4043C28.1329 13.1306 28.1834 12.8592 28.2838 12.6048C28.3852 12.3507 28.5302 12.1165 28.7122 11.9128C28.8887 11.7106 29.0981 11.5398 29.3314 11.4079C29.8828 11.086 30.4864 10.8644 31.1145 10.7533C31.0447 10.6084 30.9795 10.4587 30.9237 10.3091C30.2939 10.4909 29.7034 10.789 29.1824 11.1881C28.8052 11.4731 28.4978 11.8409 28.2838 12.2635C28.228 12.4084 28.1488 12.6515 28.0464 12.9882L27.781 12.2635C27.5807 11.8402 27.2821 11.4714 26.9104 11.1881C26.2936 10.7206 25.5863 10.3878 24.8339 10.2109C24.8339 10.239 24.6198 10.5242 24.5686 10.6271C24.5173 10.7299 24.6151 10.6832 24.6151 10.6832C25.363 10.7772 26.0839 11.0239 26.7335 11.4079C27.0915 11.6188 27.3947 11.9121 27.6181 12.2635C27.8419 12.6013 27.9602 12.9985 27.9579 13.4043C27.9553 13.7008 27.8591 13.9889 27.6833 14.2272C27.4982 14.4757 27.2552 14.6748 26.9756 14.8069C26.6986 14.9487 26.3926 15.024 26.0817 15.0267C26.6024 15.0279 27.1014 15.2362 27.4696 15.6059C27.8378 15.9757 28.0452 16.4768 28.0464 16.9997C28.0476 16.4768 28.255 15.9757 28.6232 15.6059C28.9914 15.2362 29.4904 15.0279 30.0111 15.0267C29.5322 15.0276 29.0697 14.8512 28.7122 14.5311C28.538 14.3987 28.3957 14.2287 28.2958 14.0337C28.1958 13.8386 28.1408 13.6235 28.1349 13.4043Z" fill="#595959"/>
<path id="Vector_26" d="M29.769 0.59375H28.2885C28.2802 0.594203 28.2723 0.597111 28.2656 0.602104C28.259 0.607097 28.254 0.613951 28.2512 0.621802L23.3906 16.9859H23.6653L25.4159 11.0668C25.4997 10.7909 25.7325 10.0475 25.7977 9.78571L25.8628 9.51922L28.2326 1.57092C28.2326 1.561 28.2365 1.55149 28.2435 1.54447C28.2505 1.53746 28.26 1.53352 28.2699 1.53352C28.2797 1.53352 28.2892 1.53746 28.2962 1.54447C28.3032 1.55149 28.3071 1.561 28.3071 1.57092C28.5399 2.34705 28.8705 3.44111 29.2755 4.84375C29.7038 6.33522 30.067 7.67708 30.1089 7.67241L32.9023 17.0233C32.9063 17.0312 32.9123 17.038 32.9196 17.0429C32.927 17.0478 32.9354 17.0507 32.9442 17.0514H34.5738C34.5797 17.0509 34.5855 17.0491 34.5908 17.0461C34.596 17.0432 34.6005 17.0391 34.6041 17.0342C34.6076 17.0293 34.61 17.0238 34.6112 17.0179C34.6124 17.0119 34.6124 17.0058 34.611 17L29.7923 0.668552C29.7989 0.663258 29.8037 0.656095 29.8062 0.647998C29.8086 0.639902 29.8086 0.631251 29.8061 0.623171C29.8036 0.615092 29.7987 0.60796 29.7921 0.602711C29.7855 0.597461 29.7774 0.594342 29.769 0.59375Z" fill="#595959"/>
</g>
<defs>
<clipPath id="clip0_312_3">
<rect width="231" height="17" fill="white"/>
</clipPath>
</defs>
</svg>
