<svg width="351" height="26" viewBox="0 0 351 26" fill="none" xmlns="http://www.w3.org/2000/svg">
<g clip-path="url(#clip0_161_32)">
<path d="M332.996 0V9.23158C333.023 10.367 332.795 11.4939 332.331 12.5281C331.949 13.3842 331.351 14.1239 330.598 14.6733C329.911 15.1657 329.152 15.5446 328.348 15.7959C327.559 16.0393 326.739 16.1623 325.914 16.1606C325.136 16.1551 324.37 15.9676 323.675 15.6128C322.98 15.258 322.376 14.7455 321.91 14.1155C320.787 12.7423 320.192 11.0056 320.234 9.22442V0H317.496V9.23158C317.447 10.2665 317.644 11.2982 318.072 12.2401C318.499 13.182 319.143 14.0066 319.951 14.6447C321.687 15.9096 323.774 16.5902 325.914 16.5902C328.055 16.5902 330.141 15.9096 331.878 14.6447C332.684 14.0054 333.328 13.1806 333.755 12.239C334.182 11.2974 334.38 10.2663 334.333 9.23158V0H332.996Z" fill="#166569"/>
<path d="M317.899 25.5567C317.984 24.2542 318.48 23.0135 319.314 22.0171C320.152 20.9523 321.229 20.1042 322.455 19.5429C323.628 18.9753 324.925 18.717 326.224 18.792C327.522 18.867 328.781 19.2729 329.883 19.972C331.036 20.6688 332.006 21.635 332.713 22.7893C333.322 23.7511 333.655 24.8652 333.675 26.0072H333.965C334.007 24.6279 333.766 23.2548 333.258 21.9742C332.694 20.5941 331.767 19.3969 330.576 18.5132C329.331 17.616 327.86 17.093 326.332 17.0044C324.805 16.9159 323.285 17.2654 321.946 18.0127C320.662 18.751 319.606 19.8353 318.897 21.1447C318.155 22.4923 317.731 23.9949 317.659 25.5352L317.899 25.5567Z" fill="#166569"/>
<path d="M328.228 6.14951C327.706 6.03348 327.23 5.76474 326.859 5.37686C326.488 4.98897 326.238 4.49914 326.141 3.96855C326.093 3.66407 326.017 3.3648 325.914 3.07471C325.806 3.36374 325.728 3.66328 325.681 3.96855C325.585 4.50543 325.331 5.0006 324.952 5.38959C324.574 5.77858 324.088 6.04338 323.559 6.14951L323.113 6.24963C323.302 6.32438 323.496 6.38648 323.693 6.43554C324.19 6.56596 324.64 6.83713 324.989 7.21717C325.339 7.59721 325.574 8.0703 325.667 8.58076C325.713 8.86622 325.786 9.14645 325.886 9.41739C325.986 9.14645 326.06 8.86622 326.105 8.58076C326.197 8.06995 326.432 7.59644 326.782 7.21626C327.132 6.83609 327.582 6.56516 328.079 6.43554C328.276 6.38543 328.47 6.32334 328.659 6.24963L328.228 6.14951Z" fill="#166569"/>
<path d="M275.262 13.5434C270.89 13.2336 267.943 11.9631 266.419 9.73209C265.876 8.9848 265.567 8.08953 265.532 7.16251C265.498 6.23549 265.741 5.31952 266.228 4.53352C267.247 2.66003 269.051 1.40151 271.64 0.757941C272.405 0.575598 273.183 0.458389 273.968 0.407552C275.592 0.332865 277.219 0.477151 278.806 0.8366C280.27 1.1301 281.642 1.77786 282.803 2.72439L282.535 2.98896C281.432 2.04687 280.106 1.41107 278.686 1.14408C277.151 0.791084 275.576 0.649175 274.003 0.722186C273.07 0.761349 272.159 1.0219 271.345 1.48278C270.53 1.94365 269.834 2.59191 269.313 3.37511C268.759 4.06604 268.383 4.88445 268.218 5.75767C268.052 6.63089 268.103 7.53188 268.365 8.38061C269.02 10.4877 270.888 11.8106 273.968 12.3493C274.483 12.4304 275.003 12.4829 275.524 12.5066C277.013 12.6076 278.485 12.8835 279.91 13.3289C281.022 13.6619 282.07 14.1843 283.009 14.8735C283.746 15.4192 284.359 16.1192 284.805 16.9257C285.195 17.6144 285.386 18.3996 285.357 19.1925C285.308 20.0092 285.052 20.7995 284.614 21.4879C284.122 22.2834 283.474 22.9694 282.711 23.5044C281.755 24.1664 280.699 24.6686 279.585 24.9917C278.205 25.4096 276.779 25.6499 275.34 25.7068C273.723 25.8078 272.1 25.6705 270.522 25.2992C269.064 24.9908 267.699 24.3364 266.54 23.3899L266.808 23.1611C267.919 24.0838 269.243 24.7063 270.657 24.9703C272.192 25.3233 273.767 25.4652 275.34 25.3922C276.322 25.3475 277.291 25.1472 278.212 24.7986C279.047 24.4932 279.822 24.0432 280.504 23.4686C281.105 22.953 281.619 22.342 282.025 21.6595C282.408 21.031 282.661 20.3303 282.768 19.6001C282.87 18.8965 282.785 18.1782 282.52 17.5192C282.241 16.8228 281.819 16.194 281.282 15.6743C280.598 15.0341 279.788 14.5468 278.905 14.2442C277.733 13.8279 276.504 13.5916 275.262 13.5434Z" fill="#166569"/>
<path d="M293.719 1.85199C295.843 0.853516 298.157 0.336182 300.5 0.336182C302.842 0.336182 305.157 0.853516 307.281 1.85199C309.319 2.84063 311.048 4.37995 312.275 6.29973C313.505 8.31465 314.157 10.6358 314.157 13.0035C314.157 15.3713 313.505 17.6924 312.275 19.7073C311.05 21.6288 309.321 23.1686 307.281 24.1551C305.158 25.1583 302.843 25.6783 300.5 25.6783C298.157 25.6783 295.842 25.1583 293.719 24.1551C291.676 23.1674 289.943 21.6281 288.71 19.7073C287.463 17.6988 286.801 15.3752 286.801 13.0035C286.801 10.6319 287.463 8.30829 288.71 6.29973C289.945 4.38089 291.678 2.84219 293.719 1.85199ZM294.993 23.4185C296.584 24.6077 298.51 25.2494 300.489 25.2494C302.468 25.2494 304.395 24.6077 305.986 23.4185C307.68 22.2297 309.06 20.6386 310.004 18.7849C310.956 17.0136 311.454 15.0299 311.454 13.0143C311.454 10.9986 310.956 9.01494 310.004 7.24363C309.063 5.38226 307.683 3.78356 305.986 2.58851C304.395 1.39939 302.468 0.757657 300.489 0.757657C298.51 0.757657 296.584 1.39939 294.993 2.58851C293.305 3.7936 291.927 5.38984 290.974 7.24363C290.014 9.01208 289.51 10.9969 289.51 13.0143C289.51 15.0316 290.014 17.0164 290.974 18.7849C291.929 20.631 293.307 22.2197 294.993 23.4185Z" fill="#166569"/>
<path d="M337.665 25.6783V0.336182H340.41V25.2493H351.021V25.6783H337.665Z" fill="#166569"/>
<path d="M233.163 15.1882C232.645 15.0773 232.171 14.8147 231.8 14.4332C231.429 14.0517 231.177 13.5682 231.076 13.043C231.024 12.7387 230.946 12.4395 230.842 12.1492C230.739 12.4395 230.66 12.7387 230.609 13.043C230.506 13.5734 230.25 14.0607 229.872 14.4429C229.494 14.825 229.011 15.0845 228.487 15.1882L228.041 15.2883C228.23 15.3631 228.424 15.4252 228.621 15.4742C229.118 15.6047 229.568 15.8758 229.918 16.2559C230.267 16.6359 230.502 17.109 230.595 17.6195C230.642 17.9024 230.715 18.1802 230.814 18.4489C230.915 18.1874 230.99 17.9168 231.041 17.6409C231.133 17.1305 231.368 16.6574 231.718 16.2773C232.068 15.8973 232.517 15.6261 233.014 15.4957C233.212 15.4466 233.405 15.3845 233.594 15.3098L233.163 15.1882Z" fill="#166569"/>
<path d="M155.147 1.80902C157.271 0.805665 159.587 0.285645 161.931 0.285645C164.276 0.285645 166.592 0.805665 168.716 1.80902C170.754 2.79561 172.481 4.33552 173.703 6.25677C174.937 8.26889 175.592 10.5894 175.592 12.957C175.592 15.3246 174.937 17.6451 173.703 19.6572C172.479 21.5696 170.752 23.0998 168.716 24.0763C166.592 25.0797 164.276 25.5997 161.931 25.5997C159.587 25.5997 157.271 25.0797 155.147 24.0763C153.105 23.0868 151.372 21.5479 150.139 19.6286C148.895 17.62 148.235 15.2981 148.235 12.9284C148.235 10.5587 148.895 8.2368 150.139 6.22816C151.378 4.32106 153.11 2.79291 155.147 1.80902ZM156.428 23.3613C158.016 24.5456 159.937 25.1869 161.91 25.1919C163.892 25.185 165.821 24.5442 167.421 23.3613C169.113 22.1663 170.492 20.5737 171.439 18.7205C172.367 16.9464 172.852 14.9706 172.854 12.9641C172.851 10.951 172.365 8.96873 171.439 7.18636C170.495 5.32533 169.115 3.72507 167.421 2.52409C165.819 1.34632 163.891 0.708333 161.91 0.70066C159.938 0.706537 158.018 1.345 156.428 2.52409C154.737 3.72974 153.359 5.32887 152.409 7.18636C151.456 8.96038 150.95 10.9451 150.938 12.9641C150.949 14.9764 151.455 16.9544 152.409 18.7205C153.362 20.5703 154.74 22.1619 156.428 23.3613Z" fill="#166569"/>
<path d="M178.599 0.286133V25.6283H181.343V10.955V0.708025H195.443V0.286133H178.599Z" fill="#166569"/>
<path d="M210.072 0.71518H202.998V0.286133H219.835V0.71518H212.76V25.6283H210.016L210.072 0.71518Z" fill="#166569"/>
<path d="M236.169 0.286133V11.3411V25.6283H238.872V0.286133H236.169Z" fill="#166569"/>
<path d="M224.78 0.286133H222.035V25.6283H224.78V11.3411V0.286133Z" fill="#166569"/>
<path d="M180.105 9.01709C182.383 9.01709 185.425 10.2041 187.802 10.2041C188.623 10.2458 189.437 10.0284 190.13 9.58199C189.797 9.95573 189.385 10.2479 188.924 10.4362C188.463 10.6246 187.966 10.7042 187.47 10.6689C185.142 10.6689 182.192 9.43183 179.914 9.43183C179.375 9.3835 178.833 9.47426 178.338 9.69563C177.843 9.917 177.412 10.2617 177.085 10.6975C177.658 9.40322 178.754 9.01709 180.105 9.01709Z" fill="#166569" stroke="#166569" stroke-width="0.3" stroke-miterlimit="10"/>
<path d="M257.569 0.328857H243.039V25.671H257.569V25.2491H245.373V11.3839V10.9977V0.7579H257.569V0.328857Z" fill="#166569"/>
<path d="M244.588 8.3877C246.873 8.3877 249.915 9.57472 252.292 9.57472C253.113 9.61546 253.926 9.39813 254.619 8.95261C254.287 9.32592 253.874 9.61779 253.413 9.80611C252.952 9.99442 252.455 10.0742 251.959 10.0395C249.625 10.0395 246.682 8.80244 244.397 8.80244C243.858 8.75411 243.315 8.84488 242.82 9.06625C242.326 9.28761 241.894 9.63233 241.567 10.0681C242.119 8.77384 243.208 8.3877 244.588 8.3877Z" fill="#166569" stroke="#166569" stroke-width="0.3" stroke-miterlimit="10"/>
<path d="M229.986 19.2784C230.43 19.957 230.664 20.7535 230.659 21.5667C230.659 21.6096 230.659 21.6453 230.659 21.6882C230.783 21.6702 230.909 21.6702 231.033 21.6882C231.033 21.6453 231.033 21.5953 231.033 21.5524C231.032 21.0013 231.135 20.455 231.338 19.9435C231.535 19.4327 231.822 18.9626 232.187 18.5562C232.541 18.1529 232.959 17.8121 233.425 17.548C234.517 16.8996 235.714 16.454 236.962 16.2322C236.82 15.9391 236.686 15.6387 236.573 15.3384C235.316 15.7026 234.138 16.3017 233.099 17.1046C232.349 17.6704 231.738 18.4048 231.316 19.2498C231.196 19.543 231.041 20.0293 230.835 20.68L230.312 19.2498C229.912 18.4028 229.315 17.6666 228.572 17.1046C227.34 16.1695 225.931 15.5001 224.433 15.1382C224.433 15.1954 224.002 15.7674 223.903 15.9748C223.804 16.1822 224.002 16.0964 224.002 16.0964C225.499 16.2715 226.944 16.7585 228.246 17.5265C228.954 17.9653 229.55 18.5653 229.986 19.2784Z" fill="#166569"/>
<path d="M7.20168 20.5012C7.20052 20.0821 7.2798 19.6669 7.43513 19.2784C7.58911 18.8898 7.80941 18.5316 8.08597 18.2201C8.35417 17.9108 8.67231 17.6496 9.02685 17.4478C9.86469 16.9555 10.7819 16.6167 11.7363 16.4467C11.6273 16.2137 11.5304 15.975 11.4463 15.7316C10.4894 16.0133 9.59239 16.4715 8.80047 17.0831C8.22727 17.519 7.76025 18.0815 7.43513 18.7278C7.35023 18.9495 7.2229 19.3213 7.07434 19.8361L6.6711 18.7278C6.36676 18.0804 5.91307 17.5164 5.3482 17.0831C4.411 16.3682 3.3363 15.8591 2.19305 15.5886C2.19305 15.6315 1.86763 16.0677 1.78274 16.225C1.69785 16.3824 1.86056 16.3108 1.86056 16.3108C2.9975 16.4525 4.09329 16.8299 5.07938 17.4192C5.62185 17.744 6.08204 18.192 6.4235 18.7278C6.7636 19.2445 6.94342 19.852 6.93993 20.4726C6.93592 20.9261 6.7898 21.3667 6.52254 21.7311C6.24273 22.1197 5.87372 22.4338 5.44724 22.6464C5.02636 22.8633 4.56137 22.9783 4.08897 22.9825C4.87902 22.9881 5.63514 23.3078 6.1938 23.8725C6.75247 24.4372 7.06878 25.2015 7.07434 26.0001C7.07621 25.2003 7.39133 24.4339 7.95079 23.8684C8.51025 23.3029 9.26851 22.9843 10.0597 22.9825C9.33229 22.9819 8.63023 22.7123 8.08597 22.2245C7.8204 22.0224 7.60308 21.7627 7.45004 21.4644C7.29699 21.1662 7.21212 20.837 7.20168 20.5012Z" fill="#166569"/>
<path d="M9.69183 0.908203H7.4422C7.42962 0.908896 7.41754 0.913343 7.40746 0.92098C7.39739 0.928617 7.38978 0.939099 7.3856 0.951106L0 25.9786H0.417386L3.09148 16.9258C3.22589 16.5039 3.57254 15.3669 3.67865 14.9665L3.77769 14.5589L7.37145 2.4027C7.3758 2.39008 7.38392 2.37914 7.3947 2.3714C7.40547 2.36365 7.41837 2.35949 7.43158 2.35949C7.44481 2.35949 7.4577 2.36365 7.46847 2.3714C7.47925 2.37914 7.48737 2.39008 7.49172 2.4027C7.83836 3.58972 8.34771 5.26299 8.96318 7.4082C9.61402 9.68928 10.1658 11.7415 10.2224 11.7344L14.467 26.0358C14.4713 26.0497 14.4797 26.062 14.4911 26.0709C14.5025 26.0799 14.5163 26.0851 14.5307 26.0859H16.9996C17.0093 26.0861 17.0189 26.0841 17.0278 26.08C17.0366 26.0759 17.0443 26.0699 17.0505 26.0623C17.0566 26.0547 17.061 26.0458 17.0632 26.0362C17.0654 26.0267 17.0654 26.0168 17.0633 26.0072L9.74843 0.951106C9.74355 0.939563 9.73575 0.929515 9.72582 0.921984C9.71588 0.914453 9.70416 0.909705 9.69183 0.908203Z" fill="#166569"/>
<path d="M33.313 25.3994C32.5666 25.5196 31.8121 25.5817 31.0563 25.5853C29.1011 25.5814 27.1979 24.9477 25.6232 23.7762C23.951 22.5875 22.5852 21.0108 21.6404 19.1783C20.7076 17.4192 20.2214 15.4536 20.2255 13.4577C20.2255 11.4624 20.7114 9.49773 21.6404 7.73714C22.5807 5.89572 23.9471 4.31104 25.6232 3.11778C27.1979 1.94629 29.1011 1.31258 31.0563 1.30865C31.8119 1.31118 32.5663 1.37094 33.313 1.48742V1.06553C32.566 0.951325 31.8118 0.891582 31.0563 0.886765C28.7382 0.863095 26.4458 1.37936 24.3569 2.39556C22.3361 3.37431 20.6223 4.89875 19.4049 6.8004C18.1705 8.78885 17.5158 11.0888 17.5158 13.4363C17.5158 15.7837 18.1705 18.0837 19.4049 20.0721C20.6223 21.9738 22.3361 23.4982 24.3569 24.477C26.4458 25.4932 28.7382 26.0094 31.0563 25.9858C31.8118 25.9809 32.566 25.9212 33.313 25.807V25.3994Z" fill="#166569"/>
<path d="M58.0095 0.908188C60.0181 0.880501 62.0127 1.24971 63.8812 1.99509C65.4838 2.62754 66.9319 3.60334 68.1258 4.85537C69.2007 6.01761 70.0459 7.3768 70.616 8.85978C71.7667 11.8246 71.7667 15.1194 70.616 18.0842C70.0459 19.5672 69.2007 20.9264 68.1258 22.0886C66.9319 23.3406 65.4838 24.3164 63.8812 24.9489C62.0127 25.6943 60.0181 26.0635 58.0095 26.0358H54.8402V0.908188H58.0095ZM58.0095 25.5853C59.596 25.6073 61.1657 25.2548 62.5937 24.5556C63.9012 23.922 65.039 22.9803 65.9115 21.8097C66.7757 20.6321 67.4403 19.3176 67.8782 17.9197C68.812 15.0199 68.812 11.8955 67.8782 8.99564C67.4432 7.60323 66.7783 6.29525 65.9115 5.12711C65.0351 3.96034 63.8982 3.01948 62.5937 2.38123C61.1696 1.66854 59.5984 1.30825 58.0095 1.33008H57.5568V25.5853H58.0095Z" fill="#166569"/>
<path d="M93.6287 2.13097V26.0072H93.2114V0.908203H95.9208C96.7981 3.58257 98.0738 7.35337 99.7481 12.2206C101.422 17.0879 102.535 20.3486 103.087 22.0028L110.218 0.908203H112.899V26.0072H110.218V2.13097L102.118 26.0072L93.6287 2.13097Z" fill="#166569"/>
<path d="M126.489 26.0072H123.815V16.5111L116.642 0.951106H117.349L124.183 15.7459L131.01 0.908203L133.691 0.951106L126.517 16.5111L126.489 26.0072Z" fill="#166569"/>
<path d="M88.5918 0.908203H74.2026V26.0001H88.5918V25.5853H76.5159V11.8559V11.4698V1.32294H88.5918V0.908203Z" fill="#166569"/>
<path d="M75.7378 8.88843C78.0016 8.88843 81.0082 10.0611 83.3639 10.0611C84.177 10.1019 84.9827 9.88707 85.6701 9.44618C85.3404 9.8151 84.9324 10.1039 84.4767 10.2908C84.021 10.4778 83.5293 10.5582 83.0385 10.5259C80.7323 10.5259 77.8106 9.29602 75.5539 9.29602C75.0159 9.24471 74.4738 9.33266 73.9788 9.55158C73.4837 9.77051 73.052 10.1132 72.7241 10.5474C73.283 9.26742 74.3724 8.88843 75.7378 8.88843Z" fill="#166569" stroke="#166569" stroke-width="0.29" stroke-miterlimit="10"/>
<path d="M42.7502 20.5011C42.7471 20.0826 42.824 19.6674 42.9766 19.2784C43.1305 18.8898 43.3508 18.5316 43.6274 18.22C43.8956 17.9107 44.2137 17.6496 44.5683 17.4478C45.4061 16.9555 46.3233 16.6166 47.2777 16.4467C47.1716 16.225 47.0726 15.9962 46.9877 15.7674C46.0308 16.0453 45.1335 16.5012 44.3419 17.1117C43.7687 17.5475 43.3017 18.1101 42.9766 18.7564C42.8917 18.978 42.7714 19.3499 42.6158 19.8647L42.2125 18.7564C41.9082 18.109 41.4545 17.5449 40.8896 17.1117C39.9524 16.3967 38.8777 15.8877 37.7345 15.6172C37.7345 15.6601 37.4091 16.0963 37.3312 16.2536C37.2534 16.4109 37.402 16.3394 37.402 16.3394C38.5384 16.4833 39.6338 16.8605 40.6208 17.4478C41.1649 17.7704 41.6255 18.2189 41.9649 18.7564C42.305 19.273 42.4848 19.8805 42.4813 20.5011C42.4773 20.9547 42.3312 21.3953 42.064 21.7596C41.7828 22.1398 41.4136 22.4443 40.9887 22.6463C40.5678 22.8632 40.1028 22.9783 39.6304 22.9824C40.4216 22.9843 41.1798 23.3028 41.7393 23.8683C42.2988 24.4338 42.6139 25.2003 42.6158 26C42.6176 25.2003 42.9328 24.4338 43.4922 23.8683C44.0517 23.3028 44.8099 22.9843 45.6011 22.9824C44.8734 22.9839 44.1706 22.714 43.6274 22.2245C43.3628 22.022 43.1465 21.762 42.9947 21.4637C42.8428 21.1654 42.7593 20.8365 42.7502 20.5011Z" fill="#166569"/>
<path d="M45.2333 0.908203H42.9836C42.9711 0.908896 42.959 0.913343 42.9489 0.92098C42.9388 0.928617 42.9312 0.939099 42.927 0.951106L35.5414 25.9786H35.9588L38.6188 16.9258C38.7461 16.5039 39.0998 15.3669 39.1989 14.9665L39.2979 14.5589L42.8987 2.4027C42.8987 2.38753 42.9047 2.37298 42.9153 2.36225C42.9259 2.35152 42.9403 2.34549 42.9553 2.34549C42.9703 2.34549 42.9847 2.35152 42.9954 2.36225C43.006 2.37298 43.0119 2.38753 43.0119 2.4027C43.3657 3.58972 43.8679 5.26299 44.4834 7.4082C45.1342 9.68928 45.686 11.7415 45.7497 11.7344L49.9943 26.0358C50.0004 26.0479 50.0094 26.0582 50.0206 26.0657C50.0317 26.0732 50.0446 26.0777 50.058 26.0787H52.534C52.5431 26.0779 52.5519 26.0752 52.5598 26.0706C52.5678 26.0661 52.5747 26.0599 52.58 26.0524C52.5854 26.045 52.5891 26.0365 52.591 26.0274C52.5928 26.0184 52.5926 26.009 52.5906 26.0001L45.2686 1.02261C45.2786 1.01451 45.286 1.00355 45.2897 0.991171C45.2935 0.978789 45.2934 0.965557 45.2896 0.953201C45.2858 0.940844 45.2784 0.929936 45.2683 0.921907C45.2583 0.913879 45.2461 0.909109 45.2333 0.908203Z" fill="#166569"/>
</g>
<defs>
<clipPath id="clip0_161_32">
<rect width="351" height="26" fill="white"/>
</clipPath>
</defs>
</svg>
