<svg width="446" height="33" viewBox="0 0 446 33" fill="none" xmlns="http://www.w3.org/2000/svg">
<g clip-path="url(#clip0_162_68)">
<path d="M422.649 0V11.717C422.683 13.1581 422.394 14.5884 421.805 15.901C421.32 16.9876 420.561 17.9265 419.605 18.6238C418.734 19.2487 417.77 19.7297 416.749 20.0487C415.748 20.3576 414.707 20.5136 413.661 20.5115C412.673 20.5045 411.7 20.2666 410.818 19.8162C409.937 19.3659 409.17 18.7155 408.579 17.9158C407.153 16.1729 406.397 13.9687 406.45 11.7079V0H402.976V11.717C402.914 13.0306 403.164 14.34 403.706 15.5355C404.248 16.731 405.066 17.7776 406.091 18.5875C408.296 20.1929 410.944 21.0568 413.661 21.0568C416.377 21.0568 419.026 20.1929 421.23 18.5875C422.253 17.776 423.07 16.7292 423.612 15.5341C424.154 14.339 424.405 13.0303 424.346 11.717V0H422.649Z" fill="white"/>
<path d="M403.487 32.4373C403.595 30.7841 404.224 29.2094 405.283 27.9447C406.347 26.5933 407.713 25.5169 409.27 24.8044C410.759 24.084 412.405 23.7561 414.053 23.8513C415.702 23.9466 417.299 24.4617 418.698 25.349C420.161 26.2335 421.392 27.4598 422.289 28.9249C423.063 30.1456 423.486 31.5596 423.511 33.0091H423.879C423.932 31.2585 423.626 29.5157 422.981 27.8903C422.266 26.1387 421.089 24.6192 419.578 23.4975C417.997 22.3588 416.129 21.6949 414.191 21.5825C412.253 21.4701 410.323 21.9137 408.623 22.8622C406.994 23.7994 405.654 25.1756 404.753 26.8374C403.812 28.5479 403.274 30.455 403.182 32.4101L403.487 32.4373Z" fill="white"/>
<path d="M416.597 7.80546C415.935 7.6582 415.331 7.31711 414.86 6.82479C414.389 6.33247 414.071 5.71076 413.948 5.03732C413.888 4.65087 413.791 4.27103 413.661 3.90283C413.523 4.26968 413.424 4.64986 413.364 5.03732C413.242 5.71876 412.92 6.34723 412.439 6.84095C411.959 7.33467 411.343 7.67076 410.671 7.80546L410.105 7.93254C410.345 8.02742 410.591 8.10624 410.841 8.16851C411.472 8.33403 412.043 8.67822 412.487 9.16057C412.93 9.64293 413.229 10.2434 413.346 10.8913C413.404 11.2536 413.498 11.6093 413.625 11.9532C413.752 11.6093 413.845 11.2536 413.903 10.8913C414.02 10.243 414.318 9.64196 414.761 9.15942C415.205 8.67689 415.777 8.33302 416.408 8.16851C416.658 8.1049 416.904 8.0261 417.144 7.93254L416.597 7.80546Z" fill="white"/>
<path d="M349.371 17.1899C343.822 16.7966 340.081 15.1841 338.148 12.3524C337.457 11.4039 337.065 10.2676 337.022 9.09104C336.979 7.91443 337.286 6.75186 337.905 5.75424C339.198 3.37635 341.488 1.77899 344.774 0.962162C345.745 0.730727 346.733 0.581961 347.728 0.517438C349.79 0.422642 351.855 0.605775 353.87 1.062C355.727 1.43452 357.468 2.25667 358.943 3.45804L358.602 3.79384C357.202 2.59811 355.519 1.79113 353.717 1.45226C351.769 1.00423 349.769 0.824112 347.773 0.91678C346.589 0.966487 345.433 1.29719 344.399 1.88215C343.365 2.4671 342.481 3.28989 341.82 4.28395C341.117 5.1609 340.64 6.19966 340.43 7.30797C340.22 8.41629 340.284 9.55985 340.617 10.6371C341.449 13.3115 343.819 14.9905 347.728 15.6742C348.382 15.7772 349.042 15.8438 349.703 15.8739C351.593 16.0021 353.461 16.3523 355.27 16.9176C356.682 17.3403 358.012 18.0033 359.203 18.878C360.14 19.5707 360.917 20.4591 361.484 21.4828C361.979 22.3569 362.221 23.3535 362.184 24.3598C362.122 25.3965 361.797 26.3996 361.241 27.2732C360.616 28.2829 359.794 29.1536 358.826 29.8326C357.612 30.6729 356.272 31.3104 354.857 31.7204C353.107 32.2509 351.296 32.5558 349.47 32.628C347.418 32.7562 345.358 32.582 343.355 32.1107C341.504 31.7193 339.771 30.8887 338.3 29.6874L338.641 29.397C340.051 30.5681 341.732 31.3582 343.526 31.6932C345.474 32.1412 347.474 32.3213 349.47 32.2287C350.717 32.1719 351.947 31.9177 353.115 31.4754C354.175 31.0877 355.159 30.5165 356.025 29.7872C356.787 29.1329 357.439 28.3573 357.955 27.491C358.441 26.6933 358.762 25.804 358.898 24.8772C359.027 23.9842 358.919 23.0725 358.584 22.2361C358.229 21.3522 357.694 20.5541 357.012 19.8945C356.144 19.0819 355.116 18.4634 353.995 18.0793C352.507 17.5509 350.948 17.2511 349.371 17.1899Z" fill="white"/>
<path d="M372.797 2.35067C375.493 1.08337 378.431 0.426758 381.404 0.426758C384.377 0.426758 387.314 1.08337 390.01 2.35067C392.598 3.60548 394.792 5.55923 396.349 7.99588C397.911 10.5533 398.738 13.4993 398.738 16.5045C398.738 19.5098 397.911 22.4558 396.349 25.0132C394.794 27.452 392.6 29.4064 390.01 30.6584C387.316 31.9317 384.378 32.5917 381.404 32.5917C378.43 32.5917 375.492 31.9317 372.797 30.6584C370.204 29.4048 368.004 27.4511 366.44 25.0132C364.857 22.4639 364.017 19.5147 364.017 16.5045C364.017 13.4943 364.857 10.5452 366.44 7.99588C368.007 5.56042 370.206 3.60746 372.797 2.35067ZM374.414 29.7236C376.433 31.2329 378.879 32.0474 381.39 32.0474C383.902 32.0474 386.347 31.2329 388.367 29.7236C390.518 28.2147 392.269 26.1952 393.467 23.8424C394.675 21.5942 395.308 19.0765 395.308 16.5182C395.308 13.9598 394.675 11.4421 393.467 9.19391C392.272 6.83139 390.521 4.80228 388.367 3.28548C386.347 1.77621 383.902 0.961707 381.39 0.961707C378.879 0.961707 376.433 1.77621 374.414 3.28548C372.271 4.81502 370.522 6.84102 369.314 9.19391C368.095 11.4385 367.455 13.9576 367.455 16.5182C367.455 19.0787 368.095 21.5979 369.314 23.8424C370.526 26.1856 372.274 28.202 374.414 29.7236Z" fill="white"/>
<path d="M428.575 32.5918V0.426758H432.058V32.0472H445.527V32.5918H428.575Z" fill="white"/>
<path d="M295.937 19.2772C295.28 19.1364 294.679 18.8031 294.208 18.3189C293.737 17.8347 293.417 17.221 293.289 16.5544C293.223 16.1681 293.124 15.7885 292.992 15.4199C292.861 15.7885 292.761 16.1681 292.696 16.5544C292.566 17.2276 292.24 17.8461 291.76 18.3311C291.28 18.8162 290.668 19.1455 290.002 19.2772L289.437 19.4042C289.677 19.4991 289.923 19.5779 290.173 19.6402C290.804 19.8057 291.375 20.1499 291.818 20.6323C292.262 21.1146 292.56 21.7151 292.678 22.363C292.737 22.7221 292.831 23.0747 292.956 23.4158C293.084 23.0838 293.18 22.7404 293.244 22.3902C293.361 21.7423 293.66 21.1419 294.104 20.6595C294.547 20.1772 295.118 19.833 295.749 19.6674C295.999 19.6052 296.245 19.5264 296.485 19.4315L295.937 19.2772Z" fill="white"/>
<path d="M196.918 2.29631C199.613 1.02282 202.553 0.362793 205.528 0.362793C208.504 0.362793 211.443 1.02282 214.139 2.29631C216.726 3.54852 218.918 5.50302 220.469 7.94153C222.036 10.4954 222.866 13.4407 222.866 16.4456C222.866 19.4506 222.036 22.3959 220.469 24.9498C218.915 27.3771 216.723 29.3192 214.139 30.5587C211.443 31.8322 208.504 32.4922 205.528 32.4922C202.553 32.4922 199.613 31.8322 196.918 30.5587C194.326 29.3027 192.126 27.3495 190.56 24.9135C188.982 22.364 188.144 19.417 188.144 16.4094C188.144 13.4017 188.982 10.4546 190.56 7.90522C192.134 5.48467 194.332 3.5451 196.918 2.29631ZM198.543 29.6511C200.559 31.1543 202.996 31.9682 205.501 31.9745C208.017 31.9659 210.466 31.1525 212.496 29.6511C214.643 28.1344 216.393 26.113 217.596 23.7608C218.773 21.5091 219.389 19.0014 219.392 16.4547C219.387 13.8997 218.771 11.3836 217.596 9.1214C216.397 6.75932 214.646 4.72822 212.496 3.2039C210.463 1.70903 208.016 0.899283 205.501 0.889543C202.998 0.897002 200.561 1.70735 198.543 3.2039C196.398 4.73415 194.648 6.76381 193.443 9.1214C192.232 11.373 191.59 13.8921 191.575 16.4547C191.59 19.0088 192.231 21.5193 193.443 23.7608C194.652 26.1087 196.401 28.1288 198.543 29.6511Z" fill="white"/>
<path d="M226.683 0.362793V32.5278H230.167V13.904V0.898272H248.062V0.362793H226.683Z" fill="white"/>
<path d="M266.63 0.907353H257.651V0.362793H279.021V0.907353H270.042V32.5278H266.558L266.63 0.907353Z" fill="white"/>
<path d="M299.754 0.362793V14.3941V32.5278H303.184V0.362793H299.754Z" fill="white"/>
<path d="M285.297 0.362793H281.814V32.5278H285.297V14.3941V0.362793Z" fill="white"/>
<path d="M228.595 11.4448C231.487 11.4448 235.347 12.9514 238.364 12.9514C239.406 13.0043 240.439 12.7284 241.318 12.1618C240.897 12.6362 240.373 13.007 239.788 13.2461C239.203 13.4851 238.572 13.5861 237.942 13.5414C234.988 13.5414 231.244 11.9712 228.353 11.9712C227.669 11.9099 226.98 12.0251 226.352 12.306C225.724 12.587 225.177 13.0245 224.761 13.5777C225.489 11.9349 226.88 11.4448 228.595 11.4448Z" fill="white" stroke="white" stroke-width="0.3" stroke-miterlimit="10"/>
<path d="M326.915 0.41748H308.472V32.5825H326.915V32.047H311.435V14.4488V13.9587V0.962035H326.915V0.41748Z" fill="white"/>
<path d="M310.438 10.646C313.339 10.646 317.2 12.1526 320.217 12.1526C321.258 12.2043 322.29 11.9285 323.171 11.363C322.748 11.8368 322.225 12.2073 321.64 12.4463C321.055 12.6853 320.424 12.7866 319.795 12.7425C316.832 12.7425 313.096 11.1724 310.196 11.1724C309.512 11.1111 308.823 11.2263 308.195 11.5072C307.567 11.7882 307.02 12.2257 306.604 12.7788C307.305 11.1361 308.688 10.646 310.438 10.646Z" fill="white" stroke="white" stroke-width="0.3" stroke-miterlimit="10"/>
<path d="M291.906 24.4688C292.469 25.3301 292.766 26.341 292.759 27.3731C292.759 27.4276 292.759 27.4729 292.759 27.5274C292.917 27.5046 293.077 27.5046 293.235 27.5274C293.235 27.4729 293.235 27.4094 293.235 27.355C293.233 26.6555 293.364 25.9622 293.621 25.3129C293.871 24.6646 294.236 24.0679 294.698 23.5521C295.148 23.0402 295.679 22.6077 296.27 22.2724C297.656 21.4495 299.176 20.8839 300.759 20.6025C300.58 20.2304 300.409 19.8492 300.265 19.468C298.67 19.9302 297.175 20.6906 295.857 21.7097C294.904 22.4278 294.129 23.3599 293.594 24.4325C293.441 24.8046 293.244 25.4218 292.983 26.2477L292.319 24.4325C291.812 23.3575 291.054 22.4231 290.11 21.7097C288.547 20.5228 286.759 19.6733 284.857 19.2139C284.857 19.2865 284.31 20.0125 284.184 20.2757C284.058 20.5389 284.31 20.43 284.31 20.43C286.21 20.6523 288.045 21.2704 289.697 22.2452C290.595 22.8021 291.351 23.5636 291.906 24.4688Z" fill="white"/>
<path d="M9.14058 26.0208C9.13911 25.489 9.23974 24.9619 9.43689 24.4688C9.63233 23.9756 9.91193 23.521 10.263 23.1256C10.6034 22.733 11.0072 22.4016 11.4572 22.1454C12.5206 21.5206 13.6847 21.0904 14.8961 20.8748C14.7577 20.579 14.6348 20.276 14.528 19.9672C13.3135 20.3247 12.1749 20.9063 11.1698 21.6825C10.4423 22.2357 9.84954 22.9497 9.43689 23.77C9.32914 24.0513 9.16752 24.5233 8.97896 25.1767L8.46716 23.77C8.08088 22.9483 7.50505 22.2324 6.7881 21.6825C5.59856 20.7751 4.23453 20.129 2.78348 19.7856C2.78348 19.8401 2.37045 20.3937 2.2627 20.5934C2.15495 20.7931 2.36147 20.7023 2.36147 20.7023C3.80452 20.8822 5.19532 21.3611 6.44689 22.1091C7.13542 22.5213 7.71951 23.09 8.1529 23.77C8.58457 24.4257 8.81279 25.1968 8.80836 25.9845C8.80328 26.5602 8.61782 27.1194 8.2786 27.5818C7.92346 28.0751 7.4551 28.4738 6.9138 28.7436C6.3796 29.0188 5.78943 29.1649 5.18984 29.1701C6.1926 29.1773 7.15228 29.5831 7.86136 30.2998C8.57043 31.0165 8.97191 31.9866 8.97896 33.0002C8.98133 31.9851 9.3813 31.0123 10.0914 30.2946C10.8015 29.5768 11.7639 29.1725 12.7681 29.1701C11.8448 29.1694 10.9537 28.8272 10.263 28.2081C9.92589 27.9516 9.65006 27.6219 9.45581 27.2434C9.26156 26.8648 9.15384 26.447 9.14058 26.0208Z" fill="white"/>
<path d="M12.3012 1.15283H9.44586C9.42991 1.15371 9.41456 1.15936 9.40178 1.16905C9.38899 1.17874 9.37933 1.19205 9.37403 1.20729L0 32.973H0.529759L3.9238 21.4829C4.0944 20.9474 4.53437 19.5043 4.66906 18.9961L4.79476 18.4787L9.35608 3.04969C9.36159 3.03368 9.3719 3.01979 9.38558 3.00996C9.39925 3.00014 9.41562 2.99485 9.4324 2.99485C9.44918 2.99485 9.46554 3.00014 9.47922 3.00996C9.49289 3.01979 9.5032 3.03368 9.50872 3.04969C9.94869 4.55629 10.5952 6.68006 11.3763 9.40283C12.2024 12.298 12.9028 14.9028 12.9746 14.8938L18.362 33.0456C18.3674 33.0632 18.3781 33.0788 18.3925 33.0901C18.407 33.1015 18.4245 33.1081 18.4428 33.1091H21.5764C21.5887 33.1094 21.601 33.1069 21.6122 33.1017C21.6233 33.0965 21.6332 33.0888 21.641 33.0792C21.6488 33.0695 21.6543 33.0582 21.6571 33.0461C21.66 33.034 21.66 33.0214 21.6572 33.0093L12.373 1.20729C12.3668 1.19263 12.3569 1.17988 12.3443 1.17032C12.3317 1.16076 12.3168 1.15474 12.3012 1.15283Z" fill="white"/>
<path d="M42.2819 32.2377C41.3345 32.3902 40.3769 32.4691 39.4176 32.4737C36.936 32.4687 34.5205 31.6644 32.5218 30.1775C30.3993 28.6688 28.6658 26.6675 27.4666 24.3417C26.2827 22.109 25.6656 19.6141 25.6708 17.0809C25.6708 14.5484 26.2876 12.0548 27.4666 9.82021C28.6602 7.48302 30.3944 5.4717 32.5218 3.95718C34.5205 2.47028 36.936 1.66596 39.4176 1.66098C40.3766 1.66418 41.3341 1.74003 42.2819 1.88787V1.3524C41.3338 1.20744 40.3765 1.13161 39.4176 1.1255C36.4754 1.09546 33.5658 1.75072 30.9145 3.0405C28.3496 4.28277 26.1744 6.21763 24.6293 8.63127C23.0626 11.1551 22.2316 14.0742 22.2316 17.0537C22.2316 20.0332 23.0626 22.9523 24.6293 25.4761C26.1744 27.8898 28.3496 29.8246 30.9145 31.0669C33.5658 32.3567 36.4754 33.012 39.4176 32.9819C40.3765 32.9758 41.3338 32.9 42.2819 32.755V32.2377Z" fill="white"/>
<path d="M73.6275 1.15272C76.1768 1.11758 78.7084 1.58619 81.08 2.53225C83.1141 3.33497 84.952 4.57348 86.4674 6.16261C87.8317 7.63775 88.9044 9.36288 89.628 11.2451C91.0886 15.0081 91.0886 19.19 89.628 22.953C88.9044 24.8353 87.8317 26.5604 86.4674 28.0356C84.952 29.6247 83.1141 30.8632 81.08 31.6659C78.7084 32.612 76.1768 33.0806 73.6275 33.0455H69.6049V1.15272H73.6275ZM73.6275 32.4737C75.6411 32.5016 77.6334 32.0541 79.4458 31.1667C81.1053 30.3626 82.5496 29.1674 83.657 27.6816C84.7538 26.1869 85.5973 24.5184 86.1531 22.7443C87.3384 19.0638 87.3384 15.0981 86.1531 11.4176C85.601 9.65027 84.7571 7.99014 83.657 6.5075C82.5445 5.0266 81.1016 3.83243 79.4458 3.02235C77.6384 2.11779 75.6441 1.66049 73.6275 1.68819H73.0528V32.4737H73.6275Z" fill="white"/>
<path d="M118.837 2.7048V33.0093H118.307V1.15283H121.746C122.859 4.54722 124.478 9.33324 126.603 15.5109C128.728 21.6886 130.141 25.8272 130.841 27.9268L139.892 1.15283H143.295V33.0093H139.892V2.7048L129.611 33.0093L118.837 2.7048Z" fill="white"/>
<path d="M160.544 33.0093H157.15V20.9565L148.045 1.20729H148.943L157.617 19.9853L166.281 1.15283L169.684 1.20729L160.58 20.9565L160.544 33.0093Z" fill="white"/>
<path d="M112.444 1.15283H94.1803V33.0002H112.444V32.4738H97.1164V15.048V14.5579V1.67923H112.444V1.15283Z" fill="white"/>
<path d="M96.1287 11.2812C99.002 11.2812 102.818 12.7697 105.808 12.7697C106.84 12.8214 107.863 12.5488 108.735 11.9892C108.317 12.4574 107.799 12.8239 107.22 13.0612C106.642 13.2986 106.018 13.4006 105.395 13.3596C102.468 13.3596 98.7596 11.7986 95.8953 11.7986C95.2125 11.7335 94.5245 11.8451 93.8962 12.1229C93.2678 12.4008 92.7198 12.8358 92.3037 13.3869C93.013 11.7623 94.3958 11.2812 96.1287 11.2812Z" fill="white" stroke="white" stroke-width="0.29" stroke-miterlimit="10"/>
<path d="M54.2598 26.0206C54.256 25.4894 54.3535 24.9625 54.5472 24.4686C54.7426 23.9755 55.0222 23.5208 55.3732 23.1254C55.7136 22.7328 56.1174 22.4014 56.5674 22.1452C57.6308 21.5204 58.795 21.0903 60.0064 20.8746C59.8717 20.5932 59.746 20.3028 59.6382 20.0124C58.4237 20.3652 57.2848 20.9438 56.2801 21.7186C55.5526 22.2718 54.9598 22.9858 54.5472 23.8061C54.4394 24.0875 54.2868 24.5594 54.0892 25.2129L53.5774 23.8061C53.1912 22.9844 52.6153 22.2685 51.8984 21.7186C50.7088 20.8112 49.3448 20.1651 47.8938 19.8218C47.8938 19.8762 47.4807 20.4299 47.382 20.6295C47.2832 20.8292 47.4717 20.7384 47.4717 20.7384C48.9142 20.9211 50.3044 21.3998 51.5572 22.1452C52.2477 22.5547 52.8324 23.1239 53.2632 23.8061C53.6948 24.4619 53.9231 25.233 53.9186 26.0206C53.9136 26.5963 53.7281 27.1555 53.3889 27.618C53.0321 28.1005 52.5634 28.487 52.0241 28.7434C51.4899 29.0187 50.8997 29.1647 50.3001 29.17C51.3043 29.1724 52.2667 29.5766 52.9768 30.2944C53.6869 31.0122 54.0869 31.9849 54.0892 33C54.0916 31.9849 54.4916 31.0122 55.2017 30.2944C55.9117 29.5766 56.8742 29.1724 57.8784 29.17C56.9546 29.1718 56.0627 28.8293 55.3732 28.2079C55.0373 27.951 54.7629 27.621 54.5702 27.2424C54.3774 26.8638 54.2714 26.4462 54.2598 26.0206Z" fill="white"/>
<path d="M57.4115 1.15283H54.5562C54.5402 1.15371 54.5249 1.15936 54.5121 1.16905C54.4993 1.17874 54.4896 1.19205 54.4843 1.20729L45.1103 32.973H45.64L49.0161 21.4829C49.1778 20.9474 49.6267 19.5043 49.7524 18.9961L49.8781 18.4787L54.4484 3.04969C54.4484 3.03044 54.456 3.01197 54.4694 2.99836C54.4829 2.98474 54.5012 2.97708 54.5202 2.97708C54.5393 2.97708 54.5576 2.98474 54.571 2.99836C54.5845 3.01197 54.5921 3.03044 54.5921 3.04969C55.041 4.55629 55.6785 6.68006 56.4597 9.40283C57.2858 12.298 57.9861 14.9028 58.0669 14.8938L63.4543 33.0456C63.462 33.0609 63.4735 33.074 63.4876 33.0835C63.5018 33.0931 63.5181 33.0988 63.5351 33.1H66.6777C66.6893 33.099 66.7005 33.0955 66.7106 33.0898C66.7207 33.084 66.7294 33.0761 66.7362 33.0667C66.743 33.0572 66.7477 33.0464 66.7501 33.0349C66.7524 33.0234 66.7522 33.0116 66.7496 33.0002L57.4564 1.29804C57.469 1.28776 57.4784 1.27385 57.4831 1.25814C57.4878 1.24242 57.4878 1.22563 57.4829 1.20994C57.4781 1.19426 57.4687 1.18042 57.4559 1.17023C57.4432 1.16004 57.4277 1.15398 57.4115 1.15283Z" fill="white"/>
</g>
<defs>
<clipPath id="clip0_162_68">
<rect width="445.5" height="33" fill="white"/>
</clipPath>
</defs>
</svg>
