<svg width="69" height="72" viewBox="0 0 69 72" fill="none" xmlns="http://www.w3.org/2000/svg">
<g id="46176-O4US4T 5" clip-path="url(#clip0_242_1688)">
<g id="Objects">
<path id="Vector" d="M27.7369 62.0177C27.0728 62.0182 26.4235 61.8231 25.871 61.4571C25.3186 61.0911 24.8878 60.5706 24.6333 59.9614C24.3788 59.3523 24.3119 58.6818 24.4411 58.0349C24.5703 57.388 24.8899 56.7936 25.3593 56.3271C25.8287 55.8605 26.4269 55.5427 27.0782 55.4139C27.7295 55.285 28.4046 55.3509 29.0182 55.6031C29.6319 55.8554 30.1563 56.2827 30.5254 56.8311C30.8944 57.3794 31.0913 58.0241 31.0913 58.6836C31.0906 59.5672 30.737 60.4144 30.1082 61.0394C29.4794 61.6644 28.6266 62.0162 27.7369 62.0177ZM27.7369 56.0236C27.2072 56.0236 26.6893 56.1796 26.2488 56.4719C25.8083 56.7642 25.465 57.1796 25.2623 57.6657C25.0596 58.1517 25.0065 58.6866 25.1099 59.2026C25.2132 59.7186 25.4683 60.1926 25.8429 60.5646C26.2175 60.9366 26.6948 61.1899 27.2144 61.2926C27.734 61.3952 28.2725 61.3425 28.762 61.1412C29.2514 60.9399 29.6697 60.5989 29.964 60.1615C30.2584 59.724 30.4155 59.2097 30.4155 58.6836C30.4147 57.9784 30.1323 57.3022 29.6301 56.8035C29.128 56.3048 28.4471 56.0243 27.7369 56.0236Z" fill="black"/>
<path id="Vector_2" d="M34.8494 71.3595C34.1853 71.3595 33.5361 71.1639 32.9839 70.7974C32.4318 70.4309 32.0015 69.9101 31.7475 69.3007C31.4935 68.6913 31.4271 68.0208 31.5569 67.374C31.6867 66.7272 32.0067 66.1331 32.4765 65.6669C32.9463 65.2008 33.5447 64.8835 34.1961 64.7551C34.8475 64.6268 35.5226 64.6932 36.136 64.946C36.7494 65.1988 37.2736 65.6265 37.6421 66.1752C38.0107 66.7238 38.2071 67.3687 38.2066 68.0282C38.2051 68.9117 37.8508 69.7586 37.2215 70.3831C36.5921 71.0076 35.7391 71.3587 34.8494 71.3595ZM34.8494 65.3682C34.3196 65.3682 33.8017 65.5242 33.3613 65.8165C32.9208 66.1087 32.5775 66.5242 32.3747 67.0102C32.172 67.4963 32.119 68.0312 32.2223 68.5472C32.3257 69.0631 32.5808 69.5371 32.9554 69.9091C33.33 70.2812 33.8072 70.5345 34.3268 70.6371C34.8464 70.7398 35.385 70.6871 35.8744 70.4858C36.3638 70.2844 36.7822 69.9435 37.0765 69.506C37.3708 69.0686 37.5279 68.5543 37.5279 68.0282C37.529 67.6781 37.4605 67.3311 37.3265 67.0073C37.1924 66.6834 36.9953 66.389 36.7465 66.1409C36.4977 65.8928 36.2021 65.6959 35.8765 65.5614C35.551 65.4269 35.202 65.3575 34.8494 65.3571V65.3682Z" fill="black"/>
<path id="Vector_3" d="M34.8493 43.2863C33.6178 43.2841 32.4147 42.9194 31.3919 42.2383C30.3691 41.5571 29.5726 40.5901 29.1031 39.4595C28.6337 38.3289 28.5122 37.0854 28.7542 35.8863C28.9962 34.6872 29.5908 33.5862 30.4627 32.7226C31.3347 31.859 32.4449 31.2715 33.653 31.0344C34.8611 30.7972 36.1129 30.9212 37.2501 31.3904C38.3873 31.8597 39.3589 32.6533 40.042 33.6708C40.7251 34.6884 41.0892 35.8842 41.0881 37.1072C41.0844 38.7477 40.4254 40.3198 39.2557 41.4783C38.086 42.6368 36.5013 43.287 34.8493 43.2863ZM34.8493 31.5827C33.7491 31.5827 32.6736 31.9067 31.7588 32.5137C30.8439 33.1208 30.1309 33.9836 29.7099 34.993C29.2888 36.0025 29.1787 37.1133 29.3933 38.1849C29.608 39.2566 30.1378 40.241 30.9158 41.0136C31.6937 41.7862 32.685 42.3124 33.7641 42.5255C34.8431 42.7387 35.9617 42.6293 36.9781 42.2111C37.9946 41.793 38.8634 41.0849 39.4747 40.1764C40.0859 39.2679 40.4122 38.1998 40.4122 37.1072C40.4122 35.642 39.8261 34.2368 38.7829 33.2008C37.7396 32.1647 36.3247 31.5827 34.8493 31.5827Z" fill="black"/>
<path id="Vector_4" d="M42.0808 62.0177C41.4168 62.0177 40.7678 61.8221 40.2157 61.4558C39.6636 61.0894 39.2333 60.5687 38.9792 59.9595C38.7251 59.3503 38.6586 58.6799 38.7881 58.0332C38.9177 57.3865 39.2374 56.7924 39.7069 56.3261C40.1764 55.8598 40.7746 55.5423 41.4259 55.4137C42.0771 55.285 42.7521 55.3511 43.3656 55.6034C43.979 55.8558 44.5033 56.2831 44.8722 56.8314C45.2411 57.3796 45.438 58.0242 45.438 58.6836C45.4373 59.5676 45.0833 60.4152 44.4539 61.0403C43.8245 61.6654 42.971 62.0169 42.0808 62.0177ZM42.0808 56.0236C41.5511 56.0236 41.0332 56.1796 40.5927 56.4719C40.1522 56.7642 39.8089 57.1796 39.6062 57.6657C39.4035 58.1517 39.3504 58.6866 39.4538 59.2026C39.5571 59.7186 39.8122 60.1926 40.1868 60.5646C40.5614 60.9366 41.0387 61.1899 41.5583 61.2926C42.0779 61.3952 42.6164 61.3425 43.1059 61.1412C43.5953 60.9399 44.0136 60.5989 44.3079 60.1615C44.6023 59.724 44.7594 59.2097 44.7594 58.6836C44.7586 57.9784 44.4762 57.3022 43.974 56.8035C43.4719 56.3048 42.791 56.0243 42.0808 56.0236Z" fill="black"/>
<path id="Vector_5" d="M45.6296 21.6885H23.8872C23.8275 21.6887 23.7689 21.6733 23.7172 21.6437C23.6654 21.6142 23.6225 21.5717 23.5926 21.5205C23.5627 21.4692 23.5469 21.411 23.5469 21.3518C23.5468 21.2926 23.5625 21.2343 23.5923 21.183L34.465 2.48266C34.4973 2.4348 34.5409 2.39558 34.5921 2.36846C34.6433 2.34134 34.7004 2.32715 34.7584 2.32715C34.8164 2.32715 34.8735 2.34134 34.9247 2.36846C34.9759 2.39558 35.0195 2.4348 35.0518 2.48266L45.9245 21.183C45.9543 21.2343 45.97 21.2926 45.9699 21.3518C45.9699 21.411 45.9541 21.4692 45.9242 21.5205C45.8943 21.5717 45.8514 21.6142 45.7996 21.6437C45.7479 21.6733 45.6893 21.6887 45.6296 21.6885ZM24.474 21.0173H45.0428L34.7515 3.32515L24.474 21.0173Z" fill="black"/>
<path id="Vector_6" d="M35.0996 42.9502H34.4209V65.3105H35.0996V42.9502Z" fill="black"/>
<path id="Vector_7" d="M35.0996 21.3516H34.4209V31.2597H35.0996V21.3516Z" fill="black"/>
<path id="Vector_8" d="M47.8524 51.3525H21.668V52.0265H47.8524V51.3525Z" fill="black"/>
<path id="Vector_9" d="M40.0589 11.4189H29.4561V12.0929H40.0589V11.4189Z" fill="black"/>
<path id="Vector_10" d="M21.8984 48.9297H21.2197V54.2967H21.8984V48.9297Z" fill="black"/>
<path id="Vector_11" d="M48.083 48.9297H47.4043V54.2967H48.083V48.9297Z" fill="black"/>
<path id="Vector_12" d="M42.8785 48.0658C42.8782 47.9993 42.8911 47.9334 42.9165 47.8719C42.942 47.8104 42.9794 47.7545 43.0268 47.7075C43.0741 47.6605 43.1304 47.6233 43.1923 47.598C43.2542 47.5727 43.3206 47.5599 43.3875 47.5603C43.4542 47.5603 43.5203 47.5734 43.5819 47.5988C43.6435 47.6242 43.6994 47.6615 43.7465 47.7085C43.7935 47.7555 43.8307 47.8112 43.856 47.8725C43.8813 47.9338 43.8941 47.9995 43.8938 48.0658C43.8941 48.132 43.8813 48.1977 43.856 48.259C43.8307 48.3203 43.7935 48.376 43.7465 48.423C43.6994 48.47 43.6435 48.5073 43.5819 48.5327C43.5203 48.5582 43.4542 48.5713 43.3875 48.5712C43.3206 48.5716 43.2542 48.5588 43.1923 48.5335C43.1304 48.5082 43.0741 48.471 43.0268 48.424C42.9794 48.377 42.942 48.3211 42.9165 48.2596C42.8911 48.1981 42.8782 48.1322 42.8785 48.0658ZM40.1666 48.0658C40.1663 47.9993 40.1792 47.9334 40.2046 47.8719C40.2301 47.8104 40.2675 47.7545 40.3149 47.7075C40.3622 47.6605 40.4185 47.6233 40.4804 47.598C40.5423 47.5727 40.6087 47.5599 40.6756 47.5603C40.7423 47.5603 40.8084 47.5734 40.87 47.5988C40.9316 47.6242 40.9875 47.6615 41.0346 47.7085C41.0816 47.7555 41.1188 47.8112 41.1441 47.8725C41.1694 47.9338 41.1822 47.9995 41.1819 48.0658C41.1826 48.1972 41.1315 48.3237 41.0395 48.4182C40.9475 48.5127 40.8219 48.5676 40.6895 48.5712C40.6214 48.5735 40.5536 48.562 40.49 48.5376C40.4265 48.5132 40.3686 48.4762 40.3197 48.429C40.2709 48.3818 40.2322 48.3253 40.2059 48.2629C40.1796 48.2005 40.1662 48.1334 40.1666 48.0658ZM37.4547 48.0658C37.4544 47.9993 37.4673 47.9334 37.4927 47.8719C37.5182 47.8104 37.5556 47.7545 37.603 47.7075C37.6503 47.6605 37.7066 47.6233 37.7685 47.598C37.8304 47.5727 37.8968 47.5599 37.9637 47.5603C38.0304 47.5603 38.0965 47.5734 38.1581 47.5988C38.2197 47.6242 38.2756 47.6615 38.3227 47.7085C38.3697 47.7555 38.4069 47.8112 38.4322 47.8725C38.4575 47.9338 38.4703 47.9995 38.47 48.0658C38.4703 48.132 38.4575 48.1977 38.4322 48.259C38.4069 48.3203 38.3697 48.376 38.3227 48.423C38.2756 48.47 38.2197 48.5073 38.1581 48.5327C38.0965 48.5582 38.0304 48.5713 37.9637 48.5712C37.8968 48.5716 37.8304 48.5588 37.7685 48.5335C37.7066 48.5082 37.6503 48.471 37.603 48.424C37.5556 48.377 37.5182 48.3211 37.4927 48.2596C37.4673 48.1981 37.4544 48.1322 37.4547 48.0658ZM34.7428 48.0658C34.7425 47.9995 34.7553 47.9338 34.7806 47.8725C34.8058 47.8112 34.8431 47.7555 34.8901 47.7085C34.9372 47.6615 34.9931 47.6242 35.0547 47.5988C35.1163 47.5734 35.1823 47.5603 35.2491 47.5603C35.316 47.5599 35.3824 47.5727 35.4443 47.598C35.5062 47.6233 35.5624 47.6605 35.6098 47.7075C35.6571 47.7545 35.6946 47.8104 35.7201 47.8719C35.7455 47.9334 35.7584 47.9993 35.7581 48.0658C35.7584 48.1322 35.7455 48.1981 35.7201 48.2596C35.6946 48.3211 35.6571 48.377 35.6098 48.424C35.5624 48.471 35.5062 48.5082 35.4443 48.5335C35.3824 48.5588 35.316 48.5716 35.2491 48.5712C35.1823 48.5713 35.1163 48.5582 35.0547 48.5327C34.9931 48.5073 34.9372 48.47 34.8901 48.423C34.8431 48.376 34.8058 48.3203 34.7806 48.259C34.7553 48.1977 34.7425 48.132 34.7428 48.0658ZM32.0309 48.0658C32.0306 47.9995 32.0434 47.9338 32.0687 47.8725C32.0939 47.8112 32.1312 47.7555 32.1782 47.7085C32.2253 47.6615 32.2812 47.6242 32.3428 47.5988C32.4044 47.5734 32.4704 47.5603 32.5372 47.5603C32.6041 47.5599 32.6705 47.5727 32.7324 47.598C32.7943 47.6233 32.8505 47.6605 32.8979 47.7075C32.9452 47.7545 32.9827 47.8104 33.0082 47.8719C33.0336 47.9334 33.0465 47.9993 33.0462 48.0658C33.0465 48.1322 33.0336 48.1981 33.0082 48.2596C32.9827 48.3211 32.9452 48.377 32.8979 48.424C32.8505 48.471 32.7943 48.5082 32.7324 48.5335C32.6705 48.5588 32.6041 48.5716 32.5372 48.5712C32.4704 48.5713 32.4044 48.5582 32.3428 48.5327C32.2812 48.5073 32.2253 48.47 32.1782 48.423C32.1312 48.376 32.0939 48.3203 32.0687 48.259C32.0434 48.1977 32.0306 48.132 32.0309 48.0658ZM29.319 48.0658C29.3187 47.9995 29.3315 47.9338 29.3568 47.8725C29.382 47.8112 29.4193 47.7555 29.4663 47.7085C29.5134 47.6615 29.5693 47.6242 29.6309 47.5988C29.6925 47.5734 29.7585 47.5603 29.8253 47.5603C29.8922 47.5599 29.9586 47.5727 30.0205 47.598C30.0824 47.6233 30.1386 47.6605 30.186 47.7075C30.2333 47.7545 30.2708 47.8104 30.2963 47.8719C30.3217 47.9334 30.3346 47.9993 30.3343 48.0658C30.3346 48.1322 30.3217 48.1981 30.2963 48.2596C30.2708 48.3211 30.2333 48.377 30.186 48.424C30.1386 48.471 30.0824 48.5082 30.0205 48.5335C29.9586 48.5588 29.8922 48.5716 29.8253 48.5712C29.7585 48.5713 29.6925 48.5582 29.6309 48.5327C29.5693 48.5073 29.5134 48.47 29.4663 48.423C29.4193 48.376 29.382 48.3203 29.3568 48.259C29.3315 48.1977 29.3187 48.132 29.319 48.0658ZM26.6071 48.0658C26.6068 47.9995 26.6196 47.9338 26.6449 47.8725C26.6701 47.8112 26.7074 47.7555 26.7544 47.7085C26.8015 47.6615 26.8574 47.6242 26.919 47.5988C26.9806 47.5734 27.0466 47.5603 27.1134 47.5603C27.1803 47.5599 27.2467 47.5727 27.3086 47.598C27.3705 47.6233 27.4268 47.6605 27.4741 47.7075C27.5214 47.7545 27.5589 47.8104 27.5844 47.8719C27.6098 47.9334 27.6227 47.9993 27.6224 48.0658C27.6227 48.1322 27.6098 48.1981 27.5844 48.2596C27.5589 48.3211 27.5214 48.377 27.4741 48.424C27.4268 48.471 27.3705 48.5082 27.3086 48.5335C27.2467 48.5588 27.1803 48.5716 27.1134 48.5712C27.0466 48.5713 26.9806 48.5582 26.919 48.5327C26.8574 48.5073 26.8015 48.47 26.7544 48.423C26.7074 48.376 26.6701 48.3203 26.6449 48.259C26.6196 48.1977 26.6068 48.132 26.6071 48.0658ZM23.8952 48.0658C23.8949 47.9995 23.9077 47.9338 23.933 47.8725C23.9582 47.8112 23.9955 47.7555 24.0425 47.7085C24.0896 47.6615 24.1455 47.6242 24.2071 47.5988C24.2687 47.5734 24.3347 47.5603 24.4015 47.5603C24.4684 47.5599 24.5348 47.5727 24.5967 47.598C24.6586 47.6233 24.7149 47.6605 24.7622 47.7075C24.8095 47.7545 24.847 47.8104 24.8725 47.8719C24.8979 47.9334 24.9108 47.9993 24.9105 48.0658C24.9108 48.1322 24.8979 48.1981 24.8725 48.2596C24.847 48.3211 24.8095 48.377 24.7622 48.424C24.7149 48.471 24.6586 48.5082 24.5967 48.5335C24.5348 48.5588 24.4684 48.5716 24.4015 48.5712C24.3347 48.5713 24.2687 48.5582 24.2071 48.5327C24.1455 48.5073 24.0896 48.47 24.0425 48.423C23.9955 48.376 23.9582 48.3203 23.933 48.259C23.9077 48.1977 23.8949 48.132 23.8952 48.0658ZM44.3499 46.8338C44.3495 46.7676 44.3624 46.7019 44.3876 46.6406C44.4129 46.5792 44.4501 46.5235 44.4972 46.4765C44.5442 46.4296 44.6002 46.3923 44.6618 46.3668C44.7234 46.3414 44.7894 46.3283 44.8561 46.3283C44.9231 46.3279 44.9894 46.3408 45.0514 46.366C45.1133 46.3913 45.1695 46.4285 45.2169 46.4755C45.2642 46.5226 45.3017 46.5784 45.3271 46.6399C45.3526 46.7014 45.3655 46.7673 45.3651 46.8338C45.363 46.9652 45.309 47.0905 45.2149 47.183C45.1208 47.2754 44.994 47.3275 44.8617 47.3282C44.7279 47.3297 44.599 47.2785 44.5031 47.1859C44.4072 47.0932 44.3521 46.9667 44.3499 46.8338ZM23.3918 45.8725C23.3914 45.8063 23.4043 45.7406 23.4295 45.6793C23.4548 45.618 23.492 45.5622 23.5391 45.5153C23.5861 45.4683 23.6421 45.431 23.7037 45.4056C23.7653 45.3801 23.8313 45.3671 23.898 45.3671C23.9651 45.3667 24.0316 45.3795 24.0937 45.4047C24.1557 45.43 24.2122 45.4671 24.2597 45.5141C24.3073 45.5611 24.345 45.6169 24.3708 45.6784C24.3965 45.74 24.4098 45.8059 24.4098 45.8725C24.4091 46.0061 24.3551 46.134 24.2597 46.2282C24.1644 46.3224 24.0353 46.3753 23.9008 46.3753C23.8341 46.3756 23.768 46.3629 23.7062 46.3378C23.6445 46.3127 23.5884 46.2757 23.5411 46.229C23.4937 46.1823 23.4562 46.1267 23.4306 46.0656C23.405 46.0044 23.3918 45.9388 23.3918 45.8725ZM44.3499 44.1406C44.3495 44.0744 44.3624 44.0087 44.3876 43.9474C44.4129 43.8861 44.4501 43.8303 44.4972 43.7833C44.5442 43.7364 44.6002 43.6991 44.6618 43.6736C44.7234 43.6482 44.7894 43.6351 44.8561 43.6351C44.9231 43.6348 44.9894 43.6476 45.0514 43.6729C45.1133 43.6981 45.1695 43.7353 45.2169 43.7824C45.2642 43.8294 45.3017 43.8852 45.3271 43.9467C45.3526 44.0082 45.3655 44.0741 45.3651 44.1406C45.3655 44.2071 45.3526 44.273 45.3271 44.3345C45.3017 44.396 45.2642 44.4519 45.2169 44.4989C45.1695 44.5459 45.1133 44.5831 45.0514 44.6084C44.9894 44.6336 44.9231 44.6465 44.8561 44.6461C44.7894 44.6461 44.7234 44.633 44.6618 44.6076C44.6002 44.5821 44.5442 44.5449 44.4972 44.4979C44.4501 44.4509 44.4129 44.3952 44.3876 44.3338C44.3624 44.2725 44.3495 44.2069 44.3499 44.1406ZM23.3918 43.1849C23.3918 43.0515 23.4451 42.9237 23.5401 42.8294C23.635 42.7351 23.7638 42.6821 23.898 42.6821C23.9649 42.6818 24.0311 42.6945 24.093 42.7196C24.1549 42.7446 24.2112 42.7816 24.2588 42.8282C24.3063 42.8749 24.3441 42.9305 24.37 42.9916C24.3959 43.0528 24.4094 43.1185 24.4098 43.1849C24.4098 43.3189 24.3562 43.4475 24.2607 43.5423C24.1653 43.6371 24.0358 43.6904 23.9008 43.6904C23.8339 43.6907 23.7675 43.6779 23.7056 43.6526C23.6436 43.6274 23.5874 43.5901 23.54 43.5431C23.4927 43.4961 23.4552 43.4403 23.4298 43.3788C23.4043 43.3173 23.3914 43.2514 23.3918 43.1849ZM44.3499 41.4557C44.3495 41.3895 44.3624 41.3238 44.3876 41.2625C44.4129 41.2012 44.4501 41.1454 44.4972 41.0984C44.5442 41.0515 44.6002 41.0142 44.6618 40.9888C44.7234 40.9633 44.7894 40.9502 44.8561 40.9502C44.9231 40.9498 44.9894 40.9627 45.0514 40.9879C45.1133 41.0132 45.1695 41.0504 45.2169 41.0975C45.2642 41.1445 45.3017 41.2003 45.3271 41.2618C45.3526 41.3233 45.3655 41.3892 45.3651 41.4557C45.3655 41.5222 45.3526 41.5881 45.3271 41.6496C45.3017 41.7111 45.2642 41.767 45.2169 41.814C45.1695 41.861 45.1133 41.8982 45.0514 41.9235C44.9894 41.9487 44.9231 41.9616 44.8561 41.9612C44.7887 41.9612 44.722 41.9479 44.6598 41.9219C44.5977 41.896 44.5413 41.8579 44.4942 41.8101C44.447 41.7622 44.41 41.7055 44.3852 41.6432C44.3604 41.5809 44.3484 41.5144 44.3499 41.4474V41.4557ZM23.3918 40.4917C23.3918 40.3584 23.4451 40.2305 23.5401 40.1362C23.635 40.0419 23.7638 39.989 23.898 39.989C23.9649 39.9886 24.0311 40.0013 24.093 40.0264C24.1549 40.0515 24.2112 40.0884 24.2588 40.1351C24.3063 40.1817 24.3441 40.2373 24.37 40.2985C24.3959 40.3597 24.4094 40.4253 24.4098 40.4917C24.4098 40.6258 24.3562 40.7543 24.2607 40.8491C24.1653 40.9439 24.0358 40.9972 23.9008 40.9972C23.8331 40.9976 23.7661 40.9845 23.7036 40.9587C23.6411 40.9329 23.5845 40.8949 23.537 40.847C23.4896 40.7991 23.4523 40.7423 23.4273 40.6798C23.4024 40.6174 23.3903 40.5506 23.3918 40.4834V40.4917ZM44.3499 38.7653C44.3495 38.699 44.3624 38.6334 44.3876 38.572C44.4129 38.5107 44.4501 38.455 44.4972 38.408C44.5442 38.361 44.6002 38.3238 44.6618 38.2983C44.7234 38.2729 44.7894 38.2598 44.8561 38.2598C44.9231 38.2594 44.9894 38.2722 45.0514 38.2975C45.1133 38.3228 45.1695 38.36 45.2169 38.407C45.2642 38.4541 45.3017 38.5099 45.3271 38.5714C45.3526 38.6329 45.3655 38.6988 45.3651 38.7653C45.3655 38.8318 45.3526 38.8977 45.3271 38.9592C45.3017 39.0207 45.2642 39.0765 45.2169 39.1235C45.1695 39.1705 45.1133 39.2078 45.0514 39.233C44.9894 39.2583 44.9231 39.2711 44.8561 39.2708C44.7894 39.2708 44.7234 39.2577 44.6618 39.2322C44.6002 39.2068 44.5442 39.1695 44.4972 39.1226C44.4501 39.0756 44.4129 39.0198 44.3876 38.9585C44.3624 38.8972 44.3495 38.8315 44.3499 38.7653ZM23.3918 37.8013C23.3918 37.6679 23.4451 37.5401 23.5401 37.4458C23.635 37.3515 23.7638 37.2985 23.898 37.2985C23.9649 37.2982 24.0311 37.3109 24.093 37.3359C24.1549 37.361 24.2112 37.398 24.2588 37.4446C24.3063 37.4913 24.3441 37.5468 24.37 37.608C24.3959 37.6692 24.4094 37.7349 24.4098 37.8013C24.4098 37.8676 24.3966 37.9334 24.3711 37.9947C24.3455 38.056 24.308 38.1118 24.2607 38.1587C24.2135 38.2056 24.1573 38.2429 24.0956 38.2683C24.0338 38.2937 23.9676 38.3068 23.9008 38.3068C23.8329 38.3072 23.7656 38.294 23.7029 38.268C23.6403 38.2421 23.5835 38.2038 23.536 38.1556C23.4885 38.1075 23.4513 38.0503 23.4265 37.9875C23.4017 37.9247 23.3899 37.8576 23.3918 37.7902V37.8013ZM44.3499 36.0721C44.3495 36.0058 44.3624 35.9402 44.3876 35.8789C44.4129 35.8175 44.4501 35.7618 44.4972 35.7148C44.5442 35.6679 44.6002 35.6306 44.6618 35.6051C44.7234 35.5797 44.7894 35.5666 44.8561 35.5666C44.9231 35.5662 44.9894 35.5791 45.0514 35.6043C45.1133 35.6296 45.1695 35.6668 45.2169 35.7139C45.2642 35.7609 45.3017 35.8167 45.3271 35.8782C45.3526 35.9397 45.3655 36.0056 45.3651 36.0721C45.3601 36.2016 45.305 36.3241 45.2112 36.4142C45.1174 36.5043 44.9922 36.5549 44.8617 36.5555C44.7279 36.557 44.599 36.5058 44.5031 36.4131C44.4072 36.3205 44.3521 36.1939 44.3499 36.0611V36.0721ZM23.3918 35.1081C23.3918 34.9747 23.4451 34.8469 23.5401 34.7526C23.635 34.6583 23.7638 34.6053 23.898 34.6053C23.9649 34.605 24.0311 34.6177 24.093 34.6428C24.1549 34.6678 24.2112 34.7048 24.2588 34.7515C24.3063 34.7981 24.3441 34.8536 24.37 34.9148C24.3959 34.976 24.4094 35.0417 24.4098 35.1081C24.4098 35.2421 24.3562 35.3707 24.2607 35.4655C24.1653 35.5603 24.0358 35.6136 23.9008 35.6136C23.8329 35.614 23.7656 35.6008 23.7029 35.5748C23.6403 35.5489 23.5835 35.5107 23.536 35.4625C23.4885 35.4143 23.4513 35.3571 23.4265 35.2943C23.4017 35.2315 23.3899 35.1644 23.3918 35.097V35.1081ZM44.3499 33.3789C44.3495 33.3127 44.3624 33.247 44.3876 33.1857C44.4129 33.1244 44.4501 33.0686 44.4972 33.0216C44.5442 32.9747 44.6002 32.9374 44.6618 32.912C44.7234 32.8865 44.7894 32.8734 44.8561 32.8734C44.9231 32.873 44.9894 32.8859 45.0514 32.9111C45.1133 32.9364 45.1695 32.9737 45.2169 33.0207C45.2642 33.0677 45.3017 33.1235 45.3271 33.185C45.3526 33.2465 45.3655 33.3124 45.3651 33.3789C45.3655 33.4454 45.3526 33.5113 45.3271 33.5728C45.3017 33.6343 45.2642 33.6901 45.2169 33.7372C45.1695 33.7842 45.1133 33.8214 45.0514 33.8467C44.9894 33.8719 44.9231 33.8848 44.8561 33.8844C44.7885 33.8844 44.7215 33.871 44.6591 33.8449C44.5968 33.8187 44.5404 33.7805 44.4932 33.7323C44.446 33.6841 44.409 33.6271 44.3844 33.5645C44.3598 33.5019 44.348 33.435 44.3499 33.3679V33.3789ZM23.3918 32.4121C23.3918 32.2788 23.4451 32.1509 23.5401 32.0566C23.635 31.9624 23.7638 31.9094 23.898 31.9094C23.9649 31.909 24.0311 31.9218 24.093 31.9468C24.1549 31.9719 24.2112 32.0088 24.2588 32.0555C24.3063 32.1022 24.3441 32.1577 24.37 32.2189C24.3959 32.2801 24.4094 32.3457 24.4098 32.4121C24.4098 32.5462 24.3562 32.6748 24.2607 32.7696C24.1653 32.8644 24.0358 32.9176 23.9008 32.9176C23.8339 32.918 23.7675 32.9052 23.7056 32.8799C23.6436 32.8546 23.5874 32.8174 23.54 32.7704C23.4927 32.7234 23.4552 32.6675 23.4298 32.606C23.4043 32.5445 23.3914 32.4786 23.3918 32.4121ZM44.3499 30.683C44.3495 30.6167 44.3624 30.551 44.3876 30.4897C44.4129 30.4284 44.4501 30.3727 44.4972 30.3257C44.5442 30.2787 44.6002 30.2414 44.6618 30.216C44.7234 30.1906 44.7894 30.1775 44.8561 30.1775C44.9231 30.1771 44.9894 30.1899 45.0514 30.2152C45.1133 30.2405 45.1695 30.2777 45.2169 30.3247C45.2642 30.3717 45.3017 30.4276 45.3271 30.4891C45.3526 30.5506 45.3655 30.6165 45.3651 30.683C45.3655 30.7494 45.3526 30.8153 45.3271 30.8768C45.3017 30.9383 45.2642 30.9942 45.2169 31.0412C45.1695 31.0882 45.1133 31.1254 45.0514 31.1507C44.9894 31.176 44.9231 31.1888 44.8561 31.1885C44.7887 31.1885 44.722 31.1751 44.6598 31.1492C44.5977 31.1232 44.5413 31.0852 44.4942 31.0373C44.447 30.9895 44.41 30.9327 44.3852 30.8705C44.3604 30.8082 44.3484 30.7416 44.3499 30.6747V30.683ZM23.3918 29.7189C23.3918 29.5856 23.4451 29.4577 23.5401 29.3635C23.635 29.2692 23.7638 29.2162 23.898 29.2162C23.9649 29.2158 24.0311 29.2286 24.093 29.2536C24.1549 29.2787 24.2112 29.3156 24.2588 29.3623C24.3063 29.409 24.3441 29.4645 24.37 29.5257C24.3959 29.5869 24.4094 29.6526 24.4098 29.7189C24.4098 29.853 24.3562 29.9816 24.2607 30.0764C24.1653 30.1712 24.0358 30.2244 23.9008 30.2244C23.8331 30.2248 23.7661 30.2117 23.7036 30.1859C23.6411 30.1602 23.5845 30.1222 23.537 30.0743C23.4896 30.0264 23.4523 29.9695 23.4273 29.9071C23.4024 29.8446 23.3903 29.7778 23.3918 29.7106V29.7189ZM44.3499 27.9925C44.3495 27.9263 44.3624 27.8606 44.3876 27.7993C44.4129 27.738 44.4501 27.6822 44.4972 27.6353C44.5442 27.5883 44.6002 27.551 44.6618 27.5256C44.7234 27.5001 44.7894 27.487 44.8561 27.487C44.9231 27.4867 44.9894 27.4995 45.0514 27.5248C45.1133 27.55 45.1695 27.5873 45.2169 27.6343C45.2642 27.6813 45.3017 27.7372 45.3271 27.7987C45.3526 27.8601 45.3655 27.9261 45.3651 27.9925C45.3655 28.059 45.3526 28.1249 45.3271 28.1864C45.3017 28.2479 45.2642 28.3038 45.2169 28.3508C45.1695 28.3978 45.1133 28.435 45.0514 28.4603C44.9894 28.4856 44.9231 28.4984 44.8561 28.498C44.7894 28.498 44.7234 28.4849 44.6618 28.4595C44.6002 28.4341 44.5442 28.3968 44.4972 28.3498C44.4501 28.3028 44.4129 28.2471 44.3876 28.1858C44.3624 28.1245 44.3495 28.0588 44.3499 27.9925ZM23.3918 27.2605C23.3918 27.1945 23.4049 27.1291 23.4303 27.0682C23.4558 27.0072 23.4931 26.9517 23.5401 26.9051C23.5871 26.8584 23.6429 26.8213 23.7043 26.7961C23.7657 26.7708 23.8315 26.7578 23.898 26.7578C23.9649 26.7575 24.0311 26.7702 24.093 26.7952C24.1549 26.8203 24.2112 26.8572 24.2588 26.9039C24.3063 26.9506 24.3441 27.0061 24.37 27.0673C24.3959 27.1285 24.4094 27.1942 24.4098 27.2605C24.4098 27.3946 24.3562 27.5232 24.2607 27.618C24.1653 27.7128 24.0358 27.766 23.9008 27.766C23.8329 27.7664 23.7656 27.7533 23.7029 27.7273C23.6403 27.7013 23.5835 27.6631 23.536 27.6149C23.4885 27.5667 23.4513 27.5095 23.4265 27.4468C23.4017 27.384 23.3899 27.3169 23.3918 27.2495V27.2605ZM42.3723 27.2605C42.373 27.1269 42.427 26.9991 42.5224 26.9049C42.6178 26.8107 42.7468 26.7578 42.8813 26.7578C42.948 26.7575 43.0141 26.7702 43.0759 26.7953C43.1376 26.8204 43.1938 26.8574 43.2411 26.9041C43.2884 26.9508 43.3259 27.0063 43.3515 27.0675C43.3771 27.1287 43.3903 27.1943 43.3903 27.2605C43.3907 27.3268 43.3779 27.3925 43.3526 27.4538C43.3273 27.5151 43.2901 27.5708 43.243 27.6178C43.196 27.6648 43.1401 27.7021 43.0785 27.7275C43.0169 27.7529 42.9508 27.766 42.8841 27.766C42.8161 27.7664 42.7487 27.7533 42.6858 27.7273C42.623 27.7014 42.5661 27.6632 42.5184 27.6151C42.4707 27.5669 42.4332 27.5098 42.4081 27.447C42.383 27.3842 42.3708 27.317 42.3723 27.2495V27.2605ZM39.6632 27.2605C39.6628 27.1944 39.6757 27.1289 39.701 27.0677C39.7263 27.0066 39.7635 26.951 39.8106 26.9042C39.8577 26.8575 39.9137 26.8205 39.9753 26.7953C40.0368 26.7702 40.1028 26.7575 40.1694 26.7578C40.3042 26.7578 40.4335 26.8106 40.5293 26.9047C40.6252 26.9988 40.6797 27.1267 40.6812 27.2605C40.6812 27.3271 40.6679 27.3931 40.6422 27.4546C40.6164 27.5161 40.5787 27.572 40.5311 27.619C40.4836 27.6659 40.4271 27.7031 40.365 27.7283C40.303 27.7536 40.2365 27.7664 40.1694 27.766C40.1017 27.7661 40.0348 27.7526 39.9724 27.7265C39.9101 27.7004 39.8536 27.6621 39.8065 27.6139C39.7593 27.5658 39.7223 27.5087 39.6977 27.4461C39.673 27.3835 39.6613 27.3167 39.6632 27.2495V27.2605ZM36.9513 27.2605C36.9509 27.1944 36.9638 27.1289 36.9891 27.0677C37.0144 27.0066 37.0517 26.951 37.0987 26.9042C37.1458 26.8575 37.2018 26.8205 37.2634 26.7953C37.3249 26.7702 37.3909 26.7575 37.4575 26.7578C37.5923 26.7578 37.7216 26.8106 37.8174 26.9047C37.9133 26.9988 37.9678 27.1267 37.9693 27.2605C37.9693 27.3271 37.956 27.3931 37.9303 27.4546C37.9045 27.5161 37.8668 27.572 37.8192 27.619C37.7717 27.6659 37.7152 27.7031 37.6532 27.7283C37.5911 27.7536 37.5246 27.7664 37.4575 27.766C37.3898 27.7661 37.3229 27.7526 37.2605 27.7265C37.1982 27.7004 37.1417 27.6621 37.0946 27.6139C37.0474 27.5658 37.0104 27.5087 36.9858 27.4461C36.9611 27.3835 36.9494 27.3167 36.9513 27.2495V27.2605ZM34.2394 27.2605C34.239 27.1944 34.2519 27.1289 34.2772 27.0677C34.3025 27.0066 34.3398 26.951 34.3868 26.9042C34.4339 26.8575 34.4899 26.8205 34.5515 26.7953C34.613 26.7702 34.679 26.7575 34.7456 26.7578C34.8123 26.7575 34.8784 26.7702 34.9402 26.7953C35.0019 26.8204 35.0581 26.8574 35.1054 26.9041C35.1527 26.9508 35.1902 27.0063 35.2158 27.0675C35.2414 27.1287 35.2546 27.1943 35.2546 27.2605C35.255 27.327 35.2421 27.3929 35.2166 27.4544C35.1912 27.5159 35.1537 27.5718 35.1063 27.6188C35.059 27.6658 35.0027 27.703 34.9408 27.7283C34.8789 27.7536 34.8126 27.7664 34.7456 27.766C34.6779 27.7661 34.611 27.7526 34.5486 27.7265C34.4863 27.7004 34.4298 27.6621 34.3827 27.6139C34.3355 27.5658 34.2985 27.5087 34.2739 27.4461C34.2492 27.3835 34.2375 27.3167 34.2394 27.2495V27.2605ZM31.5247 27.2605C31.5254 27.1269 31.5794 26.9991 31.6748 26.9049C31.7702 26.8107 31.8992 26.7578 32.0337 26.7578C32.1004 26.7575 32.1665 26.7702 32.2283 26.7953C32.29 26.8204 32.3462 26.8574 32.3935 26.9041C32.4408 26.9508 32.4783 27.0063 32.5039 27.0675C32.5295 27.1287 32.5427 27.1943 32.5427 27.2605C32.5431 27.3268 32.5303 27.3925 32.505 27.4538C32.4797 27.5151 32.4425 27.5708 32.3954 27.6178C32.3484 27.6648 32.2925 27.7021 32.2309 27.7275C32.1693 27.7529 32.1032 27.766 32.0365 27.766C31.9685 27.7664 31.9011 27.7533 31.8382 27.7273C31.7754 27.7014 31.7185 27.6632 31.6708 27.6151C31.6231 27.5669 31.5856 27.5098 31.5605 27.447C31.5354 27.3842 31.5232 27.317 31.5247 27.2495V27.2605ZM28.8128 27.2605C28.8135 27.1269 28.8675 26.9991 28.9629 26.9049C29.0583 26.8107 29.1873 26.7578 29.3218 26.7578C29.3885 26.7575 29.4546 26.7702 29.5164 26.7953C29.5781 26.8204 29.6343 26.8574 29.6816 26.9041C29.7289 26.9508 29.7664 27.0063 29.792 27.0675C29.8176 27.1287 29.8308 27.1943 29.8308 27.2605C29.8312 27.3268 29.8184 27.3925 29.7931 27.4538C29.7678 27.5151 29.7306 27.5708 29.6835 27.6178C29.6365 27.6648 29.5806 27.7021 29.519 27.7275C29.4574 27.7529 29.3913 27.766 29.3246 27.766C29.2566 27.7664 29.1892 27.7533 29.1263 27.7273C29.0635 27.7014 29.0066 27.6632 28.9589 27.6151C28.9112 27.5669 28.8737 27.5098 28.8486 27.447C28.8235 27.3842 28.8113 27.317 28.8128 27.2495V27.2605ZM26.1009 27.2605C26.1016 27.1269 26.1556 26.9991 26.251 26.9049C26.3464 26.8107 26.4754 26.7578 26.6099 26.7578C26.7447 26.7578 26.874 26.8106 26.9699 26.9047C27.0657 26.9988 27.1202 27.1267 27.1217 27.2605C27.1217 27.3271 27.1084 27.3931 27.0827 27.4546C27.0569 27.5161 27.0192 27.572 26.9716 27.619C26.9241 27.6659 26.8676 27.7031 26.8056 27.7283C26.7435 27.7536 26.677 27.7664 26.6099 27.766C26.5421 27.766 26.475 27.7526 26.4125 27.7265C26.35 27.7004 26.2934 27.6622 26.246 27.6141C26.1986 27.566 26.1613 27.5089 26.1364 27.4463C26.1115 27.3837 26.0994 27.3168 26.1009 27.2495V27.2605Z" fill="black"/>
<path id="Vector_13" d="M38.8817 67.7883C38.8719 67.7226 38.8753 67.6556 38.8917 67.5913C38.9081 67.5269 38.9371 67.4663 38.9772 67.4132C39.0173 67.36 39.0676 67.3152 39.1252 67.2815C39.1828 67.2477 39.2466 67.2257 39.3128 67.2165C39.4459 67.1975 39.5812 67.2316 39.689 67.3113C39.7969 67.391 39.8686 67.5099 39.8886 67.6419C39.9077 67.7748 39.8731 67.9098 39.7923 68.0175C39.7115 68.1251 39.5912 68.1967 39.4575 68.2165H39.3824C39.2613 68.2159 39.1443 68.1725 39.0526 68.094C38.9608 68.0156 38.9002 67.9072 38.8817 67.7883ZM41.5519 67.3298C41.5366 67.265 41.5344 67.1979 41.5453 67.1323C41.5562 67.0667 41.58 67.0039 41.6154 66.9474C41.6508 66.891 41.6971 66.842 41.7516 66.8033C41.8061 66.7647 41.8677 66.7371 41.9329 66.7221C41.9978 66.7066 42.0651 66.704 42.131 66.7145C42.1969 66.725 42.26 66.7484 42.3166 66.7834C42.3733 66.8183 42.4224 66.8641 42.4611 66.9181C42.4998 66.9721 42.5273 67.0331 42.5421 67.0978C42.5573 67.1622 42.5597 67.2289 42.5489 67.2942C42.5381 67.3595 42.5145 67.422 42.4794 67.4782C42.4442 67.5344 42.3983 67.5832 42.3441 67.6217C42.29 67.6602 42.2287 67.6877 42.1638 67.7027C42.125 67.7081 42.0857 67.7081 42.047 67.7027C41.9346 67.7035 41.825 67.6674 41.7355 67.6C41.6459 67.5325 41.5814 67.4375 41.5519 67.3298ZM44.172 66.6392C44.1298 66.5121 44.14 66.3735 44.2005 66.2539C44.261 66.1343 44.3667 66.0434 44.4946 66.0011C44.558 65.9799 44.625 65.9713 44.6917 65.9757C44.7585 65.9802 44.8237 65.9977 44.8836 66.0272C44.9435 66.0567 44.997 66.0976 45.041 66.1476C45.085 66.1977 45.1186 66.2558 45.1399 66.3188C45.1821 66.4466 45.1716 66.5859 45.1106 66.706C45.0496 66.8261 44.9431 66.9174 44.8145 66.9596C44.7625 66.9771 44.7081 66.9864 44.6532 66.9873C44.5464 66.9863 44.4427 66.9523 44.3564 66.8899C44.2701 66.8275 44.2056 66.7398 44.172 66.6392ZM46.7226 65.7249C46.6692 65.6014 46.6671 65.4619 46.7165 65.3368C46.766 65.2117 46.8631 65.111 46.9868 65.0565C47.0479 65.0296 47.1138 65.0151 47.1806 65.0137C47.2474 65.0124 47.3138 65.0243 47.376 65.0487C47.4381 65.0732 47.4947 65.1096 47.5425 65.156C47.5903 65.2024 47.6283 65.2577 47.6543 65.3189C47.681 65.3796 47.6954 65.445 47.6965 65.5112C47.6976 65.5775 47.6856 65.6433 47.6611 65.7049C47.6365 65.7665 47.5999 65.8227 47.5534 65.8702C47.5069 65.9177 47.4514 65.9557 47.3901 65.9818C47.3258 66.0081 47.2567 66.0213 47.1871 66.0205C47.0889 66.0222 46.9925 65.995 46.9098 65.9424C46.8272 65.8898 46.762 65.8142 46.7226 65.7249ZM49.1786 64.5896C49.1155 64.4716 49.102 64.3336 49.1411 64.2057C49.1802 64.0779 49.2687 63.9706 49.3872 63.9074C49.4457 63.8755 49.51 63.8555 49.5764 63.8485C49.6427 63.8416 49.7098 63.8478 49.7738 63.8668C49.8377 63.8858 49.8972 63.9173 49.9488 63.9593C50.0003 64.0014 50.043 64.0532 50.0742 64.1118C50.1059 64.17 50.1257 64.2338 50.1326 64.2996C50.1394 64.3654 50.1331 64.432 50.1139 64.4953C50.0948 64.5587 50.0633 64.6178 50.0211 64.669C49.979 64.7203 49.9271 64.7628 49.8684 64.794C49.7942 64.8344 49.7109 64.8553 49.6264 64.8548C49.5347 64.8545 49.4447 64.8298 49.3659 64.7831C49.2872 64.7365 49.2225 64.6696 49.1786 64.5896ZM51.5289 63.2472C51.4553 63.1351 51.4295 62.9985 51.4571 62.8675C51.4847 62.7365 51.5636 62.6217 51.6763 62.5483C51.7889 62.475 51.9261 62.4489 52.058 62.4758C52.1899 62.5027 52.3057 62.5805 52.38 62.692C52.4539 62.8038 52.4801 62.9401 52.453 63.0711C52.4259 63.202 52.3477 63.317 52.2354 63.3908C52.1534 63.4464 52.0565 63.4763 51.9572 63.4765C51.8738 63.475 51.7919 63.4533 51.7187 63.4133C51.6455 63.3734 51.5833 63.3164 51.5372 63.2472H51.5289ZM53.754 61.7086C53.6703 61.6035 53.6321 61.4696 53.6478 61.3365C53.6634 61.2034 53.7317 61.0819 53.8375 60.9987C53.9434 60.9156 54.0781 60.8776 54.2122 60.8932C54.3462 60.9087 54.4686 60.9765 54.5523 61.0816C54.6353 61.187 54.6731 61.3207 54.6575 61.4536C54.6418 61.5865 54.5741 61.7079 54.4689 61.7915C54.3784 61.8619 54.2667 61.8999 54.1518 61.8992C54.0768 61.8977 54.003 61.8799 53.9357 61.847C53.8684 61.814 53.8093 61.7668 53.7624 61.7086H53.754ZM55.8346 59.985C55.7417 59.8868 55.6918 59.756 55.696 59.6213C55.7002 59.4866 55.758 59.3591 55.8568 59.2668C55.9054 59.2208 55.9626 59.1849 56.0252 59.1612C56.0879 59.1374 56.1546 59.1262 56.2217 59.1283C56.2887 59.1303 56.3546 59.1456 56.4156 59.1732C56.4767 59.2007 56.5316 59.2401 56.5772 59.2889C56.6229 59.3372 56.6584 59.394 56.6819 59.4561C56.7054 59.5181 56.7163 59.5842 56.7139 59.6504C56.7116 59.7166 56.6961 59.7817 56.6684 59.842C56.6406 59.9023 56.6011 59.9565 56.5522 60.0016C56.4583 60.09 56.3339 60.1395 56.2045 60.1397C56.1355 60.1398 56.0673 60.1262 56.0037 60.0996C55.9402 60.0731 55.8826 60.0341 55.8346 59.985ZM57.7593 58.0846C57.6592 57.9951 57.5989 57.8698 57.5916 57.7362C57.5843 57.6026 57.6306 57.4716 57.7204 57.3719C57.7646 57.3221 57.8183 57.2816 57.8784 57.2525C57.9385 57.2235 58.0038 57.2066 58.0705 57.2027C58.1372 57.1989 58.204 57.2082 58.2671 57.2301C58.3302 57.252 58.3882 57.2861 58.438 57.3305C58.4878 57.375 58.5282 57.4289 58.557 57.489C58.5858 57.5491 58.6023 57.6143 58.6057 57.6807C58.609 57.7472 58.5991 57.8137 58.5766 57.8763C58.554 57.939 58.5192 57.9966 58.4741 58.0459C58.4272 58.0988 58.3694 58.1412 58.3047 58.1703C58.2399 58.1993 58.1697 58.2144 58.0986 58.2144C57.9732 58.2146 57.8522 58.1683 57.7593 58.0846ZM59.5088 56.0294C59.4012 55.9488 59.3303 55.829 59.3115 55.6964C59.2927 55.5639 59.3277 55.4293 59.4087 55.3223C59.4485 55.2689 59.4985 55.2239 59.556 55.1898C59.6134 55.1557 59.677 55.1332 59.7433 55.1237C59.8095 55.1142 59.8769 55.1179 59.9417 55.1344C60.0065 55.1509 60.0674 55.1801 60.1207 55.2201C60.2283 55.3008 60.2993 55.4206 60.3181 55.5531C60.3368 55.6857 60.3019 55.8202 60.2209 55.9272C60.1744 55.9908 60.1133 56.0422 60.0426 56.0773C59.972 56.1124 59.8938 56.1301 59.8148 56.1289C59.7048 56.1285 59.5977 56.0937 59.5088 56.0294ZM61.0748 53.8197C61.0183 53.7847 60.9693 53.739 60.9306 53.6852C60.892 53.6315 60.8643 53.5706 60.8493 53.5062C60.8344 53.4418 60.8323 53.3751 60.8433 53.3099C60.8543 53.2447 60.8782 53.1824 60.9135 53.1263C60.9482 53.0698 60.9939 53.0206 61.0478 52.9817C61.1018 52.9427 61.163 52.9147 61.2278 52.8993C61.2927 52.8839 61.36 52.8814 61.4259 52.8919C61.4917 52.9024 61.5548 52.9258 61.6116 52.9606C61.6684 52.9956 61.7177 53.0414 61.7567 53.0953C61.7957 53.1492 61.8236 53.2102 61.8388 53.2749C61.8541 53.3395 61.8563 53.4065 61.8455 53.472C61.8347 53.5375 61.811 53.6003 61.7757 53.6567C61.7301 53.7296 61.6667 53.7899 61.5913 53.832C61.5159 53.874 61.431 53.8964 61.3446 53.897C61.2502 53.9 61.1568 53.8771 61.0748 53.8307V53.8197ZM62.4405 51.4966C62.3208 51.4352 62.2303 51.3294 62.1887 51.2022C62.147 51.075 62.1575 50.9366 62.218 50.8171C62.2481 50.7578 62.2896 50.7049 62.3403 50.6615C62.391 50.6181 62.4498 50.5851 62.5134 50.5643C62.5769 50.5436 62.644 50.5354 62.7107 50.5404C62.7774 50.5454 62.8425 50.5634 62.9022 50.5934C63.0221 50.6537 63.1132 50.7588 63.1554 50.8856C63.1976 51.0124 63.1876 51.1506 63.1275 51.2701C63.0847 51.3536 63.0194 51.4236 62.9388 51.4724C62.8583 51.5212 62.7657 51.5468 62.6713 51.5463C62.5924 51.5507 62.5135 51.5375 62.4405 51.5077V51.4966ZM63.6003 49.0575C63.5389 49.033 63.483 48.9966 63.4357 48.9505C63.3885 48.9044 63.3509 48.8495 63.325 48.7889C63.2992 48.7284 63.2857 48.6633 63.2852 48.5976C63.2847 48.5318 63.2972 48.4666 63.3222 48.4057C63.3728 48.2823 63.4706 48.1839 63.5942 48.1321C63.7178 48.0803 63.8571 48.0793 63.9814 48.1294C64.1056 48.1797 64.2047 48.2768 64.2569 48.3996C64.309 48.5223 64.31 48.6606 64.2595 48.7841C64.2217 48.8779 64.1565 48.9583 64.0722 49.0149C63.9879 49.0716 63.8884 49.1018 63.7867 49.1017C63.7229 49.1038 63.6594 49.0925 63.6003 49.0686V49.0575ZM64.5404 46.5329C64.4764 46.5139 64.4167 46.4825 64.3649 46.4405C64.313 46.3985 64.2701 46.3468 64.2386 46.2882C64.207 46.2296 64.1875 46.1655 64.181 46.0994C64.1746 46.0333 64.1814 45.9665 64.2011 45.9031C64.2208 45.8396 64.2529 45.7805 64.2956 45.7293C64.3382 45.6782 64.3906 45.6358 64.4498 45.6048C64.509 45.5737 64.5737 45.5546 64.6403 45.5484C64.7069 45.5423 64.7741 45.5492 64.8381 45.5688C64.9665 45.6078 65.0742 45.6955 65.1377 45.813C65.2013 45.9304 65.2155 46.068 65.1774 46.1959C65.1453 46.3002 65.0806 46.3915 64.9925 46.4566C64.9044 46.5217 64.7977 46.5572 64.6879 46.5577C64.6383 46.5614 64.5884 46.5567 64.5404 46.5439V46.5329ZM65.2525 43.9391C65.1207 43.9106 65.0054 43.8318 64.9316 43.7196C64.8577 43.6075 64.8311 43.4711 64.8575 43.3397C64.885 43.2086 64.9636 43.0937 65.0763 43.0202C65.1889 42.9467 65.3263 42.9205 65.4583 42.9475C65.5901 42.9754 65.7055 43.0535 65.7799 43.1651C65.8543 43.2767 65.8816 43.4127 65.8561 43.5441C65.833 43.6577 65.7711 43.7599 65.6809 43.8334C65.5907 43.9068 65.4777 43.9471 65.361 43.9474C65.325 43.9513 65.2887 43.9522 65.2525 43.9502V43.9391ZM65.7337 41.2874C65.6015 41.2714 65.4808 41.2046 65.3976 41.1013C65.3144 40.998 65.2753 40.8665 65.2887 40.7349C65.304 40.6033 65.3711 40.4831 65.4753 40.4003C65.5794 40.3175 65.7123 40.279 65.8449 40.293C65.9771 40.3089 66.0978 40.3757 66.181 40.479C66.2642 40.5822 66.3033 40.7138 66.29 40.8454C66.2745 40.9678 66.2151 41.0804 66.1226 41.1627C66.03 41.2449 65.9107 41.2912 65.7865 41.2929L65.7337 41.2874ZM65.9812 38.608C65.9143 38.6062 65.8483 38.5912 65.7872 38.564C65.7261 38.5367 65.6711 38.4976 65.6253 38.4491C65.5795 38.4005 65.5438 38.3434 65.5204 38.2811C65.497 38.2187 65.4863 38.1524 65.4889 38.0859C65.4911 38.0196 65.5064 37.9544 65.534 37.8941C65.5616 37.8337 65.601 37.7794 65.6499 37.7342C65.6988 37.689 65.7561 37.6539 65.8187 37.6308C65.8813 37.6077 65.9479 37.5972 66.0146 37.5998C66.1486 37.6041 66.2755 37.6608 66.3677 37.7575C66.4599 37.8542 66.5099 37.9832 66.5069 38.1163C66.5019 38.2475 66.4463 38.3718 66.3515 38.4633C66.2567 38.5549 66.1301 38.6067 65.9979 38.608H65.9812ZM65.4583 35.4507C65.4515 35.3171 65.4983 35.1862 65.5885 35.0868C65.6787 34.9874 65.805 34.9275 65.9395 34.9204C66.0064 34.9167 66.0733 34.9261 66.1365 34.9481C66.1997 34.9701 66.2579 35.0043 66.3078 35.0487C66.3577 35.0931 66.3982 35.1468 66.4271 35.2068C66.4561 35.2668 66.4728 35.3318 66.4763 35.3983C66.4832 35.5319 66.4363 35.6628 66.3461 35.7622C66.2559 35.8616 66.1297 35.9215 65.9951 35.9286H65.9673C65.8372 35.9281 65.7122 35.8785 65.6176 35.7897C65.5231 35.7009 65.4661 35.5797 65.4583 35.4507ZM65.2052 32.8156C65.1954 32.7502 65.1987 32.6836 65.2149 32.6195C65.2312 32.5555 65.2601 32.4953 65.2999 32.4423C65.3397 32.3894 65.3897 32.3449 65.447 32.3113C65.5043 32.2777 65.5677 32.2557 65.6335 32.2465C65.7674 32.2276 65.9033 32.2619 66.0117 32.3421C66.1201 32.4223 66.1921 32.5419 66.2121 32.6747C66.2281 32.8066 66.1917 32.9394 66.1107 33.0451C66.0297 33.1508 65.9104 33.2211 65.7782 33.2409H65.7059C65.5845 33.2415 65.4669 33.1985 65.3749 33.1198C65.2829 33.0412 65.2227 32.9321 65.2052 32.8128V32.8156ZM64.7157 30.2025C64.7004 30.1377 64.6982 30.0706 64.7091 30.005C64.72 29.9394 64.7438 29.8765 64.7792 29.8201C64.8146 29.7636 64.8609 29.7147 64.9154 29.676C64.9699 29.6374 65.0315 29.6097 65.0967 29.5948C65.2284 29.5658 65.3662 29.5896 65.4802 29.661C65.5943 29.7324 65.6754 29.8456 65.7059 29.976C65.7211 30.0404 65.7235 30.1071 65.7127 30.1724C65.7019 30.2377 65.6783 30.3002 65.6432 30.3564C65.608 30.4126 65.5621 30.4614 65.5079 30.4999C65.4538 30.5384 65.3925 30.5659 65.3276 30.5809C65.2895 30.5909 65.2502 30.5956 65.2108 30.5947C65.0958 30.5945 64.9842 30.5556 64.8943 30.4844C64.8044 30.4132 64.7414 30.3138 64.7157 30.2025ZM64.0008 27.6529C63.98 27.5898 63.9719 27.5232 63.9769 27.457C63.982 27.3907 64.0002 27.3262 64.0304 27.2669C64.0606 27.2076 64.1023 27.1549 64.1531 27.1116C64.2038 27.0684 64.2627 27.0355 64.3263 27.0148C64.3898 26.9942 64.4568 26.9863 64.5235 26.9916C64.5901 26.9968 64.6551 27.0151 64.7145 27.0454C64.774 27.0757 64.8269 27.1174 64.87 27.1681C64.9132 27.2188 64.9458 27.2775 64.966 27.3408C64.9868 27.4037 64.9949 27.4701 64.9898 27.5362C64.9847 27.6022 64.9665 27.6666 64.9363 27.7256C64.906 27.7847 64.8643 27.8372 64.8136 27.8802C64.7629 27.9232 64.704 27.9558 64.6406 27.9761C64.5903 27.9927 64.5377 28.0011 64.4848 28.001C64.3787 28.0008 64.2753 27.9681 64.1886 27.9072C64.102 27.8464 64.0364 27.7605 64.0008 27.6612V27.6529ZM63.0663 25.1669C63.0397 25.1056 63.0258 25.0395 63.0254 24.9727C63.025 24.9059 63.0382 24.8398 63.0642 24.7781C63.0901 24.7165 63.1283 24.6607 63.1765 24.6141C63.2246 24.5675 63.2818 24.531 63.3444 24.5067C63.4064 24.4806 63.4731 24.4671 63.5404 24.4669C63.6078 24.4667 63.6745 24.4798 63.7366 24.5055C63.7988 24.5313 63.8552 24.5691 63.9025 24.6167C63.9497 24.6643 63.987 24.7208 64.012 24.783C64.0635 24.9075 64.0631 25.0473 64.011 25.1716C63.9589 25.2959 63.8592 25.3945 63.7338 25.4459C63.6704 25.4725 63.6024 25.4866 63.5336 25.4873C63.434 25.4872 63.3367 25.4581 63.2536 25.4036C63.1706 25.3491 63.1055 25.2716 63.0663 25.1807V25.1669ZM61.912 22.7803C61.8497 22.6614 61.837 22.523 61.8765 22.3949C61.9161 22.2667 62.0047 22.1591 62.1234 22.0953C62.2426 22.0329 62.3818 22.0199 62.5106 22.0592C62.6394 22.0986 62.7472 22.187 62.8104 22.3052C62.842 22.3636 62.8617 22.4276 62.8683 22.4935C62.8749 22.5594 62.8683 22.626 62.849 22.6894C62.8296 22.7528 62.7978 22.8118 62.7553 22.863C62.7129 22.9141 62.6607 22.9564 62.6018 22.9875C62.5284 23.0273 62.4462 23.0481 62.3626 23.0483C62.2715 23.0496 62.1817 23.0267 62.1025 22.982C62.0233 22.9373 61.9575 22.8725 61.912 22.7941V22.7803ZM60.5574 20.5015C60.4837 20.3889 60.4578 20.2519 60.4854 20.1205C60.513 19.989 60.5919 19.8738 60.7049 19.7999C60.8183 19.7278 60.9558 19.703 61.0876 19.7309C61.2193 19.7588 61.3346 19.8372 61.4085 19.949C61.4822 20.0612 61.508 20.1977 61.4803 20.3287C61.4527 20.4597 61.3739 20.5745 61.2611 20.6479C61.1784 20.7014 61.0818 20.7302 60.983 20.7307C60.8998 20.7317 60.8176 20.7125 60.7435 20.675C60.6694 20.6375 60.6055 20.5827 60.5574 20.5153V20.5015ZM59.0082 18.3469C58.9664 18.2952 58.9355 18.2358 58.9171 18.1722C58.8987 18.1085 58.8932 18.0418 58.901 17.976C58.9087 17.9102 58.9296 17.8466 58.9623 17.7889C58.995 17.7312 59.039 17.6805 59.0916 17.6398C59.1439 17.5983 59.2039 17.5675 59.2683 17.5492C59.3326 17.5308 59.4 17.5254 59.4664 17.5331C59.5329 17.5408 59.5972 17.5615 59.6556 17.5941C59.7139 17.6266 59.7652 17.6703 59.8064 17.7227C59.8477 17.7749 59.8783 17.8347 59.8963 17.8986C59.9143 17.9626 59.9194 18.0294 59.9114 18.0954C59.9034 18.1613 59.8824 18.225 59.8496 18.2828C59.8168 18.3407 59.7728 18.3916 59.7202 18.4326C59.6314 18.502 59.5217 18.5399 59.4087 18.5403C59.3326 18.5426 59.2569 18.5276 59.1875 18.4965C59.1181 18.4654 59.0568 18.4189 59.0082 18.3607V18.3469ZM57.2726 16.3332C57.1809 16.2348 57.132 16.1044 57.1367 15.9704C57.1414 15.8364 57.1992 15.7097 57.2976 15.6178C57.3971 15.5271 57.5286 15.4791 57.6635 15.4843C57.7984 15.4895 57.9259 15.5474 58.018 15.6454C58.109 15.7433 58.1572 15.873 58.152 16.0061C58.1467 16.1392 58.0886 16.2648 57.9902 16.3553C57.8981 16.4449 57.7741 16.4946 57.6453 16.4935C57.5764 16.4957 57.5077 16.4839 57.4436 16.4587C57.3795 16.4335 57.3213 16.3955 57.2726 16.3471V16.3332ZM55.3701 14.477C55.271 14.3868 55.2116 14.2614 55.2049 14.128C55.1981 13.9947 55.2445 13.8641 55.3339 13.7644C55.3781 13.7145 55.4319 13.6738 55.4921 13.6448C55.5523 13.6158 55.6177 13.5991 55.6845 13.5955C55.7514 13.5919 55.8182 13.6015 55.8812 13.6239C55.9442 13.6462 56.0021 13.6808 56.0515 13.7257C56.1016 13.77 56.1424 13.8238 56.1714 13.8839C56.2003 13.9441 56.217 14.0093 56.2204 14.0759C56.2237 14.1425 56.2137 14.209 56.191 14.2717C56.1682 14.3344 56.1331 14.392 56.0877 14.4411C56.0403 14.4932 55.9823 14.5346 55.9176 14.5627C55.8528 14.5908 55.7828 14.6049 55.7122 14.6041C55.5879 14.6099 55.466 14.5695 55.3701 14.4908V14.477ZM53.3146 12.792C53.2074 12.711 53.137 12.591 53.1188 12.4585C53.1005 12.3259 53.1359 12.1916 53.2172 12.0849C53.257 12.0315 53.3071 11.9864 53.3645 11.9524C53.4219 11.9183 53.4856 11.8958 53.5518 11.8863C53.618 11.8768 53.6855 11.8805 53.7502 11.897C53.815 11.9135 53.8759 11.9427 53.9293 11.9827C54.0366 12.0643 54.1071 12.1847 54.1253 12.3177C54.1435 12.4507 54.1081 12.5855 54.0266 12.6926C53.9794 12.7551 53.9181 12.8057 53.8475 12.8402C53.777 12.8748 53.6992 12.8924 53.6205 12.8915C53.5115 12.8935 53.4045 12.8617 53.3146 12.8003V12.792ZM51.12 11.2866C51.0635 11.2517 51.0146 11.206 50.9759 11.1522C50.9372 11.0984 50.9096 11.0376 50.8946 10.9732C50.8796 10.9088 50.8776 10.8421 50.8886 10.7769C50.8996 10.7117 50.9234 10.6493 50.9587 10.5933C50.9939 10.5365 51.0402 10.4872 51.0947 10.4483C51.1492 10.4093 51.211 10.3814 51.2764 10.3663C51.3418 10.3511 51.4096 10.349 51.4758 10.36C51.5421 10.371 51.6055 10.3949 51.6624 10.4303C51.7203 10.4665 51.7703 10.5138 51.8095 10.5695C51.8486 10.6252 51.8762 10.6881 51.8904 10.7546C51.9047 10.821 51.9054 10.8896 51.8925 10.9563C51.8796 11.0231 51.8534 11.0865 51.8154 11.143C51.769 11.2147 51.7052 11.2738 51.6299 11.3148C51.5546 11.3558 51.4701 11.3775 51.3843 11.3778C51.2907 11.3767 51.1992 11.35 51.12 11.3004V11.2866ZM48.8003 9.98008C48.6806 9.91874 48.5902 9.81278 48.5491 9.68541C48.5079 9.55804 48.5192 9.41967 48.5806 9.30058C48.6109 9.24145 48.6527 9.18887 48.7035 9.14586C48.7544 9.10285 48.8133 9.07025 48.8769 9.04996C48.9405 9.02968 49.0076 9.0221 49.0741 9.02766C49.1407 9.03322 49.2055 9.0518 49.2648 9.08235C49.3243 9.11245 49.3773 9.15395 49.4206 9.20446C49.4639 9.25498 49.4967 9.3135 49.5171 9.37667C49.5376 9.43983 49.5452 9.50639 49.5396 9.5725C49.534 9.63862 49.5153 9.70298 49.4845 9.76187C49.4422 9.84515 49.3774 9.9151 49.2973 9.96388C49.2172 10.0127 49.1251 10.0384 49.0312 10.0381C48.9518 10.0408 48.8729 10.0257 48.8003 9.99391V9.98008ZM46.3777 8.87518C46.3156 8.85062 46.259 8.81403 46.2113 8.76754C46.1636 8.72104 46.1257 8.66558 46.0998 8.60439C46.0739 8.54319 46.0606 8.47749 46.0605 8.41111C46.0605 8.34473 46.0737 8.279 46.0995 8.21777C46.1501 8.09438 46.248 7.99598 46.3716 7.94419C46.4952 7.8924 46.6344 7.89144 46.7587 7.94154C46.8834 7.99293 46.9825 8.09114 47.0346 8.21478C47.0867 8.33843 47.0875 8.47749 47.0369 8.60172C46.9994 8.69503 46.9346 8.77498 46.8507 8.83115C46.7669 8.88731 46.6679 8.9171 46.5668 8.91662C46.5025 8.92087 46.438 8.91146 46.3777 8.88901V8.87518ZM43.8744 7.99128C43.7457 7.95123 43.6383 7.86214 43.5758 7.74355C43.5132 7.62496 43.5005 7.48655 43.5406 7.35871C43.56 7.29531 43.5918 7.23634 43.6342 7.18518C43.6766 7.13403 43.7288 7.0917 43.7877 7.06064C43.8466 7.02958 43.9112 7.0104 43.9776 7.00419C44.044 6.99799 44.1111 7.00488 44.1748 7.02449C44.3038 7.06341 44.412 7.15159 44.4756 7.26967C44.5392 7.38775 44.5531 7.52607 44.5141 7.65428C44.4811 7.75754 44.4159 7.8477 44.3279 7.91175C44.2399 7.9758 44.1337 8.01041 44.0246 8.0106C43.9708 8.01637 43.9165 8.01452 43.8632 8.00509L43.8744 7.99128ZM41.296 7.32281C41.2304 7.30936 41.1682 7.28313 41.1129 7.24564C41.0576 7.20815 41.0104 7.16014 40.9739 7.10439C40.9375 7.04864 40.9125 6.98626 40.9004 6.92087C40.8884 6.85547 40.8896 6.78836 40.9038 6.7234C40.9177 6.65883 40.9442 6.59761 40.9819 6.54323C41.0196 6.48885 41.0678 6.44237 41.1235 6.40646C41.1793 6.37055 41.2417 6.34591 41.3071 6.33394C41.3725 6.32197 41.4396 6.3229 41.5046 6.33669C41.5702 6.35017 41.6325 6.37638 41.6879 6.41383C41.7433 6.45128 41.7907 6.49923 41.8274 6.55492C41.8641 6.61061 41.8894 6.67295 41.9018 6.73836C41.9142 6.80378 41.9134 6.87097 41.8996 6.93609C41.8748 7.04889 41.8119 7.14986 41.7213 7.22223C41.6307 7.29459 41.5179 7.33398 41.4017 7.33386C41.363 7.33994 41.3238 7.34087 41.2849 7.33662L41.296 7.32281ZM38.6647 6.88637C38.5335 6.8691 38.4143 6.80175 38.3323 6.69862C38.2502 6.59549 38.2118 6.46468 38.2253 6.33392C38.2406 6.20253 38.3078 6.08253 38.4121 6.00021C38.5163 5.91789 38.6492 5.87996 38.7816 5.89473C38.9136 5.91067 39.034 5.97756 39.1167 6.08093C39.1995 6.18431 39.2379 6.31586 39.2238 6.44718C39.2088 6.56924 39.1494 6.68163 39.0566 6.76307C38.9638 6.84451 38.8442 6.88936 38.7204 6.88914H38.6564L38.6647 6.88637Z" fill="black"/>
<path id="Vector_14" d="M29.3386 68.2161C29.2049 68.1963 29.0845 68.1247 29.0037 68.0171C28.9229 67.9094 28.8883 67.7744 28.9074 67.6415C28.9274 67.5095 28.9991 67.3906 29.107 67.3109C29.2149 67.2312 29.3501 67.1972 29.4832 67.2162C29.5494 67.2253 29.6132 67.2474 29.6708 67.2811C29.7284 67.3149 29.7787 67.3596 29.8188 67.4128C29.8589 67.4659 29.888 67.5265 29.9044 67.5909C29.9208 67.6553 29.9241 67.7222 29.9143 67.7879C29.897 67.9078 29.8369 68.0175 29.7451 68.0971C29.6532 68.1767 29.5356 68.2209 29.4137 68.2216L29.3386 68.2161ZM26.6322 67.7023C26.5673 67.6873 26.5061 67.6598 26.4519 67.6213C26.3978 67.5828 26.3518 67.534 26.3167 67.4778C26.2815 67.4216 26.2579 67.3591 26.2471 67.2938C26.2364 67.2285 26.2387 67.1618 26.2539 67.0974C26.269 67.0326 26.2968 66.9715 26.3358 66.9175C26.3748 66.8635 26.4241 66.8177 26.481 66.7828C26.5379 66.7479 26.6012 66.7245 26.6673 66.714C26.7333 66.7035 26.8008 66.7061 26.8659 66.7217C26.9971 66.7526 27.1107 66.8339 27.1816 66.9478C27.2526 67.0618 27.275 67.199 27.2441 67.3294C27.2173 67.4397 27.1539 67.5378 27.0641 67.6079C26.9743 67.6781 26.8633 67.7162 26.7491 67.7161C26.7097 67.717 26.6703 67.7123 26.6322 67.7023ZM23.9815 66.9593C23.9181 66.9381 23.8596 66.9047 23.8092 66.861C23.7588 66.8173 23.7175 66.7642 23.6878 66.7047C23.6581 66.6452 23.6405 66.5804 23.636 66.5141C23.6316 66.4479 23.6403 66.3814 23.6617 66.3184C23.6824 66.2557 23.7154 66.1976 23.7589 66.1476C23.8024 66.0976 23.8554 66.0567 23.9148 66.0272C23.9743 65.9976 24.0391 65.9801 24.1054 65.9756C24.1718 65.971 24.2384 65.9796 24.3014 66.0008C24.4293 66.043 24.5351 66.1339 24.5955 66.2535C24.656 66.3732 24.6663 66.5117 24.624 66.6388C24.5908 66.7397 24.5264 66.8275 24.44 66.89C24.3536 66.9525 24.2497 66.9864 24.1428 66.9869C24.088 66.9856 24.0336 66.9763 23.9815 66.9593ZM21.4059 65.9869C21.3446 65.9608 21.2891 65.9229 21.2426 65.8754C21.1961 65.8278 21.1595 65.7717 21.135 65.71C21.1104 65.6484 21.0984 65.5826 21.0995 65.5164C21.1007 65.4501 21.115 65.3848 21.1417 65.324C21.1934 65.1996 21.2928 65.1005 21.4179 65.0488C21.5431 64.997 21.6838 64.9966 21.8092 65.0478C21.8718 65.0726 21.9287 65.1096 21.9766 65.1566C22.0246 65.2035 22.0626 65.2595 22.0886 65.3212C22.1145 65.383 22.1277 65.4492 22.1275 65.5161C22.1273 65.583 22.1136 65.6491 22.0874 65.7107C22.0487 65.801 21.984 65.8778 21.9012 65.9315C21.8185 65.9851 21.7216 66.0131 21.6229 66.0118C21.5496 66.0187 21.4757 66.0102 21.4059 65.9869ZM18.9277 64.7937C18.8689 64.7624 18.817 64.7199 18.7749 64.6686C18.7327 64.6174 18.7012 64.5583 18.6821 64.495C18.663 64.4316 18.6566 64.3651 18.6635 64.2992C18.6703 64.2334 18.6901 64.1696 18.7218 64.1114C18.7531 64.0528 18.7957 64.001 18.8473 63.959C18.8988 63.9169 18.9583 63.8854 19.0223 63.8664C19.0862 63.8474 19.1533 63.8412 19.2197 63.8481C19.286 63.8551 19.3503 63.8751 19.4088 63.907C19.4678 63.938 19.52 63.9803 19.5623 64.0316C19.6047 64.0828 19.6364 64.1419 19.6555 64.2053C19.6747 64.2688 19.6809 64.3355 19.6739 64.4014C19.6669 64.4673 19.6468 64.5311 19.6147 64.5893C19.573 64.6713 19.5095 64.7404 19.431 64.7891C19.3526 64.8378 19.2622 64.8642 19.1696 64.8655C19.0841 64.8623 19.0009 64.8376 18.9277 64.7937ZM16.5607 63.3904C16.4484 63.3166 16.3701 63.2017 16.343 63.0707C16.3159 62.9397 16.3421 62.8034 16.416 62.6916C16.4903 62.5801 16.6061 62.5024 16.738 62.4754C16.8699 62.4485 17.0071 62.4746 17.1197 62.548C17.2325 62.6213 17.3113 62.7361 17.3389 62.8671C17.3666 62.9981 17.3407 63.1347 17.2671 63.2468C17.2204 63.3166 17.1572 63.374 17.083 63.4139C17.0088 63.4539 16.926 63.4752 16.8416 63.4761C16.7414 63.4759 16.6436 63.4461 16.5607 63.3904ZM14.3355 61.7911C14.2301 61.7075 14.1624 61.5858 14.1473 61.4527C14.1321 61.3196 14.1708 61.186 14.2548 61.0812C14.2961 61.0293 14.3472 60.9859 14.4053 60.9536C14.4634 60.9213 14.5274 60.9007 14.5935 60.893C14.6597 60.8853 14.7267 60.8907 14.7908 60.9087C14.8548 60.9268 14.9147 60.9573 14.9669 60.9983C15.0721 61.0819 15.1398 61.2034 15.1555 61.3363C15.1711 61.4692 15.1333 61.6028 15.0503 61.7082C15.0024 61.768 14.9415 61.8162 14.8721 61.8492C14.8027 61.8822 14.7267 61.8992 14.6498 61.8988C14.5332 61.8995 14.4197 61.8616 14.3272 61.7911H14.3355ZM12.2522 60.0039C12.154 59.9126 12.0963 59.7863 12.0916 59.6527C12.0869 59.5192 12.1356 59.3892 12.2272 59.2913C12.3198 59.1928 12.448 59.1348 12.5836 59.1301C12.7192 59.1255 12.8511 59.1745 12.9504 59.2664C13.0479 59.359 13.1047 59.4862 13.1084 59.6201C13.112 59.7541 13.0622 59.8841 12.9698 59.9818C12.922 60.0314 12.8646 60.0709 12.801 60.098C12.7374 60.125 12.669 60.1391 12.5999 60.1393C12.468 60.142 12.3402 60.0934 12.2439 60.0039H12.2522ZM10.3302 58.0455C10.2853 57.9961 10.2508 57.9383 10.2284 57.8755C10.2061 57.8128 10.1964 57.7462 10.2 57.6798C10.2037 57.6133 10.2205 57.5482 10.2495 57.4882C10.2785 57.4282 10.3192 57.3744 10.3692 57.3301C10.4704 57.2411 10.603 57.1955 10.738 57.2033C10.873 57.211 10.9994 57.2715 11.0896 57.3715C11.1783 57.4719 11.2237 57.603 11.2159 57.7363C11.2081 57.8697 11.1477 57.9947 11.0478 58.0842C10.9544 58.167 10.8338 58.2132 10.7085 58.214C10.6357 58.2152 10.5634 58.2008 10.4967 58.1717C10.4299 58.1426 10.3703 58.0996 10.3219 58.0455H10.3302ZM8.5835 55.9269C8.5025 55.8199 8.46755 55.6853 8.48633 55.5527C8.5051 55.4202 8.57605 55.3004 8.68363 55.2197C8.73701 55.1797 8.79787 55.1506 8.86266 55.134C8.92746 55.1175 8.99491 55.1138 9.06112 55.1233C9.12733 55.1328 9.19099 55.1553 9.24842 55.1894C9.30584 55.2235 9.35589 55.2685 9.39567 55.3219C9.47667 55.4289 9.51162 55.5635 9.49285 55.6961C9.47408 55.8286 9.40312 55.9484 9.29555 56.0291C9.20663 56.0933 9.09957 56.1281 8.9896 56.1285C8.90937 56.1299 8.82994 56.1124 8.75788 56.0773C8.68583 56.0423 8.62319 55.9907 8.57515 55.9269H8.5835ZM7.03424 53.6812C6.9628 53.5676 6.93965 53.4305 6.9699 53.3C7.00014 53.1695 7.08131 53.0562 7.19557 52.9851C7.3108 52.9153 7.44911 52.8937 7.58037 52.9247C7.71164 52.9557 7.82524 53.037 7.89648 53.1508C7.93166 53.207 7.95534 53.2695 7.96613 53.3348C7.97692 53.4001 7.97462 53.4669 7.95937 53.5313C7.94413 53.5957 7.91623 53.6565 7.87728 53.7102C7.83832 53.7639 7.78909 53.8094 7.73238 53.8441C7.6492 53.8962 7.55255 53.9231 7.45424 53.9215C7.36947 53.92 7.28646 53.8972 7.213 53.8552C7.13954 53.8131 7.07803 53.7533 7.03424 53.6812ZM5.68524 51.2946C5.62536 51.1748 5.61574 51.0363 5.65849 50.9094C5.70124 50.7826 5.79288 50.6777 5.91332 50.6178C5.97282 50.5879 6.0377 50.57 6.1042 50.565C6.17071 50.5601 6.23755 50.5683 6.30088 50.589C6.3642 50.6098 6.42276 50.6428 6.4732 50.6862C6.52363 50.7295 6.56495 50.7823 6.59478 50.8416C6.65498 50.9615 6.66509 51.1001 6.6229 51.2274C6.58071 51.3546 6.48962 51.4602 6.36947 51.5211C6.29858 51.5559 6.2205 51.5739 6.1414 51.5736C6.0431 51.576 5.94626 51.5496 5.8631 51.4974C5.77994 51.4453 5.71418 51.3699 5.67411 51.2808L5.68524 51.2946ZM4.54485 48.8086C4.49516 48.685 4.4965 48.5471 4.54857 48.4245C4.60063 48.302 4.69923 48.2047 4.82299 48.1539C4.94769 48.1037 5.08734 48.1046 5.21139 48.1563C5.33544 48.2081 5.43381 48.3065 5.48498 48.4301C5.51029 48.491 5.52317 48.5563 5.52286 48.6222C5.52255 48.688 5.50906 48.7532 5.48319 48.8139C5.45731 48.8745 5.41955 48.9294 5.37211 48.9755C5.32467 49.0215 5.26849 49.0577 5.20683 49.082C5.14822 49.108 5.08467 49.1212 5.02048 49.1207C4.91435 49.1227 4.81021 49.0919 4.7225 49.0325C4.63479 48.9731 4.56785 48.8881 4.53095 48.7892L4.54485 48.8086ZM3.63254 46.2259C3.61328 46.1626 3.60678 46.0961 3.61342 46.0303C3.62005 45.9645 3.63969 45.9007 3.67121 45.8424C3.70273 45.7842 3.74552 45.7327 3.79711 45.6909C3.8487 45.6491 3.90809 45.6178 3.97188 45.5988C4.03561 45.5792 4.10262 45.5723 4.16905 45.5785C4.23548 45.5847 4.30001 45.6039 4.35895 45.635C4.41788 45.6661 4.47005 45.7084 4.51246 45.7595C4.55487 45.8107 4.58667 45.8697 4.60604 45.9331C4.62567 45.9967 4.63238 46.0636 4.62577 46.1299C4.61916 46.1961 4.59937 46.2604 4.56754 46.319C4.53571 46.3776 4.49249 46.4293 4.44037 46.4712C4.38825 46.513 4.32828 46.5442 4.26393 46.5629C4.21746 46.5791 4.16857 46.5875 4.11929 46.5877C4.00555 46.5878 3.895 46.5504 3.80492 46.4814C3.71484 46.4124 3.65032 46.3158 3.62142 46.2065L3.63254 46.2259ZM2.95387 43.5741C2.92674 43.443 2.95309 43.3065 3.02713 43.1947C3.10118 43.0828 3.21687 43.0047 3.34884 42.9775C3.48087 42.9505 3.61826 42.9767 3.73089 43.0502C3.84352 43.1237 3.92219 43.2386 3.94963 43.3697C3.97606 43.5011 3.94947 43.6375 3.8756 43.7496C3.80173 43.8618 3.68648 43.9406 3.55466 43.9691C3.51949 43.9721 3.48413 43.9721 3.44896 43.9691C3.32894 43.9704 3.21231 43.9295 3.11968 43.8537C3.02705 43.7779 2.96439 43.672 2.94275 43.5548L2.95387 43.5741ZM2.51162 40.8782C2.4975 40.7469 2.53597 40.6153 2.61873 40.5119C2.70148 40.4085 2.82186 40.3417 2.95387 40.3257C3.08624 40.3132 3.21833 40.3523 3.32216 40.4348C3.42599 40.5173 3.49341 40.6367 3.51016 40.7677C3.52273 40.8995 3.48296 41.0311 3.39932 41.1343C3.31567 41.2375 3.19477 41.3041 3.06235 41.3201C3.04298 41.3228 3.02332 41.3228 3.00394 41.3201C2.87727 41.3192 2.75549 41.2715 2.66239 41.1862C2.56929 41.1008 2.51157 40.9841 2.5005 40.8588L2.51162 40.8782ZM2.30301 38.1463C2.30079 38.0802 2.31181 38.0143 2.33541 37.9524C2.35902 37.8906 2.39476 37.834 2.44055 37.7859C2.48634 37.7379 2.54128 37.6993 2.60218 37.6725C2.66308 37.6457 2.72874 37.6312 2.79533 37.6298C2.92988 37.6253 3.06074 37.6739 3.15926 37.765C3.25778 37.8561 3.31595 37.9823 3.32102 38.1159C3.32477 38.2503 3.27478 38.3806 3.182 38.4785C3.08922 38.5763 2.96119 38.6336 2.82593 38.638H2.81202C2.74494 38.6376 2.67859 38.6241 2.61679 38.5982C2.55499 38.5723 2.49897 38.5345 2.45192 38.487C2.40488 38.4395 2.36775 38.3833 2.34267 38.3215C2.3176 38.2597 2.30506 38.1936 2.3058 38.127L2.30301 38.1463ZM2.81202 35.9365C2.67746 35.9294 2.55124 35.8695 2.46104 35.7701C2.37084 35.6707 2.32401 35.5398 2.33083 35.4062C2.33873 35.2723 2.39959 35.1469 2.50014 35.0574C2.60069 34.9679 2.73278 34.9215 2.86765 34.9283C3.00221 34.9354 3.12843 34.9953 3.21863 35.0947C3.30883 35.1941 3.35566 35.325 3.34884 35.4586C3.34106 35.5876 3.2841 35.7088 3.18955 35.7976C3.09499 35.8864 2.96995 35.936 2.83984 35.9365H2.81202ZM3.02897 33.2544C2.96298 33.2449 2.89951 33.2226 2.84222 33.1887C2.78494 33.1548 2.73496 33.11 2.69516 33.0569C2.65535 33.0037 2.62651 32.9433 2.61029 32.8791C2.59407 32.8149 2.59079 32.7481 2.60063 32.6826C2.60915 32.617 2.63075 32.5538 2.66416 32.4967C2.69757 32.4395 2.74212 32.3895 2.79522 32.3496C2.84831 32.3098 2.90887 32.2808 2.97337 32.2645C3.03786 32.2481 3.10499 32.2447 3.17082 32.2544C3.23704 32.2633 3.30086 32.285 3.35857 32.3184C3.41629 32.3519 3.46677 32.3963 3.50711 32.4492C3.54745 32.5021 3.57684 32.5624 3.5936 32.6266C3.61035 32.6909 3.61414 32.7578 3.60473 32.8235C3.58734 32.9438 3.52688 33.0539 3.43442 33.1335C3.34195 33.2131 3.22368 33.257 3.10129 33.2571H3.02897V33.2544ZM3.48512 30.5971C3.41985 30.5831 3.35803 30.5563 3.30328 30.5183C3.24853 30.4803 3.20194 30.4319 3.16621 30.3758C3.13049 30.3198 3.10634 30.2573 3.0952 30.1919C3.08405 30.1265 3.08612 30.0595 3.10129 29.9949C3.13241 29.865 3.21376 29.7525 3.32774 29.6817C3.44173 29.6109 3.57919 29.5875 3.71042 29.6165C3.77567 29.6315 3.8373 29.6591 3.89179 29.6977C3.94627 29.7364 3.99254 29.7854 4.02794 29.8418C4.06334 29.8983 4.08718 29.9611 4.09808 30.0267C4.10898 30.0923 4.10674 30.1594 4.09148 30.2242C4.06417 30.335 4.00031 30.4335 3.91009 30.5041C3.81987 30.5747 3.70846 30.6132 3.5936 30.6137C3.55247 30.6111 3.51204 30.6018 3.47401 30.586L3.48512 30.5971ZM4.16658 27.9951C4.10311 27.9747 4.04431 27.9421 3.99356 27.8991C3.94282 27.8561 3.90113 27.8036 3.87089 27.7446C3.84065 27.6855 3.82245 27.6212 3.81735 27.5551C3.81224 27.4891 3.82033 27.4227 3.84115 27.3597C3.88259 27.2324 3.97323 27.1265 4.09316 27.0654C4.21309 27.0043 4.35252 26.9929 4.48088 27.0338C4.60723 27.075 4.71231 27.1637 4.77365 27.2809C4.83499 27.3981 4.84771 27.5344 4.80909 27.6608C4.77581 27.7616 4.71144 27.8495 4.62507 27.912C4.53871 27.9745 4.43474 28.0083 4.3279 28.0089C4.26988 28.0134 4.21152 28.0078 4.15545 27.9923L4.16658 27.9951ZM5.07611 25.4593C5.01357 25.4345 4.95666 25.3975 4.9087 25.3506C4.86074 25.3036 4.82269 25.2476 4.79678 25.1859C4.77088 25.1241 4.75764 25.0579 4.75785 24.991C4.75805 24.9241 4.77169 24.858 4.79796 24.7964C4.82236 24.7341 4.85914 24.6774 4.90609 24.6296C4.95305 24.5818 5.00923 24.5438 5.07128 24.5181C5.13332 24.4923 5.19996 24.4792 5.26722 24.4795C5.33448 24.4799 5.40097 24.4937 5.46273 24.5202C5.52516 24.5447 5.58202 24.5814 5.62996 24.6281C5.67789 24.6748 5.71594 24.7305 5.74186 24.792C5.76778 24.8536 5.78104 24.9196 5.78087 24.9863C5.7807 25.053 5.7671 25.1189 5.74087 25.1803C5.70243 25.2719 5.63755 25.3502 5.55439 25.4053C5.47124 25.4603 5.37353 25.4897 5.27359 25.4897C5.20191 25.4905 5.13086 25.4764 5.06499 25.4483L5.07611 25.4593ZM6.20537 23.012C6.14642 22.9809 6.09424 22.9386 6.05182 22.8875C6.0094 22.8363 5.97758 22.7773 5.9582 22.7139C5.93881 22.6505 5.93223 22.5839 5.93885 22.518C5.94547 22.452 5.96515 22.3881 5.99676 22.3297C6.05998 22.2115 6.1678 22.1231 6.29658 22.0837C6.42537 22.0444 6.5646 22.0573 6.68377 22.1198C6.80296 22.1831 6.89208 22.2907 6.93168 22.419C6.97129 22.5473 6.95816 22.686 6.89517 22.8048C6.85303 22.887 6.78901 22.9563 6.71007 23.005C6.63113 23.0537 6.54028 23.08 6.44736 23.081C6.3592 23.0763 6.27382 23.0487 6.19981 23.0009L6.20537 23.012ZM7.5488 20.6723C7.43561 20.5994 7.35622 20.4848 7.32805 20.3538C7.29989 20.2228 7.32526 20.086 7.39861 19.9735C7.47253 19.8617 7.58786 19.7833 7.7196 19.7554C7.85133 19.7274 7.98886 19.7522 8.10232 19.8243C8.15852 19.8607 8.20693 19.9077 8.24478 19.9627C8.28264 20.0176 8.30918 20.0795 8.32288 20.1447C8.33658 20.2099 8.33716 20.2772 8.32461 20.3426C8.31206 20.408 8.28661 20.4703 8.24972 20.5259C8.20335 20.5961 8.14023 20.6537 8.06597 20.6937C7.99171 20.7337 7.90865 20.7548 7.82417 20.7552C7.7212 20.7541 7.62109 20.7213 7.53768 20.6613L7.5488 20.6723ZM9.08694 18.4626C9.03423 18.4216 8.99021 18.3707 8.95744 18.3127C8.92468 18.2547 8.90381 18.1909 8.89605 18.1249C8.88829 18.0589 8.89379 17.992 8.91223 17.9281C8.93067 17.8642 8.9617 17.8046 9.0035 17.7527C9.04472 17.7007 9.09584 17.6573 9.15396 17.625C9.21208 17.5928 9.27605 17.5722 9.3422 17.5645C9.40834 17.5568 9.47537 17.5621 9.53943 17.5802C9.6035 17.5983 9.66335 17.6287 9.71555 17.6698C9.76807 17.7105 9.81197 17.7612 9.84474 17.8188C9.87751 17.8764 9.8985 17.9399 9.90652 18.0056C9.91453 18.0713 9.9094 18.1379 9.89142 18.2016C9.87345 18.2653 9.84298 18.3249 9.80177 18.3769C9.75384 18.4376 9.69259 18.4865 9.62268 18.52C9.55278 18.5535 9.47608 18.5707 9.39846 18.5703C9.27964 18.5673 9.16557 18.5234 9.07582 18.446L9.08694 18.4626ZM10.817 16.3853C10.7678 16.3407 10.7281 16.2868 10.7001 16.2268C10.6722 16.1667 10.6566 16.1017 10.6543 16.0356C10.6519 15.9695 10.6629 15.9036 10.6866 15.8418C10.7102 15.7799 10.746 15.7234 10.792 15.6754C10.8841 15.5774 11.0115 15.5195 11.1464 15.5143C11.2814 15.5091 11.4129 15.5571 11.5123 15.6478C11.6097 15.7404 11.6665 15.8673 11.6707 16.001C11.6748 16.1348 11.626 16.2649 11.5346 16.3633C11.4871 16.4142 11.4294 16.4547 11.3652 16.4823C11.3011 16.5099 11.2318 16.5239 11.1619 16.5235C11.0951 16.523 11.0291 16.5091 10.9679 16.4825C10.9066 16.4559 10.8515 16.4172 10.8059 16.3688L10.817 16.3853ZM12.7084 14.4573C12.6188 14.3572 12.5723 14.2261 12.5791 14.0922C12.5859 13.9584 12.6453 13.8326 12.7445 13.7419C12.7939 13.697 12.8518 13.6624 12.9148 13.6401C12.9778 13.6177 13.0447 13.608 13.1115 13.6117C13.1783 13.6153 13.2437 13.632 13.3039 13.661C13.3641 13.69 13.4179 13.7307 13.4621 13.7805C13.5516 13.8802 13.5979 14.0109 13.5912 14.1442C13.5844 14.2776 13.5251 14.403 13.426 14.4932C13.3321 14.5768 13.2099 14.6222 13.0839 14.6203C13.0132 14.6211 12.9432 14.607 12.8784 14.5789C12.8137 14.5508 12.7557 14.5094 12.7084 14.4573ZM14.7722 12.7088C14.7311 12.656 14.7011 12.5957 14.6837 12.5313C14.6664 12.4669 14.6621 12.3997 14.6712 12.3336C14.6803 12.2675 14.7025 12.2039 14.7365 12.1465C14.7706 12.089 14.8158 12.0388 14.8695 11.9989C14.9229 11.9589 14.9838 11.9297 15.0486 11.9132C15.1134 11.8966 15.1808 11.893 15.247 11.9025C15.3132 11.912 15.3769 11.9345 15.4343 11.9686C15.4918 12.0026 15.5418 12.0477 15.5816 12.1011C15.6629 12.2078 15.6983 12.3421 15.68 12.4747C15.6618 12.6072 15.5914 12.7272 15.4842 12.8082C15.3943 12.8726 15.2863 12.9073 15.1755 12.9077C15.0971 12.9076 15.0198 12.8893 14.9498 12.8543C14.8798 12.8193 14.819 12.7685 14.7722 12.706V12.7088ZM16.9751 11.1454C16.9394 11.0889 16.9153 11.0259 16.9043 10.9601C16.8932 10.8943 16.8954 10.827 16.9106 10.762C16.9259 10.697 16.9539 10.6357 16.9931 10.5816C17.0324 10.5274 17.082 10.4815 17.1392 10.4465C17.1957 10.4112 17.2586 10.3874 17.3245 10.3765C17.3903 10.3656 17.4576 10.3678 17.5226 10.3829C17.5876 10.3981 17.6488 10.4259 17.7029 10.4648C17.7569 10.5037 17.8026 10.5529 17.8373 10.6095C17.8726 10.6655 17.8965 10.7279 17.9075 10.7931C17.9185 10.8583 17.9164 10.925 17.9014 10.9894C17.8865 11.0538 17.8588 11.1146 17.8202 11.1684C17.7815 11.2222 17.7325 11.2679 17.676 11.3028C17.593 11.3553 17.4962 11.3822 17.3979 11.3802C17.3133 11.3777 17.2305 11.3548 17.1568 11.3134C17.0832 11.272 17.0208 11.2134 16.9751 11.1426V11.1454ZM19.3115 9.76425C19.2807 9.70536 19.262 9.641 19.2564 9.57489C19.2508 9.50878 19.2585 9.44222 19.2789 9.37905C19.2993 9.31588 19.3321 9.25736 19.3754 9.20685C19.4187 9.15633 19.4717 9.11483 19.5312 9.08473C19.5905 9.05419 19.6553 9.0356 19.7219 9.03004C19.7885 9.02448 19.8555 9.03206 19.9191 9.05235C19.9827 9.07263 20.0416 9.10522 20.0925 9.14823C20.1434 9.19124 20.1852 9.24384 20.2155 9.30296C20.2462 9.36185 20.2649 9.4262 20.2705 9.49231C20.2761 9.55842 20.2685 9.62498 20.2481 9.68815C20.2276 9.75132 20.1948 9.80984 20.1515 9.86035C20.1082 9.91086 20.0553 9.95237 19.9957 9.98246C19.9238 10.0171 19.8448 10.035 19.7649 10.0349C19.6728 10.0362 19.582 10.0127 19.5022 9.96704C19.4224 9.92134 19.3565 9.85509 19.3115 9.77529V9.76425ZM21.7592 8.60134C21.7085 8.47711 21.7093 8.33804 21.7614 8.2144C21.8135 8.09076 21.9127 7.99255 22.0373 7.94116C22.1621 7.89245 22.3012 7.89407 22.4248 7.94566C22.5485 7.99726 22.647 8.09475 22.6993 8.21739C22.7491 8.34129 22.7478 8.47968 22.6958 8.60267C22.6437 8.72567 22.5451 8.8234 22.4211 8.8748C22.3617 8.90137 22.2971 8.91458 22.232 8.91348C22.1321 8.91526 22.0338 8.88762 21.9497 8.83403C21.8655 8.78045 21.7992 8.70334 21.7592 8.6124V8.60134ZM24.2986 7.65666C24.2784 7.59355 24.2711 7.5271 24.277 7.46115C24.2829 7.3952 24.3019 7.33107 24.3329 7.27248C24.364 7.21388 24.4064 7.162 24.4578 7.11984C24.5093 7.07768 24.5686 7.04608 24.6324 7.02687C24.6963 7.00684 24.7636 6.99962 24.8303 7.00562C24.8971 7.01161 24.9619 7.03072 25.0212 7.06181C25.0804 7.0929 25.1329 7.13537 25.1755 7.18675C25.2181 7.23812 25.25 7.29738 25.2693 7.3611C25.2891 7.42458 25.2961 7.49131 25.2899 7.55747C25.2837 7.62363 25.2644 7.68792 25.2331 7.74667C25.2019 7.80542 25.1592 7.85748 25.1077 7.89986C25.0562 7.94223 24.9967 7.9741 24.9328 7.99364C24.8838 8.00686 24.8333 8.01337 24.7826 8.01298C24.6754 8.01409 24.5707 7.98119 24.4836 7.91909C24.3966 7.85699 24.3318 7.76893 24.2986 7.66771V7.65666ZM26.9076 6.93847C26.8803 6.80741 26.9062 6.67096 26.9796 6.55873C27.0531 6.44651 27.1681 6.36757 27.2998 6.33906C27.365 6.32487 27.4324 6.32363 27.4981 6.3354C27.5638 6.34718 27.6265 6.37175 27.6826 6.4077C27.7387 6.44364 27.7871 6.49025 27.825 6.54484C27.8628 6.59943 27.8895 6.66093 27.9034 6.72578C27.9176 6.79074 27.9188 6.85785 27.9067 6.92325C27.8947 6.98865 27.8697 7.05103 27.8332 7.10677C27.7967 7.16252 27.7495 7.21052 27.6942 7.24801C27.6389 7.2855 27.5767 7.31174 27.5112 7.32519C27.4751 7.32939 27.4387 7.32939 27.4027 7.32519C27.2899 7.32588 27.1801 7.28937 27.0905 7.22137C27.0009 7.15338 26.9366 7.05776 26.9076 6.94953V6.93847ZM29.575 6.44956C29.5616 6.31839 29.6003 6.1872 29.683 6.084C29.7656 5.98079 29.8855 5.91373 30.0172 5.89711C30.1493 5.88381 30.2814 5.92229 30.3853 6.00434C30.4893 6.08639 30.5568 6.20551 30.5735 6.33631C30.5869 6.46748 30.5482 6.59865 30.4656 6.70186C30.3829 6.80507 30.263 6.87214 30.1313 6.88876H30.0701C29.9479 6.8901 29.8293 6.84749 29.7363 6.76879C29.6432 6.6901 29.582 6.58063 29.5639 6.4606L29.575 6.44956Z" fill="black"/>
<path id="Vector_15" d="M18.7168 52.7089C18.6692 52.6624 18.6314 52.6069 18.6056 52.5457C18.5798 52.4846 18.5665 52.4189 18.5665 52.3526C18.5665 52.2862 18.5798 52.2206 18.6056 52.1594C18.6314 52.0982 18.6692 52.0428 18.7168 51.9963C18.7638 51.9489 18.8199 51.9113 18.8818 51.8856C18.9436 51.86 19.0099 51.8468 19.0769 51.8468C19.144 51.8468 19.2103 51.86 19.2721 51.8856C19.334 51.9113 19.3901 51.9489 19.4372 51.9963C19.4845 52.0432 19.5221 52.0989 19.5477 52.1603C19.5733 52.2217 19.5865 52.2875 19.5865 52.354C19.5865 52.4204 19.5733 52.4862 19.5477 52.5476C19.5221 52.6089 19.4845 52.6647 19.4372 52.7117C19.3419 52.8039 19.2141 52.8555 19.0811 52.8553C19.0137 52.856 18.9468 52.8434 18.8842 52.8182C18.8217 52.7931 18.7648 52.7559 18.7168 52.7089ZM16.9088 50.6206C16.8684 50.5678 16.8388 50.5075 16.822 50.4433C16.8051 50.379 16.8012 50.3121 16.8105 50.2464C16.8198 50.1806 16.8421 50.1173 16.8762 50.0602C16.9103 50.0031 16.9554 49.9532 17.009 49.9135C17.0617 49.8727 17.1221 49.8428 17.1867 49.8257C17.2513 49.8085 17.3187 49.8045 17.3848 49.8137C17.451 49.823 17.5147 49.8454 17.5719 49.8797C17.6292 49.9139 17.679 49.9592 17.7182 50.0129C17.7588 50.0656 17.7885 50.1258 17.8056 50.1899C17.8227 50.2541 17.8269 50.3209 17.8178 50.3867C17.8088 50.4524 17.7867 50.5157 17.7529 50.5729C17.7191 50.6302 17.6742 50.6802 17.6209 50.7201C17.532 50.7844 17.4249 50.8192 17.3149 50.8195C17.2349 50.8215 17.1555 50.8045 17.0835 50.7699C17.0114 50.7353 16.9487 50.6841 16.9005 50.6206H16.9088ZM15.3735 48.328C15.34 48.2705 15.3183 48.207 15.3096 48.1412C15.3009 48.0754 15.3053 48.0085 15.3226 47.9444C15.3399 47.8802 15.3698 47.8201 15.4105 47.7675C15.4512 47.7148 15.5019 47.6706 15.5598 47.6374C15.6766 47.5709 15.815 47.5527 15.9452 47.5868C16.0753 47.621 16.1867 47.7046 16.2552 47.8197C16.2886 47.8772 16.3103 47.9407 16.319 48.0065C16.3278 48.0723 16.3233 48.1392 16.306 48.2033C16.2887 48.2675 16.2589 48.3276 16.2182 48.3802C16.1775 48.4329 16.1267 48.4771 16.0688 48.5103C15.9921 48.5549 15.9046 48.5779 15.8157 48.5766C15.7274 48.5766 15.6407 48.5536 15.5641 48.51C15.4875 48.4664 15.4237 48.4036 15.379 48.328H15.3735ZM14.1357 45.8641C14.1098 45.8024 14.0965 45.7363 14.0965 45.6695C14.0965 45.6028 14.1098 45.5366 14.1356 45.475C14.1615 45.4134 14.1994 45.3574 14.2472 45.3104C14.2949 45.2634 14.3516 45.2263 14.4139 45.2011C14.4759 45.1754 14.5425 45.1622 14.6097 45.1622C14.677 45.1621 14.7436 45.1754 14.8056 45.201C14.8677 45.2267 14.924 45.2644 14.9714 45.3118C15.0187 45.3592 15.0561 45.4155 15.0814 45.4773C15.1072 45.5386 15.1205 45.6043 15.1204 45.6707C15.1204 45.7371 15.107 45.8028 15.0811 45.864C15.0552 45.9252 15.0173 45.9806 14.9696 46.0271C14.9219 46.0736 14.8654 46.1102 14.8033 46.1348C14.7401 46.162 14.6719 46.1761 14.603 46.1762C14.5014 46.1773 14.4018 46.1481 14.3171 46.0925C14.2323 46.0368 14.1662 45.9573 14.1274 45.8641H14.1357ZM13.2151 43.2676C13.1964 43.2039 13.1906 43.1372 13.198 43.0713C13.2053 43.0054 13.2258 42.9416 13.2581 42.8836C13.2904 42.8255 13.334 42.7744 13.3863 42.7332C13.4385 42.692 13.4985 42.6614 13.5627 42.6433C13.6926 42.6067 13.8317 42.6228 13.9496 42.6881C14.0675 42.7533 14.1544 42.8624 14.1914 42.9913C14.21 43.0552 14.2157 43.122 14.2081 43.1881C14.2006 43.2541 14.1799 43.318 14.1473 43.3761C14.1147 43.4341 14.0708 43.4852 14.0182 43.5263C13.9657 43.5674 13.9054 43.5978 13.8409 43.6156C13.7957 43.6286 13.7489 43.6351 13.7018 43.6349C13.5898 43.6376 13.4801 43.6028 13.3904 43.5362C13.3006 43.4696 13.236 43.375 13.2067 43.2676H13.2151ZM12.6199 40.5799C12.6096 40.5142 12.6124 40.4472 12.6282 40.3826C12.6441 40.3181 12.6726 40.2572 12.7121 40.2036C12.7516 40.15 12.8014 40.1046 12.8586 40.0701C12.9158 40.0356 12.9793 40.0127 13.0454 40.0026C13.1114 39.992 13.1789 39.9946 13.2439 40.0102C13.3088 40.0258 13.3701 40.0541 13.4239 40.0934C13.4778 40.1328 13.5232 40.1824 13.5575 40.2393C13.5919 40.2963 13.6145 40.3595 13.6239 40.4252C13.6346 40.4906 13.6321 40.5573 13.6166 40.6217C13.601 40.6861 13.5728 40.7468 13.5335 40.8002C13.4941 40.8537 13.4445 40.8988 13.3875 40.9331C13.3304 40.9674 13.2671 40.99 13.2012 40.9998H13.1233C13.0015 41.0022 12.8829 40.9611 12.789 40.8841C12.6951 40.807 12.6321 40.6991 12.6115 40.5799H12.6199ZM12.3667 37.8342C12.3645 37.7681 12.3755 37.7022 12.3991 37.6403C12.4228 37.5785 12.4585 37.5219 12.5043 37.4738C12.5501 37.4258 12.605 37.3873 12.6659 37.3605C12.7268 37.3337 12.7925 37.3191 12.8591 37.3177C12.9258 37.3151 12.9923 37.3257 13.0549 37.3487C13.1175 37.3718 13.1749 37.4069 13.2238 37.4521C13.2726 37.4973 13.312 37.5516 13.3396 37.612C13.3673 37.6724 13.3826 37.7376 13.3847 37.8038C13.3878 37.938 13.3375 38.0679 13.2449 38.1656C13.1523 38.2633 13.0247 38.3209 12.8896 38.3259C12.822 38.3292 12.7544 38.3191 12.6908 38.296C12.6272 38.2729 12.5689 38.2374 12.5194 38.1916C12.4699 38.1457 12.4301 38.0905 12.4024 38.0291C12.3748 37.9677 12.3598 37.9015 12.3584 37.8342H12.3667ZM12.923 35.6244C12.8561 35.6185 12.791 35.5996 12.7314 35.5685C12.6719 35.5375 12.6192 35.4951 12.5763 35.4437C12.5333 35.3924 12.5011 35.3331 12.4813 35.2693C12.4616 35.2055 12.4548 35.1384 12.4613 35.072C12.4747 34.9383 12.5406 34.8152 12.6447 34.7293C12.7488 34.6435 12.8828 34.6019 13.0176 34.6134C13.1522 34.6267 13.2762 34.6922 13.3626 34.7956C13.449 34.899 13.4909 35.032 13.4793 35.1659C13.4675 35.2909 13.409 35.407 13.3153 35.4914C13.2216 35.5757 13.0995 35.6222 12.9731 35.6217H12.9258L12.923 35.6244ZM13.2735 32.9561C13.142 32.9263 13.0274 32.8467 12.9541 32.7342C12.8808 32.6217 12.8547 32.4853 12.8813 32.3539C12.9112 32.223 12.992 32.1092 13.1062 32.0372C13.2203 31.9653 13.3584 31.9411 13.4904 31.97C13.622 31.9985 13.7368 32.0775 13.8098 32.1898C13.8827 32.3022 13.9079 32.4386 13.8798 32.5694C13.854 32.6814 13.7908 32.7815 13.7004 32.8532C13.6099 32.925 13.4977 32.9642 13.382 32.9644L13.2735 32.9561ZM13.9494 30.3486C13.8863 30.3263 13.8283 30.2919 13.7787 30.2473C13.729 30.2028 13.6887 30.149 13.6601 30.0889C13.6314 30.0289 13.6149 29.9638 13.6116 29.8975C13.6083 29.8311 13.6181 29.7647 13.6406 29.7022C13.6627 29.6397 13.6971 29.5822 13.7417 29.533C13.7864 29.4839 13.8404 29.444 13.9007 29.4157C13.961 29.3874 14.0264 29.3713 14.093 29.3684C14.1596 29.3654 14.2261 29.3756 14.2887 29.3983C14.3516 29.4201 14.4095 29.4539 14.4592 29.4978C14.5089 29.5418 14.5493 29.5951 14.5783 29.6546C14.6072 29.7141 14.6241 29.7787 14.6278 29.8447C14.6316 29.9107 14.6222 29.9768 14.6002 30.0392C14.5654 30.1382 14.5003 30.2239 14.4141 30.2843C14.3278 30.3447 14.2246 30.3768 14.119 30.3762C14.0544 30.3812 13.9894 30.3747 13.9271 30.3568L13.9494 30.3486ZM14.9507 27.8459C14.8908 27.8166 14.8374 27.7757 14.7934 27.7258C14.7495 27.6758 14.716 27.6176 14.6948 27.5547C14.6736 27.4918 14.6651 27.4254 14.6699 27.3592C14.6747 27.293 14.6926 27.2285 14.7226 27.1692C14.7522 27.1094 14.7934 27.056 14.8439 27.012C14.8944 26.9681 14.9531 26.9345 15.0167 26.9132C15.0803 26.8919 15.1475 26.8833 15.2145 26.8879C15.2814 26.8925 15.3468 26.9102 15.4068 26.9399C15.5275 27.0004 15.6192 27.1057 15.6619 27.233C15.7046 27.3603 15.6949 27.4992 15.6349 27.6195C15.5921 27.7023 15.5272 27.7719 15.4472 27.8206C15.3673 27.8694 15.2753 27.8953 15.1815 27.8957C15.095 27.9043 15.0076 27.89 14.9284 27.8542L14.9507 27.8459ZM16.2524 25.4815C16.1968 25.4452 16.1491 25.3984 16.1118 25.3437C16.0746 25.289 16.0486 25.2275 16.0354 25.1628C16.0222 25.0981 16.0221 25.0314 16.035 24.9666C16.0479 24.9019 16.0736 24.8403 16.1106 24.7854C16.1473 24.7301 16.1947 24.6826 16.25 24.6456C16.3054 24.6085 16.3675 24.5827 16.4329 24.5697C16.4983 24.5566 16.5657 24.5564 16.6311 24.5693C16.6965 24.5821 16.7588 24.6077 16.8142 24.6445C16.9259 24.7182 17.0035 24.8329 17.0301 24.9634C17.0567 25.0939 17.0301 25.2296 16.9561 25.3406C16.9099 25.4098 16.847 25.4665 16.7732 25.5056C16.6994 25.5447 16.617 25.5649 16.5333 25.5643C16.4268 25.573 16.3203 25.5468 16.2302 25.4898L16.2524 25.4815ZM17.835 23.2993C17.7842 23.2561 17.7424 23.2034 17.7122 23.1441C17.6819 23.0848 17.6638 23.0202 17.6589 22.9539C17.654 22.8876 17.6624 22.8211 17.6835 22.758C17.7047 22.695 17.7382 22.6367 17.7822 22.5866C17.8254 22.5363 17.8782 22.495 17.9376 22.4649C17.9969 22.4349 18.0617 22.4168 18.1281 22.4117C18.1945 22.4065 18.2612 22.4145 18.3245 22.435C18.3879 22.4556 18.4465 22.4883 18.497 22.5314C18.5996 22.6186 18.663 22.7426 18.6734 22.8763C18.6839 23.0099 18.6404 23.1422 18.5526 23.2441C18.505 23.2996 18.4457 23.3442 18.379 23.3748C18.3122 23.4053 18.2395 23.421 18.166 23.4208C18.0365 23.4267 17.9097 23.3821 17.8128 23.2965L17.835 23.2993Z" fill="black"/>
<path id="Vector_16" d="M52.2357 50.5567C52.1817 50.5174 52.136 50.4679 52.1015 50.411C52.0669 50.354 52.044 50.2908 52.0342 50.2251C52.0244 50.1593 52.0278 50.0923 52.0442 50.0278C52.0606 49.9634 52.0898 49.9028 52.13 49.8496C52.2108 49.7433 52.3303 49.6728 52.463 49.6531C52.5956 49.6335 52.7307 49.6664 52.8392 49.7446C52.893 49.7841 52.9384 49.8339 52.9727 49.8909C53.007 49.9479 53.0296 50.0111 53.0392 50.0769C53.0488 50.1426 53.0451 50.2096 53.0284 50.274C53.0118 50.3383 52.9825 50.3988 52.9421 50.4518C52.8952 50.5148 52.834 50.5659 52.7634 50.6009C52.6929 50.636 52.615 50.654 52.5361 50.6534C52.428 50.6548 52.3224 50.6208 52.2357 50.5567ZM53.7627 48.3469C53.6458 48.2799 53.5604 48.1697 53.525 48.0403C53.4895 47.911 53.507 47.773 53.5735 47.6564C53.6064 47.5987 53.6505 47.5481 53.7032 47.5075C53.7559 47.4668 53.8161 47.4369 53.8805 47.4194C53.9448 47.402 54.012 47.3973 54.0782 47.4058C54.1444 47.4142 54.2083 47.4355 54.2661 47.4685C54.324 47.501 54.3749 47.5445 54.4159 47.5965C54.4569 47.6485 54.4871 47.708 54.5049 47.7716C54.5228 47.8352 54.5278 47.9017 54.5197 47.9672C54.5117 48.0328 54.4907 48.0961 54.458 48.1536C54.4138 48.2314 54.3495 48.2962 54.2718 48.3413C54.1941 48.3864 54.1058 48.4103 54.0158 48.4105C53.9264 48.4074 53.8393 48.3817 53.7627 48.3359V48.3469ZM55.0087 45.9521C54.9465 45.9272 54.8899 45.8904 54.8422 45.8436C54.7945 45.7969 54.7566 45.7412 54.7307 45.6797C54.7048 45.6183 54.6915 45.5524 54.6915 45.4858C54.6915 45.4192 54.7048 45.3533 54.7306 45.2919C54.7556 45.2301 54.7927 45.1739 54.8398 45.1265C54.8869 45.0791 54.943 45.0415 55.0048 45.0158C55.0667 44.9901 55.1331 44.9769 55.2001 44.9768C55.2671 44.9768 55.3335 44.99 55.3954 45.0157C55.4577 45.0399 55.5145 45.0763 55.5624 45.1228C55.6103 45.1692 55.6484 45.2247 55.6743 45.286C55.7002 45.3473 55.7135 45.4131 55.7134 45.4796C55.7132 45.5461 55.6997 45.6119 55.6735 45.6731C55.6362 45.766 55.5718 45.8456 55.4885 45.9017C55.4052 45.9579 55.3069 45.9879 55.2062 45.988C55.1382 45.988 55.071 45.9738 55.0087 45.9466V45.9521ZM55.9461 43.4274C55.8165 43.3919 55.7063 43.3068 55.6396 43.1909C55.5729 43.075 55.5551 42.9376 55.5901 42.8086C55.6078 42.7443 55.6381 42.6841 55.6793 42.6314C55.7205 42.5788 55.7718 42.5348 55.8303 42.5019C55.8887 42.469 55.9531 42.448 56.0197 42.4399C56.0864 42.4319 56.154 42.437 56.2187 42.4551C56.3477 42.4911 56.457 42.5765 56.5227 42.6925C56.5884 42.8085 56.6051 42.9456 56.5691 43.0738C56.5408 43.1804 56.4776 43.2745 56.3895 43.3415C56.3014 43.4085 56.1934 43.4446 56.0824 43.444C56.0358 43.4417 55.9898 43.4324 55.9461 43.4163V43.4274ZM56.5608 40.806C56.4276 40.7856 56.3079 40.7137 56.2277 40.6062C56.1475 40.4986 56.1133 40.364 56.1325 40.2315C56.1416 40.1658 56.1639 40.1026 56.1979 40.0455C56.2319 39.9884 56.277 39.9386 56.3306 39.899C56.3842 39.8594 56.4452 39.8308 56.51 39.8149C56.5748 39.7989 56.6422 39.7959 56.7082 39.8061C56.8414 39.8259 56.9613 39.8971 57.042 40.0041C57.1227 40.1111 57.1576 40.2454 57.1393 40.3779C57.1214 40.498 57.0608 40.6077 56.9684 40.6872C56.8761 40.7668 56.7581 40.8109 56.6359 40.8115L56.5608 40.806ZM56.8389 38.1239C56.7722 38.1228 56.7064 38.1086 56.6452 38.0822C56.584 38.0558 56.5287 38.0176 56.4824 37.9698C56.4361 37.9221 56.3998 37.8657 56.3756 37.804C56.3513 37.7422 56.3396 37.6764 56.3411 37.6101C56.3447 37.4765 56.4015 37.3498 56.4989 37.2577C56.5964 37.1655 56.7267 37.1154 56.8612 37.1184C56.9279 37.1195 56.9938 37.1337 57.0549 37.1601C57.1161 37.1865 57.1714 37.2247 57.2177 37.2725C57.264 37.3202 57.3003 37.3766 57.3245 37.4383C57.3488 37.5001 57.3605 37.566 57.3591 37.6322C57.3554 37.7639 57.3002 37.8889 57.2051 37.9807C57.1101 38.0726 56.9827 38.1239 56.85 38.1239H56.8389ZM56.2354 34.9832C56.2229 34.85 56.2638 34.7174 56.3492 34.614C56.4346 34.5105 56.5576 34.4447 56.6915 34.4308C56.8258 34.4177 56.9598 34.458 57.0641 34.5429C57.1684 34.6279 57.2345 34.7505 57.2478 34.8838C57.261 35.0167 57.2208 35.1493 57.1358 35.2528C57.0509 35.3563 56.9282 35.4223 56.7944 35.4362H56.7388C56.6133 35.4326 56.4936 35.3834 56.4023 35.2978C56.311 35.2122 56.2546 35.0964 56.2437 34.9722L56.2354 34.9832ZM55.8098 32.3895C55.795 32.3249 55.7932 32.258 55.8046 32.1928C55.8159 32.1275 55.84 32.0651 55.8757 32.0092C55.9114 31.9532 55.9578 31.9048 56.0124 31.8667C56.0669 31.8287 56.1285 31.8017 56.1936 31.7873C56.2585 31.7721 56.3257 31.7698 56.3914 31.7805C56.4572 31.7912 56.5201 31.8147 56.5767 31.8496C56.6333 31.8845 56.6824 31.9301 56.7212 31.9839C56.76 32.0377 56.7877 32.0985 56.8028 32.163C56.8176 32.2277 56.8194 32.2947 56.8081 32.3602C56.7968 32.4256 56.7727 32.4882 56.737 32.5444C56.7014 32.6006 56.655 32.6492 56.6004 32.6876C56.5458 32.7259 56.4841 32.7532 56.4189 32.7679C56.3811 32.7734 56.3427 32.7734 56.3049 32.7679C56.1916 32.7664 56.082 32.7273 55.9938 32.6567C55.9055 32.5861 55.8437 32.4881 55.8181 32.3784L55.8098 32.3895ZM55.0644 29.8675C55.0413 29.8053 55.0309 29.7392 55.0337 29.673C55.0365 29.6068 55.0524 29.5418 55.0806 29.4817C55.1088 29.4217 55.1486 29.3677 55.1979 29.323C55.2471 29.2783 55.3048 29.2437 55.3676 29.2212C55.4302 29.1983 55.4967 29.1879 55.5634 29.1907C55.6301 29.1935 55.6955 29.2093 55.756 29.2373C55.8165 29.2653 55.8708 29.3048 55.9159 29.3538C55.9609 29.4027 55.9957 29.4599 56.0184 29.5222C56.0422 29.5844 56.0532 29.6506 56.0508 29.7171C56.0484 29.7835 56.0326 29.8488 56.0043 29.9091C55.9761 29.9693 55.9359 30.0233 55.8863 30.0679C55.8366 30.1125 55.7785 30.1467 55.7152 30.1686C55.6601 30.1891 55.6017 30.1994 55.5428 30.199C55.4385 30.1966 55.3375 30.1625 55.2535 30.1012C55.1694 30.0399 55.1063 29.9545 55.0727 29.8565L55.0644 29.8675ZM54.0186 27.4395C53.9879 27.3805 53.9693 27.3159 53.9639 27.2497C53.9585 27.1835 53.9664 27.1169 53.9871 27.0537C54.0078 26.9905 54.0409 26.932 54.0845 26.8816C54.1281 26.8312 54.1813 26.7899 54.2411 26.76C54.361 26.7001 54.5 26.6898 54.6276 26.7312C54.7553 26.7725 54.8612 26.8624 54.9225 26.981C54.9532 27.0397 54.9719 27.1038 54.9775 27.1697C54.983 27.2356 54.9754 27.302 54.9549 27.3649C54.9345 27.4279 54.9017 27.4861 54.8584 27.5364C54.8151 27.5867 54.7622 27.6279 54.7028 27.6577C54.6322 27.6965 54.5526 27.7165 54.4719 27.7157C54.3781 27.7154 54.2862 27.6894 54.2063 27.6407C54.1263 27.592 54.0614 27.5224 54.0186 27.4395ZM52.6723 25.1772C52.6346 25.1226 52.6082 25.0611 52.5947 24.9963C52.5811 24.9314 52.5807 24.8645 52.5934 24.7995C52.606 24.7345 52.6316 24.6726 52.6685 24.6175C52.7055 24.5624 52.7531 24.5151 52.8086 24.4784C52.8633 24.4405 52.9251 24.4138 52.9904 24.3999C53.0556 24.386 53.123 24.3852 53.1886 24.3976C53.2541 24.4099 53.3166 24.4352 53.3722 24.4718C53.4278 24.5085 53.4754 24.5558 53.5123 24.611C53.5501 24.6658 53.5766 24.7276 53.5901 24.7926C53.6037 24.8577 53.6042 24.9248 53.5916 24.99C53.5789 25.0553 53.5533 25.1174 53.5163 25.1727C53.4793 25.2281 53.4316 25.2756 53.376 25.3126C53.294 25.3684 53.1973 25.3991 53.0979 25.401C53.0142 25.4031 52.9313 25.3842 52.857 25.346C52.7826 25.3079 52.7191 25.2517 52.6723 25.1828V25.1772ZM51.0535 23.0945C50.9662 22.9931 50.9222 22.8618 50.931 22.7286C50.9398 22.5954 51.0008 22.471 51.1008 22.3819C51.2031 22.2939 51.3364 22.2497 51.4714 22.259C51.6064 22.2683 51.7322 22.3304 51.8212 22.4316C51.9093 22.5327 51.9537 22.6641 51.9449 22.7975C51.936 22.9309 51.8746 23.0555 51.7739 23.1442C51.6804 23.2245 51.561 23.2686 51.4374 23.2685C51.3651 23.2686 51.2936 23.2537 51.2275 23.2247C51.1614 23.1957 51.1021 23.1532 51.0535 23.1V23.0945ZM49.1928 21.2245C49.0933 21.1346 49.0334 21.0094 49.0261 20.8761C49.0189 20.7427 49.0647 20.6119 49.1538 20.5118C49.1981 20.4621 49.2518 20.4215 49.3119 20.3925C49.3719 20.3634 49.4372 20.3465 49.5039 20.3426C49.5707 20.3388 49.6375 20.3481 49.7006 20.37C49.7636 20.3919 49.8217 20.4261 49.8714 20.4704C49.9717 20.5604 50.0321 20.6861 50.0394 20.8201C50.0467 20.9542 50.0003 21.0856 49.9104 21.1858C49.8622 21.2387 49.8034 21.2811 49.7378 21.3101C49.6722 21.3391 49.6012 21.3542 49.5293 21.3543C49.4059 21.3534 49.2868 21.3094 49.1928 21.23V21.2245Z" fill="black"/>
</g>
</g>
<defs>
<clipPath id="clip0_242_1688">
<rect width="69" height="72" fill="white"/>
</clipPath>
</defs>
</svg>
