<svg width="65" height="76" viewBox="0 0 65 76" fill="none" xmlns="http://www.w3.org/2000/svg">
<g id="46176-O4US4T 3" clip-path="url(#clip0_242_1463)">
<g id="Objects">
<path id="Vector" d="M32.5725 55.7522C29.3471 55.7522 26.1942 54.754 23.5124 52.8839C20.8305 51.0138 18.7403 48.3556 17.506 45.2457C16.2717 42.1358 15.9488 38.7137 16.578 35.4122C17.2072 32.1107 18.7604 29.0781 21.0411 26.6978C23.3218 24.3176 26.2276 22.6966 29.391 22.0399C32.5544 21.3832 35.8334 21.7203 38.8132 23.0084C41.7931 24.2966 44.3401 26.4781 46.132 29.2769C47.9239 32.0758 48.8803 35.3664 48.8803 38.7326C48.8756 43.2449 47.1559 47.5711 44.0986 50.7618C41.0413 53.9525 36.8961 55.7473 32.5725 55.7522ZM32.5725 22.3704C29.4702 22.3704 26.4375 23.3305 23.8581 25.1293C21.2786 26.9281 19.2681 29.4847 18.0809 32.476C16.8937 35.4673 16.5831 38.7588 17.1883 41.9343C17.7936 45.1098 19.2875 48.0267 21.4811 50.3161C23.6748 52.6055 26.4697 54.1646 29.5124 54.7963C32.5551 55.4279 35.7089 55.1037 38.5751 53.8647C41.4413 52.6257 43.891 50.5275 45.6146 47.8354C47.3381 45.1434 48.2581 41.9783 48.2581 38.7406C48.2581 36.5908 47.8524 34.4621 47.0641 32.476C46.2758 30.4899 45.1204 28.6852 43.6639 27.1651C42.2073 25.645 40.4782 24.4392 38.5751 23.6165C36.672 22.7938 34.6324 22.3704 32.5725 22.3704Z" fill="black"/>
<path id="Vector_2" d="M32.5725 48.0049C23.696 48.0049 16.4112 39.0335 16.3392 38.9449C16.2917 38.8859 16.2656 38.8113 16.2656 38.7343C16.2656 38.6572 16.2917 38.5826 16.3392 38.5236C16.4112 38.435 23.696 29.4609 32.5725 29.4609C41.449 29.4609 48.7337 38.435 48.8083 38.5236C48.8544 38.5833 48.8796 38.6576 48.8796 38.7343C48.8796 38.8109 48.8544 38.8853 48.8083 38.9449C48.7337 39.0335 41.449 48.0049 32.5725 48.0049ZM16.9949 38.7329C18.1417 40.0747 24.7425 47.3528 32.5725 47.3528C40.4024 47.3528 47.0032 40.0747 48.15 38.7356C47.0032 37.3938 40.405 30.1157 32.5725 30.1157C24.74 30.1157 18.1417 37.3938 16.9949 38.7329Z" fill="black"/>
<path id="Vector_3" d="M32.5724 48.0556C30.8051 48.0556 29.0774 47.5087 27.608 46.484C26.1385 45.4592 24.9932 44.0028 24.3169 42.2987C23.6406 40.5947 23.4636 38.7196 23.8084 36.9106C24.1532 35.1016 25.0042 33.4399 26.2539 32.1357C27.5036 30.8315 29.0958 29.9433 30.8291 29.5835C32.5624 29.2237 34.3591 29.4083 35.9919 30.1142C37.6246 30.82 39.0202 32.0153 40.0021 33.5489C40.9839 35.0825 41.508 36.8855 41.508 38.73C41.5059 41.2026 40.5639 43.5734 38.8885 45.3218C37.2132 47.0703 34.9416 48.0535 32.5724 48.0556ZM32.5724 30.0752C30.9282 30.0731 29.3203 30.5802 27.9524 31.5322C26.5845 32.4843 25.518 33.8385 24.888 35.4235C24.258 37.0085 24.0927 38.753 24.4132 40.436C24.7337 42.1191 25.5254 43.665 26.6882 44.8782C27.851 46.0914 29.3326 46.9172 30.9453 47.2512C32.5581 47.5851 34.2295 47.4121 35.748 46.7541C37.2665 46.096 38.5638 44.9826 39.4756 43.5547C40.3875 42.1268 40.8728 40.4486 40.8703 38.7326C40.8642 36.438 39.9879 34.2393 38.433 32.617C36.8781 30.9947 34.771 30.0809 32.5724 30.0752Z" fill="black"/>
<path id="Vector_4" d="M32.5723 44.1164C31.5521 44.1164 30.5548 43.8007 29.7065 43.2091C28.8583 42.6176 28.1971 41.7768 27.8067 40.7931C27.4163 39.8094 27.3141 38.727 27.5132 37.6828C27.7122 36.6385 28.2035 35.6793 28.9249 34.9264C29.6463 34.1735 30.5654 33.6608 31.566 33.4531C32.5666 33.2453 33.6037 33.3519 34.5463 33.7594C35.4888 34.1669 36.2944 34.8569 36.8612 35.7422C37.428 36.6274 37.7305 37.6683 37.7305 38.733C37.7292 40.1603 37.1853 41.5288 36.2182 42.5381C35.2512 43.5473 33.9399 44.115 32.5723 44.1164ZM32.5723 34.0044C31.6755 34.0039 30.7986 34.281 30.0527 34.8007C29.3068 35.3203 28.7254 36.0592 28.3819 36.9239C28.0385 37.7885 27.9485 38.74 28.1233 39.658C28.2982 40.5761 28.73 41.4193 29.3641 42.0812C29.9983 42.743 30.8063 43.1937 31.6859 43.3762C32.5656 43.5586 33.4773 43.4647 34.3058 43.1063C35.1342 42.7479 35.8422 42.141 36.3402 41.3626C36.8381 40.5841 37.1036 39.669 37.1031 38.733C37.1018 37.4793 36.624 36.2774 35.7746 35.391C34.9252 34.5045 33.7735 34.0058 32.5723 34.0044Z" fill="black"/>
<path id="Vector_5" d="M32.8862 10.8984H32.2588V22.0409H32.8862V10.8984Z" fill="black"/>
<path id="Vector_6" d="M32.8862 55.4307H32.2588V66.5731H32.8862V55.4307Z" fill="black"/>
<path id="Vector_7" d="M59.2458 38.4082H48.5693V39.063H59.2458V38.4082Z" fill="black"/>
<path id="Vector_8" d="M16.5759 38.4082H5.89941V39.063H16.5759V38.4082Z" fill="black"/>
<path id="Vector_9" d="M44.1048 50.3094L43.6611 50.7725L51.2105 58.6514L51.6542 58.1884L44.1048 50.3094Z" fill="black"/>
<path id="Vector_10" d="M13.931 18.8192L13.4873 19.2822L21.0385 27.1631L21.4822 26.7L13.931 18.8192Z" fill="black"/>
<path id="Vector_11" d="M21.0396 50.3076L13.4902 58.1865L13.9339 58.6495L21.4833 50.7706L21.0396 50.3076Z" fill="black"/>
<path id="Vector_12" d="M51.2125 18.8213L43.6631 26.7002L44.1067 27.1632L51.6561 19.2843L51.2125 18.8213Z" fill="black"/>
<path id="Vector_13" d="M45.1185 6.92043L39.9834 19.6074L40.5614 19.8622L45.6964 7.17523L45.1185 6.92043Z" fill="black"/>
<path id="Vector_14" d="M24.5882 57.6197L19.4531 70.3066L20.0311 70.5614L25.1662 57.8745L24.5882 57.6197Z" fill="black"/>
<path id="Vector_15" d="M50.9093 46.4711L50.665 47.0742L62.8205 52.4356L63.0648 51.8325L50.9093 46.4711Z" fill="black"/>
<path id="Vector_16" d="M2.32921 25.0472L2.08496 25.6504L14.2404 31.0118L14.4847 30.4086L2.32921 25.0472Z" fill="black"/>
<path id="Vector_17" d="M40.2962 57.7371L39.7148 57.9834L44.6775 70.7449L45.2589 70.4986L40.2962 57.7371Z" fill="black"/>
<path id="Vector_18" d="M20.6831 6.65645L20.0996 6.90527L25.1143 19.7137L25.6978 19.4648L20.6831 6.65645Z" fill="black"/>
<path id="Vector_19" d="M14.1349 46.1969L1.90625 51.374L2.1421 51.9808L14.3707 46.8037L14.1349 46.1969Z" fill="black"/>
<path id="Vector_20" d="M62.9982 25.4928L50.7695 30.6699L51.0054 31.2767L63.234 26.0996L62.9982 25.4928Z" fill="black"/>
<path id="Vector_21" d="M36.6229 41.5H28.5281C28.4991 41.504 28.4697 41.504 28.4407 41.5C28.4043 41.4902 28.3702 41.4729 28.3404 41.449C28.3034 41.4225 28.2726 41.3877 28.2504 41.3471C28.2287 41.3075 28.2156 41.2636 28.2118 41.2182C28.2105 41.2067 28.2105 41.1949 28.2118 41.1834C28.208 41.1558 28.208 41.1278 28.2118 41.1002C28.2198 41.0712 28.231 41.0432 28.2452 41.017L32.2926 33.704C32.3221 33.657 32.3623 33.6183 32.4097 33.5916C32.457 33.5648 32.51 33.5508 32.5639 33.5508C32.6178 33.5508 32.6708 33.5648 32.7181 33.5916C32.7655 33.6183 32.8057 33.657 32.8352 33.704L36.88 41.017C36.8953 41.0427 36.9066 41.0708 36.9134 41.1002C36.9172 41.1278 36.9172 41.1558 36.9134 41.1834V41.2182C36.9076 41.2635 36.8936 41.3072 36.8723 41.3471C36.8508 41.3883 36.8199 41.4233 36.7823 41.449C36.7525 41.4729 36.7184 41.4902 36.682 41.5C36.6623 41.5021 36.6425 41.5021 36.6229 41.5ZM29.0681 40.8452H36.0777L32.5729 34.5091L29.0681 40.8452Z" fill="black"/>
<path id="Vector_22" d="M31.13 64.6138C31.0764 64.5816 31.0295 64.5386 30.9919 64.4875C30.9543 64.4363 30.9267 64.3779 30.9107 64.3156C30.8947 64.2533 30.8906 64.1883 30.8987 64.1243C30.9067 64.0604 30.9268 63.9987 30.9577 63.9429C30.9885 63.8873 31.0296 63.8387 31.0785 63.7997C31.1274 63.7607 31.1832 63.7322 31.2426 63.7158C31.3021 63.6993 31.3641 63.6953 31.4251 63.7038C31.486 63.7124 31.5448 63.7335 31.598 63.7658C31.7058 63.8304 31.7847 63.937 31.8175 64.0622C31.8503 64.1874 31.8342 64.3211 31.7728 64.434C31.7307 64.5081 31.6708 64.5695 31.5992 64.6123C31.5276 64.6551 31.4465 64.6778 31.364 64.6782C31.2818 64.6794 31.2009 64.6572 31.13 64.6138ZM33.128 64.0636C33.0967 64.0079 33.0764 63.9462 33.0681 63.8822C33.0599 63.8182 33.0639 63.7531 33.0799 63.6907C33.0959 63.6283 33.1237 63.5698 33.1615 63.5187C33.1993 63.4675 33.2465 63.4247 33.3002 63.3927C33.3538 63.3605 33.4128 63.3396 33.4741 63.3311C33.5354 63.3227 33.5977 63.327 33.6573 63.3437C33.717 63.3604 33.773 63.3892 33.822 63.4284C33.8711 63.4677 33.9122 63.5167 33.9431 63.5725C33.9739 63.6282 33.9939 63.6897 34.002 63.7534C34.01 63.8171 34.0059 63.8819 33.9899 63.944C33.9739 64.0061 33.9463 64.0642 33.9087 64.1152C33.8711 64.1661 33.8242 64.2088 33.7708 64.2408C33.7 64.285 33.6193 64.3091 33.5368 64.3105C33.4539 64.3107 33.3723 64.2879 33.3005 64.2445C33.2287 64.2012 33.1692 64.1388 33.128 64.0636ZM28.9571 63.3042C28.9037 63.2722 28.8568 63.2295 28.8192 63.1786C28.7816 63.1277 28.7541 63.0695 28.738 63.0074C28.722 62.9453 28.7179 62.8805 28.726 62.8168C28.734 62.7531 28.754 62.6916 28.7849 62.6359C28.8477 62.5236 28.9506 62.4418 29.0712 62.4086C29.1917 62.3754 29.3199 62.3935 29.4277 62.4588C29.4811 62.4906 29.5279 62.533 29.5654 62.5837C29.603 62.6344 29.6306 62.6923 29.6466 62.7542C29.6626 62.816 29.6667 62.8806 29.6587 62.9441C29.6507 63.0077 29.6308 63.0689 29.6 63.1244C29.5587 63.1995 29.4992 63.2619 29.4274 63.3052C29.3556 63.3486 29.2741 63.3714 29.1911 63.3713C29.1086 63.3726 29.0274 63.3493 28.9571 63.3042ZM35.3008 62.7675C35.2695 62.7117 35.2492 62.65 35.241 62.586C35.2327 62.522 35.2367 62.4569 35.2527 62.3945C35.2688 62.3321 35.2965 62.2736 35.3343 62.2225C35.3721 62.1713 35.4193 62.1285 35.4731 62.0965C35.5263 62.064 35.5852 62.0428 35.6464 62.0342C35.7075 62.0257 35.7697 62.0299 35.8293 62.0466C35.8888 62.0633 35.9446 62.0923 35.9934 62.1317C36.0422 62.1711 36.083 62.2203 36.1134 62.2763C36.1441 62.3322 36.1639 62.3938 36.1718 62.4576C36.1796 62.5215 36.1753 62.5863 36.1591 62.6484C36.1428 62.7105 36.115 62.7686 36.0771 62.8195C36.0393 62.8703 35.9922 62.9128 35.9385 62.9446C35.8688 62.9888 35.7887 63.012 35.7071 63.0117C35.6237 63.0108 35.5421 62.9867 35.4707 62.9418C35.3993 62.897 35.3406 62.8331 35.3008 62.7567V62.7675ZM26.7843 62.0107C26.6772 61.9445 26.5992 61.8373 26.567 61.7119C26.5348 61.5865 26.551 61.4529 26.612 61.3398C26.6753 61.2279 26.7783 61.1466 26.8986 61.1135C27.0189 61.0803 27.1469 61.098 27.2549 61.1626C27.3086 61.1944 27.3557 61.2369 27.3935 61.2878C27.4313 61.3387 27.459 61.3969 27.475 61.4591C27.491 61.5213 27.4951 61.5862 27.4868 61.65C27.4786 61.7138 27.4583 61.7753 27.4271 61.8309C27.3858 61.9051 27.3265 61.9667 27.2552 62.0095C27.1839 62.0524 27.1031 62.075 27.0209 62.0751C26.938 62.0757 26.8563 62.0535 26.7843 62.0107ZM37.4711 61.4605C37.4084 61.348 37.3911 61.2142 37.4229 61.0884C37.4548 60.9626 37.5331 60.8552 37.6408 60.7896C37.6943 60.7574 37.7534 60.7364 37.8146 60.728C37.8759 60.7196 37.9382 60.7238 37.9979 60.7405C38.0576 60.7572 38.1135 60.786 38.1626 60.8253C38.2116 60.8646 38.2527 60.9135 38.2836 60.9694C38.3148 61.025 38.3351 61.0864 38.3433 61.1503C38.3515 61.2141 38.3475 61.279 38.3315 61.3412C38.3154 61.4033 38.2877 61.4616 38.2499 61.5125C38.2121 61.5634 38.165 61.6059 38.1113 61.6376C38.0408 61.6826 37.96 61.7067 37.8773 61.7074C37.7935 61.706 37.7115 61.6811 37.6401 61.6353C37.5686 61.5895 37.5102 61.5245 37.4711 61.4471V61.4605ZM24.614 60.701C24.5066 60.6359 24.4282 60.5292 24.396 60.404C24.3637 60.2788 24.3802 60.1454 24.4418 60.0328C24.5046 59.9205 24.6075 59.8387 24.7281 59.8055C24.8486 59.7723 24.9768 59.7903 25.0846 59.8557C25.1379 59.8874 25.1848 59.9299 25.2223 59.9805C25.2599 60.0312 25.2875 60.0892 25.3035 60.151C25.3195 60.2129 25.3236 60.2775 25.3156 60.341C25.3076 60.4045 25.2877 60.4658 25.2569 60.5212C25.216 60.5967 25.1566 60.6594 25.0847 60.7028C25.0128 60.7463 24.9311 60.7688 24.848 60.7681C24.7643 60.765 24.6832 60.7371 24.614 60.6876V60.701ZM39.6413 60.1643C39.6104 60.1085 39.5904 60.0468 39.5823 59.9828C39.5742 59.9189 39.5783 59.8539 39.5943 59.7916C39.6103 59.7293 39.6379 59.6709 39.6755 59.6197C39.7132 59.5686 39.7601 59.5256 39.8136 59.4934C39.867 59.4608 39.9261 59.4396 39.9875 59.431C40.0488 59.4224 40.1112 59.4265 40.171 59.4433C40.2308 59.46 40.2868 59.4889 40.3358 59.5284C40.3848 59.5679 40.4258 59.6171 40.4565 59.6732C40.5182 59.7862 40.5347 59.92 40.5024 60.0456C40.4702 60.1712 40.3918 60.2785 40.2842 60.3441C40.212 60.3866 40.1305 60.4088 40.0476 60.4085C39.9624 60.4047 39.8797 60.377 39.8082 60.3284C39.7367 60.2798 39.6791 60.212 39.6413 60.1321V60.1643ZM22.4438 59.4048C22.3902 59.3726 22.3433 59.3297 22.3057 59.2785C22.2681 59.2273 22.2405 59.1689 22.2245 59.1066C22.2085 59.0443 22.2044 58.9794 22.2125 58.9154C22.2205 58.8515 22.2406 58.7898 22.2715 58.7339C22.3348 58.6222 22.4376 58.5408 22.5578 58.5072C22.6779 58.4736 22.8059 58.4904 22.9143 58.5541C23.022 58.6197 23.1003 58.7272 23.1322 58.853C23.164 58.9787 23.1467 59.1126 23.084 59.225C23.0429 59.2994 22.9837 59.3612 22.9123 59.4041C22.841 59.447 22.7601 59.4694 22.6778 59.4692C22.5933 59.4633 22.5122 59.4326 22.4438 59.3807V59.4048ZM41.8142 58.8547C41.7833 58.7988 41.7632 58.7372 41.7551 58.6732C41.7471 58.6093 41.7511 58.5443 41.7671 58.482C41.7831 58.4197 41.8107 58.3613 41.8484 58.3101C41.886 58.259 41.9329 58.216 41.9864 58.1838C42.0398 58.1516 42.0987 58.1307 42.1597 58.1223C42.2208 58.1139 42.2829 58.1182 42.3424 58.1349C42.4018 58.1516 42.4576 58.1804 42.5064 58.2197C42.5552 58.2589 42.5961 58.3078 42.6267 58.3636C42.6576 58.4194 42.6777 58.4811 42.6857 58.5451C42.6938 58.609 42.6897 58.674 42.6737 58.7363C42.6577 58.7986 42.6301 58.857 42.5925 58.9082C42.5549 58.9593 42.508 59.0023 42.4544 59.0345C42.3833 59.0775 42.3027 59.1006 42.2204 59.1016C42.1355 59.0991 42.0528 59.0726 41.9813 59.0249C41.9097 58.9771 41.8519 58.91 41.8142 58.8305V58.8547ZM20.2735 58.0952C20.2198 58.0635 20.1727 58.021 20.1349 57.9701C20.0971 57.9192 20.0694 57.8609 20.0534 57.7987C20.0373 57.7366 20.0333 57.6717 20.0415 57.6079C20.0497 57.544 20.07 57.4826 20.1012 57.427C20.1641 57.3148 20.2667 57.2328 20.3869 57.1987C20.5071 57.1646 20.6354 57.181 20.7441 57.2445C20.8506 57.3111 20.9282 57.4183 20.9604 57.5436C20.9925 57.6688 20.9767 57.8021 20.9164 57.9154C20.8755 57.9909 20.8161 58.0536 20.7442 58.097C20.6723 58.1404 20.5906 58.163 20.5075 58.1623C20.4228 58.1559 20.3415 58.1242 20.2735 58.0711V58.0952ZM43.9844 57.5585C43.9535 57.5026 43.9335 57.441 43.9254 57.377C43.9173 57.3131 43.9214 57.2481 43.9374 57.1858C43.9534 57.1235 43.981 57.0651 44.0186 57.0139C44.0563 56.9628 44.1032 56.9198 44.1567 56.8876C44.2101 56.855 44.2692 56.8338 44.3306 56.8251C44.3919 56.8165 44.4543 56.8207 44.5141 56.8374C44.5739 56.8542 44.6299 56.8831 44.6789 56.9226C44.7279 56.962 44.7689 57.0113 44.7996 57.0674C44.8613 57.1804 44.8778 57.3142 44.8456 57.4398C44.8133 57.5654 44.7349 57.6727 44.6273 57.7383C44.5556 57.7798 44.4752 57.8019 44.3933 57.8027C44.3072 57.7994 44.2237 57.7717 44.1517 57.7225C44.0796 57.6733 44.0218 57.6045 43.9844 57.5236V57.5585ZM18.1007 56.799C18.0471 56.7668 18.0002 56.7239 17.9626 56.6727C17.925 56.6215 17.8974 56.5631 17.8814 56.5008C17.8654 56.4385 17.8613 56.3735 17.8694 56.3096C17.8774 56.2456 17.8975 56.184 17.9284 56.1281C17.9917 56.0164 18.0945 55.935 18.2147 55.9014C18.3348 55.8677 18.4628 55.8846 18.5712 55.9483C18.6248 55.9806 18.6717 56.0235 18.7093 56.0747C18.7469 56.1258 18.7745 56.1842 18.7905 56.2465C18.8065 56.3088 18.8106 56.3738 18.8025 56.4378C18.7945 56.5017 18.7744 56.5634 18.7435 56.6192C18.703 56.6942 18.6439 56.7564 18.5724 56.7994C18.5009 56.8423 18.4197 56.8645 18.3372 56.8634C18.251 56.8544 18.1689 56.82 18.1007 56.7641V56.799ZM46.1573 56.2489C46.126 56.1931 46.1057 56.1314 46.0974 56.0674C46.0892 56.0034 46.0932 55.9383 46.1092 55.8759C46.1252 55.8135 46.153 55.755 46.1908 55.7039C46.2286 55.6528 46.2758 55.61 46.3295 55.578C46.4378 55.5136 46.566 55.4963 46.6864 55.53C46.8067 55.5636 46.9095 55.6455 46.9724 55.7578C47.0334 55.8709 47.0496 56.0045 47.0174 56.1299C46.9852 56.2553 46.9072 56.3626 46.8001 56.4287C46.7276 56.4706 46.6464 56.4936 46.5635 56.4958C46.4775 56.4923 46.3941 56.4642 46.3224 56.4145C46.2508 56.3648 46.1936 56.2954 46.1573 56.214V56.2489ZM15.9278 55.4545C15.82 55.3899 15.7411 55.2833 15.7083 55.1581C15.6755 55.0328 15.6916 54.8992 15.753 54.7863C15.8164 54.6746 15.9189 54.5931 16.0389 54.559C16.159 54.525 16.287 54.541 16.3958 54.6038C16.4496 54.6358 16.4968 54.6786 16.5346 54.7297C16.5724 54.7809 16.6001 54.8393 16.6162 54.9017C16.6322 54.9641 16.6362 55.0292 16.6279 55.0932C16.6197 55.1573 16.5994 55.2189 16.5681 55.2747C16.5277 55.35 16.4687 55.4126 16.3972 55.456C16.3258 55.4994 16.2445 55.5221 16.1618 55.5216C16.0795 55.5215 15.9987 55.4983 15.9278 55.4545ZM48.3275 54.9178C48.2649 54.8053 48.2476 54.6715 48.2794 54.5457C48.3112 54.4199 48.3896 54.3124 48.4972 54.2469C48.5509 54.2142 48.6102 54.1929 48.6717 54.1843C48.7332 54.1757 48.7958 54.1798 48.8558 54.1965C48.9158 54.2132 48.9721 54.2422 49.0213 54.2817C49.0705 54.3212 49.1118 54.3705 49.1427 54.4267C49.2042 54.54 49.2203 54.6741 49.1876 54.7997C49.1548 54.9254 49.0758 55.0324 48.9678 55.0976C48.8966 55.1378 48.8173 55.1598 48.7364 55.162C48.6526 55.1616 48.5705 55.1377 48.4986 55.0929C48.4266 55.048 48.3676 54.9839 48.3275 54.9071V54.9178ZM13.7576 54.1476C13.65 54.082 13.5715 53.9747 13.5393 53.8491C13.507 53.7235 13.5236 53.5897 13.5853 53.4767C13.6486 53.3649 13.7514 53.2835 13.8716 53.2499C13.9917 53.2163 14.1197 53.2332 14.2281 53.2969C14.2817 53.3291 14.3286 53.372 14.3662 53.4232C14.4038 53.4744 14.4314 53.5328 14.4474 53.5951C14.4634 53.6574 14.4675 53.7224 14.4594 53.7863C14.4514 53.8503 14.4313 53.9119 14.4004 53.9678C14.3586 54.0422 14.2989 54.1039 14.2272 54.1468C14.1554 54.1896 14.0742 54.2121 13.9916 54.212C13.9095 54.2126 13.8287 54.1903 13.7576 54.1476ZM50.5004 53.5974C50.4377 53.485 50.4204 53.3511 50.4523 53.2253C50.4841 53.0996 50.5624 52.9921 50.6701 52.9265C50.7236 52.8943 50.7827 52.8733 50.8439 52.8649C50.9052 52.8565 50.9675 52.8608 51.0272 52.8775C51.0869 52.8942 51.1428 52.923 51.1919 52.9622C51.2409 53.0015 51.282 53.0505 51.3129 53.1063C51.3438 53.162 51.3638 53.2234 51.3718 53.2872C51.3798 53.3509 51.3757 53.4157 51.3597 53.4778C51.3437 53.5399 51.3161 53.598 51.2785 53.649C51.2409 53.6999 51.1941 53.7426 51.1406 53.7746C51.0694 53.8199 50.9875 53.844 50.9041 53.8443C50.8219 53.844 50.7412 53.8211 50.6703 53.7777C50.5994 53.7343 50.5408 53.6721 50.5004 53.5974ZM11.5847 52.838C11.5315 52.8058 11.4849 52.7629 11.4475 52.7119C11.4102 52.6609 11.3829 52.6026 11.3671 52.5406C11.3513 52.4785 11.3475 52.4138 11.3557 52.3502C11.3639 52.2866 11.3841 52.2252 11.415 52.1697C11.4459 52.1142 11.4869 52.0655 11.5358 52.0266C11.5847 51.9876 11.6405 51.9591 11.7 51.9426C11.7594 51.9262 11.8214 51.9221 11.8824 51.9307C11.9434 51.9393 12.0021 51.9603 12.0553 51.9926C12.1089 52.0241 12.156 52.0664 12.1937 52.117C12.2315 52.1677 12.2592 52.2257 12.2752 52.2877C12.2913 52.3496 12.2953 52.4143 12.2871 52.4779C12.279 52.5415 12.2587 52.6028 12.2276 52.6582C12.1874 52.7336 12.1284 52.7964 12.0569 52.8398C11.9854 52.8833 11.904 52.9058 11.8213 52.9051C11.7382 52.9047 11.6566 52.8815 11.5847 52.838ZM52.6681 52.3012C52.6063 52.1883 52.5898 52.0544 52.6221 51.9288C52.6543 51.8032 52.7327 51.6959 52.8403 51.6303C52.8938 51.5977 52.9529 51.5765 53.0142 51.5679C53.0756 51.5593 53.1379 51.5635 53.1977 51.5802C53.2575 51.5969 53.3135 51.6258 53.3625 51.6653C53.4115 51.7048 53.4525 51.754 53.4832 51.8101C53.5141 51.866 53.5341 51.9277 53.5422 51.9916C53.5503 52.0555 53.5462 52.1205 53.5302 52.1828C53.5142 52.2451 53.4866 52.3035 53.449 52.3547C53.4113 52.4059 53.3644 52.4488 53.3109 52.481C53.2389 52.5216 53.1587 52.5437 53.0769 52.5455C52.9934 52.5439 52.9116 52.5196 52.8399 52.4749C52.7682 52.4301 52.7089 52.3666 52.6681 52.2905V52.3012ZM10.1525 50.53C10.1531 50.4 10.2029 50.2755 10.291 50.1835C10.3791 50.0916 10.4984 50.0396 10.623 50.0389C10.7476 50.0396 10.8669 50.0916 10.955 50.1835C11.0431 50.2755 11.0929 50.4 11.0936 50.53C11.0929 50.6601 11.0431 50.7846 10.955 50.8765C10.8669 50.9685 10.7476 51.0204 10.623 51.0211C10.5604 51.0212 10.4983 51.0081 10.4405 50.9828C10.3828 50.9574 10.3304 50.9203 10.2866 50.8735C10.2428 50.8268 10.2083 50.7714 10.1853 50.7105C10.1622 50.6497 10.1511 50.5847 10.1525 50.5193V50.53ZM53.19 49.7894C53.1897 49.725 53.2016 49.6612 53.2249 49.6016C53.2483 49.542 53.2827 49.4879 53.3262 49.4422C53.3697 49.3966 53.4214 49.3604 53.4784 49.3357C53.5353 49.311 53.5964 49.2982 53.658 49.2982C53.7199 49.2979 53.7813 49.3103 53.8385 49.3349C53.8958 49.3595 53.9478 49.3956 53.9915 49.4413C54.0353 49.487 54.07 49.5412 54.0935 49.601C54.117 49.6607 54.129 49.7248 54.1286 49.7894C54.1286 49.8537 54.1164 49.9174 54.0927 49.9769C54.0691 50.0363 54.0344 50.0903 53.9906 50.1357C53.9469 50.1811 53.895 50.217 53.8379 50.2414C53.7809 50.2658 53.7197 50.2781 53.658 50.2778C53.5956 50.2782 53.5337 50.2654 53.4761 50.2403C53.4185 50.2153 53.3663 50.1783 53.3226 50.1318C53.279 50.0852 53.2447 50.0299 53.222 49.9692C53.1992 49.9086 53.1883 49.8438 53.19 49.7786V49.7894ZM10.1525 47.9108C10.1531 47.7808 10.2029 47.6563 10.291 47.5643C10.3791 47.4724 10.4984 47.4204 10.623 47.4197C10.7476 47.4204 10.8669 47.4724 10.955 47.5643C11.0431 47.6563 11.0929 47.7808 11.0936 47.9108C11.0929 48.0408 11.0431 48.1653 10.955 48.2573C10.8669 48.3492 10.7476 48.4012 10.623 48.4019C10.5606 48.4019 10.4987 48.389 10.4411 48.3638C10.3835 48.3386 10.3313 48.3017 10.2875 48.2552C10.2437 48.2088 10.2092 48.1537 10.186 48.0932C10.1628 48.0326 10.1514 47.9679 10.1525 47.9027V47.9108ZM53.19 47.1701C53.1897 47.1057 53.2016 47.0419 53.2249 46.9824C53.2483 46.9228 53.2827 46.8687 53.3262 46.823C53.3697 46.7774 53.4214 46.7412 53.4784 46.7164C53.5353 46.6917 53.5964 46.679 53.658 46.679C53.7199 46.6786 53.7813 46.6911 53.8385 46.7157C53.8958 46.7402 53.9478 46.7764 53.9915 46.8221C54.0353 46.8677 54.07 46.922 54.0935 46.9818C54.117 47.0415 54.129 47.1055 54.1286 47.1701C54.1286 47.2345 54.1164 47.2982 54.0927 47.3576C54.0691 47.4171 54.0344 47.471 53.9906 47.5164C53.9469 47.5618 53.895 47.5977 53.8379 47.6221C53.7809 47.6465 53.7197 47.6589 53.658 47.6585C53.5958 47.6589 53.5342 47.6463 53.4767 47.6213C53.4193 47.5964 53.3672 47.5597 53.3236 47.5135C53.2799 47.4672 53.2457 47.4122 53.2227 47.3519C53.1998 47.2915 53.1887 47.227 53.19 47.1621V47.1701ZM10.1525 45.2916C10.1531 45.1615 10.2029 45.037 10.291 44.9451C10.3791 44.8531 10.4984 44.8012 10.623 44.8005C10.7476 44.8012 10.8669 44.8531 10.955 44.9451C11.0431 45.037 11.0929 45.1615 11.0936 45.2916C11.0929 45.4216 11.0431 45.5461 10.955 45.6381C10.8669 45.73 10.7476 45.782 10.623 45.7827C10.5608 45.7827 10.4992 45.7698 10.4417 45.7448C10.3843 45.7198 10.3322 45.6831 10.2884 45.6369C10.2447 45.5908 10.2101 45.536 10.1868 45.4758C10.1634 45.4156 10.1518 45.3511 10.1525 45.2862V45.2916ZM53.19 44.5509C53.1897 44.4865 53.2016 44.4227 53.2249 44.3631C53.2483 44.3036 53.2827 44.2494 53.3262 44.2038C53.3697 44.1581 53.4214 44.1219 53.4784 44.0972C53.5353 44.0725 53.5964 44.0598 53.658 44.0598C53.7199 44.0594 53.7813 44.0719 53.8385 44.0964C53.8958 44.121 53.9478 44.1571 53.9915 44.2028C54.0353 44.2485 54.07 44.3028 54.0935 44.3625C54.117 44.4223 54.129 44.4863 54.1286 44.5509C54.1286 44.6152 54.1164 44.679 54.0927 44.7384C54.0691 44.7978 54.0344 44.8518 53.9906 44.8972C53.9469 44.9426 53.895 44.9785 53.8379 45.0029C53.7809 45.0273 53.7197 45.0397 53.658 45.0393C53.5961 45.0397 53.5346 45.0271 53.4773 45.0024C53.4201 44.9776 53.3681 44.9412 53.3245 44.8952C53.2809 44.8492 53.2466 44.7945 53.2235 44.7345C53.2004 44.6745 53.189 44.6102 53.19 44.5455V44.5509ZM10.1525 42.6723C10.1531 42.5423 10.2029 42.4178 10.291 42.3258C10.3791 42.2339 10.4984 42.1819 10.623 42.1812C10.7479 42.1826 10.8671 42.2352 10.9552 42.3276C11.0432 42.4199 11.0929 42.5447 11.0936 42.675C11.0929 42.805 11.0431 42.9296 10.955 43.0215C10.8669 43.1134 10.7476 43.1654 10.623 43.1661C10.4978 43.1647 10.3781 43.1118 10.29 43.0188C10.2019 42.9259 10.1524 42.8004 10.1525 42.6696V42.6723ZM53.19 41.929C53.1897 41.8647 53.2016 41.801 53.225 41.7416C53.2484 41.6822 53.2828 41.6282 53.3264 41.5828C53.3699 41.5374 53.4216 41.5014 53.4785 41.477C53.5355 41.4526 53.5965 41.4402 53.658 41.4405C53.7197 41.4402 53.7809 41.4526 53.8379 41.4769C53.895 41.5013 53.9469 41.5373 53.9906 41.5826C54.0344 41.628 54.0691 41.682 54.0927 41.7414C54.1164 41.8009 54.1286 41.8646 54.1286 41.929C54.129 41.9936 54.117 42.0576 54.0935 42.1173C54.07 42.1771 54.0353 42.2313 53.9915 42.277C53.9478 42.3227 53.8958 42.3589 53.8385 42.3834C53.7813 42.408 53.7199 42.4204 53.658 42.4201C53.5962 42.4201 53.5349 42.4073 53.4778 42.3824C53.4206 42.3575 53.3688 42.321 53.3253 42.2751C53.2818 42.2292 53.2474 42.1747 53.2242 42.1148C53.201 42.055 53.1894 41.9909 53.19 41.9263V41.929ZM10.1525 40.0504C10.1531 39.9204 10.2029 39.7959 10.291 39.7039C10.3791 39.612 10.4984 39.56 10.623 39.5593C10.7476 39.5614 10.8666 39.6142 10.9545 39.7064C11.0423 39.7986 11.0923 39.923 11.0936 40.0531C11.0929 40.1831 11.0431 40.3076 10.955 40.3996C10.8669 40.4915 10.7476 40.5435 10.623 40.5442C10.4984 40.5435 10.3791 40.4915 10.291 40.3996C10.2029 40.3076 10.1531 40.1831 10.1525 40.0531V40.0504ZM53.19 39.307C53.1897 39.2428 53.2016 39.1791 53.225 39.1197C53.2484 39.0603 53.2828 39.0063 53.3264 38.9609C53.3699 38.9155 53.4216 38.8795 53.4785 38.8551C53.5355 38.8307 53.5965 38.8183 53.658 38.8186C53.7197 38.8183 53.7809 38.8306 53.8379 38.855C53.895 38.8794 53.9469 38.9153 53.9906 38.9607C54.0344 39.0061 54.0691 39.0601 54.0927 39.1195C54.1164 39.1789 54.1286 39.2427 54.1286 39.307C54.129 39.3716 54.117 39.4357 54.0935 39.4954C54.07 39.5551 54.0353 39.6094 53.9915 39.6551C53.9478 39.7008 53.8958 39.7369 53.8385 39.7615C53.7813 39.786 53.7199 39.7985 53.658 39.7981C53.5966 39.7981 53.5357 39.7855 53.4789 39.761C53.4222 39.7364 53.3706 39.7004 53.3271 39.6551C53.2837 39.6097 53.2492 39.5559 53.2257 39.4966C53.2022 39.4374 53.19 39.3739 53.19 39.3097V39.307ZM10.1525 37.4285C10.1525 37.298 10.202 37.1728 10.2901 37.0803C10.3783 36.9877 10.498 36.9354 10.623 36.9347C10.7479 36.9361 10.8671 36.9887 10.9552 37.081C11.0432 37.1734 11.0929 37.2982 11.0936 37.4285C11.0929 37.5585 11.0431 37.683 10.955 37.775C10.8669 37.8669 10.7476 37.9189 10.623 37.9196C10.5002 37.9189 10.3824 37.8685 10.2946 37.7788C10.2068 37.6892 10.1558 37.5674 10.1525 37.4392V37.4285ZM53.19 36.6824C53.1897 36.6182 53.2016 36.5545 53.225 36.4951C53.2484 36.4357 53.2828 36.3817 53.3264 36.3363C53.3699 36.2909 53.4216 36.2549 53.4785 36.2305C53.5355 36.206 53.5965 36.1937 53.658 36.194C53.7197 36.1937 53.7809 36.206 53.8379 36.2304C53.895 36.2548 53.9469 36.2907 53.9906 36.3361C54.0344 36.3815 54.0691 36.4355 54.0927 36.4949C54.1164 36.5543 54.1286 36.6181 54.1286 36.6824C54.129 36.747 54.117 36.8111 54.0935 36.8708C54.07 36.9305 54.0353 36.9848 53.9915 37.0305C53.9478 37.0762 53.8958 37.1123 53.8385 37.1369C53.7813 37.1614 53.7199 37.1739 53.658 37.1735C53.5353 37.1736 53.4174 37.1232 53.3298 37.0333C53.2423 36.9435 53.1921 36.8213 53.19 36.6932V36.6824ZM10.1525 34.8039C10.1525 34.6736 10.202 34.5487 10.2903 34.4566C10.3785 34.3645 10.4982 34.3128 10.623 34.3128C10.7476 34.3135 10.8669 34.3655 10.955 34.4574C11.0431 34.5494 11.0929 34.6739 11.0936 34.8039C11.0922 34.9335 11.0422 35.0573 10.9541 35.1486C10.8661 35.24 10.7472 35.2916 10.623 35.2923C10.5017 35.2924 10.385 35.2436 10.2973 35.1561C10.2097 35.0686 10.1578 34.9492 10.1525 34.8227V34.8039ZM53.19 34.0578C53.1897 33.9936 53.2016 33.9299 53.225 33.8705C53.2484 33.8111 53.2828 33.7571 53.3264 33.7117C53.3699 33.6662 53.4216 33.6303 53.4785 33.6059C53.5355 33.5814 53.5965 33.5691 53.658 33.5694C53.7197 33.5691 53.7809 33.5814 53.8379 33.6058C53.895 33.6302 53.9469 33.6661 53.9906 33.7115C54.0344 33.7569 54.0691 33.8109 54.0927 33.8703C54.1164 33.9297 54.1286 33.9935 54.1286 34.0578C54.129 34.1224 54.117 34.1864 54.0935 34.2462C54.07 34.3059 54.0353 34.3602 53.9915 34.4059C53.9478 34.4516 53.8958 34.4877 53.8385 34.5123C53.7813 34.5368 53.7199 34.5493 53.658 34.5489C53.5366 34.549 53.4198 34.4998 53.3325 34.4116C53.2451 34.3235 53.1941 34.2033 53.19 34.0766V34.0578ZM10.1525 32.1793C10.1531 32.0495 10.203 31.9253 10.2912 31.8338C10.3794 31.7422 10.4987 31.6909 10.623 31.6909C10.7474 31.6909 10.8667 31.7422 10.9549 31.8338C11.043 31.9253 11.0929 32.0495 11.0936 32.1793C11.0936 32.3095 11.044 32.4344 10.9558 32.5265C10.8675 32.6186 10.7478 32.6704 10.623 32.6704C10.5021 32.6705 10.3858 32.6221 10.2982 32.5352C10.2106 32.4483 10.1584 32.3295 10.1525 32.2034V32.1793ZM53.19 31.4359C53.1907 31.3066 53.2402 31.1828 53.3279 31.0913C53.4155 30.9999 53.5341 30.9482 53.658 30.9475C53.7197 30.9471 53.7809 30.9595 53.8379 30.9839C53.895 31.0083 53.9469 31.0442 53.9906 31.0896C54.0344 31.135 54.0691 31.1889 54.0927 31.2484C54.1164 31.3078 54.1286 31.3715 54.1286 31.4359C54.129 31.5005 54.117 31.5645 54.0935 31.6243C54.07 31.684 54.0353 31.7383 53.9915 31.784C53.9478 31.8296 53.8958 31.8658 53.8385 31.8904C53.7813 31.9149 53.7199 31.9274 53.658 31.927C53.5376 31.9265 53.4219 31.8778 53.3349 31.7909C53.2478 31.704 53.196 31.5856 53.19 31.4601V31.4359ZM10.1525 29.5574C10.1531 29.4273 10.2029 29.3028 10.291 29.2109C10.3791 29.1189 10.4984 29.067 10.623 29.0663C10.7476 29.067 10.8669 29.1189 10.955 29.2109C11.0431 29.3028 11.0929 29.4273 11.0936 29.5574C11.0936 29.6876 11.044 29.8125 10.9558 29.9046C10.8675 29.9967 10.7478 30.0485 10.623 30.0485C10.503 30.0487 10.3874 30.001 10.2999 29.9152C10.2124 29.8294 10.1597 29.712 10.1525 29.5869V29.5574ZM53.19 28.814C53.1907 28.6847 53.2402 28.5609 53.3279 28.4694C53.4155 28.378 53.5341 28.3263 53.658 28.3256C53.7197 28.3252 53.7809 28.3376 53.8379 28.362C53.895 28.3864 53.9469 28.4223 53.9906 28.4677C54.0344 28.5131 54.0691 28.567 54.0927 28.6265C54.1164 28.6859 54.1286 28.7496 54.1286 28.814C54.129 28.8786 54.117 28.9426 54.0935 29.0024C54.07 29.0621 54.0353 29.1164 53.9915 29.1621C53.9478 29.2077 53.8958 29.2439 53.8385 29.2684C53.7813 29.293 53.7199 29.3055 53.658 29.3051C53.5384 29.3046 53.4235 29.2567 53.3366 29.1709C53.2496 29.0852 53.1972 28.9681 53.19 28.8435V28.814ZM10.1525 26.9354C10.1531 26.8054 10.2029 26.6809 10.291 26.589C10.3791 26.497 10.4984 26.445 10.623 26.4443C10.7476 26.445 10.8669 26.497 10.955 26.589C11.0431 26.6809 11.0929 26.8054 11.0936 26.9354C11.0936 27.0657 11.044 27.1906 10.9558 27.2827C10.8675 27.3748 10.7478 27.4266 10.623 27.4266C10.5038 27.4269 10.3889 27.3799 10.3016 27.2953C10.2142 27.2106 10.1609 27.0944 10.1525 26.9703V26.9354ZM53.19 26.1921C53.1907 26.0625 53.2402 25.9384 53.3277 25.8465C53.4153 25.7547 53.5339 25.7024 53.658 25.701C53.7199 25.7006 53.7813 25.7131 53.8385 25.7376C53.8958 25.7622 53.9478 25.7983 53.9915 25.844C54.0353 25.8897 54.07 25.944 54.0935 26.0037C54.117 26.0635 54.129 26.1275 54.1286 26.1921C54.129 26.2567 54.117 26.3207 54.0935 26.3804C54.07 26.4402 54.0353 26.4945 53.9915 26.5401C53.9478 26.5858 53.8958 26.622 53.8385 26.6465C53.7813 26.6711 53.7199 26.6835 53.658 26.6832C53.5394 26.6822 53.4255 26.6348 53.3389 26.5503C53.2522 26.4658 53.1991 26.3504 53.19 26.227V26.1921ZM10.2167 25.9693C10.1859 25.9137 10.1659 25.8522 10.1579 25.7885C10.1498 25.7247 10.1539 25.66 10.1699 25.5979C10.1859 25.5358 10.2135 25.4776 10.2511 25.4267C10.2887 25.3758 10.3356 25.3331 10.389 25.3011C10.4973 25.2367 10.6255 25.2194 10.7459 25.2531C10.8662 25.2868 10.969 25.3686 11.0319 25.4809C11.0935 25.5935 11.1099 25.7269 11.0777 25.8521C11.0454 25.9772 10.967 26.084 10.8596 26.1491C10.7871 26.1911 10.7059 26.2141 10.623 26.2162C10.5436 26.2198 10.4647 26.2022 10.3936 26.1651C10.3225 26.128 10.2616 26.0727 10.2167 26.0042V25.9693ZM51.6446 25.073C51.5911 25.0415 51.544 24.9992 51.5062 24.9486C51.4684 24.8981 51.4405 24.8401 51.4243 24.7783C51.408 24.7164 51.4037 24.6518 51.4115 24.5881C51.4193 24.5245 51.4391 24.4631 51.4698 24.4075C51.5317 24.2949 51.6339 24.2125 51.7538 24.1783C51.8738 24.1441 52.0019 24.1609 52.1101 24.225C52.1637 24.2567 52.2109 24.2992 52.2487 24.3501C52.2864 24.401 52.3142 24.4593 52.3302 24.5214C52.3462 24.5836 52.3503 24.6485 52.342 24.7123C52.3338 24.7762 52.3135 24.8376 52.2823 24.8932C52.2425 24.9692 52.1837 25.0325 52.1121 25.0764C52.0406 25.1203 51.959 25.1433 51.8761 25.1428C51.7973 25.1537 51.7172 25.1416 51.6446 25.1079V25.073ZM12.387 24.708C12.3561 24.6522 12.336 24.5905 12.328 24.5266C12.3199 24.4626 12.324 24.3976 12.34 24.3353C12.356 24.273 12.3836 24.2146 12.4212 24.1635C12.4588 24.1123 12.5058 24.0694 12.5593 24.0371C12.6128 24.0049 12.6719 23.9839 12.7332 23.9755C12.7944 23.9671 12.8567 23.9713 12.9164 23.988C12.9761 24.0047 13.0321 24.0335 13.0811 24.0728C13.1301 24.1121 13.1712 24.1611 13.2021 24.2169C13.2639 24.3299 13.2804 24.4637 13.2481 24.5893C13.2159 24.7149 13.1374 24.8222 13.0299 24.8878C12.9582 24.9293 12.8778 24.9515 12.7959 24.9522C12.7131 24.9529 12.6317 24.9306 12.5598 24.8877C12.488 24.8448 12.4284 24.7828 12.387 24.708ZM49.4718 23.8117C49.4181 23.78 49.371 23.7374 49.3332 23.6865C49.2954 23.6356 49.2677 23.5774 49.2517 23.5152C49.2356 23.453 49.2316 23.3881 49.2398 23.3243C49.248 23.2605 49.2683 23.199 49.2995 23.1435C49.362 23.0307 49.4646 22.9483 49.5849 22.9141C49.7053 22.8799 49.8338 22.8968 49.9424 22.961C50.05 23.0265 50.1284 23.134 50.1602 23.2598C50.192 23.3856 50.1747 23.5194 50.1121 23.6319C50.0722 23.7073 50.0138 23.7701 49.9428 23.814C49.8718 23.8579 49.7909 23.8812 49.7084 23.8815C49.6239 23.8779 49.542 23.8501 49.4718 23.8009V23.8117ZM14.5598 23.3984C14.5289 23.3429 14.5087 23.2816 14.5005 23.218C14.4923 23.1543 14.4962 23.0896 14.5119 23.0276C14.5277 22.9655 14.555 22.9073 14.5924 22.8563C14.6297 22.8052 14.6763 22.7624 14.7296 22.7302C14.7831 22.6979 14.8422 22.677 14.9034 22.6686C14.9647 22.6602 15.027 22.6644 15.0867 22.6811C15.1464 22.6978 15.2023 22.7266 15.2513 22.7659C15.3004 22.8052 15.3415 22.8541 15.3724 22.91C15.4032 22.9656 15.4233 23.0271 15.4313 23.0908C15.4393 23.1546 15.4352 23.2193 15.4192 23.2814C15.4032 23.3435 15.3756 23.4017 15.338 23.4526C15.3004 23.5035 15.2536 23.5462 15.2001 23.5782C15.128 23.6212 15.0466 23.6443 14.9636 23.6453C14.8803 23.6439 14.799 23.6193 14.728 23.574C14.657 23.5287 14.5989 23.4644 14.5598 23.3877V23.3984ZM47.299 22.4913C47.245 22.4599 47.1976 22.4175 47.1597 22.3666C47.1217 22.3157 47.0938 22.2574 47.0778 22.1951C47.0617 22.1329 47.0578 22.0679 47.0662 22.004C47.0746 21.9401 47.0951 21.8786 47.1267 21.8231C47.1891 21.711 47.2914 21.6292 47.4113 21.5955C47.5313 21.5618 47.6591 21.579 47.767 21.6433C47.8204 21.6753 47.8673 21.718 47.9049 21.7689C47.9424 21.8198 47.97 21.878 47.986 21.9401C48.0021 22.0022 48.0062 22.0669 47.9981 22.1307C47.9901 22.1944 47.9701 22.2559 47.9392 22.3115C47.8988 22.3868 47.8398 22.4494 47.7684 22.4928C47.6969 22.5362 47.6156 22.5589 47.533 22.5584C47.4505 22.5591 47.3695 22.5359 47.299 22.4913ZM16.725 22.0807C16.6639 21.9676 16.6478 21.834 16.68 21.7086C16.7122 21.5832 16.7902 21.4759 16.8972 21.4098C16.9508 21.3776 17.0099 21.3566 17.0711 21.3482C17.1324 21.3398 17.1947 21.3441 17.2544 21.3608C17.3141 21.3775 17.37 21.4063 17.419 21.4455C17.4681 21.4848 17.5092 21.5338 17.5401 21.5896C17.5713 21.6454 17.5917 21.7071 17.5999 21.7711C17.6082 21.8351 17.6042 21.9002 17.5882 21.9626C17.5721 22.025 17.5444 22.0835 17.5066 22.1346C17.4688 22.1858 17.4216 22.2286 17.3678 22.2605C17.2964 22.3027 17.2158 22.3249 17.1338 22.3249C17.0517 22.3241 16.9712 22.3011 16.9 22.2584C16.8289 22.2156 16.7695 22.1544 16.7275 22.0807H16.725ZM45.1261 21.1844C45.0726 21.1522 45.0257 21.1092 44.9881 21.0581C44.9504 21.0069 44.9228 20.9485 44.9068 20.8862C44.8908 20.8239 44.8867 20.7589 44.8948 20.695C44.9029 20.631 44.9229 20.5693 44.9538 20.5135C45.0171 20.4017 45.1201 20.3204 45.2404 20.2872C45.3608 20.2541 45.4888 20.2717 45.5967 20.3364C45.6501 20.3684 45.697 20.411 45.7346 20.462C45.7722 20.5129 45.7998 20.5711 45.8158 20.6331C45.8318 20.6952 45.8359 20.76 45.8279 20.8237C45.8198 20.8875 45.7998 20.9489 45.769 21.0046C45.7285 21.0806 45.6692 21.1438 45.5972 21.1877C45.5253 21.2316 45.4434 21.2546 45.3601 21.2542C45.2784 21.2526 45.1986 21.2286 45.1287 21.1844H45.1261ZM18.8978 20.7711C18.867 20.7155 18.8469 20.654 18.8389 20.5903C18.8309 20.5265 18.835 20.4618 18.851 20.3997C18.867 20.3376 18.8946 20.2794 18.9322 20.2285C18.9698 20.1776 19.0166 20.1349 19.0701 20.1029C19.1236 20.0706 19.1827 20.0497 19.244 20.0413C19.3052 20.0329 19.3675 20.0371 19.4272 20.0538C19.4869 20.0705 19.5429 20.0993 19.5919 20.1386C19.6409 20.1779 19.682 20.2268 19.7129 20.2827C19.7438 20.3383 19.7638 20.3998 19.7718 20.4635C19.7799 20.5273 19.7757 20.5921 19.7597 20.6541C19.7437 20.7162 19.7161 20.7744 19.6785 20.8253C19.641 20.8763 19.5941 20.9189 19.5407 20.9509C19.4685 20.9939 19.3871 21.017 19.3041 21.018C19.222 21.0175 19.1414 20.9943 19.0705 20.951C18.9997 20.9077 18.941 20.8456 18.9004 20.7711H18.8978ZM42.9559 19.8775C42.8485 19.8124 42.7701 19.7056 42.7378 19.5804C42.7055 19.4552 42.722 19.3218 42.7836 19.2092C42.8464 19.0969 42.9494 19.0151 43.0699 18.9819C43.1904 18.9487 43.3186 18.9668 43.4264 19.0321C43.48 19.0636 43.5271 19.1059 43.5648 19.1565C43.6026 19.2072 43.6303 19.2652 43.6464 19.3272C43.6624 19.3891 43.6665 19.4538 43.6583 19.5174C43.6501 19.581 43.6298 19.6423 43.5987 19.6977C43.5584 19.7732 43.4995 19.8362 43.4281 19.8801C43.3567 19.924 43.2753 19.9472 43.1924 19.9472C43.109 19.9463 43.0274 19.9222 42.9559 19.8775ZM21.0706 19.4642C21.0397 19.4083 21.0197 19.3467 21.0116 19.2827C21.0035 19.2188 21.0076 19.1538 21.0236 19.0915C21.0396 19.0292 21.0672 18.9708 21.1049 18.9196C21.1425 18.8684 21.1894 18.8255 21.2429 18.7933C21.2962 18.7611 21.3551 18.7402 21.4162 18.7318C21.4773 18.7234 21.5394 18.7277 21.5988 18.7444C21.6583 18.7611 21.7141 18.7899 21.7629 18.8292C21.8117 18.8684 21.8526 18.9173 21.8832 18.9731C21.9141 19.0289 21.9342 19.0906 21.9422 19.1545C21.9503 19.2185 21.9462 19.2835 21.9302 19.3458C21.9142 19.4081 21.8866 19.4665 21.849 19.5176C21.8114 19.5688 21.7644 19.6117 21.7109 19.644C21.64 19.6874 21.5591 19.7096 21.4769 19.7084C21.3947 19.7083 21.3138 19.6857 21.2426 19.6429C21.1713 19.6 21.112 19.5384 21.0706 19.4642ZM40.783 18.5678C40.6754 18.5022 40.597 18.395 40.5647 18.2694C40.5325 18.1437 40.549 18.0099 40.6107 17.8969C40.674 17.7851 40.777 17.7038 40.8973 17.6707C41.0177 17.6375 41.1457 17.6552 41.2536 17.7198C41.307 17.7518 41.3539 17.7945 41.3915 17.8454C41.4291 17.8963 41.4567 17.9545 41.4727 18.0166C41.4887 18.0787 41.4928 18.1434 41.4848 18.2072C41.4767 18.2709 41.4567 18.3324 41.4259 18.388C41.3848 18.4635 41.3253 18.5263 41.2535 18.5701C41.1817 18.6139 41.1002 18.6372 41.017 18.6376C40.9354 18.6357 40.8556 18.6117 40.7856 18.5678H40.783ZM23.2409 18.1546C23.2097 18.0988 23.1893 18.0371 23.1811 17.9731C23.1728 17.9091 23.1768 17.844 23.1929 17.7816C23.2089 17.7192 23.2366 17.6607 23.2744 17.6096C23.3122 17.5584 23.3594 17.5156 23.4132 17.4837C23.5217 17.4195 23.6502 17.4026 23.7706 17.4368C23.891 17.471 23.9936 17.5534 24.056 17.6661C24.0869 17.7218 24.1069 17.7833 24.1149 17.847C24.123 17.9107 24.1189 17.9755 24.1028 18.0376C24.0868 18.0997 24.0592 18.1578 24.0216 18.2088C23.9841 18.2597 23.9372 18.3024 23.8838 18.3344C23.8128 18.3779 23.7321 18.4011 23.6498 18.4015C23.5672 18.4011 23.4863 18.3781 23.415 18.3348C23.3436 18.2914 23.2845 18.2293 23.2435 18.1546H23.2409ZM38.6102 17.2582C38.5034 17.1932 38.4256 17.0867 38.3938 16.962C38.362 16.8373 38.3788 16.7045 38.4405 16.5927C38.4709 16.5367 38.5116 16.4875 38.5604 16.448C38.6092 16.4086 38.665 16.3797 38.7246 16.3629C38.7841 16.3462 38.8463 16.342 38.9075 16.3506C38.9686 16.3592 39.0275 16.3803 39.0808 16.4129C39.1344 16.4443 39.1814 16.4866 39.2192 16.5373C39.2569 16.588 39.2847 16.646 39.3007 16.7079C39.3167 16.7699 39.3208 16.8346 39.3126 16.8982C39.3044 16.9618 39.2842 17.0231 39.253 17.0784C39.213 17.1542 39.1541 17.2173 39.0826 17.2612C39.0112 17.3051 38.9297 17.3282 38.8468 17.328C38.7642 17.3266 38.6835 17.3025 38.6128 17.2582H38.6102ZM25.4137 16.8476C25.3825 16.7919 25.3622 16.7302 25.3539 16.6662C25.3457 16.6021 25.3497 16.537 25.3657 16.4746C25.3817 16.4122 25.4094 16.3538 25.4473 16.3026C25.4851 16.2515 25.5322 16.2087 25.586 16.1767C25.6392 16.1446 25.6978 16.1238 25.7587 16.1154C25.8196 16.1071 25.8815 16.1114 25.9407 16.1281C26 16.1448 26.0555 16.1736 26.1041 16.2128C26.1527 16.252 26.1933 16.3008 26.2237 16.3565C26.2552 16.412 26.2758 16.4734 26.2845 16.5372C26.2931 16.601 26.2895 16.6659 26.274 16.7283C26.2584 16.7907 26.2312 16.8492 26.1939 16.9005C26.1566 16.9519 26.1099 16.995 26.0566 17.0274C25.9845 17.0703 25.9029 17.0925 25.82 17.0918C25.7381 17.0916 25.6578 17.0688 25.5869 17.026C25.5161 16.9831 25.4573 16.9216 25.4163 16.8476H25.4137ZM36.4425 15.9513C36.3885 15.9198 36.3412 15.8774 36.3032 15.8266C36.2652 15.7757 36.2374 15.7174 36.2213 15.6551C36.2052 15.5928 36.2013 15.5278 36.2097 15.4639C36.2181 15.4 36.2387 15.3385 36.2702 15.2831C36.3006 15.227 36.3414 15.1779 36.3901 15.1384C36.4389 15.099 36.4947 15.0701 36.5543 15.0533C36.6139 15.0366 36.676 15.0324 36.7372 15.041C36.7983 15.0495 36.8573 15.0707 36.9105 15.1033C37.0178 15.1684 37.0963 15.275 37.129 15.4C37.1617 15.525 37.146 15.6584 37.0853 15.7715C37.0439 15.8464 36.9843 15.9087 36.9125 15.952C36.8408 15.9953 36.7594 16.0182 36.6765 16.0184C36.5949 16.0186 36.5149 15.9954 36.4451 15.9513H36.4425ZM27.5814 15.538C27.5204 15.4249 27.5042 15.2913 27.5364 15.1659C27.5686 15.0405 27.6466 14.9332 27.7537 14.8671C27.862 14.8027 27.9902 14.7854 28.1106 14.8191C28.2309 14.8528 28.3337 14.9346 28.3966 15.0469C28.4278 15.1027 28.4482 15.1644 28.4564 15.2284C28.4646 15.2924 28.4606 15.3575 28.4446 15.4199C28.4286 15.4823 28.4009 15.5408 28.3631 15.5919C28.3252 15.643 28.2781 15.6858 28.2243 15.7178C28.1544 15.7617 28.0744 15.7848 27.9929 15.7849C27.91 15.7847 27.8286 15.7619 27.7568 15.7185C27.685 15.6752 27.6255 15.6129 27.584 15.538H27.5814ZM34.2671 14.6417C34.2137 14.6099 34.1669 14.5675 34.1294 14.5168C34.0918 14.4661 34.0642 14.4082 34.0482 14.3463C34.0322 14.2845 34.0281 14.2199 34.0361 14.1564C34.0441 14.0928 34.064 14.0316 34.0948 13.9761C34.1252 13.9197 34.1661 13.8702 34.215 13.8306C34.264 13.7909 34.3201 13.7618 34.38 13.7451C34.4399 13.7283 34.5023 13.7242 34.5638 13.733C34.6252 13.7418 34.6843 13.7634 34.7376 13.7963C34.7912 13.8286 34.8381 13.8715 34.8757 13.9227C34.9134 13.9738 34.9409 14.0322 34.9569 14.0945C34.9729 14.1568 34.977 14.2218 34.969 14.2858C34.9609 14.3497 34.9408 14.4114 34.9099 14.4672C34.8682 14.5417 34.8084 14.6034 34.7367 14.6462C34.665 14.6891 34.5837 14.7116 34.5011 14.7115C34.4202 14.7098 34.3412 14.6857 34.2722 14.6417H34.2671ZM29.7568 14.2418C29.7259 14.186 29.7059 14.1243 29.6978 14.0603C29.6897 13.9964 29.6938 13.9314 29.7098 13.8691C29.7258 13.8068 29.7534 13.7484 29.7911 13.6972C29.8287 13.6461 29.8756 13.6031 29.9291 13.5709C29.9826 13.5387 30.0417 13.5177 30.103 13.5093C30.1643 13.5009 30.2265 13.5051 30.2862 13.5218C30.3459 13.5385 30.4019 13.5673 30.4509 13.6066C30.4999 13.6459 30.5411 13.6948 30.572 13.7507C30.6337 13.8637 30.6502 13.9975 30.618 14.1231C30.5857 14.2487 30.5073 14.356 30.3997 14.4216C30.3273 14.4636 30.2459 14.4857 30.1631 14.486C30.0809 14.4859 30.0001 14.4633 29.9288 14.4205C29.8575 14.3776 29.7982 14.316 29.7568 14.2418ZM32.0994 13.3455C31.992 13.2804 31.9136 13.1736 31.8813 13.0484C31.8491 12.9232 31.8655 12.7898 31.9271 12.6772C31.958 12.6214 31.9991 12.5724 32.0482 12.5332C32.0972 12.4939 32.1532 12.4651 32.2128 12.4484C32.2725 12.4317 32.3348 12.4274 32.3961 12.4358C32.4574 12.4443 32.5164 12.4652 32.57 12.4974C32.6235 12.5297 32.6704 12.5726 32.708 12.6238C32.7457 12.675 32.7733 12.7334 32.7893 12.7957C32.8053 12.858 32.8093 12.9229 32.8013 12.9869C32.7932 13.0508 32.7731 13.1125 32.7422 13.1684C32.7013 13.2429 32.6421 13.3048 32.5707 13.3478C32.4993 13.3907 32.4183 13.413 32.336 13.4126C32.2519 13.4089 32.1703 13.3821 32.0994 13.3347V13.3455Z" fill="black"/>
<path id="Vector_23" d="M32.6806 72.7026C32.6498 72.6465 32.6299 72.5847 32.6221 72.5207C32.6142 72.4566 32.6185 72.3916 32.6347 72.3293C32.651 72.2669 32.6788 72.2086 32.7167 72.1575C32.7546 72.1064 32.8018 72.0637 32.8555 72.0317C32.9089 71.999 32.968 71.9778 33.0294 71.9692C33.0907 71.9606 33.1531 71.9648 33.2129 71.9815C33.2727 71.9982 33.3287 72.0272 33.3777 72.0666C33.4267 72.1061 33.4677 72.1553 33.4984 72.2115C33.5601 72.3244 33.5766 72.4583 33.5443 72.5839C33.5121 72.7095 33.4337 72.8168 33.3261 72.8824C33.2544 72.9239 33.174 72.946 33.0921 72.9468C33.0089 72.9476 32.9271 72.9255 32.8548 72.8826C32.7825 72.8397 32.7224 72.7776 32.6806 72.7026ZM30.6852 72.716C30.6312 72.6843 30.5838 72.6416 30.5458 72.5905C30.5077 72.5394 30.4799 72.4809 30.4638 72.4184C30.4478 72.3559 30.4439 72.2906 30.4523 72.2265C30.4607 72.1624 30.4814 72.1007 30.513 72.0451C30.5436 71.9893 30.5845 71.9404 30.6333 71.9012C30.6821 71.8619 30.7378 71.8331 30.7973 71.8164C30.8568 71.7997 30.9189 71.7954 30.9799 71.8038C31.041 71.8122 31.0999 71.8331 31.1532 71.8653C31.2068 71.8975 31.2537 71.9404 31.2913 71.9916C31.3289 72.0428 31.3565 72.1012 31.3725 72.1635C31.3885 72.2258 31.3926 72.2908 31.3845 72.3547C31.3765 72.4187 31.3564 72.4803 31.3255 72.5362C31.2838 72.61 31.2244 72.6714 31.1532 72.7142C31.082 72.757 31.0014 72.7798 30.9192 72.7804C30.837 72.782 30.756 72.7597 30.6852 72.716ZM34.8535 71.4037C34.7918 71.2907 34.7752 71.1569 34.8075 71.0313C34.8397 70.9057 34.9182 70.7984 35.0258 70.7328C35.079 70.7002 35.1379 70.679 35.1991 70.6705C35.2602 70.6619 35.3224 70.6661 35.382 70.6828C35.4415 70.6996 35.4973 70.7285 35.5461 70.7679C35.5949 70.8074 35.6356 70.8565 35.666 70.9126C35.6975 70.9678 35.7181 71.0291 35.7264 71.0928C35.7348 71.1565 35.7308 71.2213 35.7148 71.2834C35.6987 71.3454 35.6709 71.4035 35.6329 71.4541C35.5949 71.5048 35.5476 71.5469 35.4938 71.5781C35.4234 71.6235 35.3424 71.6476 35.2598 71.6479C35.1775 71.6478 35.0967 71.6252 35.0254 71.5824C34.9541 71.5395 34.8948 71.4779 34.8535 71.4037ZM28.5124 71.4037C28.459 71.3717 28.4121 71.329 28.3745 71.2781C28.3369 71.2272 28.3093 71.169 28.2933 71.1069C28.2773 71.0448 28.2732 70.98 28.2812 70.9163C28.2893 70.8526 28.3093 70.7911 28.3401 70.7355C28.371 70.6796 28.4121 70.6306 28.4612 70.5914C28.5102 70.5521 28.5662 70.5233 28.6259 70.5066C28.6856 70.4899 28.7478 70.4856 28.8091 70.494C28.8704 70.5025 28.9294 70.5234 28.983 70.5556C29.0364 70.5876 29.0833 70.6303 29.1209 70.6812C29.1585 70.7322 29.186 70.7904 29.2021 70.8524C29.2181 70.9145 29.2222 70.9793 29.2141 71.043C29.2061 71.1068 29.1861 71.1682 29.1552 71.2239C29.114 71.299 29.0545 71.3614 28.9827 71.4047C28.9109 71.4481 28.8293 71.4709 28.7464 71.4708C28.664 71.4711 28.5831 71.4479 28.5124 71.4037ZM37.0237 70.0833C36.9928 70.0275 36.9728 69.9658 36.9647 69.9019C36.9567 69.8379 36.9607 69.7729 36.9767 69.7106C36.9927 69.6483 37.0203 69.5899 37.058 69.5388C37.0956 69.4876 37.1425 69.4447 37.196 69.4124C37.2495 69.3798 37.3086 69.3586 37.3699 69.35C37.4313 69.3414 37.4936 69.3456 37.5534 69.3623C37.6132 69.379 37.6692 69.4079 37.7182 69.4474C37.7672 69.4869 37.8082 69.5361 37.8389 69.5922C37.8697 69.6479 37.8897 69.7093 37.8978 69.7731C37.9058 69.8368 37.9017 69.9016 37.8857 69.9637C37.8697 70.0258 37.8421 70.0839 37.8045 70.1349C37.7669 70.1858 37.72 70.2285 37.6666 70.2604C37.5959 70.3046 37.515 70.3278 37.4326 70.3275C37.3484 70.3304 37.265 70.3095 37.1912 70.267C37.1174 70.2244 37.056 70.1619 37.0135 70.086L37.0237 70.0833ZM26.3396 70.0967C26.232 70.0311 26.1535 69.9239 26.1213 69.7982C26.089 69.6726 26.1056 69.5388 26.1673 69.4258C26.1982 69.37 26.2393 69.321 26.2883 69.2817C26.3374 69.2425 26.3933 69.2137 26.453 69.197C26.5127 69.1803 26.575 69.176 26.6362 69.1844C26.6975 69.1928 26.7566 69.2138 26.8101 69.246C26.8637 69.2783 26.9106 69.3212 26.9482 69.3724C26.9858 69.4235 27.0134 69.4819 27.0294 69.5443C27.0454 69.6066 27.0495 69.6715 27.0414 69.7355C27.0334 69.7994 27.0133 69.8611 26.9824 69.9169C26.9411 69.9912 26.8818 70.0528 26.8105 70.0956C26.7392 70.1385 26.6584 70.1611 26.5761 70.1612C26.4934 70.1626 26.4119 70.1413 26.3396 70.0994V70.0967ZM39.1966 68.7737C39.1657 68.7181 39.1457 68.6566 39.1377 68.5929C39.1297 68.5291 39.1338 68.4643 39.1498 68.4023C39.1658 68.3402 39.1934 68.282 39.231 68.2311C39.2686 68.1802 39.3154 68.1375 39.3689 68.1055C39.4223 68.0729 39.4814 68.0517 39.5427 68.043C39.6041 68.0344 39.6665 68.0386 39.7263 68.0553C39.786 68.0721 39.8421 68.101 39.8911 68.1405C39.9401 68.1799 39.9811 68.2292 40.0117 68.2853C40.0728 68.3984 40.0889 68.532 40.0567 68.6574C40.0245 68.7828 39.9465 68.8901 39.8394 68.9562C39.7667 68.9972 39.6855 69.0193 39.6029 69.0206C39.5205 69.0208 39.4396 68.9983 39.3683 68.9554C39.297 68.9126 39.2377 68.8508 39.1966 68.7764V68.7737ZM24.1693 68.7871C24.0619 68.722 23.9835 68.6152 23.9512 68.4901C23.919 68.3649 23.9354 68.2315 23.997 68.1189C24.0595 68.0062 24.162 67.9237 24.2824 67.8896C24.4028 67.8554 24.5313 67.8722 24.6399 67.9364C24.7474 68.002 24.8259 68.1093 24.8581 68.2349C24.8904 68.3605 24.8739 68.4943 24.8121 68.6073C24.7705 68.6821 24.7109 68.7442 24.6392 68.7875C24.5674 68.8308 24.4861 68.8538 24.4033 68.8542C24.3212 68.8547 24.2405 68.8324 24.1693 68.7898V68.7871ZM41.3668 67.4668C41.3359 67.4109 41.3159 67.3493 41.3078 67.2853C41.2998 67.2214 41.3038 67.1564 41.3198 67.0941C41.3358 67.0318 41.3634 66.9734 41.4011 66.9222C41.4387 66.871 41.4856 66.8281 41.5391 66.7959C41.5926 66.7633 41.6517 66.742 41.713 66.7334C41.7744 66.7248 41.8367 66.729 41.8965 66.7457C41.9563 66.7624 42.0123 66.7914 42.0613 66.8309C42.1103 66.8703 42.1513 66.9195 42.182 66.9757C42.2437 67.0886 42.2602 67.2225 42.228 67.3481C42.1957 67.4737 42.1173 67.581 42.0097 67.6466C41.9381 67.6881 41.8576 67.7102 41.7757 67.711C41.6934 67.7111 41.6124 67.6889 41.5407 67.6466C41.469 67.6042 41.4091 67.5432 41.3668 67.4695V67.4668ZM21.9965 67.4802C21.8888 67.4146 21.8105 67.3072 21.7786 67.1814C21.7468 67.0556 21.7641 66.9218 21.8267 66.8093C21.8574 66.7535 21.8983 66.7046 21.9471 66.6654C21.9959 66.6261 22.0516 66.5973 22.1111 66.5806C22.1706 66.5639 22.2327 66.5596 22.2937 66.568C22.3548 66.5764 22.4137 66.5973 22.467 66.6295C22.5208 66.6615 22.568 66.7043 22.6058 66.7554C22.6436 66.8065 22.6713 66.865 22.6874 66.9274C22.7034 66.9898 22.7074 67.0549 22.6991 67.1189C22.6909 67.1829 22.6706 67.2446 22.6393 67.3004C22.598 67.3746 22.5387 67.4362 22.4674 67.4791C22.3961 67.5219 22.3153 67.5445 22.233 67.5446C22.1503 67.5463 22.0687 67.525 21.9965 67.4829V67.4802ZM43.5397 66.1572C43.5085 66.1016 43.4882 66.0401 43.48 65.9763C43.4718 65.9125 43.4758 65.8476 43.4918 65.7854C43.5079 65.7232 43.5356 65.665 43.5734 65.6141C43.6112 65.5632 43.6583 65.5207 43.712 65.4889C43.7651 65.456 43.824 65.4345 43.8853 65.4258C43.9465 65.417 44.0088 65.4211 44.0684 65.4379C44.1281 65.4546 44.184 65.4837 44.2327 65.5234C44.2815 65.563 44.3221 65.6124 44.3522 65.6687C44.4142 65.7814 44.4311 65.915 44.3993 66.0406C44.3676 66.1661 44.2897 66.2736 44.1825 66.3396C44.1106 66.3802 44.0303 66.4023 43.9485 66.4041C43.8658 66.4044 43.7845 66.3821 43.7127 66.3392C43.6409 66.2963 43.5813 66.2345 43.5397 66.1598V66.1572ZM19.8288 66.1706C19.7748 66.1391 19.7275 66.0967 19.6895 66.0458C19.6515 65.995 19.6236 65.9367 19.6076 65.8744C19.5915 65.8121 19.5876 65.7471 19.596 65.6832C19.6044 65.6193 19.6249 65.5578 19.6565 65.5024C19.7189 65.3903 19.821 65.3084 19.9408 65.2743C20.0606 65.2401 20.1884 65.2565 20.2968 65.3199C20.4044 65.3854 20.4828 65.4929 20.5146 65.6187C20.5464 65.7445 20.5291 65.8783 20.4665 65.9908C20.4261 66.0655 20.3674 66.1277 20.2965 66.171C20.2256 66.2144 20.145 66.2374 20.0628 66.2377C19.9806 66.2392 19.8996 66.2169 19.8288 66.1733V66.1706ZM45.7125 64.8502C45.6811 64.7948 45.6604 64.7334 45.6518 64.6696C45.6432 64.6058 45.6467 64.5408 45.6623 64.4785C45.6778 64.4161 45.705 64.3576 45.7423 64.3062C45.7796 64.2549 45.8263 64.2117 45.8797 64.1793C45.9331 64.1467 45.9922 64.1255 46.0535 64.1169C46.1149 64.1083 46.1773 64.1124 46.237 64.1292C46.2968 64.1459 46.3529 64.1748 46.4019 64.2143C46.4509 64.2538 46.4919 64.303 46.5225 64.3591C46.5538 64.4149 46.5741 64.4766 46.5823 64.5406C46.5906 64.6046 46.5866 64.6697 46.5706 64.7321C46.5545 64.7945 46.5268 64.853 46.489 64.9041C46.4512 64.9552 46.404 64.998 46.3502 65.03C46.279 65.0725 46.1983 65.0947 46.1162 65.0944C46.0346 65.0944 45.9544 65.0721 45.8836 65.0298C45.8128 64.9874 45.7538 64.9264 45.7125 64.8529V64.8502ZM17.6559 64.8636C17.6021 64.8317 17.555 64.7889 17.5172 64.7377C17.4793 64.6866 17.4516 64.6281 17.4356 64.5657C17.4196 64.5033 17.4156 64.4382 17.4238 64.3742C17.4321 64.3102 17.4524 64.2485 17.4836 64.1927C17.5145 64.1369 17.5557 64.0879 17.6047 64.0486C17.6537 64.0094 17.7097 63.9806 17.7694 63.9639C17.8291 63.9472 17.8913 63.9429 17.9526 63.9513C18.0139 63.9597 18.073 63.9807 18.1265 64.0129C18.2336 64.079 18.3116 64.1863 18.3438 64.3117C18.376 64.4371 18.3598 64.5707 18.2988 64.6838C18.257 64.7583 18.1973 64.82 18.1255 64.8628C18.0538 64.9057 17.9726 64.9282 17.8899 64.9281C17.808 64.9301 17.7271 64.9088 17.6559 64.8663V64.8636ZM47.8802 63.5406C47.8193 63.4279 47.8032 63.2947 47.8354 63.1697C47.8677 63.0448 47.9456 62.938 48.0525 62.8724C48.1058 62.8394 48.165 62.8179 48.2264 62.8091C48.2878 62.8003 48.3503 62.8044 48.4102 62.8211C48.4701 62.8379 48.5261 62.8669 48.5751 62.9066C48.6241 62.9463 48.665 62.9958 48.6953 63.0522C48.7262 63.1078 48.7462 63.1693 48.7542 63.233C48.7623 63.2968 48.7582 63.3616 48.7422 63.4236C48.7262 63.4857 48.6986 63.5439 48.661 63.5948C48.6234 63.6457 48.5765 63.6884 48.5231 63.7204C48.4511 63.7637 48.3696 63.7868 48.2865 63.7875C48.2042 63.7874 48.1234 63.7648 48.0521 63.722C47.9809 63.6791 47.9216 63.6175 47.8802 63.5433V63.5406ZM15.4805 63.554C15.3729 63.4884 15.2945 63.3811 15.2622 63.2555C15.23 63.1299 15.2465 62.9961 15.3082 62.8831C15.3711 62.7708 15.4739 62.689 15.5942 62.6553C15.7146 62.6216 15.8428 62.6389 15.9511 62.7033C16.0587 62.7689 16.1371 62.8762 16.1694 63.0018C16.2016 63.1274 16.1851 63.2612 16.1234 63.3742C16.0825 63.4491 16.0234 63.5114 15.9521 63.5548C15.8807 63.5981 15.7997 63.621 15.7171 63.6211C15.635 63.6214 15.5543 63.5992 15.4831 63.5567L15.4805 63.554ZM50.0505 62.2337C50.0196 62.1778 49.9995 62.1162 49.9915 62.0522C49.9834 61.9883 49.9875 61.9233 50.0035 61.861C50.0195 61.7987 50.0471 61.7403 50.0847 61.6891C50.1223 61.6379 50.1692 61.595 50.2228 61.5628C50.2762 61.5302 50.3353 61.5089 50.3966 61.5003C50.458 61.4917 50.5204 61.4959 50.5802 61.5126C50.6399 61.5293 50.696 61.5583 50.745 61.5977C50.794 61.6372 50.835 61.6864 50.8656 61.7426C50.9273 61.8555 50.9439 61.9894 50.9116 62.115C50.8793 62.2406 50.8009 62.3479 50.6933 62.4135C50.6209 62.4554 50.5396 62.4776 50.4568 62.4779C50.3752 62.4776 50.2951 62.4552 50.2243 62.4128C50.1535 62.3705 50.0945 62.3097 50.053 62.2364L50.0505 62.2337ZM13.3103 62.2471C13.2567 62.2149 13.2098 62.1719 13.1722 62.1208C13.1346 62.0696 13.107 62.0112 13.091 61.9489C13.075 61.8866 13.0709 61.8216 13.0789 61.7577C13.087 61.6937 13.1071 61.632 13.138 61.5762C13.1689 61.5203 13.21 61.4714 13.259 61.4321C13.3081 61.3928 13.364 61.364 13.4237 61.3473C13.4834 61.3306 13.5457 61.3264 13.6069 61.3348C13.6682 61.3432 13.7273 61.3641 13.7808 61.3964C13.8884 61.462 13.9668 61.5693 13.9991 61.6949C14.0314 61.8205 14.0148 61.9543 13.9531 62.0673C13.9113 62.1417 13.8516 62.2034 13.7799 62.2463C13.7081 62.2891 13.6269 62.3116 13.5443 62.3115C13.4632 62.3128 13.3833 62.2915 13.3128 62.2498L13.3103 62.2471ZM52.2233 60.9375C52.1617 60.8249 52.1453 60.6915 52.1775 60.5663C52.2098 60.4411 52.2882 60.3344 52.3956 60.2692C52.4489 60.2363 52.5081 60.2148 52.5695 60.206C52.6309 60.1972 52.6934 60.2012 52.7533 60.218C52.8132 60.2347 52.8692 60.2638 52.9182 60.3035C52.9672 60.3432 53.0081 60.3927 53.0385 60.4491C53.0693 60.5047 53.0893 60.5662 53.0973 60.6299C53.1054 60.6936 53.1013 60.7584 53.0853 60.8205C53.0692 60.8826 53.0417 60.9408 53.0041 60.9917C52.9665 61.0426 52.9196 61.0853 52.8662 61.1173C52.7949 61.1599 52.7143 61.183 52.6322 61.1844C52.5492 61.1845 52.4677 61.1617 52.3959 61.1183C52.3241 61.075 52.2646 61.0126 52.2233 60.9375ZM11.14 60.9375C11.0865 60.9052 11.0395 60.8623 11.0019 60.8111C10.9643 60.76 10.9367 60.7016 10.9207 60.6393C10.9047 60.577 10.9006 60.512 10.9087 60.448C10.9167 60.3841 10.9368 60.3224 10.9677 60.2666C11.0306 60.1543 11.1334 60.0724 11.2537 60.0388C11.3741 60.0051 11.5023 60.0223 11.6106 60.0868C11.6643 60.1187 11.7115 60.1615 11.7493 60.2127C11.7871 60.2638 11.8149 60.3223 11.8309 60.3847C11.8469 60.4471 11.8509 60.5122 11.8427 60.5762C11.8344 60.6402 11.8141 60.7019 11.7828 60.7577C11.742 60.8326 11.6829 60.8949 11.6116 60.9382C11.5402 60.9816 11.4591 61.0045 11.3766 61.0046C11.2934 61.0045 11.2117 60.9814 11.14 60.9375ZM54.3962 59.6171C54.3649 59.5614 54.3446 59.4997 54.3363 59.4356C54.3281 59.3716 54.3321 59.3065 54.3481 59.2441C54.3641 59.1817 54.3918 59.1233 54.4297 59.0721C54.4675 59.021 54.5147 58.9782 54.5684 58.9462C54.6219 58.9136 54.681 58.8924 54.7423 58.8838C54.8037 58.8752 54.866 58.8793 54.9258 58.8961C54.9856 58.9128 55.0416 58.9417 55.0906 58.9812C55.1396 59.0207 55.1806 59.0699 55.2113 59.126C55.2422 59.1819 55.2622 59.2435 55.2703 59.3075C55.2784 59.3714 55.2743 59.4364 55.2583 59.4987C55.2423 59.561 55.2147 59.6194 55.1771 59.6706C55.1394 59.7217 55.0925 59.7647 55.039 59.7969C54.9666 59.8389 54.8852 59.861 54.8024 59.8613C54.7204 59.8615 54.6398 59.8393 54.5685 59.797C54.4972 59.7546 54.4378 59.6935 54.3962 59.6198V59.6171ZM8.96972 59.6305C8.86214 59.5649 8.7837 59.4577 8.75145 59.332C8.71919 59.2064 8.73572 59.0726 8.79744 58.9596C8.82809 58.9039 8.86898 58.855 8.91778 58.8157C8.96658 58.7765 9.02232 58.7477 9.08181 58.731C9.14129 58.7143 9.20335 58.71 9.26443 58.7184C9.32551 58.7267 9.3844 58.7476 9.43772 58.7798C9.49176 58.8115 9.53918 58.8542 9.57719 58.9053C9.61521 58.9564 9.64307 59.015 9.65911 59.0774C9.67516 59.1399 9.67909 59.2052 9.67065 59.2693C9.66222 59.3334 9.6416 59.3951 9.61 59.4507C9.56905 59.5253 9.50986 59.5872 9.43848 59.6301C9.3671 59.673 9.28609 59.6954 9.20372 59.6949C9.12186 59.6963 9.04112 59.675 8.96972 59.6332V59.6305ZM56.569 58.3075C56.5374 58.252 56.5169 58.1905 56.5085 58.1267C56.5001 58.0628 56.504 57.9977 56.5201 57.9355C56.5361 57.8732 56.564 57.8149 56.602 57.764C56.64 57.7132 56.6873 57.6707 56.7413 57.6393C56.7945 57.6067 56.8534 57.5855 56.9146 57.577C56.9757 57.5684 57.0379 57.5726 57.0975 57.5893C57.1571 57.6061 57.2128 57.635 57.2616 57.6744C57.3104 57.7139 57.3512 57.763 57.3815 57.8191C57.4431 57.9316 57.4596 58.0651 57.4273 58.1902C57.3951 58.3154 57.3167 58.4222 57.2093 58.4873C57.1378 58.5296 57.0574 58.5527 56.9753 58.5544C56.8929 58.5551 56.8117 58.5329 56.7403 58.49C56.6689 58.447 56.6097 58.385 56.569 58.3102V58.3075ZM6.79946 58.3209C6.74568 58.2889 6.69851 58.2461 6.66069 58.195C6.62287 58.1439 6.59515 58.0854 6.57912 58.023C6.5631 57.9606 6.5591 57.8955 6.56735 57.8315C6.57559 57.7675 6.59593 57.7058 6.62718 57.65C6.69052 57.5383 6.79329 57.4569 6.91346 57.4233C7.03362 57.3896 7.16163 57.4065 7.27003 57.4702C7.37761 57.5358 7.45605 57.6431 7.4883 57.7687C7.52056 57.8943 7.50403 58.0281 7.44231 58.1411C7.40128 58.2158 7.34214 58.278 7.27083 58.3213C7.19952 58.3647 7.11854 58.3876 7.03603 58.388C6.95302 58.3895 6.87121 58.3672 6.79946 58.3236V58.3209ZM58.7418 57.0006C58.6801 56.8876 58.6636 56.7538 58.6958 56.6282C58.7281 56.5025 58.8065 56.3953 58.9141 56.3297C58.9675 56.297 59.0266 56.2758 59.088 56.2672C59.1493 56.2586 59.2117 56.2628 59.2715 56.2795C59.3313 56.2962 59.3873 56.3252 59.4363 56.3646C59.4853 56.4041 59.5263 56.4533 59.557 56.5095C59.5882 56.5652 59.6085 56.6269 59.6168 56.6909C59.625 56.755 59.621 56.8201 59.605 56.8825C59.589 56.9449 59.5613 57.0033 59.5234 57.0544C59.4856 57.1056 59.4385 57.1484 59.3847 57.1804C59.3125 57.2229 59.231 57.2451 59.1481 57.2448C59.0653 57.2454 58.9838 57.2234 58.9117 57.181C58.8395 57.1387 58.7792 57.0774 58.7367 57.0033L58.7418 57.0006ZM4.63434 57.014C4.5803 56.9823 4.53288 56.9396 4.49486 56.8885C4.45684 56.8374 4.42899 56.7789 4.41294 56.7164C4.39689 56.6539 4.39297 56.5886 4.4014 56.5245C4.40984 56.4604 4.43046 56.3988 4.46205 56.3431C4.4927 56.2873 4.5336 56.2384 4.58239 56.1992C4.63119 56.1599 4.68693 56.1311 4.74642 56.1144C4.8059 56.0977 4.86797 56.0934 4.92904 56.1018C4.99012 56.1102 5.04901 56.1311 5.10233 56.1633C5.15586 56.1955 5.20277 56.2384 5.2404 56.2896C5.27803 56.3408 5.30563 56.3992 5.32163 56.4615C5.33763 56.5238 5.34171 56.5888 5.33364 56.6527C5.32558 56.7167 5.30552 56.7783 5.27462 56.8342C5.23287 56.908 5.17351 56.9694 5.10231 57.0122C5.03111 57.055 4.9505 57.0778 4.86833 57.0784C4.78463 57.0819 4.7017 57.0605 4.62919 57.0167L4.63434 57.014ZM60.1355 55.0335C60.1352 54.9691 60.147 54.9053 60.1704 54.8457C60.1938 54.7862 60.2282 54.732 60.2717 54.6864C60.3152 54.6407 60.3669 54.6045 60.4238 54.5798C60.4808 54.5551 60.5418 54.5424 60.6035 54.5424C60.6654 54.542 60.7268 54.5545 60.784 54.579C60.8412 54.6036 60.8933 54.6397 60.937 54.6854C60.9808 54.7311 61.0154 54.7854 61.039 54.8451C61.0625 54.9048 61.0744 54.9689 61.0741 55.0335C61.0741 55.1637 61.0245 55.2886 60.9363 55.3807C60.848 55.4728 60.7283 55.5246 60.6035 55.5246C60.4792 55.5239 60.3601 55.4718 60.2724 55.3798C60.1847 55.2878 60.1355 55.1632 60.1355 55.0335ZM3.20721 54.69C3.20721 54.5597 3.25678 54.4348 3.34503 54.3427C3.43328 54.2506 3.55297 54.1989 3.67777 54.1989C3.80213 54.1996 3.92116 54.2516 4.00885 54.3436C4.09655 54.4357 4.14577 54.5602 4.14577 54.69C4.14509 54.82 4.0953 54.9445 4.0072 55.0364C3.9191 55.1284 3.7998 55.1804 3.6752 55.1811C3.55106 55.1796 3.43241 55.1274 3.34486 55.0355C3.25731 54.9436 3.20787 54.8195 3.20721 54.69ZM60.1355 52.4035C60.1352 52.3391 60.147 52.2753 60.1704 52.2158C60.1938 52.1562 60.2282 52.102 60.2717 52.0564C60.3152 52.0107 60.3669 51.9745 60.4238 51.9498C60.4808 51.9251 60.5418 51.9124 60.6035 51.9124C60.6654 51.912 60.7268 51.9245 60.784 51.949C60.8412 51.9736 60.8933 52.0098 60.937 52.0554C60.9808 52.1011 61.0154 52.1554 61.039 52.2151C61.0625 52.2749 61.0744 52.3389 61.0741 52.4035C61.0744 52.4681 61.0625 52.5321 61.039 52.5919C61.0154 52.6516 60.9808 52.7059 60.937 52.7515C60.8933 52.7972 60.8412 52.8334 60.784 52.8579C60.7268 52.8825 60.6654 52.895 60.6035 52.8946C60.5418 52.8946 60.4808 52.8819 60.4238 52.8572C60.3669 52.8324 60.3152 52.7962 60.2717 52.7506C60.2282 52.705 60.1938 52.6508 60.1704 52.5912C60.147 52.5317 60.1352 52.4679 60.1355 52.4035ZM3.20721 52.0815C3.20721 51.9512 3.25678 51.8263 3.34503 51.7342C3.43328 51.6421 3.55297 51.5903 3.67777 51.5903C3.80213 51.5911 3.92116 51.6431 4.00885 51.7351C4.09655 51.8272 4.14577 51.9517 4.14577 52.0815C4.14509 52.2115 4.0953 52.336 4.0072 52.4279C3.9191 52.5199 3.7998 52.5718 3.6752 52.5726C3.55106 52.5711 3.43241 52.5189 3.34486 52.427C3.25731 52.3351 3.20787 52.211 3.20721 52.0815ZM60.1355 49.795C60.1352 49.7306 60.147 49.6668 60.1704 49.6073C60.1938 49.5477 60.2282 49.4935 60.2717 49.4479C60.3152 49.4022 60.3669 49.366 60.4238 49.3413C60.4808 49.3166 60.5418 49.3039 60.6035 49.3039C60.6654 49.3035 60.7268 49.316 60.784 49.3405C60.8412 49.3651 60.8933 49.4013 60.937 49.4469C60.9808 49.4926 61.0154 49.5469 61.039 49.6066C61.0625 49.6664 61.0744 49.7304 61.0741 49.795C61.0744 49.8596 61.0625 49.9236 61.039 49.9833C61.0154 50.0431 60.9808 50.0974 60.937 50.143C60.8933 50.1887 60.8412 50.2249 60.784 50.2494C60.7268 50.274 60.6654 50.2864 60.6035 50.2861C60.5412 50.2861 60.4795 50.2731 60.422 50.2479C60.3646 50.2227 60.3125 50.1858 60.2689 50.1393C60.2253 50.0928 60.1911 50.0376 60.1682 49.9771C60.1452 49.9166 60.1342 49.852 60.1355 49.7869V49.795ZM3.20721 49.4568C3.20721 49.3266 3.25678 49.2017 3.34503 49.1096C3.43328 49.0175 3.55297 48.9657 3.67777 48.9657C3.80213 48.9665 3.92116 49.0185 4.00885 49.1105C4.09655 49.2026 4.14577 49.3271 4.14577 49.4568C4.14577 49.5871 4.09619 49.712 4.00794 49.8041C3.9197 49.8962 3.8 49.948 3.6752 49.948C3.55085 49.9472 3.43182 49.8952 3.34412 49.8032C3.25643 49.7111 3.20721 49.5866 3.20721 49.4568ZM60.1355 47.1704C60.1352 47.106 60.147 47.0422 60.1704 46.9827C60.1938 46.9231 60.2282 46.8689 60.2717 46.8233C60.3152 46.7776 60.3669 46.7414 60.4238 46.7167C60.4808 46.692 60.5418 46.6793 60.6035 46.6793C60.6654 46.6789 60.7268 46.6914 60.784 46.7159C60.8412 46.7405 60.8933 46.7767 60.937 46.8223C60.9808 46.868 61.0154 46.9223 61.039 46.982C61.0625 47.0418 61.0744 47.1058 61.0741 47.1704C61.0741 47.3006 61.0245 47.4255 60.9363 47.5177C60.848 47.6097 60.7283 47.6615 60.6035 47.6615C60.4792 47.6608 60.3601 47.6087 60.2724 47.5167C60.1847 47.4247 60.1355 47.3002 60.1355 47.1704ZM3.20721 46.8403C3.20721 46.71 3.25678 46.5851 3.34503 46.493C3.43328 46.4009 3.55297 46.3492 3.67777 46.3492C3.80237 46.3499 3.92167 46.4019 4.00977 46.4938C4.09787 46.5858 4.14767 46.7103 4.14834 46.8403C4.14767 46.9703 4.09787 47.0948 4.00977 47.1868C3.92167 47.2787 3.80237 47.3307 3.67777 47.3314C3.55297 47.3314 3.43328 47.2797 3.34503 47.1876C3.25678 47.0955 3.20721 46.9705 3.20721 46.8403ZM60.1355 44.5673C60.1352 44.5029 60.147 44.4391 60.1704 44.3795C60.1938 44.3199 60.2282 44.2658 60.2717 44.2201C60.3152 44.1745 60.3669 44.1383 60.4238 44.1136C60.4808 44.0889 60.5418 44.0761 60.6035 44.0761C60.6654 44.0758 60.7268 44.0882 60.784 44.1128C60.8412 44.1374 60.8933 44.1735 60.937 44.2192C60.9808 44.2649 61.0154 44.3191 61.039 44.3789C61.0625 44.4386 61.0744 44.5027 61.0741 44.5673C61.0741 44.6975 61.0245 44.8224 60.9363 44.9145C60.848 45.0066 60.7283 45.0584 60.6035 45.0584C60.4792 45.0577 60.3601 45.0056 60.2724 44.9136C60.1847 44.8215 60.1355 44.697 60.1355 44.5673ZM3.20721 44.2237C3.20721 44.1593 3.21938 44.0954 3.24303 44.0358C3.26668 43.9762 3.30134 43.9221 3.34503 43.8765C3.38873 43.8309 3.4406 43.7947 3.4977 43.77C3.55479 43.7453 3.61598 43.7326 3.67777 43.7326C3.80237 43.7333 3.92167 43.7853 4.00977 43.8773C4.09787 43.9692 4.14767 44.0937 4.14834 44.2237C4.147 44.3536 4.097 44.4777 4.00904 44.5695C3.92108 44.6613 3.80216 44.7135 3.67777 44.7149C3.55318 44.7141 3.43388 44.6622 3.34578 44.5702C3.25768 44.4783 3.20788 44.3538 3.20721 44.2237ZM60.1355 41.9373C60.1355 41.8075 60.1847 41.683 60.2724 41.591C60.3601 41.4989 60.4792 41.4469 60.6035 41.4462C60.6654 41.4458 60.7268 41.4583 60.784 41.4828C60.8412 41.5074 60.8933 41.5436 60.937 41.5892C60.9808 41.6349 61.0154 41.6892 61.039 41.7489C61.0625 41.8087 61.0744 41.8727 61.0741 41.9373C61.0744 42.0019 61.0625 42.0659 61.039 42.1256C61.0154 42.1854 60.9808 42.2397 60.937 42.2853C60.8933 42.331 60.8412 42.3672 60.784 42.3917C60.7268 42.4163 60.6654 42.4287 60.6035 42.4284C60.4792 42.4277 60.3601 42.3756 60.2724 42.2836C60.1847 42.1916 60.1355 42.0671 60.1355 41.9373ZM3.20721 41.6152C3.20721 41.485 3.25678 41.3601 3.34503 41.268C3.43328 41.1759 3.55297 41.1241 3.67777 41.1241C3.80237 41.1248 3.92167 41.1768 4.00977 41.2688C4.09787 41.3607 4.14767 41.4852 4.14834 41.6152C4.14767 41.7453 4.09787 41.8698 4.00977 41.9617C3.92167 42.0537 3.80237 42.1056 3.67777 42.1063C3.55297 42.1063 3.43328 42.0546 3.34503 41.9625C3.25678 41.8704 3.20721 41.7455 3.20721 41.6152ZM60.1355 39.3288C60.1355 39.199 60.1847 39.0745 60.2724 38.9825C60.3601 38.8904 60.4792 38.8384 60.6035 38.8377C60.6654 38.8373 60.7268 38.8498 60.784 38.8743C60.8412 38.8989 60.8933 38.9351 60.937 38.9807C60.9808 39.0264 61.0154 39.0807 61.039 39.1404C61.0625 39.2002 61.0744 39.2642 61.0741 39.3288C61.0741 39.459 61.0245 39.5839 60.9363 39.676C60.848 39.7681 60.7283 39.8199 60.6035 39.8199C60.5414 39.8192 60.48 39.8057 60.4228 39.7803C60.3657 39.7548 60.3139 39.7178 60.2705 39.6715C60.227 39.6251 60.1927 39.5703 60.1696 39.5101C60.1464 39.4499 60.1349 39.3856 60.1355 39.3207V39.3288ZM3.20721 38.9906C3.20721 38.8604 3.25678 38.7355 3.34503 38.6434C3.43328 38.5513 3.55297 38.4995 3.67777 38.4995C3.80237 38.5002 3.92167 38.5522 4.00977 38.6442C4.09787 38.7361 4.14767 38.8606 4.14834 38.9906C4.14767 39.1207 4.09787 39.2452 4.00977 39.3371C3.92167 39.4291 3.80237 39.481 3.67777 39.4818C3.61598 39.4818 3.55479 39.469 3.4977 39.4444C3.4406 39.4197 3.38873 39.3835 3.34503 39.3379C3.30134 39.2923 3.26668 39.2382 3.24303 39.1786C3.21938 39.119 3.20721 39.0551 3.20721 38.9906ZM60.1355 36.7042C60.1355 36.5744 60.1847 36.4499 60.2724 36.3579C60.3601 36.2658 60.4792 36.2138 60.6035 36.2131C60.6654 36.2127 60.7268 36.2252 60.784 36.2497C60.8412 36.2743 60.8933 36.3104 60.937 36.3561C60.9808 36.4018 61.0154 36.4561 61.039 36.5158C61.0625 36.5756 61.0744 36.6396 61.0741 36.7042C61.0741 36.7687 61.0619 36.8325 61.0383 36.8921C61.0146 36.9517 60.98 37.0058 60.9363 37.0514C60.8926 37.097 60.8407 37.1332 60.7836 37.1579C60.7265 37.1826 60.6653 37.1953 60.6035 37.1953C60.4794 37.1939 60.3607 37.1416 60.2732 37.0497C60.1856 36.9579 60.1362 36.8337 60.1355 36.7042ZM3.20721 36.3741C3.20721 36.2438 3.25678 36.1189 3.34503 36.0268C3.43328 35.9347 3.55297 35.883 3.67777 35.883C3.80237 35.8837 3.92167 35.9357 4.00977 36.0276C4.09787 36.1195 4.14767 36.2441 4.14834 36.3741C4.14767 36.5041 4.09787 36.6286 4.00977 36.7206C3.92167 36.8125 3.80237 36.8645 3.67777 36.8652C3.55318 36.8645 3.43388 36.8125 3.34578 36.7206C3.25768 36.6286 3.20788 36.5041 3.20721 36.3741ZM60.1355 34.101C60.1355 33.9713 60.1847 33.8467 60.2724 33.7547C60.3601 33.6627 60.4792 33.6106 60.6035 33.6099C60.6654 33.6096 60.7268 33.622 60.784 33.6466C60.8412 33.6711 60.8933 33.7073 60.937 33.753C60.9808 33.7987 61.0154 33.8529 61.039 33.9127C61.0625 33.9724 61.0744 34.0364 61.0741 34.101C61.0744 34.1656 61.0625 34.2297 61.039 34.2894C61.0154 34.3491 60.9808 34.4034 60.937 34.4491C60.8933 34.4948 60.8412 34.5309 60.784 34.5555C60.7268 34.58 60.6654 34.5925 60.6035 34.5921C60.4792 34.5914 60.3601 34.5394 60.2724 34.4474C60.1847 34.3553 60.1355 34.2308 60.1355 34.101ZM3.20721 33.7575C3.20721 33.6273 3.25678 33.5024 3.34503 33.4103C3.43328 33.3182 3.55297 33.2664 3.67777 33.2664C3.80237 33.2671 3.92167 33.3191 4.00977 33.411C4.09787 33.503 4.14767 33.6275 4.14834 33.7575C4.14767 33.8876 4.09787 34.0121 4.00977 34.104C3.92167 34.196 3.80237 34.2479 3.67777 34.2486C3.55297 34.2486 3.43328 34.1969 3.34503 34.1048C3.25678 34.0127 3.20721 33.8878 3.20721 33.7575ZM60.1355 31.4711C60.1355 31.3413 60.1847 31.2168 60.2724 31.1248C60.3601 31.0327 60.4792 30.9807 60.6035 30.98C60.6654 30.9796 60.7268 30.9921 60.784 31.0166C60.8412 31.0412 60.8933 31.0773 60.937 31.123C60.9808 31.1687 61.0154 31.223 61.039 31.2827C61.0625 31.3425 61.0744 31.4065 61.0741 31.4711C61.0741 31.6013 61.0245 31.7262 60.9363 31.8183C60.848 31.9104 60.7283 31.9622 60.6035 31.9622C60.4794 31.9608 60.3607 31.9085 60.2732 31.8166C60.1856 31.7247 60.1362 31.6006 60.1355 31.4711ZM3.20721 31.149C3.20721 31.0845 3.21938 31.0207 3.24303 30.9611C3.26668 30.9015 3.30134 30.8474 3.34503 30.8018C3.38873 30.7562 3.4406 30.72 3.4977 30.6953C3.55479 30.6706 3.61598 30.6579 3.67777 30.6579C3.80237 30.6586 3.92167 30.7106 4.00977 30.8025C4.09787 30.8945 4.14767 31.019 4.14834 31.149C4.14767 31.2791 4.09787 31.4036 4.00977 31.4955C3.92167 31.5875 3.80237 31.6394 3.67777 31.6401C3.55297 31.6401 3.43328 31.5884 3.34503 31.4963C3.25678 31.4042 3.20721 31.2793 3.20721 31.149ZM60.1355 28.8626C60.1355 28.7328 60.1847 28.6083 60.2724 28.5163C60.3601 28.4242 60.4792 28.3722 60.6035 28.3715C60.6654 28.3711 60.7268 28.3836 60.784 28.4081C60.8412 28.4327 60.8933 28.4688 60.937 28.5145C60.9808 28.5602 61.0154 28.6145 61.039 28.6742C61.0625 28.734 61.0744 28.798 61.0741 28.8626C61.0741 28.9928 61.0245 29.1177 60.9363 29.2098C60.848 29.3019 60.7283 29.3537 60.6035 29.3537C60.5414 29.353 60.48 29.3395 60.4228 29.314C60.3657 29.2886 60.3139 29.2516 60.2705 29.2053C60.227 29.1589 60.1927 29.1041 60.1696 29.0439C60.1464 28.9837 60.1349 28.9194 60.1355 28.8545V28.8626ZM3.20721 28.5244C3.20721 28.3942 3.25678 28.2693 3.34503 28.1772C3.43328 28.0851 3.55297 28.0333 3.67777 28.0333C3.80237 28.034 3.92167 28.086 4.00977 28.1779C4.09787 28.2699 4.14767 28.3944 4.14834 28.5244C4.14767 28.6545 4.09787 28.779 4.00977 28.8709C3.92167 28.9629 3.80237 29.0148 3.67777 29.0155C3.55318 29.0148 3.43388 28.9629 3.34578 28.8709C3.25768 28.779 3.20788 28.6545 3.20721 28.5244ZM60.1381 26.238C60.1378 26.1738 60.1495 26.1102 60.1727 26.0508C60.1959 25.9915 60.2301 25.9374 60.2734 25.8918C60.3166 25.8462 60.368 25.8099 60.4246 25.7851C60.4813 25.7602 60.5421 25.7472 60.6035 25.7469C60.6654 25.7465 60.7268 25.759 60.784 25.7835C60.8412 25.8081 60.8933 25.8442 60.937 25.8899C60.9808 25.9356 61.0154 25.9899 61.039 26.0496C61.0625 26.1094 61.0744 26.1734 61.0741 26.238C61.0744 26.3026 61.0625 26.3666 61.039 26.4263C61.0154 26.4861 60.9808 26.5404 60.937 26.586C60.8933 26.6317 60.8412 26.6679 60.784 26.6924C60.7268 26.717 60.6654 26.7294 60.6035 26.7291C60.542 26.7291 60.481 26.7163 60.4242 26.6916C60.3674 26.6668 60.3159 26.6306 60.2726 26.5849C60.2293 26.5392 60.1951 26.4851 60.172 26.4255C60.149 26.3659 60.1374 26.3022 60.1381 26.238ZM3.20721 25.9079C3.20721 25.7776 3.25678 25.6527 3.34503 25.5606C3.43328 25.4685 3.55297 25.4168 3.67777 25.4168C3.80258 25.4168 3.92227 25.4685 4.01052 25.5606C4.09876 25.6527 4.14834 25.7776 4.14834 25.9079C4.14767 26.0379 4.09787 26.1624 4.00977 26.2544C3.92167 26.3463 3.80237 26.3983 3.67777 26.399C3.55318 26.3983 3.43388 26.3463 3.34578 26.2544C3.25768 26.1624 3.20788 26.0379 3.20721 25.9079ZM60.1381 23.6348C60.1378 23.5707 60.1495 23.5071 60.1727 23.4477C60.1959 23.3883 60.2301 23.3343 60.2734 23.2887C60.3166 23.2431 60.368 23.2068 60.4246 23.1819C60.4813 23.1571 60.5421 23.1441 60.6035 23.1437C60.6654 23.1434 60.7268 23.1558 60.784 23.1804C60.8412 23.2049 60.8933 23.2411 60.937 23.2868C60.9808 23.3324 61.0154 23.3867 61.039 23.4465C61.0625 23.5062 61.0744 23.5702 61.0741 23.6348C61.0741 23.7651 61.0245 23.89 60.9363 23.9821C60.848 24.0742 60.7283 24.1259 60.6035 24.1259C60.5421 24.1256 60.4813 24.1126 60.4246 24.0877C60.368 24.0629 60.3166 24.0266 60.2734 23.981C60.2301 23.9354 60.1959 23.8813 60.1727 23.822C60.1495 23.7626 60.1378 23.699 60.1381 23.6348ZM3.20721 23.3047C3.20721 23.1745 3.25678 23.0496 3.34503 22.9575C3.43328 22.8654 3.55297 22.8136 3.67777 22.8136C3.80258 22.8136 3.92227 22.8654 4.01052 22.9575C4.09876 23.0496 4.14834 23.1745 4.14834 23.3047C4.14834 23.435 4.09876 23.5599 4.01052 23.652C3.92227 23.7441 3.80258 23.7959 3.67777 23.7959C3.61488 23.7959 3.55262 23.7827 3.49468 23.7572C3.43673 23.7317 3.38427 23.6943 3.3404 23.6473C3.29653 23.6003 3.26215 23.5445 3.23927 23.4834C3.21639 23.4222 3.20549 23.3569 3.20721 23.2913V23.3047ZM3.27149 21.8314C3.24036 21.7761 3.22012 21.7148 3.21193 21.6512C3.20375 21.5876 3.2078 21.5229 3.22384 21.4609C3.23988 21.399 3.26759 21.341 3.30535 21.2903C3.34311 21.2396 3.39017 21.1973 3.44378 21.1659C3.55156 21.1005 3.67978 21.0825 3.80031 21.1157C3.92083 21.1489 4.0238 21.2306 4.08663 21.343C4.14823 21.4556 4.16468 21.589 4.13241 21.7142C4.10014 21.8393 4.02175 21.9461 3.91434 22.0112C3.84246 22.0548 3.76089 22.0779 3.67777 22.0783C3.5938 22.0775 3.51162 22.0528 3.44005 22.007C3.36848 21.9611 3.31021 21.8958 3.27149 21.818V21.8314ZM59.899 21.7133C59.8455 21.6814 59.7987 21.6387 59.7611 21.5878C59.7235 21.5368 59.6959 21.4786 59.6799 21.4166C59.6639 21.3545 59.6598 21.2897 59.6678 21.226C59.6758 21.1622 59.6958 21.1008 59.7267 21.0451C59.7576 20.9893 59.7987 20.9403 59.8477 20.901C59.8968 20.8618 59.9527 20.8329 60.0124 20.8163C60.0721 20.7996 60.1344 20.7953 60.1956 20.8037C60.2569 20.8121 60.316 20.8331 60.3695 20.8653C60.4769 20.9304 60.5553 21.0372 60.5876 21.1624C60.6199 21.2876 60.6034 21.421 60.5418 21.5335C60.5006 21.6087 60.441 21.6711 60.3692 21.7144C60.2974 21.7578 60.2159 21.7805 60.133 21.7804C60.0506 21.7801 59.9699 21.7569 59.899 21.7133ZM5.44176 20.5111C5.41067 20.4554 5.39053 20.3937 5.3825 20.3298C5.37447 20.2659 5.37872 20.2009 5.395 20.1387C5.41127 20.0765 5.43925 20.0183 5.4773 19.9675C5.51535 19.9167 5.56271 19.8743 5.61661 19.8428C5.66994 19.8107 5.72883 19.7898 5.7899 19.7814C5.85098 19.773 5.91304 19.7773 5.97253 19.794C6.03201 19.8107 6.08775 19.8395 6.13655 19.8787C6.18535 19.918 6.22625 19.9669 6.25689 20.0226C6.31849 20.1352 6.33495 20.2686 6.30267 20.3938C6.2704 20.519 6.19201 20.6258 6.08461 20.6909C6.01346 20.7336 5.9327 20.7559 5.85061 20.7553C5.76775 20.7565 5.68611 20.7345 5.61419 20.6915C5.54227 20.6486 5.48272 20.5862 5.44176 20.5111ZM57.7236 20.4145C57.6165 20.3484 57.5385 20.2411 57.5063 20.1157C57.4741 19.9903 57.4902 19.8567 57.5513 19.7436C57.5822 19.6877 57.6233 19.6387 57.6723 19.5995C57.7214 19.5602 57.7773 19.5314 57.837 19.5147C57.8967 19.498 57.959 19.4937 58.0202 19.5021C58.0815 19.5106 58.1406 19.5315 58.1941 19.5637C58.2479 19.5957 58.2951 19.6385 58.3329 19.6897C58.3707 19.7408 58.3984 19.7993 58.4145 19.8617C58.4305 19.9241 58.4345 19.9892 58.4262 20.0532C58.418 20.1172 58.3976 20.1789 58.3664 20.2347C58.325 20.3089 58.2658 20.3705 58.1945 20.4133C58.1232 20.4562 58.0424 20.4788 57.9601 20.4789C57.8772 20.4795 57.7956 20.4573 57.7236 20.4145ZM7.61459 19.2015C7.58371 19.1462 7.56359 19.0851 7.55541 19.0216C7.54722 18.9582 7.55112 18.8937 7.56689 18.8319C7.58266 18.77 7.60999 18.712 7.6473 18.6612C7.68461 18.6105 7.73117 18.5679 7.78431 18.5359C7.83774 18.5033 7.89684 18.4821 7.95819 18.4735C8.01953 18.4649 8.08191 18.469 8.1417 18.4858C8.20149 18.5025 8.2575 18.5314 8.3065 18.5709C8.3555 18.6104 8.39651 18.6596 8.42716 18.7157C8.45794 18.7712 8.4779 18.8324 8.4859 18.896C8.4939 18.9595 8.48978 19.0241 8.47376 19.0859C8.45775 19.1478 8.43016 19.2057 8.39259 19.2564C8.35503 19.3071 8.30822 19.3495 8.25487 19.3813C8.18519 19.4259 8.10521 19.45 8.02345 19.451C7.94008 19.4517 7.85808 19.4289 7.78611 19.385C7.71415 19.341 7.65489 19.2776 7.61459 19.2015ZM55.5533 19.0968C55.4456 19.0312 55.3673 18.9238 55.3355 18.798C55.3036 18.6722 55.3209 18.5384 55.3836 18.4259C55.4455 18.314 55.5473 18.2322 55.6668 18.1985C55.7864 18.1648 55.9138 18.1819 56.0213 18.2461C56.0751 18.2781 56.1222 18.3209 56.16 18.372C56.1979 18.4231 56.2256 18.4816 56.2416 18.544C56.2576 18.6064 56.2616 18.6715 56.2534 18.7355C56.2451 18.7995 56.2248 18.8612 56.1936 18.917C56.1531 18.9923 56.0941 19.0549 56.0227 19.0983C55.9512 19.1417 55.87 19.1644 55.7873 19.1639C55.705 19.1635 55.6242 19.1404 55.5533 19.0968ZM9.78229 17.8945C9.72069 17.782 9.70423 17.6485 9.73651 17.5234C9.76878 17.3982 9.84717 17.2914 9.95457 17.2263C10.008 17.1937 10.0671 17.1725 10.1285 17.1639C10.1898 17.1552 10.2522 17.1594 10.312 17.1761C10.3717 17.1929 10.4278 17.2218 10.4768 17.2613C10.5258 17.3007 10.5668 17.35 10.5974 17.4061C10.629 17.4616 10.6495 17.5231 10.6579 17.587C10.6663 17.6509 10.6624 17.7159 10.6463 17.7781C10.6303 17.8404 10.6024 17.8987 10.5644 17.9496C10.5265 18.0005 10.4791 18.0429 10.4251 18.0743C10.3546 18.1189 10.2736 18.1421 10.1911 18.1414C10.1082 18.1415 10.0267 18.1187 9.95488 18.0754C9.88308 18.032 9.82354 17.9696 9.78229 17.8945ZM53.383 17.7899C53.3292 17.7579 53.2821 17.7151 53.2443 17.6639C53.2064 17.6128 53.1787 17.5543 53.1627 17.4919C53.1467 17.4295 53.1427 17.3644 53.1509 17.3004C53.1592 17.2364 53.1795 17.1747 53.2107 17.1189C53.2416 17.0631 53.2828 17.0141 53.3318 16.9749C53.3808 16.9356 53.4368 16.9068 53.4965 16.8901C53.5562 16.8734 53.6184 16.8691 53.6797 16.8775C53.741 16.886 53.8001 16.9069 53.8536 16.9391C53.9613 17.0047 54.0396 17.1122 54.0714 17.238C54.1032 17.3637 54.0859 17.4976 54.0233 17.6101C53.9819 17.6849 53.9223 17.7469 53.8505 17.7898C53.7786 17.8327 53.6972 17.8549 53.6144 17.8543C53.5331 17.8551 53.4531 17.8329 53.383 17.7899ZM11.9551 16.5903C11.8932 16.4765 11.8765 16.3418 11.9087 16.2153C11.9409 16.0889 12.0195 15.9806 12.1274 15.914C12.2361 15.8505 12.3644 15.8341 12.4846 15.8682C12.6048 15.9023 12.7073 15.9843 12.7703 16.0965C12.8011 16.1521 12.8211 16.2136 12.8291 16.2773C12.8372 16.3411 12.8331 16.4058 12.8171 16.4679C12.8011 16.53 12.7735 16.5882 12.7359 16.6391C12.6983 16.69 12.6514 16.7327 12.598 16.7647C12.5271 16.8085 12.4463 16.8317 12.364 16.8318C12.2815 16.8325 12.2004 16.8105 12.1286 16.7681C12.0568 16.7257 11.997 16.6644 11.9551 16.5903ZM51.2128 16.4802C51.1592 16.448 51.1123 16.4051 51.0747 16.3539C51.0371 16.3027 51.0095 16.2443 50.9935 16.182C50.9775 16.1197 50.9734 16.0547 50.9814 15.9908C50.9895 15.9269 51.0096 15.8652 51.0405 15.8093C51.1029 15.6972 51.2052 15.6154 51.3251 15.5817C51.4451 15.5481 51.5729 15.5652 51.6808 15.6295C51.7883 15.6951 51.8668 15.8024 51.899 15.928C51.9313 16.0536 51.9148 16.1875 51.853 16.3004C51.8122 16.3753 51.7531 16.4376 51.6818 16.481C51.6104 16.5244 51.5293 16.5472 51.4468 16.5473C51.3643 16.548 51.2833 16.5248 51.2128 16.4802ZM14.128 15.278C14.0967 15.2222 14.0764 15.1605 14.0681 15.0965C14.0599 15.0325 14.0639 14.9674 14.0799 14.905C14.0959 14.8426 14.1237 14.7841 14.1615 14.733C14.1993 14.6818 14.2465 14.639 14.3002 14.6071C14.4085 14.5426 14.5367 14.5254 14.6571 14.5591C14.7774 14.5927 14.8802 14.6746 14.9431 14.7869C15.0048 14.8998 15.0213 15.0337 14.9891 15.1593C14.9568 15.2849 14.8784 15.3922 14.7708 15.4578C14.6989 15.5013 14.6174 15.5245 14.5342 15.5249C14.4517 15.5248 14.3706 15.5019 14.2992 15.4585C14.2279 15.4152 14.1688 15.3529 14.128 15.278ZM49.0399 15.1733C48.9864 15.1411 48.9395 15.0981 48.9018 15.047C48.8642 14.9958 48.8366 14.9374 48.8206 14.8751C48.8046 14.8128 48.8005 14.7478 48.8086 14.6839C48.8167 14.6199 48.8367 14.5583 48.8676 14.5024C48.8985 14.4465 48.9397 14.3976 48.9887 14.3583C49.0377 14.319 49.0937 14.2902 49.1534 14.2735C49.2131 14.2568 49.2753 14.2526 49.3366 14.261C49.3979 14.2694 49.457 14.2903 49.5105 14.3226C49.564 14.3548 49.6109 14.3978 49.6486 14.4489C49.6862 14.5001 49.7138 14.5585 49.7298 14.6208C49.7458 14.6831 49.7499 14.7481 49.7418 14.812C49.7337 14.876 49.7137 14.9376 49.6828 14.9935C49.641 15.0679 49.5813 15.1296 49.5095 15.1725C49.4378 15.2153 49.3566 15.2378 49.2739 15.2377C49.1918 15.2387 49.1109 15.2164 49.0399 15.1733ZM16.2982 13.9737C16.2674 13.9183 16.2475 13.857 16.2395 13.7935C16.2315 13.7299 16.2356 13.6654 16.2516 13.6035C16.2676 13.5417 16.2952 13.4837 16.3328 13.433C16.3704 13.3823 16.4172 13.3399 16.4705 13.3082C16.578 13.2426 16.706 13.2241 16.8265 13.2568C16.9469 13.2895 17.0501 13.3707 17.1134 13.4826C17.1751 13.5956 17.1916 13.7294 17.1594 13.855C17.1271 13.9806 17.0487 14.0879 16.9411 14.1535C16.8701 14.1971 16.7894 14.2202 16.7071 14.2206C16.624 14.2213 16.5423 14.1987 16.4704 14.1553C16.3985 14.1119 16.3391 14.0492 16.2982 13.9737ZM46.8671 13.8691C46.7595 13.8034 46.6811 13.6962 46.6488 13.5706C46.6166 13.4449 46.6331 13.3111 46.6948 13.1981C46.7577 13.0859 46.8604 13.004 46.9808 12.9703C47.1012 12.9367 47.2294 12.9539 47.3376 13.0183C47.4452 13.084 47.5237 13.1912 47.5559 13.3168C47.5882 13.4425 47.5717 13.5763 47.5099 13.6893C47.4691 13.7642 47.41 13.8264 47.3387 13.8698C47.2673 13.9132 47.1862 13.9361 47.1037 13.9361C47.0201 13.9341 46.9385 13.9091 46.8671 13.8637V13.8691ZM18.4711 12.6668C18.4401 12.6113 18.42 12.55 18.4117 12.4863C18.4035 12.4227 18.4074 12.358 18.4232 12.2959C18.4389 12.2339 18.4663 12.1757 18.5036 12.1246C18.5409 12.0736 18.5876 12.0308 18.6408 11.9986C18.6942 11.9659 18.7533 11.9447 18.8147 11.9361C18.876 11.9275 18.9384 11.9317 18.9982 11.9484C19.058 11.9651 19.114 11.9941 19.163 12.0335C19.212 12.073 19.253 12.1222 19.2836 12.1784C19.3145 12.234 19.3345 12.2955 19.3425 12.3592C19.3505 12.423 19.3464 12.4877 19.3304 12.5498C19.3144 12.6119 19.2868 12.6701 19.2492 12.721C19.2116 12.7719 19.1648 12.8146 19.1113 12.8466C19.0404 12.89 18.9595 12.9122 18.8773 12.911C18.7944 12.9112 18.7129 12.8881 18.6415 12.8442C18.57 12.8003 18.5111 12.7372 18.4711 12.6614V12.6668ZM44.6994 12.5621C44.5918 12.4965 44.5134 12.3892 44.4811 12.2636C44.4489 12.138 44.4654 12.0042 44.5271 11.8912C44.558 11.8353 44.5991 11.7864 44.6482 11.7471C44.6972 11.7078 44.7531 11.679 44.8128 11.6623C44.8725 11.6456 44.9348 11.6414 44.9961 11.6498C45.0573 11.6582 45.1164 11.6792 45.17 11.7114C45.2235 11.7437 45.2704 11.7866 45.308 11.8378C45.3456 11.8889 45.3733 11.9473 45.3893 12.0096C45.4053 12.0719 45.4093 12.1369 45.4013 12.2009C45.3932 12.2648 45.3731 12.3265 45.3422 12.3823C45.3009 12.4571 45.2412 12.5191 45.1694 12.562C45.0976 12.6049 45.0161 12.6272 44.9334 12.6265C44.8499 12.626 44.7682 12.6018 44.6968 12.5568L44.6994 12.5621ZM20.6413 11.3572C20.5805 11.2448 20.5645 11.1121 20.5968 10.9875C20.629 10.863 20.7069 10.7567 20.8136 10.6916C20.867 10.6586 20.9261 10.6371 20.9875 10.6283C21.0489 10.6195 21.1114 10.6236 21.1713 10.6404C21.2312 10.6571 21.2872 10.6862 21.3362 10.7259C21.3852 10.7655 21.4261 10.815 21.4565 10.8714C21.4876 10.9268 21.5078 10.9881 21.516 11.0517C21.5242 11.1153 21.5202 11.18 21.5041 11.2419C21.4881 11.3039 21.4604 11.3619 21.4226 11.4126C21.3848 11.4632 21.3378 11.5055 21.2842 11.537C21.2139 11.5823 21.1329 11.6065 21.0502 11.6067C20.9661 11.6062 20.8836 11.5824 20.8113 11.5376C20.739 11.4927 20.6794 11.4286 20.6388 11.3518L20.6413 11.3572ZM42.5266 11.2525C42.4189 11.1869 42.3405 11.0795 42.3087 10.9537C42.2769 10.8279 42.2942 10.6941 42.3568 10.5816C42.4192 10.4695 42.5215 10.3877 42.6415 10.354C42.7614 10.3203 42.8893 10.3375 42.9971 10.4018C43.1051 10.467 43.1841 10.574 43.2169 10.6997C43.2496 10.8253 43.2335 10.9594 43.172 11.0727C43.1305 11.1476 43.0709 11.2099 42.9992 11.2532C42.9274 11.2965 42.846 11.3194 42.7631 11.3196C42.6786 11.3184 42.596 11.2934 42.524 11.2471L42.5266 11.2525ZM22.8142 10.0502C22.7833 9.99458 22.7633 9.93312 22.7553 9.86938C22.7472 9.80564 22.7514 9.74087 22.7674 9.67878C22.7834 9.6167 22.811 9.55853 22.8486 9.5076C22.8862 9.45667 22.933 9.41399 22.9864 9.38201C23.0399 9.3494 23.099 9.32817 23.1603 9.31956C23.2217 9.31096 23.284 9.31513 23.3438 9.33186C23.4036 9.34858 23.4596 9.37751 23.5086 9.41699C23.5576 9.45646 23.5987 9.50568 23.6293 9.56181C23.6601 9.61746 23.6802 9.67892 23.6882 9.74266C23.6962 9.80641 23.6921 9.87118 23.6761 9.93326C23.6601 9.99534 23.6325 10.0535 23.5949 10.1044C23.5573 10.1554 23.5105 10.1981 23.457 10.23C23.3855 10.2746 23.3037 10.2978 23.2204 10.2971C23.1369 10.297 23.055 10.2735 22.9831 10.2291C22.9112 10.1848 22.852 10.1212 22.8116 10.0449L22.8142 10.0502ZM40.3563 9.94825C40.3025 9.91627 40.2553 9.87347 40.2175 9.82233C40.1797 9.77119 40.152 9.71273 40.1359 9.65033C40.1199 9.58793 40.1159 9.52284 40.1242 9.45881C40.1324 9.39479 40.1528 9.33311 40.184 9.27734C40.2149 9.22148 40.256 9.17252 40.3051 9.13325C40.3541 9.09398 40.41 9.06517 40.4697 9.04847C40.5294 9.03178 40.5917 9.02752 40.653 9.03594C40.7142 9.04435 40.7733 9.06529 40.8269 9.09754C40.9339 9.16365 41.0119 9.27091 41.0441 9.39632C41.0763 9.52173 41.0602 9.65532 40.9991 9.76845C40.9568 9.84234 40.8969 9.90362 40.8253 9.94639C40.7537 9.98916 40.6728 10.012 40.5903 10.0127C40.5081 10.0143 40.427 9.99201 40.3563 9.94825ZM24.9844 8.74598C24.9536 8.69033 24.9336 8.62887 24.9255 8.56513C24.9175 8.50139 24.9216 8.43662 24.9376 8.37453C24.9536 8.31245 24.9812 8.25428 25.0188 8.20335C25.0564 8.15242 25.1033 8.10974 25.1567 8.07775C25.2638 8.0123 25.3914 7.9939 25.5115 8.02661C25.6315 8.05932 25.7342 8.14046 25.797 8.25219C25.859 8.36598 25.8756 8.50062 25.8434 8.62711C25.8112 8.75361 25.7327 8.86183 25.6247 8.92847C25.5527 8.96906 25.4725 8.99114 25.3907 8.99288C25.3074 8.99199 25.2258 8.96789 25.1544 8.92307C25.0829 8.87825 25.0243 8.81433 24.9844 8.73793V8.74598ZM38.1834 8.63864C38.1299 8.60639 38.083 8.56346 38.0454 8.51229C38.0078 8.46113 37.9802 8.40273 37.9642 8.34043C37.9482 8.27812 37.9441 8.21314 37.9521 8.1492C37.9602 8.08525 37.9803 8.02358 38.0112 7.96773C38.074 7.85545 38.1768 7.77359 38.2972 7.73992C38.4175 7.70626 38.5458 7.7235 38.654 7.78792C38.7075 7.82016 38.7545 7.8631 38.7921 7.91426C38.8297 7.96543 38.8573 8.02383 38.8733 8.08614C38.8893 8.14844 38.8934 8.21342 38.8853 8.27736C38.8773 8.34131 38.8572 8.40297 38.8263 8.45883C38.7855 8.53373 38.7264 8.59603 38.655 8.63939C38.5837 8.68275 38.5026 8.70564 38.42 8.70573C38.3361 8.70367 38.2543 8.67768 38.1834 8.63058V8.63864ZM27.1547 7.43905C27.093 7.32608 27.0764 7.19225 27.1087 7.06663C27.141 6.94102 27.2194 6.83376 27.327 6.76814C27.4348 6.70278 27.563 6.68472 27.6835 6.71793C27.804 6.75113 27.907 6.83289 27.9698 6.94526C28.0324 7.05848 28.0493 7.19295 28.017 7.31921C27.9848 7.44547 27.9058 7.55322 27.7975 7.61885C27.7259 7.66035 27.6455 7.6825 27.5635 7.68326C27.4801 7.68255 27.3984 7.65885 27.3266 7.61455C27.2548 7.57025 27.1955 7.50693 27.1547 7.431V7.43905ZM36.0106 7.3317C35.903 7.26608 35.8246 7.15882 35.7923 7.03321C35.7601 6.90759 35.7766 6.77377 35.8383 6.66079C35.9012 6.54851 36.004 6.46665 36.1243 6.43299C36.2447 6.39932 36.3729 6.41657 36.4812 6.48099C36.5347 6.51323 36.5816 6.55616 36.6193 6.60733C36.6569 6.6585 36.6845 6.7169 36.7005 6.7792C36.7165 6.8415 36.7206 6.90648 36.7125 6.97043C36.7044 7.03438 36.6844 7.09604 36.6535 7.1519C36.6121 7.22612 36.5528 7.28772 36.4815 7.33057C36.4103 7.37342 36.3294 7.39602 36.2472 7.39611C36.1635 7.39459 36.0818 7.36956 36.0106 7.32365V7.3317ZM29.325 6.12675C29.2938 6.07139 29.2736 6.01012 29.2654 5.94651C29.2572 5.88289 29.2613 5.81821 29.2773 5.75625C29.2933 5.69429 29.3211 5.63628 29.3588 5.58562C29.3966 5.53496 29.4436 5.49267 29.4972 5.4612C29.5507 5.42859 29.6098 5.40737 29.6711 5.39876C29.7325 5.39015 29.7948 5.39433 29.8546 5.41105C29.9144 5.42778 29.9704 5.45671 30.0194 5.49618C30.0684 5.53566 30.1095 5.58488 30.1401 5.64101C30.2009 5.75332 30.2169 5.8861 30.1847 6.01063C30.1524 6.13517 30.0745 6.24146 29.9678 6.30655C29.8961 6.35092 29.8146 6.37498 29.7312 6.37633C29.6481 6.37442 29.567 6.34958 29.4961 6.30432C29.4252 6.25907 29.367 6.19502 29.3275 6.1187L29.325 6.12675ZM33.8378 6.02209C33.7302 5.95647 33.6518 5.8492 33.6195 5.72359C33.5872 5.59797 33.6038 5.46415 33.6655 5.35117C33.7284 5.2389 33.8311 5.15704 33.9515 5.12337C34.0719 5.08971 34.2001 5.10695 34.3083 5.17137C34.3619 5.20361 34.4088 5.24654 34.4464 5.29771C34.484 5.34888 34.5116 5.40728 34.5276 5.46958C34.5436 5.53188 34.5477 5.59686 34.5397 5.66081C34.5316 5.72476 34.5115 5.78642 34.4806 5.84228C34.4394 5.91739 34.3798 5.97979 34.308 6.02315C34.2362 6.06651 34.1547 6.08929 34.0718 6.08918C33.9896 6.0859 33.9098 6.05997 33.8403 6.01403L33.8378 6.02209ZM31.4952 4.81981C31.4644 4.76416 31.4444 4.7027 31.4363 4.63896C31.4283 4.57522 31.4324 4.51045 31.4484 4.44836C31.4644 4.38628 31.492 4.32811 31.5296 4.27718C31.5672 4.22625 31.6141 4.18357 31.6675 4.15159C31.7207 4.11904 31.7797 4.09786 31.8408 4.08929C31.902 4.08071 31.9641 4.08491 32.0237 4.10164C32.0833 4.11838 32.1391 4.1473 32.1879 4.18674C32.2366 4.22619 32.2774 4.27535 32.3078 4.33139C32.339 4.38695 32.3593 4.44843 32.3675 4.51225C32.3757 4.57606 32.3717 4.64095 32.3556 4.70313C32.3396 4.76531 32.3119 4.82355 32.2741 4.87444C32.2363 4.92534 32.1892 4.96789 32.1355 4.99962C32.0656 5.04345 31.9856 5.06664 31.9041 5.06671C31.8207 5.0661 31.739 5.04212 31.6675 4.99727C31.596 4.95242 31.5374 4.88835 31.4978 4.81176L31.4952 4.81981Z" fill="black"/>
</g>
</g>
<defs>
<clipPath id="clip0_242_1463">
<rect width="65" height="76" fill="white"/>
</clipPath>
</defs>
</svg>
