<svg width="43" height="45" viewBox="0 0 43 45" fill="none" xmlns="http://www.w3.org/2000/svg">
<g id="46176-O4US4T 5" clip-path="url(#clip0_130_7388)">
<g id="Objects">
<path id="Vector" d="M17.285 38.7608C16.8711 38.7611 16.4664 38.6392 16.1222 38.4105C15.7779 38.1817 15.5094 37.8564 15.3508 37.4756C15.1922 37.0949 15.1505 36.6759 15.2311 36.2716C15.3116 35.8672 15.5107 35.4958 15.8032 35.2042C16.0958 34.9126 16.4686 34.714 16.8744 34.6334C17.2803 34.5529 17.7011 34.5941 18.0835 34.7517C18.4659 34.9094 18.7927 35.1765 19.0227 35.5192C19.2527 35.8619 19.3754 36.2648 19.3754 36.677C19.3749 37.2292 19.1546 37.7587 18.7627 38.1494C18.3708 38.54 17.8394 38.7599 17.285 38.7608ZM17.285 35.0145C16.9548 35.0145 16.6321 35.112 16.3576 35.2947C16.0831 35.4774 15.8691 35.737 15.7428 36.0408C15.6165 36.3446 15.5834 36.6789 15.6478 37.0014C15.7122 37.3239 15.8712 37.6201 16.1046 37.8526C16.3381 38.0851 16.6355 38.2435 16.9593 38.3076C17.2831 38.3718 17.6187 38.3388 17.9238 38.213C18.2288 38.0872 18.4895 37.8741 18.6729 37.6007C18.8563 37.3273 18.9542 37.0058 18.9542 36.677C18.9537 36.2362 18.7777 35.8136 18.4648 35.5019C18.1518 35.1903 17.7275 35.015 17.285 35.0145Z" fill="white"/>
<path id="Vector_2" d="M21.7172 44.5997C21.3033 44.5997 20.8987 44.4774 20.5546 44.2484C20.2105 44.0193 19.9424 43.6938 19.7841 43.3129C19.6258 42.9321 19.5845 42.513 19.6653 42.1087C19.7462 41.7045 19.9456 41.3332 20.2384 41.0418C20.5312 40.7505 20.9041 40.5522 21.3101 40.472C21.716 40.3918 22.1367 40.4333 22.519 40.5912C22.9013 40.7492 23.2279 41.0166 23.4576 41.3595C23.6873 41.7024 23.8097 42.1054 23.8093 42.5176C23.8084 43.0698 23.5876 43.5991 23.1954 43.9895C22.8032 44.3798 22.2716 44.5992 21.7172 44.5997ZM21.7172 40.8551C21.387 40.8551 21.0643 40.9526 20.7898 41.1353C20.5153 41.318 20.3013 41.5776 20.175 41.8814C20.0487 42.1852 20.0156 42.5195 20.08 42.842C20.1444 43.1645 20.3034 43.4607 20.5368 43.6932C20.7703 43.9257 21.0677 44.0841 21.3915 44.1482C21.7153 44.2124 22.0509 44.1794 22.3559 44.0536C22.661 43.9278 22.9217 43.7147 23.1051 43.4413C23.2885 43.1679 23.3864 42.8464 23.3864 42.5176C23.3871 42.2988 23.3444 42.082 23.2609 41.8796C23.1773 41.6771 23.0545 41.4931 22.8994 41.3381C22.7444 41.183 22.5601 41.0599 22.3573 40.9759C22.1544 40.8918 21.9369 40.8484 21.7172 40.8482V40.8551Z" fill="white"/>
<path id="Vector_3" d="M21.7172 27.0541C20.9497 27.0527 20.1999 26.8248 19.5625 26.399C18.9251 25.9733 18.4288 25.3689 18.1362 24.6623C17.8436 23.9557 17.768 23.1785 17.9188 22.429C18.0696 21.6796 18.4401 20.9915 18.9835 20.4517C19.5269 19.912 20.2188 19.5448 20.9716 19.3966C21.7245 19.2484 22.5046 19.3258 23.2133 19.6191C23.922 19.9124 24.5275 20.4084 24.9532 21.0444C25.3789 21.6803 25.6058 22.4277 25.6051 23.1921C25.6028 24.2175 25.1921 25.2 24.4632 25.9241C23.7342 26.6481 22.7466 27.0545 21.7172 27.0541ZM21.7172 19.7393C21.0315 19.7393 20.3613 19.9418 19.7912 20.3212C19.2211 20.7006 18.7767 21.2399 18.5143 21.8708C18.2519 22.5017 18.1833 23.1959 18.3171 23.8657C18.4508 24.5355 18.781 25.1507 19.2658 25.6336C19.7506 26.1165 20.3684 26.4453 21.0408 26.5786C21.7133 26.7118 22.4104 26.6434 23.0438 26.3821C23.6773 26.1207 24.2187 25.6782 24.5996 25.1104C24.9806 24.5426 25.1839 23.875 25.1839 23.1921C25.1839 22.2764 24.8186 21.3981 24.1685 20.7506C23.5184 20.1031 22.6366 19.7393 21.7172 19.7393Z" fill="white"/>
<path id="Vector_4" d="M26.2239 38.7608C25.8101 38.7608 25.4056 38.6386 25.0616 38.4096C24.7175 38.1806 24.4493 37.8552 24.291 37.4745C24.1326 37.0937 24.0912 36.6747 24.1719 36.2705C24.2527 35.8663 24.4519 35.495 24.7445 35.2036C25.0371 34.9122 25.4099 34.7137 25.8157 34.6333C26.2216 34.5529 26.6423 34.5942 27.0246 34.7519C27.4068 34.9096 27.7336 35.1767 27.9635 35.5194C28.1934 35.862 28.3161 36.2649 28.3161 36.677C28.3156 37.2295 28.095 37.7593 27.7028 38.15C27.3105 38.5407 26.7786 38.7603 26.2239 38.7608ZM26.2239 35.0145C25.8938 35.0145 25.571 35.112 25.2965 35.2947C25.022 35.4774 24.8081 35.737 24.6817 36.0408C24.5554 36.3446 24.5224 36.6789 24.5868 37.0014C24.6512 37.3239 24.8101 37.6201 25.0436 37.8526C25.277 38.0851 25.5745 38.2435 25.8983 38.3076C26.2221 38.3718 26.5577 38.3388 26.8627 38.213C27.1677 38.0872 27.4284 37.8741 27.6118 37.6007C27.7952 37.3273 27.8931 37.0058 27.8931 36.677C27.8927 36.2362 27.7167 35.8136 27.4037 35.5019C27.0908 35.1903 26.6665 35.015 26.2239 35.0145Z" fill="white"/>
<path id="Vector_5" d="M28.4357 13.5555H14.886C14.8488 13.5556 14.8123 13.5459 14.7801 13.5275C14.7478 13.509 14.7211 13.4824 14.7024 13.4504C14.6838 13.4184 14.674 13.382 14.674 13.345C14.6739 13.308 14.6837 13.2716 14.7023 13.2395L21.478 1.55178C21.4981 1.52187 21.5253 1.49736 21.5572 1.48041C21.5891 1.46346 21.6247 1.45459 21.6608 1.45459C21.697 1.45459 21.7326 1.46346 21.7645 1.48041C21.7964 1.49736 21.8236 1.52187 21.8437 1.55178L28.6194 13.2395C28.638 13.2716 28.6478 13.308 28.6477 13.345C28.6477 13.382 28.6379 13.4184 28.6193 13.4504C28.6006 13.4824 28.5739 13.509 28.5416 13.5275C28.5094 13.5459 28.4728 13.5556 28.4357 13.5555ZM15.2518 13.1359H28.0699L21.6565 2.07834L15.2518 13.1359Z" fill="white"/>
<path id="Vector_6" d="M21.8734 26.8438H21.4505V40.819H21.8734V26.8438Z" fill="white"/>
<path id="Vector_7" d="M21.8732 13.3447H21.4502V19.5373H21.8732V13.3447Z" fill="white"/>
<path id="Vector_8" d="M29.8206 32.0952H13.5028V32.5165H29.8206V32.0952Z" fill="white"/>
<path id="Vector_9" d="M24.9637 7.13672H18.3562V7.55796H24.9637V7.13672Z" fill="white"/>
<path id="Vector_10" d="M13.6467 30.5811H13.2237V33.9355H13.6467V30.5811Z" fill="white"/>
<path id="Vector_11" d="M29.9645 30.5811H29.5415V33.9355H29.9645V30.5811Z" fill="white"/>
<path id="Vector_12" d="M26.7214 30.0406C26.7211 29.9991 26.7292 29.9579 26.7451 29.9194C26.7609 29.881 26.7843 29.8461 26.8138 29.8167C26.8433 29.7873 26.8783 29.7641 26.9169 29.7483C26.9555 29.7325 26.9969 29.7245 27.0386 29.7247C27.0802 29.7247 27.1213 29.7329 27.1597 29.7488C27.1981 29.7647 27.2329 29.788 27.2623 29.8173C27.2916 29.8467 27.3148 29.8815 27.3305 29.9198C27.3463 29.9582 27.3543 29.9992 27.3541 30.0406C27.3543 30.082 27.3463 30.1231 27.3305 30.1614C27.3148 30.1997 27.2916 30.2345 27.2623 30.2639C27.2329 30.2933 27.1981 30.3166 27.1597 30.3325C27.1213 30.3484 27.0802 30.3565 27.0386 30.3565C26.9969 30.3568 26.9555 30.3488 26.9169 30.333C26.8783 30.3172 26.8433 30.2939 26.8138 30.2645C26.7843 30.2351 26.7609 30.2002 26.7451 30.1618C26.7292 30.1234 26.7211 30.0822 26.7214 30.0406ZM25.0313 30.0406C25.0311 29.9991 25.0392 29.9579 25.055 29.9194C25.0709 29.881 25.0942 29.8461 25.1237 29.8167C25.1532 29.7873 25.1883 29.7641 25.2269 29.7483C25.2655 29.7325 25.3068 29.7245 25.3486 29.7247C25.3901 29.7247 25.4313 29.7329 25.4697 29.7488C25.5081 29.7647 25.5429 29.788 25.5722 29.8173C25.6016 29.8467 25.6248 29.8815 25.6405 29.9198C25.6563 29.9582 25.6643 29.9992 25.664 30.0406C25.6645 30.1228 25.6327 30.2018 25.5753 30.2609C25.518 30.32 25.4397 30.3543 25.3572 30.3565C25.3148 30.3579 25.2725 30.3508 25.2329 30.3355C25.1933 30.3202 25.1572 30.2972 25.1268 30.2677C25.0963 30.2382 25.0722 30.2028 25.0558 30.1638C25.0394 30.1248 25.0311 30.0829 25.0313 30.0406ZM23.3413 30.0406C23.3411 29.9991 23.3491 29.9579 23.365 29.9194C23.3809 29.881 23.4042 29.8461 23.4337 29.8167C23.4632 29.7873 23.4983 29.7641 23.5369 29.7483C23.5755 29.7325 23.6168 29.7245 23.6585 29.7247C23.7001 29.7247 23.7413 29.7329 23.7797 29.7488C23.818 29.7647 23.8529 29.788 23.8822 29.8173C23.9115 29.8467 23.9347 29.8815 23.9505 29.9198C23.9662 29.9582 23.9742 29.9992 23.974 30.0406C23.9742 30.082 23.9662 30.1231 23.9505 30.1614C23.9347 30.1997 23.9115 30.2345 23.8822 30.2639C23.8529 30.2933 23.818 30.3166 23.7797 30.3325C23.7413 30.3484 23.7001 30.3565 23.6585 30.3565C23.6168 30.3568 23.5755 30.3488 23.5369 30.333C23.4983 30.3172 23.4632 30.2939 23.4337 30.2645C23.4042 30.2351 23.3809 30.2002 23.365 30.1618C23.3491 30.1234 23.3411 30.0822 23.3413 30.0406ZM21.6513 30.0406C21.6511 29.9992 21.6591 29.9582 21.6748 29.9198C21.6906 29.8815 21.7138 29.8467 21.7431 29.8173C21.7724 29.788 21.8073 29.7647 21.8456 29.7488C21.884 29.7329 21.9252 29.7247 21.9668 29.7247C22.0085 29.7245 22.0498 29.7325 22.0884 29.7483C22.127 29.7641 22.1621 29.7873 22.1916 29.8167C22.2211 29.8461 22.2444 29.881 22.2603 29.9194C22.2762 29.9579 22.2842 29.9991 22.284 30.0406C22.2842 30.0822 22.2762 30.1234 22.2603 30.1618C22.2444 30.2002 22.2211 30.2351 22.1916 30.2645C22.1621 30.2939 22.127 30.3172 22.0884 30.333C22.0498 30.3488 22.0085 30.3568 21.9668 30.3565C21.9252 30.3565 21.884 30.3484 21.8456 30.3325C21.8073 30.3166 21.7724 30.2933 21.7431 30.2639C21.7138 30.2345 21.6906 30.1997 21.6748 30.1614C21.6591 30.1231 21.6511 30.082 21.6513 30.0406ZM19.9613 30.0406C19.961 29.9992 19.969 29.9582 19.9848 29.9198C20.0005 29.8815 20.0237 29.8467 20.0531 29.8173C20.0824 29.788 20.1172 29.7647 20.1556 29.7488C20.194 29.7329 20.2352 29.7247 20.2767 29.7247C20.3185 29.7245 20.3598 29.7325 20.3984 29.7483C20.437 29.7641 20.4721 29.7873 20.5016 29.8167C20.5311 29.8461 20.5544 29.881 20.5703 29.9194C20.5861 29.9579 20.5942 29.9991 20.594 30.0406C20.5942 30.0822 20.5861 30.1234 20.5703 30.1618C20.5544 30.2002 20.5311 30.2351 20.5016 30.2645C20.4721 30.2939 20.437 30.3172 20.3984 30.333C20.3598 30.3488 20.3185 30.3568 20.2767 30.3565C20.2352 30.3565 20.194 30.3484 20.1556 30.3325C20.1172 30.3166 20.0824 30.2933 20.0531 30.2639C20.0237 30.2345 20.0005 30.1997 19.9848 30.1614C19.969 30.1231 19.961 30.082 19.9613 30.0406ZM18.2713 30.0406C18.271 29.9992 18.279 29.9582 18.2948 29.9198C18.3105 29.8815 18.3337 29.8467 18.363 29.8173C18.3924 29.788 18.4272 29.7647 18.4656 29.7488C18.504 29.7329 18.5452 29.7247 18.5867 29.7247C18.6284 29.7245 18.6698 29.7325 18.7084 29.7483C18.747 29.7641 18.782 29.7873 18.8115 29.8167C18.841 29.8461 18.8644 29.881 18.8803 29.9194C18.8961 29.9579 18.9042 29.9991 18.9039 30.0406C18.9042 30.0822 18.8961 30.1234 18.8803 30.1618C18.8644 30.2002 18.841 30.2351 18.8115 30.2645C18.782 30.2939 18.747 30.3172 18.7084 30.333C18.6698 30.3488 18.6284 30.3568 18.5867 30.3565C18.5452 30.3565 18.504 30.3484 18.4656 30.3325C18.4272 30.3166 18.3924 30.2933 18.363 30.2639C18.3337 30.2345 18.3105 30.1997 18.2948 30.1614C18.279 30.1231 18.271 30.082 18.2713 30.0406ZM16.5812 30.0406C16.581 29.9992 16.589 29.9582 16.6047 29.9198C16.6205 29.8815 16.6437 29.8467 16.673 29.8173C16.7023 29.788 16.7372 29.7647 16.7756 29.7488C16.814 29.7329 16.8551 29.7247 16.8967 29.7247C16.9384 29.7245 16.9798 29.7325 17.0184 29.7483C17.057 29.7641 17.092 29.7873 17.1215 29.8167C17.151 29.8461 17.1744 29.881 17.1902 29.9194C17.2061 29.9579 17.2141 29.9991 17.2139 30.0406C17.2141 30.0822 17.2061 30.1234 17.1902 30.1618C17.1744 30.2002 17.151 30.2351 17.1215 30.2645C17.092 30.2939 17.057 30.3172 17.0184 30.333C16.9798 30.3488 16.9384 30.3568 16.8967 30.3565C16.8551 30.3565 16.814 30.3484 16.7756 30.3325C16.7372 30.3166 16.7023 30.2933 16.673 30.2639C16.6437 30.2345 16.6205 30.1997 16.6047 30.1614C16.589 30.1231 16.581 30.082 16.5812 30.0406ZM14.8912 30.0406C14.891 29.9992 14.899 29.9582 14.9147 29.9198C14.9305 29.8815 14.9537 29.8467 14.983 29.8173C15.0123 29.788 15.0472 29.7647 15.0856 29.7488C15.1239 29.7329 15.1651 29.7247 15.2067 29.7247C15.2484 29.7245 15.2898 29.7325 15.3283 29.7483C15.3669 29.7641 15.402 29.7873 15.4315 29.8167C15.461 29.8461 15.4843 29.881 15.5002 29.9194C15.5161 29.9579 15.5241 29.9991 15.5239 30.0406C15.5241 30.0822 15.5161 30.1234 15.5002 30.1618C15.4843 30.2002 15.461 30.2351 15.4315 30.2645C15.402 30.2939 15.3669 30.3172 15.3283 30.333C15.2898 30.3488 15.2484 30.3568 15.2067 30.3565C15.1651 30.3565 15.1239 30.3484 15.0856 30.3325C15.0472 30.3166 15.0123 30.2933 14.983 30.2639C14.9537 30.2345 14.9305 30.1997 14.9147 30.1614C14.899 30.1231 14.891 30.082 14.8912 30.0406ZM27.6383 29.2706C27.6381 29.2292 27.6461 29.1882 27.6618 29.1499C27.6776 29.1115 27.7008 29.0767 27.7301 29.0473C27.7594 29.018 27.7943 28.9947 27.8327 28.9788C27.8711 28.9629 27.9122 28.9547 27.9538 28.9547C27.9955 28.9545 28.0369 28.9625 28.0755 28.9783C28.114 28.9941 28.1491 29.0173 28.1786 29.0467C28.2081 29.0761 28.2315 29.111 28.2473 29.1495C28.2632 29.1879 28.2712 29.2291 28.271 29.2706C28.2696 29.3528 28.236 29.4311 28.1774 29.4889C28.1188 29.5466 28.0397 29.5792 27.9573 29.5797C27.8739 29.5806 27.7935 29.5486 27.7338 29.4907C27.674 29.4328 27.6397 29.3537 27.6383 29.2706ZM14.5775 28.6698C14.5772 28.6284 14.5852 28.5874 14.601 28.5491C14.6167 28.5108 14.6399 28.4759 14.6693 28.4466C14.6986 28.4172 14.7334 28.3939 14.7718 28.378C14.8102 28.3621 14.8514 28.3539 14.8929 28.3539C14.9347 28.3537 14.9762 28.3617 15.0149 28.3775C15.0535 28.3932 15.0887 28.4165 15.1184 28.4458C15.148 28.4752 15.1715 28.5101 15.1876 28.5485C15.2036 28.587 15.2119 28.6282 15.2119 28.6698C15.2114 28.7533 15.1778 28.8332 15.1184 28.8921C15.0589 28.951 14.9785 28.9841 14.8947 28.9841C14.8531 28.9843 14.8119 28.9763 14.7734 28.9606C14.7349 28.9449 14.7 28.9218 14.6705 28.8926C14.641 28.8634 14.6176 28.8287 14.6016 28.7905C14.5857 28.7522 14.5775 28.7113 14.5775 28.6698ZM27.6383 27.5874C27.6381 27.546 27.6461 27.5049 27.6618 27.4666C27.6776 27.4283 27.7008 27.3935 27.7301 27.3641C27.7594 27.3347 27.7943 27.3114 27.8327 27.2955C27.8711 27.2796 27.9122 27.2715 27.9538 27.2715C27.9955 27.2712 28.0369 27.2792 28.0755 27.295C28.114 27.3108 28.1491 27.3341 28.1786 27.3635C28.2081 27.3929 28.2315 27.4278 28.2473 27.4662C28.2632 27.5047 28.2712 27.5458 28.271 27.5874C28.2712 27.6289 28.2632 27.6701 28.2473 27.7086C28.2315 27.747 28.2081 27.7819 28.1786 27.8113C28.1491 27.8407 28.114 27.8639 28.0755 27.8797C28.0369 27.8955 27.9955 27.9036 27.9538 27.9033C27.9122 27.9033 27.8711 27.8951 27.8327 27.8792C27.7943 27.8633 27.7594 27.84 27.7301 27.8107C27.7008 27.7813 27.6776 27.7465 27.6618 27.7082C27.6461 27.6698 27.6381 27.6288 27.6383 27.5874ZM14.5775 26.9901C14.5775 26.9067 14.6107 26.8268 14.6699 26.7679C14.729 26.709 14.8093 26.6759 14.8929 26.6759C14.9346 26.6756 14.9759 26.6836 15.0145 26.6992C15.053 26.7149 15.0881 26.738 15.1177 26.7672C15.1474 26.7963 15.1709 26.831 15.1871 26.8693C15.2032 26.9075 15.2116 26.9486 15.2119 26.9901C15.2119 27.0738 15.1785 27.1542 15.119 27.2135C15.0595 27.2727 14.9788 27.306 14.8947 27.306C14.853 27.3062 14.8116 27.2982 14.773 27.2824C14.7344 27.2666 14.6994 27.2433 14.6699 27.214C14.6404 27.1846 14.617 27.1497 14.6011 27.1112C14.5853 27.0728 14.5772 27.0316 14.5775 26.9901ZM27.6383 25.9093C27.6381 25.8679 27.6461 25.8269 27.6618 25.7886C27.6776 25.7502 27.7008 25.7154 27.7301 25.686C27.7594 25.6567 27.7943 25.6334 27.8327 25.6175C27.8711 25.6016 27.9122 25.5934 27.9538 25.5934C27.9955 25.5932 28.0369 25.6012 28.0755 25.617C28.114 25.6328 28.1491 25.656 28.1786 25.6854C28.2081 25.7148 28.2315 25.7497 28.2473 25.7882C28.2632 25.8266 28.2712 25.8678 28.271 25.9093C28.2712 25.9509 28.2632 25.9921 28.2473 26.0305C28.2315 26.0689 28.2081 26.1039 28.1786 26.1332C28.1491 26.1626 28.114 26.1859 28.0755 26.2017C28.0369 26.2175 27.9955 26.2255 27.9538 26.2253C27.9118 26.2253 27.8702 26.2169 27.8314 26.2007C27.7927 26.1845 27.7576 26.1607 27.7282 26.1308C27.6988 26.1009 27.6758 26.0654 27.6603 26.0265C27.6449 25.9876 27.6374 25.946 27.6383 25.9042V25.9093ZM14.5775 25.3068C14.5775 25.2235 14.6107 25.1436 14.6699 25.0846C14.729 25.0257 14.8093 24.9926 14.8929 24.9926C14.9346 24.9924 14.9759 25.0003 15.0145 25.016C15.053 25.0317 15.0881 25.0547 15.1177 25.0839C15.1474 25.1131 15.1709 25.1478 15.1871 25.186C15.2032 25.2243 15.2116 25.2653 15.2119 25.3068C15.2119 25.3906 15.1785 25.471 15.119 25.5302C15.0595 25.5895 14.9788 25.6228 14.8947 25.6228C14.8525 25.623 14.8107 25.6148 14.7718 25.5987C14.7329 25.5826 14.6976 25.5588 14.668 25.5289C14.6384 25.499 14.6152 25.4634 14.5996 25.4244C14.5841 25.3854 14.5765 25.3436 14.5775 25.3016V25.3068ZM27.6383 24.2278C27.6381 24.1864 27.6461 24.1454 27.6618 24.107C27.6776 24.0687 27.7008 24.0339 27.7301 24.0045C27.7594 23.9752 27.7943 23.9519 27.8327 23.936C27.8711 23.9201 27.9122 23.9119 27.9538 23.9119C27.9955 23.9117 28.0369 23.9197 28.0755 23.9355C28.114 23.9513 28.1491 23.9745 28.1786 24.0039C28.2081 24.0333 28.2315 24.0682 28.2473 24.1066C28.2632 24.1451 28.2712 24.1863 28.271 24.2278C28.2712 24.2694 28.2632 24.3106 28.2473 24.349C28.2315 24.3874 28.2081 24.4223 28.1786 24.4517C28.1491 24.4811 28.114 24.5044 28.0755 24.5202C28.0369 24.536 27.9955 24.544 27.9538 24.5437C27.9122 24.5437 27.8711 24.5356 27.8327 24.5197C27.7943 24.5038 27.7594 24.4805 27.7301 24.4511C27.7008 24.4217 27.6776 24.3869 27.6618 24.3486C27.6461 24.3103 27.6381 24.2692 27.6383 24.2278ZM14.5775 23.6253C14.5775 23.542 14.6107 23.4621 14.6699 23.4031C14.729 23.3442 14.8093 23.3111 14.8929 23.3111C14.9346 23.3109 14.9759 23.3188 15.0145 23.3345C15.053 23.3501 15.0881 23.3732 15.1177 23.4024C15.1474 23.4316 15.1709 23.4663 15.1871 23.5045C15.2032 23.5428 15.2116 23.5838 15.2119 23.6253C15.2119 23.6668 15.2037 23.7079 15.1877 23.7462C15.1718 23.7845 15.1484 23.8194 15.119 23.8487C15.0895 23.878 15.0545 23.9013 15.0161 23.9172C14.9776 23.9331 14.9363 23.9412 14.8947 23.9412C14.8524 23.9415 14.8104 23.9332 14.7714 23.917C14.7323 23.9008 14.6969 23.8769 14.6674 23.8468C14.6378 23.8167 14.6145 23.7809 14.5991 23.7417C14.5837 23.7025 14.5763 23.6605 14.5775 23.6184V23.6253ZM27.6383 22.5446C27.6381 22.5032 27.6461 22.4621 27.6618 22.4238C27.6776 22.3855 27.7008 22.3506 27.7301 22.3213C27.7594 22.2919 27.7943 22.2686 27.8327 22.2527C27.8711 22.2368 27.9122 22.2286 27.9538 22.2286C27.9955 22.2284 28.0369 22.2364 28.0755 22.2522C28.114 22.268 28.1491 22.2913 28.1786 22.3207C28.2081 22.3501 28.2315 22.385 28.2473 22.4234C28.2632 22.4618 28.2712 22.503 28.271 22.5446C28.2679 22.6255 28.2335 22.7021 28.175 22.7584C28.1166 22.8147 28.0386 22.8463 27.9573 22.8467C27.8739 22.8476 27.7935 22.8156 27.7338 22.7577C27.674 22.6998 27.6397 22.6207 27.6383 22.5377V22.5446ZM14.5775 21.9421C14.5775 21.8587 14.6107 21.7788 14.6699 21.7199C14.729 21.661 14.8093 21.6279 14.8929 21.6279C14.9346 21.6276 14.9759 21.6356 15.0145 21.6512C15.053 21.6669 15.0881 21.69 15.1177 21.7192C15.1474 21.7483 15.1709 21.783 15.1871 21.8213C15.2032 21.8595 15.2116 21.9006 15.2119 21.9421C15.2119 22.0259 15.1785 22.1062 15.119 22.1655C15.0595 22.2247 14.9788 22.258 14.8947 22.258C14.8524 22.2582 14.8104 22.25 14.7714 22.2338C14.7323 22.2176 14.6969 22.1937 14.6674 22.1636C14.6378 22.1334 14.6145 22.0977 14.5991 22.0585C14.5837 22.0192 14.5763 21.9773 14.5775 21.9351V21.9421ZM27.6383 20.8613C27.6381 20.8199 27.6461 20.7789 27.6618 20.7406C27.6776 20.7022 27.7008 20.6674 27.7301 20.638C27.7594 20.6087 27.7943 20.5854 27.8327 20.5695C27.8711 20.5536 27.9122 20.5454 27.9538 20.5454C27.9955 20.5452 28.0369 20.5532 28.0755 20.569C28.114 20.5848 28.1491 20.608 28.1786 20.6374C28.2081 20.6668 28.2315 20.7017 28.2473 20.7402C28.2632 20.7786 28.2712 20.8198 28.271 20.8613C28.2712 20.9029 28.2632 20.9441 28.2473 20.9825C28.2315 21.0209 28.2081 21.0559 28.1786 21.0852C28.1491 21.1146 28.114 21.1379 28.0755 21.1537C28.0369 21.1695 27.9955 21.1775 27.9538 21.1773C27.9116 21.1773 27.8699 21.1689 27.831 21.1525C27.7922 21.1362 27.757 21.1123 27.7276 21.0822C27.6982 21.0521 27.6751 21.0164 27.6598 20.9773C27.6445 20.9382 27.6372 20.8964 27.6383 20.8544V20.8613ZM14.5775 20.2571C14.5775 20.1738 14.6107 20.0938 14.6699 20.0349C14.729 19.976 14.8093 19.9429 14.8929 19.9429C14.9346 19.9427 14.9759 19.9506 15.0145 19.9663C15.053 19.9819 15.0881 20.005 15.1177 20.0342C15.1474 20.0634 15.1709 20.0981 15.1871 20.1363C15.2032 20.1746 15.2116 20.2156 15.2119 20.2571C15.2119 20.3409 15.1785 20.4212 15.119 20.4805C15.0595 20.5397 14.9788 20.573 14.8947 20.573C14.853 20.5733 14.8116 20.5652 14.773 20.5494C14.7344 20.5336 14.6994 20.5104 14.6699 20.481C14.6404 20.4516 14.617 20.4167 14.6011 20.3783C14.5853 20.3398 14.5772 20.2986 14.5775 20.2571ZM27.6383 19.1764C27.6381 19.135 27.6461 19.0939 27.6618 19.0556C27.6776 19.0173 27.7008 18.9824 27.7301 18.9531C27.7594 18.9237 27.7943 18.9004 27.8327 18.8845C27.8711 18.8686 27.9122 18.8604 27.9538 18.8604C27.9955 18.8602 28.0369 18.8682 28.0755 18.884C28.114 18.8998 28.1491 18.9231 28.1786 18.9525C28.2081 18.9818 28.2315 19.0168 28.2473 19.0552C28.2632 19.0936 28.2712 19.1348 28.271 19.1764C28.2712 19.2179 28.2632 19.2591 28.2473 19.2975C28.2315 19.336 28.2081 19.3709 28.1786 19.4003C28.1491 19.4297 28.114 19.4529 28.0755 19.4687C28.0369 19.4845 27.9955 19.4925 27.9538 19.4923C27.9118 19.4923 27.8702 19.484 27.8314 19.4677C27.7927 19.4515 27.7576 19.4278 27.7282 19.3978C27.6988 19.3679 27.6758 19.3325 27.6603 19.2935C27.6449 19.2546 27.6374 19.213 27.6383 19.1712V19.1764ZM14.5775 18.5738C14.5775 18.4905 14.6107 18.4106 14.6699 18.3517C14.729 18.2927 14.8093 18.2596 14.8929 18.2596C14.9346 18.2594 14.9759 18.2674 15.0145 18.283C15.053 18.2987 15.0881 18.3218 15.1177 18.351C15.1474 18.3801 15.1709 18.4148 15.1871 18.4531C15.2032 18.4913 15.2116 18.5324 15.2119 18.5738C15.2119 18.6576 15.1785 18.738 15.119 18.7972C15.0595 18.8565 14.9788 18.8898 14.8947 18.8898C14.8525 18.89 14.8107 18.8818 14.7718 18.8657C14.7329 18.8496 14.6976 18.8259 14.668 18.7959C14.6384 18.766 14.6152 18.7305 14.5996 18.6914C14.5841 18.6524 14.5765 18.6106 14.5775 18.5687V18.5738ZM27.6383 17.4948C27.6381 17.4534 27.6461 17.4124 27.6618 17.3741C27.6776 17.3357 27.7008 17.3009 27.7301 17.2716C27.7594 17.2422 27.7943 17.2189 27.8327 17.203C27.8711 17.1871 27.9122 17.1789 27.9538 17.1789C27.9955 17.1787 28.0369 17.1867 28.0755 17.2025C28.114 17.2183 28.1491 17.2416 28.1786 17.2709C28.2081 17.3003 28.2315 17.3352 28.2473 17.3737C28.2632 17.4121 28.2712 17.4533 28.271 17.4948C28.2712 17.5364 28.2632 17.5776 28.2473 17.616C28.2315 17.6545 28.2081 17.6894 28.1786 17.7187C28.1491 17.7481 28.114 17.7714 28.0755 17.7872C28.0369 17.803 27.9955 17.811 27.9538 17.8108C27.9122 17.8108 27.8711 17.8026 27.8327 17.7867C27.7943 17.7708 27.7594 17.7475 27.7301 17.7181C27.7008 17.6888 27.6776 17.6539 27.6618 17.6156C27.6461 17.5773 27.6381 17.5363 27.6383 17.4948ZM14.5775 17.0373C14.5775 16.9961 14.5856 16.9552 14.6015 16.9171C14.6173 16.879 14.6406 16.8443 14.6699 16.8152C14.6992 16.786 14.7339 16.7628 14.7722 16.7471C14.8105 16.7313 14.8515 16.7231 14.8929 16.7231C14.9346 16.7229 14.9759 16.7309 15.0145 16.7465C15.053 16.7622 15.0881 16.7853 15.1177 16.8145C15.1474 16.8436 15.1709 16.8783 15.1871 16.9166C15.2032 16.9548 15.2116 16.9959 15.2119 17.0373C15.2119 17.1211 15.1785 17.2015 15.119 17.2607C15.0595 17.32 14.9788 17.3533 14.8947 17.3533C14.8524 17.3535 14.8104 17.3453 14.7714 17.3291C14.7323 17.3129 14.6969 17.289 14.6674 17.2588C14.6378 17.2287 14.6145 17.193 14.5991 17.1537C14.5837 17.1145 14.5763 17.0726 14.5775 17.0304V17.0373ZM26.4059 17.0373C26.4064 16.9539 26.44 16.8739 26.4994 16.8151C26.5589 16.7562 26.6393 16.7231 26.7231 16.7231C26.7647 16.7229 26.8059 16.7309 26.8444 16.7466C26.8828 16.7623 26.9178 16.7854 26.9473 16.8146C26.9768 16.8438 27.0002 16.8785 27.0161 16.9167C27.0321 16.9549 27.0403 16.9959 27.0403 17.0373C27.0405 17.0788 27.0325 17.1198 27.0168 17.1581C27.001 17.1964 26.9778 17.2313 26.9485 17.2606C26.9192 17.29 26.8844 17.3133 26.846 17.3292C26.8076 17.3451 26.7664 17.3533 26.7248 17.3533C26.6825 17.3535 26.6404 17.3453 26.6013 17.3291C26.5621 17.3129 26.5267 17.289 26.4969 17.2589C26.4672 17.2288 26.4438 17.1931 26.4282 17.1539C26.4126 17.1146 26.405 17.0727 26.4059 17.0304V17.0373ZM24.7176 17.0373C24.7174 16.996 24.7254 16.9551 24.7412 16.9168C24.7569 16.8786 24.7802 16.8439 24.8095 16.8147C24.8388 16.7854 24.8737 16.7623 24.9121 16.7466C24.9505 16.7309 24.9916 16.7229 25.0331 16.7231C25.1171 16.7231 25.1977 16.7561 25.2574 16.815C25.3171 16.8738 25.3511 16.9537 25.352 17.0373C25.352 17.079 25.3438 17.1202 25.3277 17.1586C25.3117 17.1971 25.2881 17.232 25.2585 17.2614C25.2289 17.2907 25.1937 17.314 25.155 17.3297C25.1163 17.3455 25.0749 17.3535 25.0331 17.3533C24.9909 17.3533 24.9492 17.3449 24.9103 17.3286C24.8715 17.3122 24.8363 17.2883 24.8069 17.2582C24.7775 17.2281 24.7544 17.1925 24.7391 17.1533C24.7238 17.1142 24.7165 17.0724 24.7176 17.0304V17.0373ZM23.0276 17.0373C23.0274 16.996 23.0354 16.9551 23.0511 16.9168C23.0669 16.8786 23.0901 16.8439 23.1195 16.8147C23.1488 16.7854 23.1837 16.7623 23.2221 16.7466C23.2604 16.7309 23.3016 16.7229 23.3431 16.7231C23.427 16.7231 23.5077 16.7561 23.5674 16.815C23.6271 16.8738 23.6611 16.9537 23.662 17.0373C23.662 17.079 23.6537 17.1202 23.6377 17.1586C23.6216 17.1971 23.5981 17.232 23.5685 17.2614C23.5388 17.2907 23.5037 17.314 23.465 17.3297C23.4263 17.3455 23.3849 17.3535 23.3431 17.3533C23.3009 17.3533 23.2591 17.3449 23.2203 17.3286C23.1814 17.3122 23.1463 17.2883 23.1169 17.2582C23.0875 17.2281 23.0644 17.1925 23.0491 17.1533C23.0337 17.1142 23.0264 17.0724 23.0276 17.0304V17.0373ZM21.3376 17.0373C21.3373 16.996 21.3453 16.9551 21.3611 16.9168C21.3769 16.8786 21.4001 16.8439 21.4294 16.8147C21.4588 16.7854 21.4937 16.7623 21.532 16.7466C21.5704 16.7309 21.6115 16.7229 21.653 16.7231C21.6946 16.7229 21.7358 16.7309 21.7743 16.7466C21.8128 16.7623 21.8477 16.7854 21.8772 16.8146C21.9067 16.8438 21.9301 16.8785 21.9461 16.9167C21.962 16.9549 21.9702 16.9959 21.9702 17.0373C21.9705 17.0789 21.9624 17.1201 21.9466 17.1585C21.9307 17.197 21.9073 17.2319 21.8778 17.2613C21.8483 17.2906 21.8133 17.3139 21.7747 17.3297C21.7361 17.3455 21.6948 17.3535 21.653 17.3533C21.6109 17.3533 21.5691 17.3449 21.5303 17.3286C21.4914 17.3122 21.4563 17.2883 21.4268 17.2582C21.3974 17.2281 21.3744 17.1925 21.359 17.1533C21.3437 17.1142 21.3364 17.0724 21.3376 17.0304V17.0373ZM19.6458 17.0373C19.6463 16.9539 19.6799 16.8739 19.7393 16.8151C19.7988 16.7562 19.8792 16.7231 19.963 16.7231C20.0046 16.7229 20.0458 16.7309 20.0843 16.7466C20.1227 16.7623 20.1577 16.7854 20.1872 16.8146C20.2167 16.8438 20.2401 16.8785 20.256 16.9167C20.272 16.9549 20.2802 16.9959 20.2802 17.0373C20.2804 17.0788 20.2725 17.1198 20.2567 17.1581C20.2409 17.1964 20.2177 17.2313 20.1884 17.2606C20.1591 17.29 20.1243 17.3133 20.0859 17.3292C20.0475 17.3451 20.0063 17.3533 19.9647 17.3533C19.9224 17.3535 19.8803 17.3453 19.8412 17.3291C19.8021 17.3129 19.7666 17.289 19.7368 17.2589C19.7071 17.2288 19.6837 17.1931 19.6681 17.1539C19.6525 17.1146 19.6449 17.0727 19.6458 17.0304V17.0373ZM17.9558 17.0373C17.9562 16.9539 17.9899 16.8739 18.0493 16.8151C18.1087 16.7562 18.1892 16.7231 18.273 16.7231C18.3146 16.7229 18.3558 16.7309 18.3942 16.7466C18.4327 16.7623 18.4677 16.7854 18.4972 16.8146C18.5267 16.8438 18.55 16.8785 18.566 16.9167C18.582 16.9549 18.5902 16.9959 18.5902 17.0373C18.5904 17.0788 18.5824 17.1198 18.5667 17.1581C18.5509 17.1964 18.5277 17.2313 18.4984 17.2606C18.4691 17.29 18.4342 17.3133 18.3958 17.3292C18.3575 17.3451 18.3163 17.3533 18.2747 17.3533C18.2323 17.3535 18.1903 17.3453 18.1512 17.3291C18.112 17.3129 18.0765 17.289 18.0468 17.2589C18.0171 17.2288 17.9937 17.1931 17.9781 17.1539C17.9624 17.1146 17.9549 17.0727 17.9558 17.0304V17.0373ZM16.2658 17.0373C16.2662 16.9539 16.2998 16.8739 16.3593 16.8151C16.4187 16.7562 16.4991 16.7231 16.583 16.7231C16.667 16.7231 16.7476 16.7561 16.8073 16.815C16.867 16.8738 16.901 16.9537 16.9019 17.0373C16.9019 17.079 16.8936 17.1202 16.8776 17.1586C16.8615 17.1971 16.838 17.232 16.8084 17.2614C16.7787 17.2907 16.7436 17.314 16.7049 17.3297C16.6662 17.3455 16.6248 17.3535 16.583 17.3533C16.5407 17.3533 16.4989 17.3449 16.46 17.3286C16.421 17.3123 16.3857 17.2884 16.3562 17.2583C16.3266 17.2282 16.3034 17.1926 16.2879 17.1535C16.2724 17.1143 16.2648 17.0725 16.2658 17.0304V17.0373Z" fill="white"/>
<path id="Vector_13" d="M24.2305 42.3671C24.2244 42.326 24.2265 42.2842 24.2367 42.2439C24.247 42.2037 24.2651 42.1658 24.2901 42.1326C24.315 42.0994 24.3464 42.0714 24.3823 42.0503C24.4182 42.0292 24.4579 42.0154 24.4992 42.0097C24.5821 41.9979 24.6664 42.0191 24.7336 42.069C24.8009 42.1188 24.8456 42.1931 24.858 42.2756C24.8699 42.3586 24.8484 42.443 24.798 42.5103C24.7477 42.5776 24.6727 42.6223 24.5893 42.6347H24.5425C24.4671 42.6343 24.3942 42.6072 24.337 42.5582C24.2798 42.5091 24.2421 42.4414 24.2305 42.3671ZM25.8946 42.0805C25.885 42.04 25.8837 41.9981 25.8905 41.9571C25.8972 41.9161 25.9121 41.8768 25.9342 41.8415C25.9562 41.8062 25.985 41.7756 26.019 41.7515C26.053 41.7273 26.0914 41.7101 26.132 41.7007C26.1724 41.691 26.2144 41.6894 26.2554 41.6959C26.2965 41.7025 26.3358 41.7171 26.3711 41.739C26.4065 41.7608 26.4371 41.7895 26.4612 41.8232C26.4853 41.8569 26.5025 41.8951 26.5116 41.9355C26.5211 41.9757 26.5226 42.0175 26.5159 42.0583C26.5092 42.0991 26.4945 42.1381 26.4726 42.1733C26.4507 42.2084 26.422 42.2389 26.3883 42.2629C26.3545 42.287 26.3163 42.3042 26.2759 42.3136C26.2517 42.3169 26.2272 42.3169 26.2031 42.3136C26.133 42.3141 26.0648 42.2915 26.009 42.2494C25.9532 42.2072 25.9129 42.1478 25.8946 42.0805ZM27.5274 41.6489C27.5011 41.5695 27.5074 41.4829 27.5451 41.4081C27.5828 41.3333 27.6488 41.2765 27.7285 41.2501C27.7679 41.2368 27.8097 41.2314 27.8513 41.2342C27.8929 41.237 27.9335 41.2479 27.9708 41.2664C28.0082 41.2848 28.0415 41.3104 28.0689 41.3417C28.0963 41.3729 28.1173 41.4093 28.1306 41.4486C28.1569 41.5285 28.1503 41.6156 28.1123 41.6906C28.0743 41.7657 28.0079 41.8227 27.9278 41.8492C27.8954 41.8601 27.8615 41.8659 27.8273 41.8664C27.7607 41.8658 27.6961 41.8446 27.6423 41.8056C27.5885 41.7665 27.5484 41.7118 27.5274 41.6489ZM29.1169 41.0775C29.0836 41.0002 29.0823 40.9131 29.1131 40.8349C29.1439 40.7567 29.2044 40.6937 29.2815 40.6597C29.3196 40.6429 29.3607 40.6338 29.4023 40.633C29.4439 40.6321 29.4853 40.6396 29.5241 40.6548C29.5628 40.6701 29.5981 40.6929 29.6278 40.7219C29.6576 40.7509 29.6813 40.7855 29.6975 40.8237C29.7142 40.8616 29.7231 40.9025 29.7238 40.9439C29.7245 40.9853 29.717 41.0264 29.7017 41.065C29.6864 41.1035 29.6636 41.1386 29.6346 41.1683C29.6057 41.198 29.5711 41.2217 29.5329 41.238C29.4928 41.2545 29.4497 41.2627 29.4063 41.2622C29.3452 41.2632 29.2851 41.2463 29.2336 41.2134C29.1821 41.1805 29.1415 41.1332 29.1169 41.0775ZM30.6474 40.3679C30.6081 40.2942 30.5997 40.2079 30.6241 40.128C30.6484 40.0481 30.7036 39.981 30.7774 39.9415C30.8139 39.9216 30.854 39.9091 30.8953 39.9047C30.9367 39.9004 30.9785 39.9042 31.0183 39.9161C31.0582 39.928 31.0953 39.9477 31.1274 39.974C31.1595 40.0003 31.1861 40.0326 31.2056 40.0692C31.2253 40.1056 31.2377 40.1455 31.2419 40.1866C31.2462 40.2278 31.2423 40.2694 31.2303 40.309C31.2184 40.3486 31.1988 40.3855 31.1725 40.4175C31.1462 40.4496 31.1139 40.4761 31.0773 40.4957C31.0311 40.5209 30.9792 40.5339 30.9265 40.5336C30.8693 40.5335 30.8133 40.518 30.7642 40.4888C30.7151 40.4597 30.6748 40.4179 30.6474 40.3679ZM32.1121 39.5289C32.0662 39.4588 32.0502 39.3735 32.0674 39.2916C32.0846 39.2097 32.1337 39.138 32.204 39.0921C32.2741 39.0462 32.3597 39.03 32.4419 39.0468C32.5241 39.0636 32.5962 39.1122 32.6425 39.1819C32.6886 39.2517 32.7049 39.3369 32.688 39.4188C32.6711 39.5007 32.6224 39.5725 32.5524 39.6187C32.5013 39.6534 32.4409 39.672 32.3791 39.6722C32.327 39.6712 32.276 39.6577 32.2304 39.6327C32.1848 39.6078 32.146 39.5721 32.1173 39.5289H32.1121ZM33.4988 38.5673C33.4466 38.5016 33.4228 38.4179 33.4326 38.3347C33.4423 38.2515 33.4849 38.1756 33.5508 38.1236C33.6168 38.0716 33.7008 38.0479 33.7843 38.0576C33.8678 38.0673 33.9441 38.1097 33.9963 38.1754C34.048 38.2413 34.0715 38.3248 34.0618 38.4079C34.0521 38.4909 34.0098 38.5668 33.9443 38.6191C33.8879 38.6631 33.8183 38.6868 33.7467 38.6864C33.6999 38.6855 33.654 38.6743 33.612 38.6537C33.5701 38.6331 33.5332 38.6036 33.504 38.5673H33.4988ZM34.7954 37.49C34.7375 37.4286 34.7064 37.3469 34.709 37.2627C34.7116 37.1785 34.7477 37.0988 34.8092 37.0411C34.8395 37.0124 34.8752 36.99 34.9142 36.9751C34.9532 36.9603 34.9948 36.9533 35.0366 36.9545C35.0784 36.9558 35.1194 36.9654 35.1575 36.9826C35.1955 36.9998 35.2297 37.0244 35.2582 37.0549C35.2866 37.0852 35.3088 37.1207 35.3234 37.1594C35.338 37.1982 35.3448 37.2395 35.3434 37.2809C35.3419 37.3223 35.3323 37.363 35.315 37.4006C35.2977 37.4383 35.2731 37.4722 35.2426 37.5004C35.1841 37.5557 35.1065 37.5865 35.0259 37.5867C34.9829 37.5868 34.9404 37.5783 34.9008 37.5617C34.8612 37.545 34.8253 37.5207 34.7954 37.49ZM35.9948 36.3022C35.9324 36.2463 35.8948 36.168 35.8903 36.0845C35.8858 36.001 35.9146 35.9192 35.9706 35.8568C35.9981 35.8257 36.0316 35.8004 36.0691 35.7822C36.1065 35.7641 36.1472 35.7535 36.1888 35.7511C36.2303 35.7487 36.272 35.7545 36.3113 35.7682C36.3506 35.7819 36.3868 35.8032 36.4178 35.8309C36.4488 35.8588 36.474 35.8924 36.492 35.93C36.5099 35.9676 36.5202 36.0083 36.5223 36.0498C36.5244 36.0914 36.5182 36.1329 36.5041 36.1721C36.4901 36.2113 36.4684 36.2473 36.4403 36.2781C36.411 36.3111 36.375 36.3377 36.3347 36.3558C36.2943 36.374 36.2506 36.3834 36.2063 36.3834C36.1281 36.3835 36.0527 36.3546 35.9948 36.3022ZM37.0851 35.0178C37.0181 34.9674 36.9739 34.8925 36.9622 34.8097C36.9505 34.7268 36.9722 34.6427 37.0227 34.5758C37.0475 34.5424 37.0787 34.5143 37.1145 34.493C37.1503 34.4717 37.1899 34.4577 37.2312 34.4517C37.2725 34.4458 37.3145 34.448 37.3549 34.4584C37.3953 34.4687 37.4332 34.4869 37.4665 34.512C37.5335 34.5624 37.5777 34.6372 37.5894 34.7201C37.6011 34.8029 37.5793 34.887 37.5289 34.9539C37.4999 34.9936 37.4618 35.0258 37.4178 35.0477C37.3737 35.0697 37.325 35.0807 37.2758 35.0799C37.2073 35.0797 37.1405 35.058 37.0851 35.0178ZM38.061 33.6367C38.0258 33.6148 37.9953 33.5863 37.9712 33.5527C37.9471 33.519 37.9298 33.481 37.9205 33.4408C37.9112 33.4005 37.9099 33.3588 37.9168 33.3181C37.9236 33.2774 37.9385 33.2384 37.9605 33.2033C37.9821 33.168 38.0106 33.1373 38.0442 33.1129C38.0778 33.0886 38.116 33.0711 38.1564 33.0615C38.1968 33.0518 38.2388 33.0503 38.2798 33.0568C38.3208 33.0634 38.3602 33.078 38.3955 33.0998C38.4309 33.1216 38.4617 33.1502 38.486 33.1839C38.5103 33.2176 38.5276 33.2558 38.5371 33.2962C38.5466 33.3366 38.5481 33.3785 38.5413 33.4194C38.5346 33.4603 38.5198 33.4996 38.4978 33.5348C38.4694 33.5804 38.4299 33.6181 38.3829 33.6444C38.3359 33.6706 38.283 33.6846 38.2291 33.685C38.1703 33.6869 38.1121 33.6726 38.061 33.6436V33.6367ZM38.9121 32.1848C38.8375 32.1464 38.7811 32.0803 38.7552 32.0008C38.7292 31.9213 38.7358 31.8348 38.7734 31.7601C38.7922 31.723 38.8181 31.6899 38.8497 31.6628C38.8813 31.6357 38.9179 31.6151 38.9575 31.6021C38.9971 31.5891 39.0389 31.584 39.0805 31.5871C39.1221 31.5902 39.1626 31.6015 39.1998 31.6202C39.2746 31.658 39.3313 31.7236 39.3576 31.8029C39.3839 31.8821 39.3777 31.9685 39.3402 32.0432C39.3136 32.0954 39.2729 32.1392 39.2227 32.1697C39.1725 32.2001 39.1147 32.2161 39.056 32.2158C39.0068 32.2186 38.9576 32.2103 38.9121 32.1917V32.1848ZM39.6349 30.6604C39.5966 30.645 39.5618 30.6222 39.5323 30.5934C39.5029 30.5646 39.4794 30.5303 39.4633 30.4925C39.4472 30.4546 39.4388 30.414 39.4385 30.3729C39.4382 30.3318 39.446 30.291 39.4616 30.2529C39.4931 30.1758 39.5541 30.1143 39.6311 30.0819C39.7081 30.0496 39.7949 30.049 39.8724 30.0803C39.9498 30.1117 40.0115 30.1724 40.044 30.2491C40.0765 30.3259 40.0771 30.4123 40.0457 30.4894C40.0221 30.5481 39.9815 30.5983 39.9289 30.6337C39.8764 30.6691 39.8144 30.688 39.751 30.688C39.7113 30.6893 39.6717 30.6822 39.6349 30.6673V30.6604ZM40.2208 29.0824C40.1808 29.0706 40.1436 29.051 40.1113 29.0247C40.0791 28.9985 40.0523 28.9661 40.0326 28.9295C40.013 28.8929 40.0008 28.8528 39.9968 28.8115C39.9928 28.7702 39.997 28.7285 40.0093 28.6888C40.0216 28.6491 40.0416 28.6122 40.0682 28.5802C40.0947 28.5482 40.1274 28.5218 40.1643 28.5024C40.2011 28.483 40.2415 28.471 40.283 28.4672C40.3245 28.4633 40.3664 28.4676 40.4062 28.4799C40.4863 28.5043 40.5534 28.5591 40.593 28.6325C40.6326 28.7059 40.6415 28.7919 40.6177 28.8718C40.5977 28.937 40.5574 28.9941 40.5025 29.0348C40.4476 29.0755 40.3811 29.0976 40.3126 29.098C40.2817 29.1003 40.2507 29.0974 40.2208 29.0893V29.0824ZM40.6645 27.4613C40.5824 27.4435 40.5105 27.3942 40.4645 27.3242C40.4185 27.2541 40.4019 27.1688 40.4184 27.0867C40.4355 27.0048 40.4845 26.933 40.5547 26.887C40.6249 26.8411 40.7105 26.8247 40.7928 26.8416C40.8749 26.859 40.9468 26.9079 40.9932 26.9776C41.0395 27.0473 41.0566 27.1324 41.0406 27.2145C41.0263 27.2854 40.9877 27.3493 40.9315 27.3952C40.8752 27.4412 40.8048 27.4664 40.7321 27.4665C40.7097 27.469 40.687 27.4695 40.6645 27.4682V27.4613ZM40.9644 25.804C40.882 25.794 40.8068 25.7523 40.7549 25.6877C40.7031 25.6232 40.6787 25.541 40.687 25.4587C40.6966 25.3765 40.7384 25.3013 40.8033 25.2496C40.8682 25.1978 40.951 25.1737 41.0337 25.1825C41.1161 25.1925 41.1913 25.2342 41.2431 25.2987C41.295 25.3633 41.3194 25.4455 41.311 25.5278C41.3014 25.6042 41.2644 25.6747 41.2067 25.7261C41.1491 25.7775 41.0747 25.8064 40.9973 25.8074L40.9644 25.804ZM41.1186 24.1294C41.0769 24.1283 41.0358 24.1189 40.9977 24.1019C40.9597 24.0848 40.9254 24.0604 40.8968 24.0301C40.8683 23.9997 40.8461 23.964 40.8315 23.9251C40.8169 23.8861 40.8102 23.8446 40.8118 23.8031C40.8132 23.7617 40.8227 23.7209 40.8399 23.6832C40.8572 23.6455 40.8817 23.6115 40.9122 23.5833C40.9426 23.555 40.9784 23.5331 41.0174 23.5186C41.0564 23.5042 41.0979 23.4976 41.1394 23.4992C41.223 23.502 41.3021 23.5374 41.3595 23.5978C41.4169 23.6583 41.4481 23.7389 41.4463 23.8221C41.4431 23.9041 41.4085 23.9817 41.3494 24.039C41.2903 24.0962 41.2114 24.1285 41.129 24.1294H41.1186ZM40.7928 22.1561C40.7885 22.0726 40.8177 21.9908 40.8739 21.9286C40.9301 21.8665 41.0088 21.8291 41.0927 21.8246C41.1343 21.8223 41.176 21.8282 41.2154 21.8419C41.2548 21.8557 41.2911 21.8771 41.3222 21.9048C41.3532 21.9326 41.3785 21.9661 41.3965 22.0036C41.4146 22.0411 41.425 22.0818 41.4272 22.1233C41.4314 22.2068 41.4023 22.2886 41.346 22.3508C41.2898 22.4129 41.2112 22.4503 41.1273 22.4548H41.11C41.0289 22.4545 40.951 22.4234 40.892 22.3679C40.8331 22.3125 40.7976 22.2367 40.7928 22.1561ZM40.635 20.5091C40.6289 20.4683 40.631 20.4266 40.6411 20.3866C40.6512 20.3466 40.6692 20.3089 40.6941 20.2759C40.7189 20.2428 40.75 20.2149 40.7857 20.1939C40.8214 20.1729 40.8609 20.1592 40.902 20.1535C40.9854 20.1416 41.0701 20.1631 41.1376 20.2132C41.2052 20.2634 41.2501 20.3381 41.2625 20.4211C41.2725 20.5035 41.2498 20.5865 41.1993 20.6526C41.1488 20.7187 41.0745 20.7626 40.9921 20.775H40.947C40.8714 20.7753 40.7981 20.7485 40.7408 20.6993C40.6835 20.6501 40.6459 20.582 40.635 20.5074V20.5091ZM40.33 18.8759C40.3205 18.8355 40.3191 18.7935 40.3259 18.7525C40.3326 18.7115 40.3475 18.6722 40.3696 18.6369C40.3916 18.6017 40.4205 18.5711 40.4544 18.5469C40.4884 18.5227 40.5268 18.5055 40.5674 18.4961C40.6495 18.478 40.7353 18.4929 40.8064 18.5375C40.8775 18.5821 40.928 18.6529 40.947 18.7344C40.9566 18.7746 40.958 18.8163 40.9513 18.8571C40.9446 18.8979 40.9299 18.937 40.908 18.9721C40.8861 19.0073 40.8574 19.0377 40.8237 19.0618C40.7899 19.0859 40.7517 19.1031 40.7113 19.1124C40.6876 19.1187 40.6631 19.1216 40.6385 19.1211C40.5668 19.1209 40.4973 19.0966 40.4413 19.0521C40.3853 19.0076 40.346 18.9455 40.33 18.8759ZM39.8845 17.2825C39.8715 17.243 39.8664 17.2014 39.8696 17.16C39.8727 17.1186 39.8841 17.0782 39.9029 17.0412C39.9217 17.0042 39.9477 16.9712 39.9794 16.9442C40.011 16.9171 40.0477 16.8966 40.0873 16.8837C40.1269 16.8708 40.1687 16.8658 40.2102 16.8691C40.2517 16.8724 40.2922 16.8838 40.3293 16.9028C40.3663 16.9217 40.3993 16.9478 40.4261 16.9795C40.453 17.0112 40.4734 17.0478 40.486 17.0874C40.4989 17.1267 40.504 17.1682 40.5008 17.2095C40.4976 17.2508 40.4863 17.291 40.4674 17.3279C40.4486 17.3648 40.4226 17.3976 40.391 17.4245C40.3594 17.4514 40.3227 17.4717 40.2832 17.4845C40.2519 17.4948 40.2191 17.5 40.1861 17.5C40.12 17.4999 40.0555 17.4794 40.0015 17.4414C39.9475 17.4034 39.9067 17.3497 39.8845 17.2876V17.2825ZM39.3021 15.7287C39.2855 15.6904 39.2768 15.6491 39.2766 15.6073C39.2764 15.5656 39.2846 15.5242 39.3008 15.4857C39.317 15.4472 39.3408 15.4124 39.3708 15.3832C39.4008 15.3541 39.4364 15.3312 39.4754 15.3161C39.5141 15.2998 39.5556 15.2913 39.5976 15.2912C39.6395 15.2911 39.6811 15.2993 39.7198 15.3154C39.7586 15.3314 39.7937 15.3551 39.8232 15.3848C39.8526 15.4146 39.8758 15.4499 39.8914 15.4887C39.9235 15.5666 39.9233 15.6539 39.8908 15.7316C39.8583 15.8093 39.7962 15.871 39.7181 15.9031C39.6786 15.9197 39.6362 15.9285 39.5933 15.929C39.5313 15.9289 39.4706 15.9107 39.4188 15.8766C39.3671 15.8426 39.3265 15.7941 39.3021 15.7373V15.7287ZM38.5827 14.2371C38.5439 14.1628 38.536 14.0763 38.5606 13.9962C38.5853 13.9161 38.6405 13.8489 38.7145 13.8089C38.7887 13.7699 38.8755 13.7618 38.9558 13.7864C39.036 13.811 39.1032 13.8663 39.1426 13.9401C39.1623 13.9766 39.1746 14.0166 39.1787 14.0578C39.1828 14.099 39.1787 14.1407 39.1666 14.1803C39.1546 14.2199 39.1347 14.2568 39.1083 14.2887C39.0819 14.3207 39.0494 14.3472 39.0126 14.3666C38.9669 14.3914 38.9156 14.4045 38.8635 14.4045C38.8068 14.4054 38.7508 14.3911 38.7015 14.3631C38.6521 14.3352 38.6111 14.2947 38.5827 14.2457V14.2371ZM37.7386 12.8128C37.6926 12.7425 37.6765 12.6568 37.6937 12.5747C37.7109 12.4925 37.7601 12.4205 37.8305 12.3743C37.9012 12.3292 37.9869 12.3137 38.069 12.3312C38.1511 12.3487 38.2229 12.3976 38.269 12.4675C38.3149 12.5376 38.331 12.623 38.3137 12.7048C38.2965 12.7867 38.2474 12.8584 38.1771 12.9043C38.1256 12.9378 38.0654 12.9558 38.0038 12.9561C37.952 12.9567 37.9007 12.9447 37.8546 12.9213C37.8084 12.8978 37.7686 12.8636 37.7386 12.8214V12.8128ZM36.7731 11.4662C36.7471 11.4339 36.7278 11.3968 36.7164 11.357C36.7049 11.3172 36.7015 11.2755 36.7063 11.2344C36.7111 11.1933 36.7241 11.1535 36.7445 11.1175C36.7649 11.0814 36.7923 11.0497 36.8251 11.0243C36.8577 10.9983 36.8951 10.9791 36.9352 10.9676C36.9753 10.9562 37.0173 10.9528 37.0587 10.9576C37.1001 10.9624 37.1402 10.9753 37.1766 10.9957C37.2129 11.016 37.2449 11.0433 37.2706 11.0761C37.2963 11.1087 37.3153 11.1461 37.3266 11.186C37.3378 11.226 37.341 11.2678 37.336 11.309C37.331 11.3502 37.3179 11.39 37.2975 11.4262C37.277 11.4623 37.2496 11.4941 37.2169 11.5197C37.1615 11.5631 37.0932 11.5868 37.0227 11.5871C36.9753 11.5885 36.9282 11.5791 36.8849 11.5597C36.8416 11.5402 36.8034 11.5112 36.7731 11.4748V11.4662ZM35.6915 10.2077C35.6344 10.1462 35.6039 10.0646 35.6069 9.9809C35.6098 9.89714 35.6458 9.81794 35.7071 9.76053C35.7691 9.70384 35.851 9.67383 35.9351 9.67707C36.0192 9.6803 36.0986 9.71651 36.156 9.77779C36.2128 9.83895 36.2428 9.92002 36.2395 10.0032C36.2363 10.0864 36.2 10.1649 36.1387 10.2215C36.0814 10.2775 36.0041 10.3085 35.9238 10.3078C35.8808 10.3092 35.8381 10.3018 35.7981 10.2861C35.7581 10.2703 35.7219 10.2466 35.6915 10.2163V10.2077ZM34.5059 9.04753C34.4441 8.99112 34.4072 8.91277 34.4029 8.82942C34.3987 8.74607 34.4276 8.66442 34.4834 8.60211C34.5109 8.57094 34.5444 8.54554 34.5819 8.52742C34.6195 8.50929 34.6602 8.4988 34.7019 8.49655C34.7435 8.4943 34.7852 8.50033 34.8244 8.51431C34.8637 8.52828 34.8998 8.54992 34.9306 8.57794C34.9618 8.60565 34.9872 8.63928 35.0052 8.67685C35.0233 8.71443 35.0337 8.75521 35.0358 8.79682C35.0379 8.83843 35.0317 8.88004 35.0175 8.91923C35.0033 8.95842 34.9814 8.9944 34.9531 9.02508C34.9236 9.05763 34.8874 9.08354 34.8471 9.1011C34.8068 9.11866 34.7631 9.12748 34.7191 9.12695C34.6417 9.13055 34.5657 9.10531 34.5059 9.05616V9.04753ZM33.2249 7.99442C33.1582 7.94374 33.1143 7.86877 33.1029 7.78593C33.0915 7.70309 33.1136 7.61913 33.1643 7.55246C33.1891 7.51907 33.2203 7.49092 33.256 7.46961C33.2918 7.44831 33.3315 7.43429 33.3728 7.42835C33.414 7.42241 33.4561 7.42467 33.4964 7.43501C33.5368 7.44535 33.5747 7.46356 33.608 7.48858C33.6749 7.53957 33.7188 7.61485 33.7302 7.69798C33.7415 7.7811 33.7194 7.86532 33.6687 7.93227C33.6393 7.97133 33.601 8.00295 33.557 8.02454C33.5131 8.04614 33.4646 8.05712 33.4156 8.05657C33.3476 8.05786 33.281 8.03793 33.2249 7.9996V7.99442ZM31.8573 7.05354C31.8221 7.03168 31.7916 7.00313 31.7675 6.96951C31.7434 6.9359 31.7262 6.89788 31.7168 6.85763C31.7075 6.81738 31.7062 6.7757 31.7131 6.73496C31.7199 6.69422 31.7348 6.65522 31.7568 6.62021C31.7787 6.58472 31.8075 6.55391 31.8415 6.52956C31.8755 6.50521 31.914 6.48779 31.9548 6.47832C31.9955 6.46886 32.0378 6.46751 32.079 6.47438C32.1203 6.48125 32.1599 6.49619 32.1953 6.51834C32.2314 6.54095 32.2626 6.57053 32.287 6.60534C32.3114 6.64015 32.3285 6.67948 32.3374 6.721C32.3463 6.76253 32.3467 6.80541 32.3387 6.8471C32.3307 6.8888 32.3143 6.92846 32.2907 6.96376C32.2617 7.00861 32.222 7.04553 32.175 7.07116C32.1281 7.0968 32.0755 7.11031 32.022 7.1105C31.9637 7.10986 31.9067 7.09313 31.8573 7.06217V7.05354ZM30.4117 6.23694C30.3371 6.1986 30.2808 6.13238 30.2551 6.05277C30.2295 5.97317 30.2365 5.88668 30.2748 5.81225C30.2936 5.7753 30.3197 5.74243 30.3514 5.71555C30.3831 5.68867 30.4198 5.6683 30.4594 5.65562C30.4991 5.64294 30.5408 5.6382 30.5823 5.64168C30.6238 5.64515 30.6642 5.65677 30.7012 5.67586C30.7383 5.69467 30.7713 5.72061 30.7983 5.75218C30.8252 5.78375 30.8457 5.82033 30.8584 5.85981C30.8711 5.89929 30.8759 5.94089 30.8724 5.9822C30.8689 6.02352 30.8573 6.06375 30.8381 6.10056C30.8117 6.15261 30.7713 6.19632 30.7214 6.22681C30.6715 6.2573 30.6141 6.27336 30.5556 6.2732C30.5061 6.27487 30.457 6.26543 30.4117 6.24558V6.23694ZM28.9019 5.54638C28.8632 5.53103 28.828 5.50816 28.7983 5.4791C28.7685 5.45004 28.7449 5.41538 28.7288 5.37713C28.7127 5.33889 28.7043 5.29782 28.7043 5.25633C28.7043 5.21485 28.7125 5.17377 28.7286 5.13549C28.7601 5.05838 28.8211 4.99688 28.8981 4.96451C28.9752 4.93214 29.0619 4.93154 29.1394 4.96285C29.2171 4.99497 29.2789 5.05635 29.3113 5.13363C29.3438 5.21091 29.3443 5.29782 29.3127 5.37547C29.2894 5.43378 29.249 5.48375 29.1967 5.51886C29.1445 5.55396 29.0828 5.57258 29.0198 5.57228C28.9797 5.57493 28.9395 5.56905 28.9019 5.55502V5.54638ZM27.3419 4.99394C27.2617 4.96891 27.1948 4.91322 27.1558 4.83911C27.1168 4.76499 27.1089 4.67848 27.1339 4.59859C27.146 4.55896 27.1658 4.5221 27.1922 4.49013C27.2187 4.45816 27.2512 4.4317 27.2879 4.41229C27.3246 4.39288 27.3648 4.38089 27.4062 4.37701C27.4476 4.37313 27.4894 4.37744 27.5291 4.38969C27.6095 4.41402 27.677 4.46913 27.7166 4.54293C27.7563 4.61673 27.7649 4.70319 27.7406 4.78331C27.72 4.84785 27.6794 4.9042 27.6245 4.94424C27.5697 4.98427 27.5035 5.0059 27.4355 5.00601C27.402 5.00962 27.3682 5.00846 27.335 5.00257L27.3419 4.99394ZM25.7351 4.57615C25.6942 4.56774 25.6555 4.55135 25.621 4.52791C25.5866 4.50448 25.5571 4.47447 25.5344 4.43963C25.5117 4.40479 25.4961 4.3658 25.4886 4.32493C25.4811 4.28406 25.4818 4.24211 25.4907 4.20152C25.4993 4.16116 25.5159 4.12289 25.5394 4.08891C25.5629 4.05492 25.5929 4.02587 25.6276 4.00343C25.6624 3.98098 25.7013 3.96559 25.742 3.9581C25.7828 3.95062 25.8246 3.9512 25.8651 3.95982C25.906 3.96824 25.9448 3.98463 25.9794 4.00803C26.0139 4.03144 26.0434 4.06141 26.0663 4.09621C26.0892 4.13102 26.1049 4.16998 26.1126 4.21087C26.1203 4.25175 26.1199 4.29375 26.1112 4.33445C26.0958 4.40494 26.0566 4.46806 26.0001 4.51328C25.9437 4.55851 25.8734 4.58313 25.801 4.58305C25.7769 4.58685 25.7524 4.58743 25.7282 4.58478L25.7351 4.57615ZM24.0953 4.30337C24.0136 4.29258 23.9393 4.25048 23.8881 4.18603C23.837 4.12157 23.8131 4.03981 23.8215 3.95809C23.831 3.87597 23.8729 3.80097 23.9379 3.74952C24.0028 3.69807 24.0856 3.67437 24.1681 3.6836C24.2504 3.69356 24.3254 3.73536 24.377 3.79997C24.4286 3.86458 24.4525 3.9468 24.4437 4.02888C24.4344 4.10517 24.3973 4.17541 24.3395 4.22631C24.2817 4.27721 24.2072 4.30524 24.13 4.3051H24.0901L24.0953 4.30337Z" fill="white"/>
<path id="Vector_14" d="M18.2834 42.6351C18.2001 42.6227 18.1251 42.578 18.0747 42.5107C18.0244 42.4434 18.0028 42.359 18.0147 42.276C18.0271 42.1934 18.0718 42.1191 18.1391 42.0693C18.2063 42.0195 18.2906 41.9982 18.3735 42.0101C18.4148 42.0158 18.4545 42.0296 18.4904 42.0507C18.5263 42.0718 18.5577 42.0998 18.5827 42.133C18.6076 42.1662 18.6258 42.204 18.636 42.2443C18.6462 42.2845 18.6483 42.3264 18.6422 42.3675C18.6314 42.4424 18.594 42.5109 18.5367 42.5607C18.4794 42.6104 18.4062 42.638 18.3302 42.6385L18.2834 42.6351ZM16.5968 42.3139C16.5564 42.3046 16.5182 42.2874 16.4845 42.2633C16.4507 42.2392 16.4221 42.2088 16.4002 42.1736C16.3783 42.1385 16.3635 42.0994 16.3568 42.0586C16.3501 42.0178 16.3516 41.9761 16.3611 41.9359C16.3705 41.8954 16.3878 41.8572 16.4121 41.8235C16.4364 41.7897 16.4671 41.7611 16.5026 41.7393C16.5381 41.7174 16.5775 41.7028 16.6187 41.6963C16.6598 41.6897 16.7019 41.6913 16.7424 41.7011C16.8242 41.7203 16.895 41.7712 16.9392 41.8424C16.9834 41.9136 16.9974 41.9994 16.9782 42.0809C16.9614 42.1498 16.9219 42.2111 16.8659 42.255C16.81 42.2988 16.7408 42.3226 16.6696 42.3226C16.6451 42.3231 16.6206 42.3202 16.5968 42.3139ZM14.9449 41.8495C14.9054 41.8363 14.8689 41.8154 14.8375 41.7881C14.8061 41.7608 14.7804 41.7276 14.7619 41.6904C14.7434 41.6532 14.7324 41.6128 14.7296 41.5713C14.7268 41.5299 14.7323 41.4883 14.7456 41.449C14.7585 41.4098 14.7791 41.3735 14.8062 41.3423C14.8333 41.311 14.8663 41.2854 14.9034 41.267C14.9404 41.2485 14.9808 41.2376 15.0222 41.2347C15.0635 41.2319 15.105 41.2372 15.1443 41.2505C15.224 41.2769 15.2899 41.3337 15.3276 41.4085C15.3653 41.4832 15.3717 41.5698 15.3453 41.6493C15.3246 41.7123 15.2845 41.7672 15.2307 41.8063C15.1768 41.8453 15.1121 41.8665 15.0455 41.8668C15.0113 41.866 14.9774 41.8602 14.9449 41.8495ZM13.3398 41.2418C13.3016 41.2255 13.2671 41.2018 13.2381 41.1721C13.2091 41.1424 13.1863 41.1073 13.171 41.0688C13.1557 41.0303 13.1482 40.9891 13.1489 40.9477C13.1496 40.9063 13.1585 40.8655 13.1752 40.8275C13.2074 40.7497 13.2693 40.6878 13.3473 40.6555C13.4253 40.6231 13.513 40.6229 13.5912 40.6549C13.6302 40.6704 13.6656 40.6935 13.6955 40.7228C13.7254 40.7522 13.7491 40.7872 13.7653 40.8258C13.7814 40.8643 13.7896 40.9058 13.7895 40.9476C13.7894 40.9894 13.7809 41.0307 13.7645 41.0692C13.7405 41.1256 13.7001 41.1737 13.6485 41.2072C13.597 41.2407 13.5366 41.2582 13.4751 41.2574C13.4294 41.2617 13.3833 41.2564 13.3398 41.2418ZM11.7954 40.496C11.7588 40.4765 11.7265 40.4499 11.7002 40.4179C11.674 40.3859 11.6543 40.349 11.6424 40.3093C11.6305 40.2697 11.6265 40.2282 11.6308 40.187C11.635 40.1459 11.6474 40.106 11.6672 40.0696C11.6866 40.033 11.7132 40.0006 11.7453 39.9743C11.7775 39.9481 11.8145 39.9284 11.8544 39.9165C11.8942 39.9046 11.936 39.9007 11.9774 39.9051C12.0188 39.9094 12.0588 39.9219 12.0953 39.9419C12.132 39.9613 12.1646 39.9877 12.191 40.0197C12.2173 40.0517 12.2371 40.0887 12.249 40.1283C12.261 40.168 12.2649 40.2097 12.2605 40.2509C12.2561 40.2921 12.2436 40.332 12.2236 40.3683C12.1976 40.4196 12.158 40.4628 12.1091 40.4932C12.0602 40.5236 12.0039 40.5401 11.9462 40.5409C11.8929 40.539 11.841 40.5235 11.7954 40.496ZM10.3203 39.619C10.2504 39.5729 10.2016 39.501 10.1847 39.4192C10.1678 39.3373 10.1842 39.2521 10.2302 39.1822C10.2765 39.1126 10.3487 39.064 10.4309 39.0471C10.5131 39.0303 10.5986 39.0466 10.6687 39.0925C10.739 39.1383 10.7881 39.2101 10.8053 39.292C10.8226 39.3738 10.8065 39.4592 10.7606 39.5293C10.7315 39.5729 10.6921 39.6087 10.6459 39.6337C10.5996 39.6587 10.548 39.672 10.4954 39.6726C10.433 39.6724 10.3721 39.6538 10.3203 39.619ZM8.93365 38.6194C8.86796 38.5672 8.82577 38.4911 8.81634 38.408C8.80692 38.3248 8.83103 38.2412 8.88339 38.1758C8.90907 38.1433 8.94093 38.1162 8.97715 38.096C9.01337 38.0758 9.05324 38.063 9.09446 38.0581C9.13568 38.0533 9.17745 38.0567 9.21737 38.068C9.2573 38.0793 9.2946 38.0983 9.32713 38.124C9.39269 38.1762 9.43491 38.2521 9.44464 38.3352C9.45438 38.4182 9.43084 38.5018 9.37913 38.5676C9.34926 38.605 9.31128 38.6351 9.26805 38.6558C9.22482 38.6764 9.17746 38.687 9.12952 38.6868C9.05686 38.6872 8.98612 38.6635 8.92845 38.6194H8.93365ZM7.63537 37.5025C7.57418 37.4453 7.5382 37.3664 7.53527 37.283C7.53235 37.1995 7.56272 37.1183 7.61976 37.057C7.67747 36.9955 7.75736 36.9593 7.84187 36.9563C7.92638 36.9534 8.0086 36.9841 8.07044 37.0415C8.13125 37.0994 8.16664 37.1788 8.16892 37.2626C8.17119 37.3463 8.14016 37.4276 8.08258 37.4886C8.05276 37.5196 8.01697 37.5443 7.97736 37.5612C7.93775 37.5781 7.89513 37.5869 7.85204 37.5871C7.76984 37.5887 7.69023 37.5584 7.63016 37.5025H7.63537ZM6.43761 36.2784C6.40964 36.2475 6.38808 36.2114 6.37416 36.1722C6.36023 36.133 6.35422 36.0914 6.35648 36.0498C6.35873 36.0083 6.36921 35.9676 6.38729 35.9301C6.40538 35.8926 6.43073 35.859 6.46188 35.8313C6.52497 35.7757 6.6076 35.7472 6.69171 35.752C6.77583 35.7569 6.8546 35.7947 6.91083 35.8572C6.96614 35.9199 6.99441 36.0019 6.98955 36.0852C6.98468 36.1686 6.94706 36.2467 6.88482 36.3026C6.8266 36.3544 6.75141 36.3832 6.67336 36.3837C6.62795 36.3845 6.58292 36.3755 6.54133 36.3573C6.49975 36.3391 6.4626 36.3122 6.43242 36.2784H6.43761ZM5.34907 34.9543C5.29859 34.8874 5.27681 34.8033 5.28851 34.7205C5.30021 34.6376 5.34443 34.5628 5.41147 34.5123C5.44474 34.4873 5.48266 34.4691 5.52304 34.4588C5.56342 34.4484 5.60545 34.4462 5.64671 34.4521C5.68798 34.458 5.72765 34.4721 5.76344 34.4934C5.79922 34.5147 5.83041 34.5428 5.85521 34.5762C5.90568 34.6431 5.92746 34.7272 5.91576 34.81C5.90406 34.8929 5.85985 34.9677 5.79281 35.0182C5.73739 35.0583 5.67068 35.0801 5.60214 35.0803C5.55215 35.0812 5.50265 35.0702 5.45774 35.0483C5.41284 35.0264 5.3738 34.9942 5.34386 34.9543H5.34907ZM4.38359 33.5507C4.33906 33.4797 4.32464 33.394 4.34349 33.3125C4.36234 33.2309 4.41292 33.1601 4.48412 33.1157C4.55594 33.0721 4.64213 33.0585 4.72393 33.0779C4.80574 33.0973 4.87653 33.1481 4.92092 33.2193C4.94285 33.2544 4.9576 33.2935 4.96433 33.3343C4.97106 33.3751 4.96962 33.4168 4.96012 33.4571C4.95062 33.4973 4.93323 33.5353 4.90896 33.5689C4.88468 33.6024 4.854 33.6309 4.81866 33.6526C4.76682 33.6851 4.70659 33.7019 4.64532 33.7009C4.5925 33.7 4.54077 33.6857 4.49499 33.6595C4.44921 33.6332 4.41088 33.5958 4.38359 33.5507ZM3.54291 32.0591C3.50559 31.9842 3.49959 31.8977 3.52623 31.8184C3.55287 31.7391 3.60998 31.6736 3.68504 31.6361C3.72212 31.6174 3.76255 31.6062 3.804 31.6031C3.84545 31.6 3.8871 31.6052 3.92656 31.6182C3.96603 31.6311 4.00252 31.6518 4.03395 31.6789C4.06538 31.7059 4.09113 31.7389 4.10972 31.776C4.14724 31.8509 4.15354 31.9376 4.12724 32.0171C4.10095 32.0966 4.04419 32.1626 3.96931 32.2007C3.92513 32.2225 3.87647 32.2337 3.82718 32.2335C3.76592 32.235 3.70557 32.2185 3.65375 32.1859C3.60192 32.1533 3.56094 32.1062 3.53597 32.0505L3.54291 32.0591ZM2.83223 30.5053C2.80126 30.4282 2.8021 30.3419 2.83455 30.2653C2.86699 30.1887 2.92844 30.128 3.00556 30.0962C3.08328 30.0648 3.1703 30.0654 3.24761 30.0977C3.32492 30.1301 3.38621 30.1916 3.4181 30.2688C3.43388 30.3069 3.4419 30.3477 3.44171 30.3889C3.44152 30.43 3.43312 30.4707 3.41699 30.5087C3.40086 30.5466 3.37733 30.5809 3.34777 30.6097C3.3182 30.6384 3.28319 30.6611 3.24477 30.6763C3.20824 30.6925 3.16864 30.7008 3.12864 30.7004C3.06249 30.7017 2.9976 30.6824 2.94294 30.6453C2.88828 30.6082 2.84656 30.555 2.82356 30.4933L2.83223 30.5053ZM2.26369 28.8912C2.25168 28.8516 2.24763 28.8101 2.25177 28.7689C2.2559 28.7278 2.26814 28.6879 2.28779 28.6515C2.30743 28.6151 2.33409 28.5829 2.36625 28.5568C2.3984 28.5307 2.43541 28.5111 2.47516 28.4993C2.51487 28.487 2.55664 28.4827 2.59803 28.4866C2.63943 28.4905 2.67965 28.5025 2.71638 28.5219C2.7531 28.5413 2.78562 28.5677 2.81204 28.5997C2.83847 28.6317 2.85829 28.6685 2.87036 28.7082C2.8826 28.748 2.88677 28.7898 2.88266 28.8312C2.87854 28.8726 2.8662 28.9127 2.84637 28.9494C2.82653 28.986 2.7996 29.0183 2.76712 29.0445C2.73464 29.0706 2.69726 29.0901 2.65716 29.1018C2.6282 29.112 2.59773 29.1172 2.56702 29.1173C2.49614 29.1174 2.42725 29.094 2.37111 29.0509C2.31498 29.0078 2.27477 28.9474 2.25676 28.8791L2.26369 28.8912ZM1.84075 27.2338C1.82384 27.1519 1.84026 27.0666 1.8864 26.9967C1.93255 26.9268 2.00465 26.8779 2.08689 26.8609C2.16917 26.8441 2.25479 26.8604 2.32498 26.9064C2.39517 26.9523 2.44419 27.0242 2.46129 27.1061C2.47777 27.1882 2.4612 27.2735 2.41516 27.3435C2.36912 27.4136 2.2973 27.4629 2.21515 27.4807C2.19324 27.4825 2.1712 27.4825 2.14928 27.4807C2.07448 27.4815 2.0018 27.456 1.94408 27.4086C1.88635 27.3612 1.8473 27.295 1.83382 27.2217L1.84075 27.2338ZM1.56514 25.5489C1.55634 25.4668 1.58032 25.3846 1.63189 25.3199C1.68346 25.2553 1.75848 25.2135 1.84075 25.2036C1.92324 25.1957 2.00555 25.2202 2.07026 25.2717C2.13497 25.3233 2.17698 25.3979 2.18742 25.4798C2.19525 25.5622 2.17047 25.6444 2.11834 25.7089C2.06622 25.7734 1.99087 25.8151 1.90835 25.8251C1.89628 25.8268 1.88402 25.8268 1.87195 25.8251C1.79301 25.8245 1.71712 25.7947 1.6591 25.7413C1.60108 25.688 1.56511 25.6151 1.55821 25.5368L1.56514 25.5489ZM1.43514 23.8414C1.43376 23.8001 1.44062 23.7589 1.45533 23.7203C1.47005 23.6816 1.49232 23.6462 1.52085 23.6162C1.54939 23.5862 1.58363 23.5621 1.62158 23.5453C1.65953 23.5286 1.70045 23.5195 1.74195 23.5186C1.8258 23.5158 1.90735 23.5462 1.96874 23.6031C2.03014 23.6601 2.06639 23.739 2.06955 23.8225C2.07189 23.9064 2.04074 23.9879 1.98292 24.049C1.92509 24.1102 1.84531 24.146 1.76101 24.1487H1.75235C1.71055 24.1485 1.6692 24.1401 1.63068 24.1239C1.59217 24.1077 1.55726 24.0841 1.52794 24.0544C1.49862 24.0247 1.47548 23.9895 1.45986 23.9509C1.44423 23.9123 1.43642 23.871 1.43688 23.8294L1.43514 23.8414ZM1.75235 22.4603C1.66849 22.4559 1.58983 22.4185 1.53362 22.3563C1.47741 22.2942 1.44823 22.2124 1.45248 22.1289C1.4574 22.0452 1.49532 21.9668 1.55799 21.9109C1.62065 21.8549 1.70297 21.8259 1.78701 21.8302C1.87087 21.8346 1.94953 21.872 2.00574 21.9342C2.06195 21.9963 2.09114 22.0781 2.08689 22.1617C2.08204 22.2423 2.04654 22.318 1.98762 22.3735C1.92869 22.429 1.85077 22.46 1.76968 22.4603H1.75235ZM1.88755 20.784C1.84642 20.7781 1.80687 20.7641 1.77117 20.7429C1.73547 20.7218 1.70432 20.6938 1.67952 20.6605C1.65472 20.6273 1.63674 20.5896 1.62663 20.5494C1.61652 20.5093 1.61448 20.4675 1.62061 20.4266C1.62592 20.3856 1.63938 20.3461 1.6602 20.3104C1.68102 20.2747 1.70879 20.2434 1.74188 20.2185C1.77496 20.1936 1.81271 20.1755 1.8529 20.1653C1.89309 20.1551 1.93492 20.1529 1.97595 20.159C2.01722 20.1645 2.05699 20.1781 2.09295 20.199C2.12892 20.2199 2.16038 20.2477 2.18552 20.2808C2.21066 20.3138 2.22898 20.3515 2.23942 20.3916C2.24986 20.4318 2.25222 20.4736 2.24636 20.5147C2.23552 20.5899 2.19784 20.6587 2.14022 20.7084C2.0826 20.7582 2.00889 20.7856 1.93261 20.7857H1.88755V20.784ZM2.17182 19.1232C2.13114 19.1144 2.09262 19.0977 2.0585 19.0739C2.02437 19.0502 1.99534 19.0199 1.97308 18.9849C1.95081 18.9499 1.93577 18.9108 1.92882 18.8699C1.92188 18.829 1.92317 18.7872 1.93261 18.7468C1.95201 18.6656 2.00271 18.5953 2.07374 18.5511C2.14477 18.5068 2.23044 18.4922 2.31222 18.5103C2.35288 18.5197 2.39129 18.5369 2.42525 18.5611C2.4592 18.5852 2.48804 18.6158 2.5101 18.6511C2.53216 18.6864 2.54701 18.7257 2.55381 18.7667C2.5606 18.8077 2.5592 18.8496 2.5497 18.8901C2.53267 18.9594 2.49288 19.0209 2.43665 19.065C2.38043 19.1092 2.311 19.1333 2.23942 19.1335C2.21379 19.132 2.1886 19.1261 2.16489 19.1163L2.17182 19.1232ZM2.59649 17.4969C2.55694 17.4842 2.5203 17.4638 2.48867 17.4369C2.45705 17.4101 2.43107 17.3773 2.41222 17.3404C2.39338 17.3035 2.38204 17.2632 2.37886 17.2219C2.37568 17.1807 2.38072 17.1392 2.39369 17.0998C2.41952 17.0202 2.476 16.9541 2.55074 16.9159C2.62548 16.8777 2.71237 16.8706 2.79236 16.8961C2.8711 16.9219 2.93659 16.9773 2.97481 17.0506C3.01304 17.1238 3.02097 17.209 2.9969 17.288C2.97616 17.351 2.93604 17.406 2.88222 17.445C2.8284 17.484 2.76361 17.5052 2.69703 17.5055C2.66087 17.5084 2.6245 17.5049 2.58956 17.4952L2.59649 17.4969ZM3.1633 15.9121C3.12433 15.8966 3.08886 15.8734 3.05897 15.8441C3.02908 15.8148 3.00537 15.7798 2.98923 15.7412C2.97309 15.7026 2.96484 15.6612 2.96496 15.6194C2.96509 15.5776 2.97359 15.5362 2.98996 15.4977C3.00517 15.4588 3.02809 15.4234 3.05735 15.3935C3.08661 15.3636 3.12162 15.3399 3.16029 15.3238C3.19896 15.3077 3.24049 15.2995 3.2824 15.2997C3.32431 15.2999 3.36575 15.3086 3.40424 15.3251C3.44315 15.3404 3.47858 15.3634 3.50845 15.3926C3.53833 15.4217 3.56204 15.4566 3.57819 15.495C3.59434 15.5335 3.60261 15.5747 3.6025 15.6164C3.6024 15.6581 3.59392 15.6993 3.57758 15.7377C3.55362 15.795 3.51319 15.8439 3.46136 15.8783C3.40954 15.9127 3.34865 15.9311 3.28637 15.9311C3.2417 15.9315 3.19742 15.9227 3.15637 15.9052L3.1633 15.9121ZM3.86704 14.3825C3.83031 14.3631 3.79779 14.3366 3.77136 14.3047C3.74492 14.2727 3.72509 14.2358 3.71301 14.1962C3.70093 14.1566 3.69683 14.1149 3.70095 14.0737C3.70508 14.0325 3.71734 13.9925 3.73704 13.9561C3.77644 13.8822 3.84363 13.8269 3.92389 13.8023C4.00414 13.7777 4.09091 13.7858 4.16518 13.8249C4.23946 13.8644 4.29499 13.9317 4.31967 14.0119C4.34436 14.0921 4.33618 14.1788 4.29692 14.253C4.27066 14.3044 4.23076 14.3477 4.18157 14.3781C4.13237 14.4085 4.07576 14.425 4.01785 14.4256C3.96291 14.4227 3.9097 14.4054 3.86358 14.3756L3.86704 14.3825ZM4.70425 12.9202C4.63371 12.8746 4.58424 12.803 4.56669 12.7211C4.54914 12.6392 4.56495 12.5537 4.61066 12.4834C4.65672 12.4135 4.7286 12.3646 4.81069 12.3471C4.89279 12.3297 4.97849 12.3451 5.0492 12.3902C5.08423 12.4129 5.1144 12.4423 5.13798 12.4767C5.16157 12.511 5.17811 12.5497 5.18665 12.5904C5.19519 12.6312 5.19555 12.6732 5.18773 12.7141C5.17991 12.755 5.16405 12.7939 5.14106 12.8287C5.11217 12.8725 5.07282 12.9086 5.02655 12.9336C4.98027 12.9586 4.92851 12.9718 4.87586 12.972C4.81169 12.9713 4.74931 12.9508 4.69732 12.9133L4.70425 12.9202ZM5.66281 11.5391C5.62996 11.5135 5.60252 11.4817 5.5821 11.4454C5.56169 11.4092 5.54868 11.3693 5.54385 11.3281C5.53901 11.2868 5.54244 11.245 5.55393 11.2051C5.56542 11.1651 5.58476 11.1279 5.61081 11.0954C5.63649 11.0629 5.66835 11.0358 5.70457 11.0157C5.74079 10.9955 5.78066 10.9826 5.82188 10.9778C5.8631 10.973 5.90487 10.9763 5.94479 10.9876C5.98472 10.9989 6.02202 11.0179 6.05455 11.0436C6.08728 11.0691 6.11463 11.1007 6.13506 11.1367C6.15548 11.1727 6.16856 11.2124 6.17356 11.2535C6.17855 11.2945 6.17535 11.3362 6.16415 11.376C6.15295 11.4158 6.13396 11.4531 6.10828 11.4856C6.07841 11.5235 6.04024 11.5541 5.99668 11.575C5.95311 11.596 5.90531 11.6067 5.85694 11.6064C5.78289 11.6046 5.71181 11.5771 5.65588 11.5287L5.66281 11.5391ZM6.74095 10.2408C6.7103 10.213 6.68554 10.1793 6.66813 10.1417C6.65072 10.1042 6.64101 10.0636 6.63955 10.0223C6.6381 9.98095 6.64494 9.93975 6.65968 9.9011C6.67441 9.86245 6.69674 9.8271 6.72535 9.79715C6.78276 9.73587 6.86216 9.69966 6.94626 9.69643C7.03035 9.69319 7.11231 9.7232 7.17429 9.77989C7.23493 9.83777 7.27036 9.91703 7.27295 10.0006C7.27555 10.0843 7.2451 10.1655 7.18816 10.227C7.15855 10.2589 7.12261 10.2842 7.08262 10.3015C7.04263 10.3187 6.99947 10.3274 6.95589 10.3272C6.91426 10.3269 6.87311 10.3182 6.83497 10.3016C6.79683 10.2849 6.76248 10.2607 6.73402 10.2305L6.74095 10.2408ZM7.91964 9.03581C7.8638 8.97322 7.83486 8.89128 7.83908 8.80765C7.84329 8.72402 7.88032 8.64538 7.94217 8.58867C7.97295 8.56065 8.00902 8.53902 8.04829 8.52505C8.08756 8.51107 8.12922 8.50503 8.17086 8.50728C8.2125 8.50953 8.25327 8.52002 8.29079 8.53815C8.32831 8.55627 8.36182 8.58167 8.38937 8.61284C8.44511 8.67515 8.474 8.7568 8.46978 8.84015C8.46556 8.9235 8.42859 9.00185 8.36684 9.05826C8.30835 9.11053 8.23221 9.13889 8.15364 9.13768C8.10961 9.13821 8.06597 9.12939 8.02563 9.11183C7.98528 9.09427 7.94916 9.06836 7.91964 9.03581ZM9.20579 7.943C9.18021 7.91002 9.16148 7.87231 9.15067 7.83205C9.13986 7.79179 9.13721 7.74979 9.14285 7.7085C9.1485 7.66721 9.16233 7.62746 9.18355 7.59154C9.20477 7.55563 9.23295 7.52427 9.26645 7.49931C9.29972 7.47429 9.33765 7.45608 9.37803 7.44574C9.4184 7.4354 9.46044 7.43314 9.5017 7.43908C9.54296 7.44502 9.58264 7.45904 9.61842 7.48034C9.65421 7.50165 9.6854 7.5298 9.71019 7.56319C9.76086 7.62986 9.78293 7.71382 9.77155 7.79666C9.76018 7.8795 9.7163 7.95448 9.64953 8.00516C9.59347 8.04536 9.5262 8.06709 9.45713 8.0673C9.40828 8.06724 9.36011 8.0558 9.31647 8.03392C9.27284 8.01204 9.23494 7.98032 9.20579 7.94127V7.943ZM10.5786 6.96586C10.5564 6.93054 10.5414 6.89118 10.5345 6.85006C10.5276 6.80893 10.5289 6.76686 10.5384 6.72626C10.5479 6.68565 10.5654 6.64733 10.5899 6.61349C10.6143 6.57964 10.6452 6.55095 10.6809 6.52907C10.7161 6.50701 10.7553 6.49214 10.7963 6.48531C10.8374 6.47849 10.8793 6.47985 10.9198 6.48933C10.9603 6.49881 10.9985 6.51621 11.0322 6.54052C11.0658 6.56483 11.0943 6.59556 11.116 6.63094C11.138 6.66595 11.1528 6.70495 11.1597 6.74569C11.1665 6.78643 11.1652 6.82811 11.1559 6.86836C11.1466 6.90861 11.1294 6.94663 11.1052 6.98024C11.0811 7.01386 11.0506 7.04241 11.0154 7.06427C10.9637 7.09708 10.9034 7.1139 10.8421 7.1126C10.7893 7.11107 10.7378 7.09676 10.6919 7.07088C10.646 7.04501 10.6071 7.00836 10.5786 6.96413V6.96586ZM12.0346 6.10266C12.0155 6.06585 12.0038 6.02562 12.0003 5.9843C11.9968 5.94299 12.0016 5.90138 12.0143 5.86191C12.027 5.82243 12.0475 5.78585 12.0745 5.75428C12.1015 5.72271 12.1345 5.69677 12.1716 5.67796C12.2085 5.65887 12.2489 5.64725 12.2904 5.64378C12.3319 5.6403 12.3736 5.64504 12.4133 5.65772C12.4529 5.6704 12.4896 5.69076 12.5213 5.71764C12.553 5.74452 12.5791 5.7774 12.598 5.81435C12.6171 5.85116 12.6288 5.89137 12.6323 5.93269C12.6358 5.97401 12.631 6.01561 12.6183 6.05509C12.6056 6.09457 12.5851 6.13115 12.5581 6.16272C12.5311 6.19429 12.4981 6.22023 12.461 6.23904C12.4162 6.26067 12.367 6.27189 12.3172 6.27184C12.2598 6.27262 12.2032 6.25796 12.1535 6.2294C12.1038 6.20084 12.0627 6.15943 12.0346 6.10956V6.10266ZM13.56 5.37584C13.5284 5.29819 13.5289 5.21128 13.5614 5.134C13.5938 5.05672 13.6556 4.99534 13.7333 4.96323C13.8111 4.93278 13.8978 4.93379 13.9748 4.96604C14.0519 4.99829 14.1132 5.05922 14.1459 5.13587C14.1769 5.21331 14.1761 5.2998 14.1437 5.37667C14.1113 5.45354 14.0498 5.51463 13.9725 5.54675C13.9355 5.56336 13.8953 5.57161 13.8547 5.57092C13.7924 5.57204 13.7311 5.55476 13.6787 5.52127C13.6263 5.48778 13.585 5.43959 13.56 5.38275V5.37584ZM15.1425 4.78541C15.13 4.74597 15.1254 4.70444 15.1291 4.66322C15.1327 4.622 15.1446 4.58192 15.1639 4.5453C15.1833 4.50868 15.2097 4.47625 15.2418 4.4499C15.2738 4.42355 15.3108 4.4038 15.3505 4.39179C15.3904 4.37928 15.4323 4.37476 15.4739 4.37851C15.5155 4.38226 15.5559 4.3942 15.5928 4.41363C15.6298 4.43306 15.6624 4.45961 15.689 4.49172C15.7155 4.52383 15.7354 4.56086 15.7475 4.60069C15.7598 4.64036 15.7642 4.68207 15.7603 4.72342C15.7564 4.76477 15.7444 4.80495 15.7249 4.84167C15.7054 4.87839 15.6789 4.91092 15.6468 4.93741C15.6146 4.9639 15.5776 4.98381 15.5377 4.99603C15.5072 5.00429 15.4758 5.00835 15.4441 5.00811C15.3774 5.0088 15.3121 4.98825 15.2578 4.94943C15.2036 4.91062 15.1632 4.85558 15.1425 4.79232V4.78541ZM16.7684 4.33655C16.7514 4.25463 16.7676 4.16935 16.8133 4.09921C16.8591 4.02907 16.9308 3.97973 17.0128 3.96191C17.0535 3.95304 17.0955 3.95227 17.1364 3.95963C17.1774 3.96699 17.2164 3.98235 17.2514 4.00481C17.2864 4.02728 17.3165 4.05641 17.3401 4.09053C17.3637 4.12464 17.3803 4.16308 17.389 4.20362C17.3979 4.24421 17.3986 4.28616 17.3911 4.32703C17.3836 4.3679 17.368 4.40689 17.3453 4.44173C17.3225 4.47657 17.2931 4.50658 17.2586 4.53001C17.2242 4.55344 17.1854 4.56983 17.1446 4.57824C17.1221 4.58087 17.0994 4.58087 17.077 4.57824C17.0067 4.57868 16.9383 4.55586 16.8824 4.51336C16.8266 4.47086 16.7865 4.4111 16.7684 4.34345V4.33655ZM18.4307 4.03097C18.4224 3.94899 18.4465 3.867 18.498 3.8025C18.5495 3.73799 18.6242 3.69608 18.7063 3.68569C18.7886 3.67738 18.871 3.70143 18.9357 3.75271C19.0005 3.80399 19.0426 3.87844 19.053 3.96019C19.0613 4.04218 19.0372 4.12416 18.9857 4.18866C18.9342 4.25317 18.8595 4.29509 18.7774 4.30547H18.7393C18.6631 4.30631 18.5892 4.27968 18.5312 4.2305C18.4732 4.18131 18.4351 4.11289 18.4238 4.03788L18.4307 4.03097Z" fill="white"/>
<path id="Vector_15" d="M11.6637 32.9431C11.634 32.914 11.6105 32.8793 11.5944 32.8411C11.5783 32.8028 11.57 32.7618 11.57 32.7204C11.57 32.6789 11.5783 32.6379 11.5944 32.5996C11.6105 32.5614 11.634 32.5267 11.6637 32.4977C11.693 32.4681 11.728 32.4446 11.7665 32.4285C11.8051 32.4125 11.8464 32.4042 11.8882 32.4042C11.9299 32.4042 11.9713 32.4125 12.0098 32.4285C12.0483 32.4446 12.0833 32.4681 12.1126 32.4977C12.1421 32.527 12.1655 32.5618 12.1815 32.6002C12.1975 32.6386 12.2057 32.6797 12.2057 32.7212C12.2057 32.7628 12.1975 32.8039 12.1815 32.8422C12.1655 32.8806 12.1421 32.9154 12.1126 32.9448C12.0533 33.0024 11.9736 33.0347 11.8908 33.0346C11.8487 33.035 11.807 33.0271 11.7681 33.0114C11.7291 32.9957 11.6936 32.9725 11.6637 32.9431ZM10.537 31.6379C10.5118 31.6049 10.4934 31.5672 10.4829 31.527C10.4724 31.4869 10.4699 31.4451 10.4757 31.404C10.4815 31.3629 10.4954 31.3233 10.5167 31.2876C10.5379 31.2519 10.566 31.2208 10.5994 31.1959C10.6322 31.1704 10.6699 31.1517 10.7102 31.141C10.7504 31.1303 10.7924 31.1278 10.8337 31.1336C10.8749 31.1394 10.9146 31.1534 10.9503 31.1748C10.9859 31.1962 11.0169 31.2245 11.0414 31.2581C11.0667 31.291 11.0852 31.3286 11.0959 31.3687C11.1065 31.4088 11.1091 31.4506 11.1035 31.4917C11.0978 31.5327 11.0841 31.5723 11.063 31.6081C11.042 31.6438 11.014 31.6751 10.9807 31.7001C10.9253 31.7402 10.8586 31.762 10.7901 31.7622C10.7402 31.7634 10.6908 31.7528 10.6458 31.7312C10.6009 31.7096 10.5618 31.6776 10.5318 31.6379H10.537ZM9.58019 30.205C9.55936 30.1691 9.54584 30.1294 9.5404 30.0882C9.53496 30.0471 9.53772 30.0053 9.5485 29.9652C9.55929 29.9251 9.57789 29.8876 9.60325 29.8547C9.62861 29.8217 9.66025 29.7941 9.69633 29.7734C9.76909 29.7318 9.85537 29.7204 9.93648 29.7418C10.0176 29.7631 10.087 29.8154 10.1297 29.8873C10.1505 29.9233 10.164 29.9629 10.1695 30.0041C10.1749 30.0452 10.1721 30.087 10.1614 30.1271C10.1506 30.1672 10.132 30.2047 10.1066 30.2377C10.0812 30.2706 10.0496 30.2982 10.0135 30.3189C9.96573 30.3468 9.91119 30.3612 9.8558 30.3604C9.80077 30.3604 9.7467 30.346 9.69896 30.3188C9.65123 30.2915 9.61147 30.2523 9.58366 30.205H9.58019ZM8.80885 28.665C8.79272 28.6265 8.7844 28.5852 8.78439 28.5435C8.78438 28.5017 8.79267 28.4604 8.80879 28.4219C8.8249 28.3834 8.84852 28.3484 8.87829 28.319C8.90805 28.2896 8.94337 28.2664 8.98219 28.2507C9.02086 28.2346 9.06234 28.2264 9.10424 28.2264C9.14615 28.2263 9.18764 28.2346 9.22632 28.2506C9.265 28.2667 9.3001 28.2902 9.3296 28.3199C9.3591 28.3495 9.38241 28.3847 9.39819 28.4233C9.41426 28.4616 9.42252 28.5027 9.42249 28.5442C9.42246 28.5857 9.41413 28.6267 9.398 28.665C9.38186 28.7032 9.35824 28.7379 9.32851 28.7669C9.29878 28.796 9.26355 28.8189 9.22485 28.8342C9.18545 28.8512 9.14299 28.86 9.10005 28.8601C9.03674 28.8608 8.97468 28.8426 8.92185 28.8078C8.86903 28.773 8.82786 28.7233 8.80365 28.665H8.80885ZM8.2351 27.0422C8.22346 27.0024 8.21983 26.9607 8.22444 26.9196C8.22904 26.8784 8.24178 26.8385 8.26192 26.8022C8.28206 26.766 8.3092 26.734 8.34178 26.7082C8.37437 26.6825 8.41174 26.6634 8.45177 26.6521C8.53268 26.6292 8.61941 26.6392 8.69287 26.68C8.76633 26.7208 8.82051 26.789 8.84351 26.8696C8.85512 26.9095 8.85868 26.9513 8.85396 26.9926C8.84925 27.0338 8.83637 27.0738 8.81606 27.1101C8.79575 27.1463 8.76841 27.1782 8.73563 27.2039C8.70285 27.2296 8.66529 27.2486 8.62511 27.2597C8.59694 27.2679 8.56776 27.272 8.53844 27.2718C8.46863 27.2735 8.40029 27.2517 8.34435 27.2101C8.28842 27.1685 8.24812 27.1094 8.22991 27.0422H8.2351ZM7.86417 25.3624C7.85776 25.3214 7.85953 25.2795 7.8694 25.2391C7.87926 25.1988 7.89702 25.1608 7.92165 25.1273C7.94628 25.0937 7.97731 25.0654 8.01295 25.0438C8.04859 25.0223 8.08815 25.0079 8.12937 25.0016C8.1705 24.995 8.21254 24.9966 8.25304 25.0064C8.29354 25.0161 8.33169 25.0338 8.36525 25.0584C8.39881 25.083 8.42712 25.114 8.44852 25.1496C8.46992 25.1852 8.484 25.2247 8.48991 25.2658C8.49656 25.3066 8.495 25.3483 8.48532 25.3886C8.47564 25.4288 8.45804 25.4667 8.43353 25.5001C8.40902 25.5335 8.37808 25.5618 8.34254 25.5832C8.30699 25.6046 8.26752 25.6188 8.22643 25.6249H8.17791C8.10202 25.6264 8.02809 25.6007 7.96957 25.5525C7.91105 25.5044 7.87181 25.4369 7.85896 25.3624H7.86417ZM7.70643 23.6464C7.70504 23.6051 7.71191 23.5639 7.72662 23.5252C7.74134 23.4866 7.76361 23.4512 7.79214 23.4211C7.82068 23.3911 7.85491 23.367 7.89286 23.3503C7.93081 23.3335 7.97173 23.3244 8.01324 23.3236C8.05481 23.3219 8.09629 23.3285 8.1353 23.343C8.17431 23.3574 8.21008 23.3793 8.24053 23.4076C8.27098 23.4358 8.29552 23.4698 8.31273 23.5075C8.32995 23.5452 8.3395 23.586 8.34084 23.6274C8.34272 23.7112 8.31142 23.7924 8.25369 23.8535C8.19596 23.9145 8.11644 23.9505 8.0323 23.9537C7.99016 23.9558 7.94802 23.9494 7.90838 23.935C7.86875 23.9206 7.83243 23.8984 7.80156 23.8697C7.77069 23.8411 7.7459 23.8066 7.72867 23.7682C7.71143 23.7298 7.70211 23.6884 7.70123 23.6464H7.70643ZM8.0531 22.2653C8.01138 22.2616 7.9708 22.2497 7.93371 22.2303C7.89662 22.211 7.86375 22.1844 7.837 22.1523C7.81025 22.1202 7.79014 22.0832 7.77785 22.0433C7.76556 22.0034 7.76131 21.9615 7.76537 21.92C7.77371 21.8364 7.81477 21.7595 7.87966 21.7058C7.94454 21.6522 8.02803 21.6262 8.11204 21.6334C8.19595 21.6417 8.27318 21.6826 8.32704 21.7472C8.38089 21.8119 8.40702 21.895 8.39977 21.9787C8.39241 22.0568 8.35596 22.1294 8.29757 22.1821C8.23919 22.2348 8.1631 22.2639 8.0843 22.2635H8.05483L8.0531 22.2653ZM8.2715 20.5976C8.18954 20.5789 8.11813 20.5292 8.07247 20.4589C8.02682 20.3886 8.01054 20.3033 8.02711 20.2212C8.04574 20.1394 8.09611 20.0682 8.16723 20.0233C8.23835 19.9783 8.32444 19.9632 8.40671 19.9812C8.48868 19.999 8.56022 20.0484 8.6057 20.1186C8.65118 20.1889 8.66689 20.2742 8.64937 20.3559C8.6333 20.4259 8.59388 20.4884 8.53753 20.5333C8.48118 20.5781 8.41123 20.6026 8.33911 20.6027L8.2715 20.5976ZM8.69271 18.9678C8.65342 18.9539 8.61728 18.9324 8.58634 18.9046C8.55541 18.8767 8.53029 18.8431 8.51242 18.8056C8.49455 18.7681 8.48428 18.7274 8.48221 18.6859C8.48013 18.6444 8.48628 18.603 8.50031 18.5639C8.51407 18.5248 8.53549 18.4889 8.56331 18.4581C8.59113 18.4274 8.62481 18.4025 8.66239 18.3848C8.69996 18.3671 8.74068 18.3571 8.78219 18.3552C8.8237 18.3534 8.86517 18.3597 8.90418 18.374C8.94336 18.3875 8.97946 18.4087 9.01042 18.4361C9.04139 18.4636 9.06661 18.4969 9.08464 18.5341C9.10267 18.5713 9.11316 18.6117 9.11551 18.6529C9.11786 18.6942 9.11202 18.7355 9.09832 18.7745C9.07663 18.8363 9.03606 18.8899 8.98229 18.9277C8.92852 18.9655 8.86423 18.9855 8.79844 18.9851C8.75817 18.9883 8.71766 18.9842 8.67885 18.973L8.69271 18.9678ZM9.31672 17.4037C9.2794 17.3854 9.24609 17.3598 9.21871 17.3286C9.19134 17.2974 9.17044 17.261 9.15723 17.2217C9.14401 17.1824 9.13875 17.1409 9.14173 17.0995C9.14471 17.0582 9.15588 17.0178 9.17459 16.9808C9.19304 16.9434 9.21873 16.91 9.25018 16.8825C9.28163 16.8551 9.31823 16.8341 9.35786 16.8207C9.39749 16.8074 9.43937 16.8021 9.4811 16.8049C9.52283 16.8078 9.56357 16.8188 9.60099 16.8375C9.67617 16.8752 9.73331 16.9411 9.75993 17.0206C9.78656 17.1002 9.78052 17.187 9.74312 17.2622C9.71644 17.314 9.67597 17.3575 9.62615 17.3879C9.57632 17.4183 9.51904 17.4346 9.46059 17.4348C9.40663 17.4402 9.35221 17.4313 9.30285 17.4089L9.31672 17.4037ZM10.1279 15.9259C10.0933 15.9033 10.0635 15.874 10.0403 15.8398C10.0171 15.8056 10.0009 15.7672 9.9927 15.7267C9.98448 15.6863 9.98438 15.6446 9.99242 15.6041C10.0005 15.5637 10.0165 15.5252 10.0395 15.4909C10.0624 15.4563 10.092 15.4266 10.1265 15.4035C10.1609 15.3803 10.1997 15.3642 10.2404 15.356C10.2812 15.3479 10.3231 15.3478 10.3639 15.3558C10.4047 15.3638 10.4435 15.3798 10.4781 15.4028C10.5476 15.4489 10.596 15.5206 10.6126 15.6021C10.6292 15.6837 10.6126 15.7685 10.5665 15.8379C10.5377 15.8811 10.4985 15.9166 10.4525 15.941C10.4065 15.9654 10.3551 15.978 10.303 15.9777C10.2366 15.9831 10.1702 15.9668 10.1141 15.9311L10.1279 15.9259ZM11.1142 14.5621C11.0825 14.5351 11.0565 14.5021 11.0376 14.4651C11.0188 14.428 11.0075 14.3876 11.0045 14.3462C11.0014 14.3048 11.0066 14.2632 11.0198 14.2238C11.033 14.1844 11.0539 14.148 11.0813 14.1166C11.1082 14.0852 11.1411 14.0593 11.1781 14.0406C11.2151 14.0218 11.2554 14.0105 11.2968 14.0073C11.3382 14.0041 11.3798 14.009 11.4193 14.0219C11.4587 14.0347 11.4953 14.0552 11.5268 14.0821C11.5906 14.1366 11.6302 14.2141 11.6367 14.2977C11.6432 14.3812 11.6161 14.4639 11.5614 14.5275C11.5317 14.5623 11.4948 14.5901 11.4532 14.6092C11.4116 14.6283 11.3663 14.6381 11.3205 14.638C11.2397 14.6417 11.1608 14.6138 11.1003 14.5603L11.1142 14.5621Z" fill="white"/>
<path id="Vector_16" d="M32.5524 31.5982C32.5187 31.5736 32.4903 31.5427 32.4688 31.5071C32.4472 31.4715 32.433 31.432 32.4268 31.3909C32.4207 31.3498 32.4228 31.3079 32.4331 31.2676C32.4433 31.2273 32.4615 31.1895 32.4865 31.1562C32.5369 31.0898 32.6114 31.0457 32.6941 31.0334C32.7767 31.0212 32.8609 31.0417 32.9285 31.0906C32.962 31.1153 32.9903 31.1464 33.0117 31.1821C33.0331 31.2177 33.0472 31.2572 33.0531 31.2983C33.0591 31.3394 33.0568 31.3813 33.0464 31.4215C33.0361 31.4617 33.0178 31.4995 32.9927 31.5326C32.9634 31.572 32.9253 31.6039 32.8813 31.6258C32.8373 31.6477 32.7888 31.659 32.7396 31.6586C32.6722 31.6595 32.6064 31.6383 32.5524 31.5982ZM33.504 30.2171C33.4312 30.1752 33.3779 30.1063 33.3559 30.0254C33.3338 29.9446 33.3447 29.8584 33.3861 29.7855C33.4066 29.7495 33.4341 29.7178 33.4669 29.6924C33.4998 29.667 33.5373 29.6483 33.5774 29.6374C33.6175 29.6265 33.6594 29.6236 33.7007 29.6288C33.7419 29.6341 33.7817 29.6475 33.8177 29.6681C33.8538 29.6884 33.8855 29.7155 33.9111 29.748C33.9366 29.7805 33.9555 29.8177 33.9666 29.8575C33.9777 29.8972 33.9808 29.9388 33.9758 29.9798C33.9708 30.0207 33.9577 30.0603 33.9373 30.0962C33.9098 30.1449 33.8697 30.1854 33.8213 30.2136C33.7729 30.2418 33.7178 30.2567 33.6617 30.2568C33.606 30.2549 33.5517 30.2388 33.504 30.2102V30.2171ZM34.2805 28.7203C34.2418 28.7048 34.2065 28.6817 34.1768 28.6525C34.147 28.6233 34.1234 28.5885 34.1073 28.5501C34.0912 28.5117 34.0828 28.4705 34.0828 28.4289C34.0828 28.3873 34.0911 28.3461 34.1072 28.3077C34.1228 28.2691 34.1459 28.2339 34.1753 28.2043C34.2046 28.1747 34.2396 28.1512 34.2781 28.1351C34.3167 28.119 34.358 28.1108 34.3998 28.1108C34.4416 28.1108 34.4829 28.119 34.5215 28.135C34.5603 28.1502 34.5957 28.173 34.6256 28.202C34.6554 28.231 34.6792 28.2657 34.6953 28.304C34.7115 28.3423 34.7198 28.3835 34.7197 28.425C34.7196 28.4666 34.7111 28.5077 34.6948 28.5459C34.6716 28.604 34.6314 28.6537 34.5795 28.6888C34.5276 28.7239 34.4663 28.7427 34.4036 28.7427C34.3612 28.7427 34.3193 28.7339 34.2805 28.7168V28.7203ZM34.8647 27.1424C34.7839 27.1202 34.7153 27.067 34.6737 26.9946C34.6321 26.9221 34.621 26.8362 34.6428 26.7556C34.6538 26.7154 34.6727 26.6778 34.6984 26.6449C34.7241 26.612 34.7561 26.5845 34.7925 26.5639C34.8289 26.5434 34.869 26.5302 34.9106 26.5252C34.9521 26.5202 34.9943 26.5234 35.0346 26.5347C35.1149 26.5572 35.1831 26.6106 35.224 26.6831C35.2649 26.7556 35.2754 26.8413 35.253 26.9214C35.2353 26.988 35.1959 27.0468 35.141 27.0887C35.0861 27.1306 35.0188 27.1531 34.9496 27.1527C34.9206 27.1513 34.892 27.1455 34.8647 27.1355V27.1424ZM35.2478 25.504C35.1648 25.4912 35.0902 25.4463 35.0402 25.3791C34.9902 25.3119 34.9689 25.2277 34.9808 25.1449C34.9865 25.1039 35.0004 25.0643 35.0216 25.0287C35.0428 24.993 35.0709 24.9619 35.1043 24.9371C35.1377 24.9124 35.1757 24.8945 35.2161 24.8845C35.2565 24.8746 35.2985 24.8727 35.3396 24.879C35.4226 24.8914 35.4973 24.9359 35.5476 25.0028C35.5979 25.0697 35.6197 25.1536 35.6083 25.2364C35.5971 25.3115 35.5593 25.38 35.5018 25.4298C35.4443 25.4795 35.3707 25.507 35.2946 25.5075L35.2478 25.504ZM35.4211 23.8277C35.3795 23.827 35.3385 23.8181 35.3004 23.8016C35.2622 23.7851 35.2277 23.7612 35.1989 23.7314C35.1701 23.7015 35.1475 23.6663 35.1323 23.6277C35.1172 23.5891 35.1099 23.548 35.1108 23.5066C35.1131 23.4231 35.1485 23.3439 35.2092 23.2863C35.27 23.2287 35.3511 23.1974 35.435 23.1993C35.4765 23.1999 35.5176 23.2088 35.5557 23.2253C35.5938 23.2418 35.6283 23.2657 35.6571 23.2955C35.686 23.3254 35.7086 23.3606 35.7237 23.3992C35.7388 23.4378 35.7462 23.479 35.7452 23.5204C35.743 23.6027 35.7086 23.6808 35.6493 23.7382C35.5901 23.7956 35.5107 23.8277 35.428 23.8277H35.4211ZM35.045 21.8647C35.0372 21.7815 35.0627 21.6986 35.1159 21.634C35.1691 21.5693 35.2458 21.5282 35.3292 21.5195C35.4129 21.5113 35.4964 21.5365 35.5614 21.5896C35.6264 21.6427 35.6676 21.7193 35.6759 21.8026C35.6841 21.8857 35.6591 21.9686 35.6061 22.0333C35.5532 22.098 35.4767 22.1392 35.3934 22.1479H35.3587C35.2805 22.1456 35.2059 22.1148 35.149 22.0614C35.0921 22.0079 35.0569 21.9355 35.0502 21.8578L35.045 21.8647ZM34.7798 20.2437C34.7705 20.2033 34.7694 20.1615 34.7765 20.1207C34.7835 20.0799 34.7986 20.0409 34.8208 20.006C34.8431 19.971 34.872 19.9407 34.906 19.917C34.94 19.8932 34.9784 19.8763 35.019 19.8673C35.0594 19.8578 35.1013 19.8564 35.1422 19.8631C35.1832 19.8697 35.2224 19.8844 35.2577 19.9062C35.293 19.928 35.3236 19.9566 35.3477 19.9902C35.3719 20.0238 35.3892 20.0618 35.3986 20.1021C35.4078 20.1426 35.4089 20.1844 35.4019 20.2254C35.3949 20.2663 35.3798 20.3054 35.3576 20.3405C35.3354 20.3756 35.3064 20.406 35.2724 20.43C35.2384 20.4539 35.2 20.471 35.1594 20.4802C35.1358 20.4836 35.1119 20.4836 35.0883 20.4802C35.0177 20.4793 34.9494 20.4548 34.8944 20.4107C34.8394 20.3665 34.8009 20.3053 34.785 20.2368L34.7798 20.2437ZM34.3152 18.6674C34.3009 18.6286 34.2944 18.5873 34.2961 18.5459C34.2978 18.5045 34.3078 18.4639 34.3253 18.4263C34.3429 18.3888 34.3677 18.3551 34.3984 18.3271C34.4291 18.2992 34.465 18.2775 34.5042 18.2635C34.5432 18.2492 34.5847 18.2427 34.6262 18.2444C34.6678 18.2462 34.7086 18.2561 34.7462 18.2736C34.7839 18.291 34.8178 18.3158 34.8459 18.3463C34.8739 18.3769 34.8956 18.4127 34.9098 18.4516C34.9246 18.4905 34.9315 18.5319 34.93 18.5734C34.9285 18.6149 34.9186 18.6557 34.901 18.6934C34.8834 18.7311 34.8583 18.7648 34.8274 18.7927C34.7965 18.8206 34.7602 18.842 34.7208 18.8556C34.6865 18.8685 34.65 18.8749 34.6134 18.8746C34.5484 18.8731 34.4855 18.8518 34.4331 18.8135C34.3807 18.7752 34.3414 18.7218 34.3204 18.6605L34.3152 18.6674ZM33.6635 17.1499C33.6444 17.113 33.6328 17.0727 33.6294 17.0313C33.6261 16.9899 33.631 16.9483 33.6439 16.9088C33.6568 16.8693 33.6774 16.8327 33.7045 16.8012C33.7317 16.7697 33.7649 16.7439 33.8021 16.7252C33.8769 16.6878 33.9635 16.6813 34.043 16.7072C34.1226 16.7331 34.1886 16.7892 34.2268 16.8634C34.2459 16.9 34.2576 16.9401 34.261 16.9813C34.2645 17.0225 34.2597 17.064 34.247 17.1033C34.2343 17.1427 34.2138 17.1791 34.1869 17.2105C34.1599 17.2419 34.1269 17.2677 34.0899 17.2863C34.0459 17.3106 33.9963 17.3231 33.946 17.3226C33.8875 17.3224 33.8303 17.3061 33.7805 17.2757C33.7306 17.2452 33.6902 17.2017 33.6635 17.1499ZM32.8245 15.736C32.801 15.7019 32.7846 15.6634 32.7761 15.6229C32.7677 15.5824 32.7674 15.5406 32.7753 15.4999C32.7832 15.4593 32.7991 15.4206 32.8222 15.3862C32.8452 15.3517 32.8749 15.3222 32.9095 15.2992C32.9436 15.2755 32.9821 15.2588 33.0227 15.2502C33.0634 15.2415 33.1054 15.241 33.1462 15.2487C33.1871 15.2564 33.226 15.2722 33.2607 15.2951C33.2953 15.318 33.325 15.3476 33.348 15.3821C33.3715 15.4164 33.388 15.455 33.3965 15.4956C33.405 15.5363 33.4053 15.5782 33.3974 15.619C33.3895 15.6598 33.3735 15.6986 33.3505 15.7332C33.3274 15.7678 33.2977 15.7975 33.2631 15.8206C33.2119 15.8555 33.1517 15.8747 33.0897 15.8759C33.0376 15.8772 32.9859 15.8654 32.9396 15.8415C32.8932 15.8177 32.8537 15.7826 32.8245 15.7395V15.736ZM31.8157 14.4343C31.7613 14.3709 31.7338 14.2889 31.7393 14.2056C31.7449 14.1224 31.7828 14.0446 31.8452 13.9889C31.9089 13.9339 31.992 13.9063 32.0761 13.9121C32.1602 13.918 32.2386 13.9567 32.2941 14.02C32.349 14.0832 32.3767 14.1653 32.3712 14.2487C32.3657 14.3321 32.3274 14.4099 32.2646 14.4654C32.2064 14.5155 32.1319 14.5431 32.0549 14.5431C32.0099 14.5431 31.9653 14.5338 31.9241 14.5157C31.8829 14.4975 31.846 14.471 31.8157 14.4378V14.4343ZM30.6561 13.2655C30.5941 13.2094 30.5568 13.1311 30.5523 13.0478C30.5477 12.9644 30.5763 12.8827 30.6318 12.8201C30.6594 12.789 30.6929 12.7637 30.7303 12.7455C30.7678 12.7274 30.8084 12.7168 30.85 12.7144C30.8916 12.712 30.9332 12.7178 30.9725 12.7315C31.0118 12.7452 31.048 12.7665 31.079 12.7942C31.1415 12.8505 31.1792 12.929 31.1837 13.0128C31.1883 13.0966 31.1594 13.1788 31.1033 13.2414C31.0733 13.2745 31.0367 13.3009 30.9958 13.3191C30.9549 13.3372 30.9106 13.3466 30.8658 13.3467C30.7889 13.3461 30.7147 13.3186 30.6561 13.269V13.2655Z" fill="white"/>
</g>
</g>
<defs>
<clipPath id="clip0_130_7388">
<rect width="43" height="45" fill="white"/>
</clipPath>
</defs>
</svg>
