<svg width="41" height="47" viewBox="0 0 41 47" fill="none" xmlns="http://www.w3.org/2000/svg">
<g id="46176-O4US4T 3" clip-path="url(#clip0_130_7166)">
<g id="Objects">
<path id="Vector" d="M20.5455 34.4784C18.511 34.4784 16.5222 33.8611 14.8306 32.7045C13.139 31.548 11.8206 29.9042 11.042 27.9809C10.2635 26.0577 10.0598 23.9414 10.4567 21.8997C10.8536 19.858 11.8333 17.9825 13.2719 16.5105C14.7105 15.0385 16.5433 14.0361 18.5387 13.63C20.5341 13.2239 22.6024 13.4323 24.482 14.2289C26.3616 15.0256 27.9681 16.3746 29.0984 18.1055C30.2287 19.8364 30.832 21.8713 30.832 23.9531C30.829 26.7436 29.7443 29.419 27.8158 31.3922C25.8874 33.3654 23.2727 34.4753 20.5455 34.4784ZM20.5455 13.8343C18.5887 13.8343 16.6758 14.4281 15.0487 15.5405C13.4217 16.6529 12.1535 18.234 11.4047 20.0839C10.6558 21.9337 10.4599 23.9693 10.8416 25.9331C11.2234 27.8969 12.1657 29.7007 13.5494 31.1166C14.9331 32.5324 16.696 33.4966 18.6153 33.8872C20.5345 34.2778 22.5239 34.0773 24.3318 33.3111C26.1397 32.5449 27.6849 31.2473 28.772 29.5825C29.8592 27.9176 30.4395 25.9603 30.4395 23.958C30.4395 22.6286 30.1836 21.3121 29.6863 20.0839C29.1891 18.8556 28.4603 17.7396 27.5416 16.7995C26.6229 15.8594 25.5322 15.1137 24.3318 14.605C23.1314 14.0962 21.8448 13.8343 20.5455 13.8343Z" fill="white"/>
<path id="Vector_2" d="M20.5455 29.6867C14.9465 29.6867 10.3515 24.1386 10.306 24.0839C10.2761 24.0474 10.2596 24.0012 10.2596 23.9536C10.2596 23.9059 10.2761 23.8598 10.306 23.8233C10.3515 23.7685 14.9465 18.2188 20.5455 18.2188C26.1445 18.2188 30.7395 23.7685 30.7866 23.8233C30.8157 23.8602 30.8315 23.9062 30.8315 23.9536C30.8315 24.001 30.8157 24.047 30.7866 24.0839C30.7395 24.1386 26.1445 29.6867 20.5455 29.6867ZM10.7196 23.9527C11.443 24.7826 15.6066 29.2834 20.5455 29.2834C25.4844 29.2834 29.648 24.7826 30.3713 23.9544C29.648 23.1246 25.486 18.6237 20.5455 18.6237C15.605 18.6237 11.443 23.1246 10.7196 23.9527Z" fill="white"/>
<path id="Vector_3" d="M20.5455 29.7185C19.4307 29.7185 18.341 29.3802 17.4141 28.7465C16.4872 28.1128 15.7648 27.2121 15.3382 26.1583C14.9116 25.1045 14.8 23.9449 15.0175 22.8261C15.235 21.7074 15.7718 20.6798 16.56 19.8733C17.3483 19.0667 18.3526 18.5174 19.4459 18.2949C20.5393 18.0724 21.6725 18.1866 22.7024 18.6231C23.7323 19.0596 24.6126 19.7988 25.2319 20.7472C25.8513 21.6956 26.1818 22.8106 26.1818 23.9513C26.1805 25.4804 25.5863 26.9466 24.5296 28.0278C23.4728 29.1091 22.04 29.7171 20.5455 29.7185ZM20.5455 18.599C19.5084 18.5977 18.4942 18.9113 17.6314 19.5C16.7686 20.0888 16.0959 20.9263 15.6985 21.9065C15.3011 22.8867 15.1968 23.9655 15.399 25.0063C15.6011 26.0472 16.1005 27.0032 16.834 27.7535C17.5674 28.5037 18.5019 29.0144 19.5192 29.221C20.5365 29.4275 21.5908 29.3205 22.5486 28.9135C23.5064 28.5066 24.3247 27.818 24.8999 26.935C25.475 26.0519 25.7812 25.0141 25.7796 23.9529C25.7757 22.5339 25.223 21.1741 24.2422 20.1709C23.2614 19.1676 21.9323 18.6025 20.5455 18.599Z" fill="white"/>
<path id="Vector_4" d="M20.5455 27.2819C19.902 27.2819 19.2729 27.0867 18.7379 26.7209C18.2028 26.355 17.7858 25.8351 17.5395 25.2268C17.2932 24.6184 17.2288 23.949 17.3544 23.3032C17.4799 22.6574 17.7898 22.0642 18.2448 21.5986C18.6998 21.133 19.2796 20.816 19.9107 20.6875C20.5419 20.559 21.1961 20.625 21.7906 20.877C22.3851 21.1289 22.8933 21.5556 23.2508 22.1031C23.6083 22.6506 23.7992 23.2943 23.7992 23.9527C23.7983 24.8354 23.4552 25.6817 22.8452 26.3059C22.2352 26.93 21.4082 27.2811 20.5455 27.2819ZM20.5455 21.0285C19.9798 21.0282 19.4267 21.1995 18.9562 21.5209C18.4857 21.8423 18.119 22.2992 17.9023 22.8339C17.6857 23.3686 17.6289 23.9571 17.7392 24.5248C17.8495 25.0925 18.1219 25.614 18.5219 26.0233C18.9219 26.4326 19.4316 26.7113 19.9864 26.8242C20.5413 26.937 21.1163 26.8789 21.6389 26.6573C22.1615 26.4356 22.6081 26.0603 22.9222 25.5789C23.2362 25.0975 23.4037 24.5316 23.4034 23.9527C23.4025 23.1774 23.1012 22.4342 22.5654 21.8859C22.0296 21.3377 21.3032 21.0294 20.5455 21.0285Z" fill="white"/>
<path id="Vector_5" d="M20.7434 6.73926H20.3476V13.63H20.7434V6.73926Z" fill="white"/>
<path id="Vector_6" d="M20.7434 34.2788H20.3476V41.1696H20.7434V34.2788Z" fill="white"/>
<path id="Vector_7" d="M37.3701 23.752H30.6357V24.1569H37.3701V23.752Z" fill="white"/>
<path id="Vector_8" d="M10.4553 23.752H3.72089V24.1569H10.4553V23.752Z" fill="white"/>
<path id="Vector_9" d="M27.8199 31.1121L27.5401 31.3984L32.302 36.2709L32.5818 35.9846L27.8199 31.1121Z" fill="white"/>
<path id="Vector_10" d="M8.78717 11.638L8.50732 11.9243L13.2704 16.798L13.5502 16.5116L8.78717 11.638Z" fill="white"/>
<path id="Vector_11" d="M13.2712 31.1109L8.50926 35.9834L8.78911 36.2697L13.551 31.3972L13.2712 31.1109Z" fill="white"/>
<path id="Vector_12" d="M32.3028 11.6387L27.5409 16.5112L27.8207 16.7976L32.5827 11.9251L32.3028 11.6387Z" fill="white"/>
<path id="Vector_13" d="M28.4588 4.27959L25.2198 12.1255L25.5844 12.2831L28.8234 4.43716L28.4588 4.27959Z" fill="white"/>
<path id="Vector_14" d="M15.5093 35.6326L12.2702 43.4785L12.6348 43.6361L15.8738 35.7902L15.5093 35.6326Z" fill="white"/>
<path id="Vector_15" d="M32.112 28.7383L31.9579 29.1113L39.6252 32.4269L39.7793 32.0539L32.112 28.7383Z" fill="white"/>
<path id="Vector_16" d="M1.46882 15.4893L1.31476 15.8623L8.98206 19.1779L9.13612 18.8049L1.46882 15.4893Z" fill="white"/>
<path id="Vector_17" d="M25.4172 35.7056L25.0504 35.8579L28.1808 43.7499L28.5475 43.5976L25.4172 35.7056Z" fill="white"/>
<path id="Vector_18" d="M13.0458 4.11614L12.6777 4.27002L15.8408 12.191L16.2089 12.0371L13.0458 4.11614Z" fill="white"/>
<path id="Vector_19" d="M8.91563 28.5689L1.20219 31.7705L1.35096 32.1458L9.0644 28.9441L8.91563 28.5689Z" fill="white"/>
<path id="Vector_20" d="M39.7373 15.7647L32.0238 18.9663L32.1726 19.3416L39.8861 16.1399L39.7373 15.7647Z" fill="white"/>
<path id="Vector_21" d="M23.1001 25.664H17.9942C17.9759 25.6665 17.9573 25.6665 17.939 25.664C17.9161 25.658 17.8946 25.6472 17.8758 25.6325C17.8524 25.6161 17.833 25.5946 17.819 25.5694C17.8053 25.545 17.797 25.5178 17.7947 25.4898C17.7939 25.4826 17.7939 25.4754 17.7947 25.4682C17.7923 25.4511 17.7923 25.4338 17.7947 25.4167C17.7997 25.3988 17.8068 25.3815 17.8157 25.3653L20.3687 20.8428C20.3873 20.8137 20.4127 20.7898 20.4425 20.7733C20.4724 20.7567 20.5059 20.748 20.5398 20.748C20.5738 20.748 20.6072 20.7567 20.6371 20.7733C20.667 20.7898 20.6924 20.8137 20.7109 20.8428L23.2623 25.3653C23.2719 25.3812 23.279 25.3986 23.2834 25.4167C23.2858 25.4338 23.2858 25.4511 23.2834 25.4682V25.4898C23.2797 25.5178 23.2709 25.5448 23.2574 25.5694C23.2439 25.5949 23.2244 25.6166 23.2007 25.6325C23.1819 25.6472 23.1603 25.658 23.1374 25.664C23.125 25.6653 23.1125 25.6653 23.1001 25.664ZM18.3348 25.2591H22.7562L20.5455 21.3407L18.3348 25.2591Z" fill="white"/>
<path id="Vector_22" d="M19.6356 39.958C19.6018 39.9381 19.5722 39.9116 19.5485 39.8799C19.5248 39.8483 19.5073 39.8122 19.4973 39.7736C19.4872 39.7351 19.4846 39.6949 19.4897 39.6554C19.4948 39.6158 19.5074 39.5777 19.5269 39.5431C19.5464 39.5088 19.5723 39.4787 19.6031 39.4546C19.6339 39.4305 19.6691 39.4129 19.7066 39.4027C19.7442 39.3925 19.7833 39.39 19.8217 39.3953C19.8602 39.4006 19.8972 39.4136 19.9308 39.4336C19.9988 39.4736 20.0486 39.5395 20.0693 39.6169C20.0899 39.6944 20.0798 39.777 20.0411 39.8468C20.0145 39.8927 19.9767 39.9306 19.9316 39.9571C19.8864 39.9836 19.8352 39.9976 19.7832 39.9979C19.7313 39.9986 19.6803 39.9849 19.6356 39.958ZM20.8958 39.6178C20.8761 39.5833 20.8633 39.5452 20.8581 39.5056C20.8529 39.466 20.8554 39.4257 20.8655 39.3872C20.8756 39.3486 20.8931 39.3124 20.917 39.2808C20.9408 39.2492 20.9706 39.2227 21.0045 39.2029C21.0383 39.183 21.0755 39.17 21.1142 39.1648C21.1528 39.1596 21.1921 39.1622 21.2298 39.1726C21.2674 39.1829 21.3027 39.2007 21.3336 39.225C21.3646 39.2493 21.3905 39.2796 21.41 39.3141C21.4295 39.3485 21.4421 39.3865 21.4471 39.426C21.4522 39.4654 21.4496 39.5054 21.4395 39.5438C21.4294 39.5822 21.412 39.6182 21.3883 39.6497C21.3646 39.6812 21.335 39.7076 21.3013 39.7274C21.2567 39.7547 21.2058 39.7696 21.1537 39.7705C21.1014 39.7706 21.05 39.7565 21.0047 39.7297C20.9594 39.7029 20.9219 39.6643 20.8958 39.6178ZM18.265 39.1481C18.2313 39.1284 18.2018 39.102 18.178 39.0705C18.1543 39.039 18.1369 39.003 18.1268 38.9646C18.1167 38.9262 18.1141 38.8862 18.1192 38.8467C18.1243 38.8073 18.1369 38.7693 18.1563 38.7349C18.196 38.6654 18.2609 38.6149 18.3369 38.5943C18.413 38.5738 18.4939 38.5849 18.5618 38.6254C18.5955 38.645 18.625 38.6712 18.6487 38.7026C18.6724 38.7339 18.6898 38.7698 18.6999 38.808C18.71 38.8463 18.7126 38.8862 18.7076 38.9255C18.7025 38.9648 18.6899 39.0027 18.6705 39.037C18.6445 39.0834 18.6069 39.122 18.5616 39.1488C18.5164 39.1756 18.4649 39.1897 18.4126 39.1896C18.3606 39.1904 18.3094 39.176 18.265 39.1481ZM22.2664 38.8162C22.2467 38.7817 22.2339 38.7436 22.2287 38.704C22.2235 38.6644 22.226 38.6241 22.2361 38.5856C22.2462 38.547 22.2637 38.5108 22.2875 38.4792C22.3114 38.4476 22.3411 38.4211 22.3751 38.4013C22.4087 38.3812 22.4458 38.3681 22.4844 38.3628C22.5229 38.3575 22.5622 38.3601 22.5997 38.3704C22.6373 38.3808 22.6725 38.3987 22.7033 38.4231C22.7341 38.4475 22.7598 38.4779 22.7789 38.5125C22.7983 38.547 22.8109 38.5851 22.8158 38.6246C22.8208 38.6641 22.818 38.7042 22.8078 38.7426C22.7975 38.781 22.78 38.817 22.7561 38.8484C22.7322 38.8798 22.7025 38.9061 22.6686 38.9258C22.6247 38.9531 22.5741 38.9675 22.5227 38.9673C22.4701 38.9667 22.4186 38.9518 22.3736 38.9241C22.3285 38.8964 22.2915 38.8568 22.2664 38.8096V38.8162ZM16.8945 38.3482C16.8269 38.3073 16.7777 38.241 16.7574 38.1634C16.7371 38.0859 16.7473 38.0033 16.7858 37.9333C16.8257 37.8642 16.8907 37.8139 16.9666 37.7934C17.0425 37.7729 17.1232 37.7838 17.1913 37.8238C17.2251 37.8434 17.2549 37.8697 17.2787 37.9012C17.3025 37.9327 17.32 37.9687 17.3301 38.0071C17.3402 38.0456 17.3428 38.0857 17.3376 38.1252C17.3324 38.1646 17.3196 38.2027 17.3 38.237C17.2739 38.2829 17.2365 38.321 17.1915 38.3475C17.1465 38.374 17.0956 38.388 17.0437 38.388C16.9914 38.3884 16.9399 38.3747 16.8945 38.3482ZM23.6353 38.008C23.5958 37.9384 23.5849 37.8557 23.605 37.7779C23.6251 37.7001 23.6745 37.6336 23.7424 37.5931C23.7761 37.5731 23.8134 37.5602 23.8521 37.555C23.8907 37.5498 23.93 37.5524 23.9676 37.5627C24.0053 37.5731 24.0406 37.5909 24.0715 37.6152C24.1024 37.6395 24.1284 37.6697 24.1479 37.7043C24.1675 37.7386 24.1803 37.7767 24.1855 37.8161C24.1907 37.8556 24.1882 37.8957 24.1781 37.9342C24.1679 37.9726 24.1505 38.0086 24.1266 38.0401C24.1028 38.0716 24.0731 38.0979 24.0392 38.1175C23.9947 38.1453 23.9437 38.1603 23.8916 38.1607C23.8387 38.1598 23.787 38.1444 23.7419 38.1161C23.6969 38.0878 23.66 38.0476 23.6353 37.9997V38.008ZM15.5255 37.5383C15.4578 37.4981 15.4083 37.432 15.388 37.3546C15.3676 37.2772 15.378 37.1947 15.4169 37.1251C15.4565 37.0556 15.5214 37.005 15.5975 36.9845C15.6735 36.9639 15.7544 36.9751 15.8223 37.0155C15.856 37.0352 15.8855 37.0614 15.9092 37.0927C15.9329 37.1241 15.9503 37.1599 15.9604 37.1982C15.9705 37.2364 15.9731 37.2764 15.9681 37.3157C15.963 37.3549 15.9504 37.3928 15.931 37.4271C15.9053 37.4738 15.8678 37.5126 15.8224 37.5394C15.7771 37.5663 15.7255 37.5802 15.6731 37.5798C15.6203 37.5779 15.5691 37.5606 15.5255 37.53V37.5383ZM25.0043 37.2064C24.9848 37.1718 24.9721 37.1337 24.967 37.0942C24.962 37.0546 24.9645 37.0144 24.9746 36.9759C24.9847 36.9374 25.0021 36.9013 25.0259 36.8696C25.0496 36.838 25.0792 36.8114 25.1129 36.7915C25.1466 36.7713 25.1839 36.7582 25.2226 36.7529C25.2613 36.7475 25.3007 36.7501 25.3384 36.7605C25.3761 36.7708 25.4114 36.7887 25.4423 36.8131C25.4732 36.8375 25.4991 36.868 25.5184 36.9027C25.5574 36.9725 25.5678 37.0553 25.5474 37.133C25.5271 37.2107 25.4776 37.277 25.4098 37.3176C25.3642 37.3439 25.3128 37.3576 25.2605 37.3574C25.2068 37.3551 25.1546 37.3379 25.1095 37.3079C25.0644 37.2778 25.0281 37.2359 25.0043 37.1865V37.2064ZM14.1566 36.7367C14.1228 36.7168 14.0932 36.6902 14.0695 36.6586C14.0458 36.6269 14.0284 36.5908 14.0183 36.5523C14.0082 36.5138 14.0056 36.4736 14.0107 36.434C14.0158 36.3945 14.0284 36.3564 14.0479 36.3218C14.0879 36.2527 14.1527 36.2024 14.2285 36.1816C14.3043 36.1608 14.385 36.1712 14.4534 36.2106C14.5213 36.2512 14.5707 36.3176 14.5908 36.3954C14.6109 36.4732 14.6 36.556 14.5605 36.6255C14.5345 36.6715 14.4971 36.7097 14.4521 36.7362C14.4071 36.7628 14.3561 36.7767 14.3042 36.7766C14.2509 36.7729 14.1998 36.7539 14.1566 36.7218V36.7367ZM26.3748 36.3965C26.3553 36.362 26.3427 36.3238 26.3376 36.2843C26.3325 36.2447 26.3351 36.2045 26.3452 36.166C26.3553 36.1275 26.3727 36.0914 26.3964 36.0597C26.4201 36.0281 26.4497 36.0015 26.4835 35.9816C26.5171 35.9617 26.5543 35.9488 26.5928 35.9436C26.6313 35.9384 26.6705 35.9411 26.708 35.9514C26.7455 35.9617 26.7807 35.9795 26.8115 36.0038C26.8422 36.0281 26.868 36.0583 26.8874 36.0928C26.9069 36.1273 26.9195 36.1655 26.9246 36.205C26.9297 36.2446 26.9271 36.2847 26.917 36.3233C26.9069 36.3618 26.8895 36.3979 26.8658 36.4296C26.8421 36.4612 26.8125 36.4878 26.7787 36.5077C26.7338 36.5343 26.683 36.5486 26.6311 36.5492C26.5775 36.5477 26.5254 36.5313 26.4802 36.5017C26.4351 36.4722 26.3987 36.4307 26.3748 36.3816V36.3965ZM12.7876 35.9268C12.7538 35.9072 12.7241 35.8809 12.7002 35.8494C12.6764 35.8179 12.6589 35.7819 12.6488 35.7435C12.6387 35.705 12.6361 35.6649 12.6413 35.6254C12.6465 35.586 12.6593 35.5479 12.679 35.5136C12.7187 35.4442 12.7834 35.3935 12.8592 35.3724C12.935 35.3513 13.0159 35.3615 13.0845 35.4007C13.1517 35.4419 13.2006 35.5082 13.2209 35.5857C13.2412 35.6631 13.2312 35.7456 13.1931 35.8156C13.1674 35.8623 13.1299 35.9011 13.0845 35.9279C13.0392 35.9548 12.9876 35.9687 12.9352 35.9683C12.8818 35.9643 12.8306 35.9447 12.7876 35.9119V35.9268ZM27.7438 35.5949C27.7243 35.5604 27.7116 35.5222 27.7065 35.4827C27.7014 35.4431 27.704 35.4029 27.7141 35.3644C27.7242 35.3259 27.7416 35.2898 27.7654 35.2581C27.7891 35.2265 27.8187 35.1999 27.8524 35.18C27.8861 35.1598 27.9234 35.1467 27.9621 35.1414C28.0008 35.1361 28.0402 35.1386 28.0779 35.149C28.1156 35.1593 28.1509 35.1772 28.1818 35.2016C28.2127 35.226 28.2386 35.2565 28.2579 35.2912C28.2969 35.3611 28.3073 35.4438 28.2869 35.5215C28.2666 35.5992 28.2171 35.6655 28.1493 35.7061C28.1041 35.7318 28.0533 35.7455 28.0017 35.7459C27.9474 35.7439 27.8947 35.7267 27.8493 35.6963C27.8038 35.6659 27.7673 35.6234 27.7438 35.5733V35.5949ZM11.4171 35.1252C11.3833 35.1053 11.3537 35.0787 11.33 35.0471C11.3063 35.0155 11.2889 34.9793 11.2788 34.9408C11.2687 34.9023 11.2661 34.8621 11.2712 34.8225C11.2763 34.783 11.2889 34.7449 11.3084 34.7103C11.3484 34.6412 11.4132 34.5909 11.489 34.5701C11.5648 34.5493 11.6455 34.5597 11.7139 34.5991C11.7477 34.6191 11.7773 34.6456 11.801 34.6773C11.8247 34.7089 11.8421 34.745 11.8522 34.7835C11.8623 34.8221 11.8649 34.8623 11.8598 34.9018C11.8547 34.9414 11.8421 34.9795 11.8226 35.014C11.797 35.0604 11.7597 35.0989 11.7146 35.1254C11.6696 35.152 11.6183 35.1657 11.5663 35.1651C11.5119 35.1595 11.4601 35.1382 11.4171 35.1037V35.1252ZM29.1143 34.785C29.0946 34.7505 29.0818 34.7124 29.0766 34.6728C29.0714 34.6332 29.0739 34.5929 29.084 34.5543C29.0941 34.5158 29.1116 34.4796 29.1355 34.448C29.1593 34.4163 29.1891 34.3899 29.223 34.3701C29.2913 34.3303 29.3722 34.3196 29.4481 34.3404C29.524 34.3612 29.5888 34.4119 29.6285 34.4813C29.667 34.5513 29.6772 34.6339 29.6569 34.7114C29.6366 34.789 29.5874 34.8553 29.5198 34.8962C29.4741 34.9221 29.4229 34.9364 29.3706 34.9377C29.3164 34.9356 29.2637 34.9182 29.2185 34.8874C29.1733 34.8567 29.1373 34.8138 29.1143 34.7634V34.785ZM10.0465 34.2938C9.97851 34.2538 9.92872 34.1879 9.90805 34.1104C9.88739 34.033 9.89752 33.9503 9.93624 33.8805C9.97622 33.8114 10.0409 33.761 10.1166 33.74C10.1923 33.7189 10.2731 33.7288 10.3417 33.7677C10.3757 33.7874 10.4054 33.8139 10.4293 33.8455C10.4531 33.8772 10.4706 33.9133 10.4807 33.9519C10.4908 33.9905 10.4933 34.0307 10.4881 34.0703C10.4829 34.1099 10.4701 34.1481 10.4504 34.1826C10.4249 34.2291 10.3877 34.2678 10.3426 34.2947C10.2976 34.3215 10.2463 34.3355 10.1941 34.3352C10.1422 34.3352 10.0912 34.3208 10.0465 34.2938ZM30.4833 33.9618C30.4438 33.8923 30.4328 33.8095 30.4529 33.7317C30.473 33.6539 30.5224 33.5875 30.5903 33.5469C30.6241 33.5267 30.6615 33.5136 30.7004 33.5082C30.7392 33.5029 30.7787 33.5054 30.8165 33.5158C30.8543 33.5261 30.8898 33.544 30.9209 33.5684C30.9519 33.5929 30.9779 33.6234 30.9974 33.6581C31.0362 33.7282 31.0464 33.8111 31.0257 33.8888C31.0051 33.9665 30.9553 34.0327 30.8871 34.073C30.8422 34.0979 30.7922 34.1115 30.7412 34.1129C30.6883 34.1126 30.6365 34.0978 30.5911 34.0701C30.5458 34.0424 30.5085 34.0027 30.4833 33.9552V33.9618ZM8.6776 33.4855C8.60974 33.4449 8.56026 33.3786 8.53991 33.3009C8.51957 33.2232 8.52999 33.1405 8.56892 33.0706C8.60888 33.0015 8.6737 32.9512 8.7495 32.9304C8.8253 32.9096 8.90604 32.92 8.97442 32.9594C9.00818 32.9794 9.03777 33.0059 9.06151 33.0376C9.08524 33.0692 9.10265 33.1053 9.11274 33.1438C9.12283 33.1824 9.12541 33.2226 9.12032 33.2621C9.11523 33.3016 9.10258 33.3398 9.08309 33.3743C9.05674 33.4204 9.01906 33.4585 8.97382 33.485C8.92857 33.5115 8.87733 33.5254 8.8252 33.5254C8.77341 33.5257 8.72247 33.512 8.6776 33.4855ZM31.8538 33.1453C31.8143 33.0757 31.8034 32.993 31.8235 32.9152C31.8435 32.8374 31.893 32.7709 31.9609 32.7304C31.9946 32.7104 32.0319 32.6975 32.0705 32.6923C32.1092 32.6871 32.1485 32.6897 32.1861 32.7C32.2238 32.7104 32.2591 32.7282 32.29 32.7525C32.3209 32.7768 32.3469 32.807 32.3664 32.8416C32.3858 32.876 32.3984 32.914 32.4035 32.9534C32.4086 32.9929 32.406 33.0329 32.3959 33.0713C32.3858 33.1097 32.3684 33.1457 32.3447 33.1772C32.321 33.2087 32.2914 33.2351 32.2577 33.2548C32.2127 33.2829 32.1611 33.2978 32.1085 33.298C32.0566 33.2978 32.0058 33.2836 31.961 33.2568C31.9163 33.2299 31.8793 33.1915 31.8538 33.1453ZM7.30704 32.6756C7.27347 32.6557 7.24406 32.6292 7.22051 32.5977C7.19696 32.5661 7.17971 32.5301 7.16977 32.4917C7.15983 32.4533 7.15738 32.4133 7.16256 32.374C7.16775 32.3346 7.18047 32.2967 7.19999 32.2624C7.21945 32.228 7.24535 32.1979 7.27619 32.1738C7.30703 32.1497 7.34222 32.1321 7.37973 32.1219C7.41724 32.1118 7.45634 32.1092 7.4948 32.1146C7.53326 32.1199 7.57032 32.1329 7.60386 32.1528C7.63767 32.1723 7.66735 32.1985 7.69117 32.2298C7.71499 32.2611 7.73247 32.297 7.74259 32.3353C7.75271 32.3736 7.75526 32.4136 7.7501 32.453C7.74494 32.4923 7.73216 32.5302 7.71253 32.5644C7.68717 32.6111 7.64998 32.6499 7.60488 32.6768C7.55978 32.7036 7.50844 32.7176 7.45626 32.7171C7.40383 32.7169 7.35238 32.7026 7.30704 32.6756ZM33.2211 32.3437C33.1822 32.2738 33.1718 32.1911 33.1921 32.1134C33.2125 32.0357 33.2619 31.9694 33.3298 31.9288C33.3635 31.9086 33.4008 31.8955 33.4395 31.8902C33.4782 31.8849 33.5175 31.8874 33.5552 31.8978C33.5929 31.9081 33.6283 31.926 33.6592 31.9504C33.6901 31.9748 33.716 32.0053 33.7353 32.04C33.7548 32.0745 33.7674 32.1127 33.7725 32.1522C33.7776 32.1918 33.775 32.2319 33.765 32.2705C33.7549 32.309 33.7374 32.3451 33.7137 32.3768C33.69 32.4084 33.6604 32.435 33.6266 32.4549C33.5812 32.48 33.5306 32.4937 33.479 32.4947C33.4263 32.4938 33.3748 32.4787 33.3295 32.4511C33.2843 32.4234 33.2469 32.3841 33.2211 32.3371V32.3437ZM6.4036 31.2484C6.40403 31.1679 6.43544 31.0909 6.49101 31.0341C6.54658 30.9772 6.62183 30.9451 6.70042 30.9446C6.77901 30.9451 6.85426 30.9772 6.90984 31.0341C6.96541 31.0909 6.99682 31.1679 6.99724 31.2484C6.99682 31.3288 6.96541 31.4058 6.90984 31.4626C6.85426 31.5195 6.77901 31.5516 6.70042 31.5521C6.66089 31.5521 6.62176 31.544 6.58532 31.5283C6.54888 31.5126 6.51586 31.4897 6.48821 31.4608C6.46056 31.4319 6.43884 31.3976 6.42431 31.36C6.40978 31.3224 6.40274 31.2822 6.4036 31.2417V31.2484ZM33.5504 30.7903C33.5502 30.7505 33.5577 30.711 33.5724 30.6742C33.5871 30.6374 33.6088 30.6039 33.6363 30.5756C33.6637 30.5474 33.6963 30.525 33.7322 30.5097C33.7682 30.4944 33.8067 30.4866 33.8456 30.4866C33.8846 30.4864 33.9233 30.4941 33.9594 30.5093C33.9955 30.5244 34.0283 30.5468 34.056 30.575C34.0836 30.6033 34.1054 30.6369 34.1203 30.6738C34.1351 30.7108 34.1426 30.7504 34.1424 30.7903C34.1424 30.8301 34.1347 30.8695 34.1198 30.9063C34.1048 30.943 34.083 30.9764 34.0554 31.0045C34.0278 31.0325 33.9951 31.0548 33.9591 31.0698C33.9231 31.0849 33.8845 31.0926 33.8456 31.0923C33.8062 31.0926 33.7672 31.0847 33.7308 31.0692C33.6945 31.0537 33.6616 31.0309 33.634 31.002C33.6065 30.9732 33.5849 30.9391 33.5705 30.9015C33.5562 30.864 33.5493 30.8239 33.5504 30.7837V30.7903ZM6.4036 29.6286C6.40403 29.5481 6.43544 29.4711 6.49101 29.4143C6.54658 29.3574 6.62183 29.3253 6.70042 29.3249C6.77901 29.3253 6.85426 29.3574 6.90984 29.4143C6.96541 29.4711 6.99682 29.5481 6.99724 29.6286C6.99682 29.709 6.96541 29.786 6.90984 29.8428C6.85426 29.8997 6.77901 29.9318 6.70042 29.9323C6.66103 29.9323 6.62203 29.9243 6.5857 29.9087C6.54937 29.8931 6.51643 29.8703 6.4888 29.8416C6.46117 29.8128 6.43941 29.7788 6.42479 29.7413C6.41016 29.7039 6.40296 29.6639 6.4036 29.6236V29.6286ZM33.5504 29.1705C33.5502 29.1307 33.5577 29.0912 33.5724 29.0544C33.5871 29.0176 33.6088 28.9841 33.6363 28.9558C33.6637 28.9276 33.6963 28.9052 33.7322 28.8899C33.7682 28.8747 33.8067 28.8668 33.8456 28.8668C33.8846 28.8666 33.9233 28.8743 33.9594 28.8895C33.9955 28.9046 34.0283 28.927 34.056 28.9553C34.0836 28.9835 34.1054 29.0171 34.1203 29.054C34.1351 29.091 34.1426 29.1306 34.1424 29.1705C34.1424 29.2103 34.1347 29.2497 34.1198 29.2865C34.1048 29.3232 34.083 29.3566 34.0554 29.3847C34.0278 29.4127 33.9951 29.435 33.9591 29.45C33.9231 29.4651 33.8845 29.4728 33.8456 29.4726C33.8064 29.4728 33.7675 29.465 33.7312 29.4496C33.695 29.4341 33.6621 29.4115 33.6346 29.3828C33.6071 29.3542 33.5855 29.3202 33.571 29.2829C33.5565 29.2456 33.5495 29.2057 33.5504 29.1655V29.1705ZM6.4036 28.0088C6.40403 27.9284 6.43544 27.8514 6.49101 27.7945C6.54658 27.7376 6.62183 27.7055 6.70042 27.7051C6.77901 27.7055 6.85426 27.7376 6.90984 27.7945C6.96541 27.8514 6.99682 27.9284 6.99724 28.0088C6.99682 28.0892 6.96541 28.1662 6.90984 28.223C6.85426 28.2799 6.77901 28.312 6.70042 28.3125C6.66117 28.3125 6.62231 28.3045 6.58608 28.289C6.54986 28.2736 6.51699 28.2509 6.48939 28.2224C6.46178 28.1938 6.43998 28.1599 6.42526 28.1227C6.41054 28.0855 6.40318 28.0456 6.4036 28.0054V28.0088ZM33.5504 27.5507C33.5502 27.5109 33.5577 27.4715 33.5724 27.4346C33.5871 27.3978 33.6088 27.3643 33.6363 27.3361C33.6637 27.3078 33.6963 27.2854 33.7322 27.2702C33.7682 27.2549 33.8067 27.247 33.8456 27.247C33.8846 27.2468 33.9233 27.2545 33.9594 27.2697C33.9955 27.2849 34.0283 27.3072 34.056 27.3355C34.0836 27.3637 34.1054 27.3973 34.1203 27.4342C34.1351 27.4712 34.1426 27.5108 34.1424 27.5507C34.1424 27.5905 34.1347 27.6299 34.1198 27.6667C34.1048 27.7034 34.083 27.7368 34.0554 27.7649C34.0278 27.793 33.9951 27.8152 33.9591 27.8303C33.9231 27.8453 33.8845 27.853 33.8456 27.8528C33.8065 27.853 33.7677 27.8452 33.7316 27.8299C33.6955 27.8146 33.6627 27.7921 33.6352 27.7636C33.6077 27.7352 33.586 27.7014 33.5715 27.6643C33.5569 27.6271 33.5497 27.5874 33.5504 27.5474V27.5507ZM6.4036 26.389C6.40403 26.3086 6.43544 26.2316 6.49101 26.1747C6.54658 26.1178 6.62183 26.0857 6.70042 26.0853C6.77916 26.0861 6.85441 26.1186 6.90994 26.1758C6.96547 26.2329 6.99682 26.3101 6.99724 26.3906C6.99682 26.4711 6.96541 26.548 6.90984 26.6049C6.85426 26.6618 6.77901 26.6939 6.70042 26.6943C6.62141 26.6935 6.54591 26.6607 6.49034 26.6033C6.43477 26.5458 6.4036 26.4682 6.4036 26.3873V26.389ZM33.5504 25.9293C33.5502 25.8895 33.5577 25.8502 33.5724 25.8134C33.5872 25.7767 33.6089 25.7433 33.6364 25.7152C33.6638 25.6871 33.6965 25.6649 33.7324 25.6498C33.7683 25.6347 33.8068 25.627 33.8456 25.6272C33.8845 25.627 33.9231 25.6346 33.9591 25.6497C33.9951 25.6648 34.0278 25.687 34.0554 25.7151C34.083 25.7432 34.1048 25.7765 34.1198 25.8133C34.1347 25.85 34.1424 25.8895 34.1424 25.9293C34.1426 25.9692 34.1351 26.0088 34.1203 26.0457C34.1054 26.0827 34.0836 26.1163 34.056 26.1445C34.0283 26.1728 33.9955 26.1951 33.9594 26.2103C33.9233 26.2255 33.8846 26.2332 33.8456 26.233C33.8066 26.233 33.7679 26.2251 33.7319 26.2097C33.6958 26.1943 33.6632 26.1717 33.6357 26.1433C33.6082 26.1149 33.5866 26.0812 33.5719 26.0442C33.5573 26.0072 33.55 25.9675 33.5504 25.9276V25.9293ZM6.4036 24.7675C6.40403 24.6871 6.43544 24.6101 6.49101 24.5533C6.54658 24.4964 6.62183 24.4643 6.70042 24.4638C6.77903 24.4651 6.85404 24.4977 6.90948 24.5548C6.96492 24.6118 6.99641 24.6887 6.99724 24.7692C6.99682 24.8496 6.96541 24.9266 6.90984 24.9835C6.85426 25.0403 6.77901 25.0725 6.70042 25.0729C6.62183 25.0725 6.54658 25.0403 6.49101 24.9835C6.43544 24.9266 6.40403 24.8496 6.4036 24.7692V24.7675ZM33.5504 24.3078C33.5502 24.2681 33.5577 24.2287 33.5724 24.192C33.5872 24.1552 33.6089 24.1218 33.6364 24.0937C33.6638 24.0656 33.6965 24.0434 33.7324 24.0283C33.7683 24.0132 33.8068 24.0055 33.8456 24.0058C33.8845 24.0055 33.9231 24.0132 33.9591 24.0283C33.9951 24.0434 34.0278 24.0656 34.0554 24.0936C34.083 24.1217 34.1048 24.1551 34.1198 24.1918C34.1347 24.2286 34.1424 24.268 34.1424 24.3078C34.1426 24.3478 34.1351 24.3874 34.1203 24.4243C34.1054 24.4612 34.0836 24.4948 34.056 24.5231C34.0283 24.5513 33.9955 24.5737 33.9594 24.5889C33.9233 24.604 33.8846 24.6117 33.8456 24.6115C33.8068 24.6115 33.7684 24.6037 33.7326 24.5885C33.6968 24.5734 33.6643 24.5511 33.6369 24.5231C33.6094 24.495 33.5877 24.4617 33.5729 24.4251C33.558 24.3884 33.5504 24.3491 33.5504 24.3095V24.3078ZM6.4036 23.1461C6.4036 23.0654 6.43482 22.988 6.49044 22.9307C6.54606 22.8735 6.62155 22.8411 6.70042 22.8407C6.77916 22.8416 6.85441 22.8741 6.90994 22.9312C6.96547 22.9883 6.99682 23.0655 6.99724 23.1461C6.99682 23.2265 6.96541 23.3035 6.90984 23.3604C6.85426 23.4172 6.77901 23.4494 6.70042 23.4498C6.62294 23.4494 6.54864 23.4182 6.49325 23.3627C6.43786 23.3073 6.40571 23.232 6.4036 23.1527V23.1461ZM33.5504 22.6847C33.5502 22.645 33.5577 22.6056 33.5724 22.5689C33.5872 22.5321 33.6089 22.4987 33.6364 22.4706C33.6638 22.4425 33.6965 22.4203 33.7324 22.4052C33.7683 22.3901 33.8068 22.3824 33.8456 22.3827C33.8845 22.3824 33.9231 22.3901 33.9591 22.4052C33.9951 22.4202 34.0278 22.4425 34.0554 22.4705C34.083 22.4986 34.1048 22.532 34.1198 22.5687C34.1347 22.6055 34.1424 22.6449 34.1424 22.6847C34.1426 22.7246 34.1351 22.7642 34.1203 22.8012C34.1054 22.8381 34.0836 22.8717 34.056 22.9C34.0283 22.9282 33.9955 22.9506 33.9594 22.9657C33.9233 22.9809 33.8846 22.9886 33.8456 22.9884C33.7681 22.9884 33.6938 22.9573 33.6386 22.9017C33.5833 22.8461 33.5517 22.7706 33.5504 22.6913V22.6847ZM6.4036 21.523C6.4036 21.4424 6.43488 21.3652 6.49054 21.3082C6.54621 21.2513 6.6217 21.2193 6.70042 21.2193C6.77901 21.2197 6.85426 21.2518 6.90984 21.3087C6.96541 21.3656 6.99682 21.4426 6.99724 21.523C6.99639 21.6031 6.9648 21.6797 6.90927 21.7362C6.85374 21.7927 6.77874 21.8246 6.70042 21.825C6.6239 21.8251 6.5503 21.7949 6.495 21.7408C6.43969 21.6867 6.40695 21.6128 6.4036 21.5346V21.523ZM33.5504 21.0616C33.5502 21.0219 33.5577 20.9825 33.5724 20.9457C33.5872 20.909 33.6089 20.8756 33.6364 20.8475C33.6638 20.8194 33.6965 20.7972 33.7324 20.7821C33.7683 20.767 33.8068 20.7593 33.8456 20.7595C33.8845 20.7593 33.9231 20.767 33.9591 20.7821C33.9951 20.7971 34.0278 20.8194 34.0554 20.8474C34.083 20.8755 34.1048 20.9089 34.1198 20.9456C34.1347 20.9824 34.1424 21.0218 34.1424 21.0616C34.1426 21.1015 34.1351 21.1411 34.1203 21.1781C34.1054 21.215 34.0836 21.2486 34.056 21.2768C34.0283 21.3051 33.9955 21.3274 33.9594 21.3426C33.9233 21.3578 33.8846 21.3655 33.8456 21.3653C33.769 21.3653 33.6953 21.3349 33.6402 21.2804C33.5851 21.2259 33.5529 21.1516 33.5504 21.0732V21.0616ZM6.4036 19.8999C6.40403 19.8196 6.43549 19.7428 6.49111 19.6862C6.54673 19.6296 6.62198 19.5978 6.70042 19.5978C6.77887 19.5978 6.85412 19.6296 6.90974 19.6862C6.96535 19.7428 6.99681 19.8196 6.99724 19.8999C6.99724 19.9804 6.96597 20.0577 6.91031 20.1146C6.85464 20.1716 6.77915 20.2036 6.70042 20.2036C6.62417 20.2037 6.5508 20.1737 6.49554 20.12C6.44028 20.0662 6.40736 19.9927 6.4036 19.9148V19.8999ZM33.5504 19.4401C33.5508 19.3602 33.5821 19.2836 33.6373 19.227C33.6926 19.1705 33.7674 19.1385 33.8456 19.1381C33.8845 19.1379 33.9231 19.1455 33.9591 19.1606C33.9951 19.1757 34.0278 19.1979 34.0554 19.226C34.083 19.254 34.1048 19.2874 34.1198 19.3242C34.1347 19.3609 34.1424 19.4003 34.1424 19.4401C34.1426 19.4801 34.1351 19.5197 34.1203 19.5566C34.1054 19.5936 34.0836 19.6271 34.056 19.6554C34.0283 19.6836 33.9955 19.706 33.9594 19.7212C33.9233 19.7364 33.8846 19.7441 33.8456 19.7439C33.7696 19.7435 33.6967 19.7134 33.6417 19.6597C33.5868 19.606 33.5541 19.5327 33.5504 19.4551V19.4401ZM6.4036 18.2784C6.40403 18.198 6.43544 18.121 6.49101 18.0641C6.54658 18.0073 6.62183 17.9751 6.70042 17.9747C6.77901 17.9751 6.85426 18.0073 6.90984 18.0641C6.96541 18.121 6.99682 18.198 6.99724 18.2784C6.99724 18.359 6.96597 18.4362 6.91031 18.4932C6.85464 18.5501 6.77915 18.5821 6.70042 18.5821C6.6247 18.5823 6.55178 18.5528 6.4966 18.4997C6.44143 18.4466 6.40816 18.374 6.4036 18.2967V18.2784ZM33.5504 17.8187C33.5508 17.7387 33.5821 17.6621 33.6373 17.6056C33.6926 17.549 33.7674 17.5171 33.8456 17.5166C33.8845 17.5164 33.9231 17.5241 33.9591 17.5392C33.9951 17.5542 34.0278 17.5765 34.0554 17.6045C34.083 17.6326 34.1048 17.666 34.1198 17.7027C34.1347 17.7395 34.1424 17.7789 34.1424 17.8187C34.1426 17.8586 34.1351 17.8982 34.1203 17.9352C34.1054 17.9721 34.0836 18.0057 34.056 18.0339C34.0283 18.0622 33.9955 18.0846 33.9594 18.0997C33.9233 18.1149 33.8846 18.1226 33.8456 18.1224C33.7701 18.1221 33.6976 18.0925 33.6428 18.0394C33.588 17.9864 33.5549 17.914 33.5504 17.837V17.8187ZM6.4036 16.657C6.40403 16.5765 6.43544 16.4995 6.49101 16.4427C6.54658 16.3858 6.62183 16.3537 6.70042 16.3532C6.77901 16.3537 6.85426 16.3858 6.90984 16.4427C6.96541 16.4995 6.99682 16.5765 6.99724 16.657C6.99724 16.7375 6.96597 16.8148 6.91031 16.8717C6.85464 16.9287 6.77915 16.9607 6.70042 16.9607C6.62522 16.9609 6.55275 16.9318 6.49766 16.8795C6.44256 16.8271 6.40895 16.7553 6.4036 16.6785V16.657ZM33.5504 16.1972C33.5508 16.1171 33.582 16.0404 33.6372 15.9835C33.6924 15.9267 33.7673 15.8944 33.8456 15.8935C33.8846 15.8933 33.9233 15.901 33.9594 15.9162C33.9955 15.9314 34.0283 15.9537 34.056 15.982C34.0836 16.0102 34.1054 16.0438 34.1203 16.0808C34.1351 16.1177 34.1426 16.1573 34.1424 16.1972C34.1426 16.2372 34.1351 16.2768 34.1203 16.3137C34.1054 16.3507 34.0836 16.3842 34.056 16.4125C34.0283 16.4407 33.9955 16.4631 33.9594 16.4783C33.9233 16.4935 33.8846 16.5012 33.8456 16.501C33.7708 16.5003 33.6989 16.471 33.6443 16.4188C33.5896 16.3665 33.5561 16.2951 33.5504 16.2188V16.1972ZM6.44415 16.0595C6.4247 16.0251 6.41208 15.9871 6.40701 15.9477C6.40194 15.9082 6.40453 15.8682 6.41463 15.8298C6.42473 15.7914 6.44213 15.7554 6.46585 15.7239C6.48956 15.6924 6.51912 15.666 6.55283 15.6463C6.62111 15.6064 6.70199 15.5957 6.77791 15.6166C6.85383 15.6374 6.91866 15.688 6.95832 15.7574C6.99717 15.8271 7.00755 15.9096 6.98719 15.987C6.96684 16.0644 6.91739 16.1304 6.84964 16.1707C6.8039 16.1966 6.75271 16.2109 6.70042 16.2122C6.65034 16.2144 6.60054 16.2035 6.5557 16.1806C6.51087 16.1576 6.47248 16.1234 6.44415 16.0811V16.0595ZM32.5756 15.5052C32.5418 15.4857 32.5121 15.4596 32.4883 15.4283C32.4644 15.397 32.4468 15.3612 32.4366 15.3229C32.4263 15.2846 32.4236 15.2447 32.4285 15.2053C32.4335 15.166 32.446 15.128 32.4653 15.0936C32.5044 15.024 32.5688 14.973 32.6445 14.9519C32.7202 14.9308 32.8009 14.9411 32.8692 14.9807C32.903 15.0004 32.9328 15.0267 32.9566 15.0582C32.9804 15.0896 32.9979 15.1256 33.008 15.1641C33.0181 15.2025 33.0207 15.2427 33.0155 15.2821C33.0103 15.3216 32.9975 15.3596 32.9778 15.394C32.9527 15.441 32.9156 15.4801 32.8705 15.5073C32.8254 15.5344 32.7739 15.5486 32.7216 15.5483C32.6719 15.5551 32.6214 15.5476 32.5756 15.5268V15.5052ZM7.81309 15.2795C7.7936 15.2449 7.78095 15.2068 7.77586 15.1672C7.77077 15.1277 7.77335 15.0875 7.78344 15.049C7.79353 15.0105 7.81094 14.9743 7.83467 14.9427C7.85841 14.9111 7.888 14.8845 7.92176 14.8646C7.95552 14.8446 7.99279 14.8317 8.03144 14.8265C8.07009 14.8213 8.10936 14.8239 8.14702 14.8342C8.18467 14.8446 8.21997 14.8624 8.25089 14.8867C8.28182 14.9109 8.30777 14.9412 8.32725 14.9758C8.36619 15.0456 8.37661 15.1284 8.35626 15.2061C8.33592 15.2838 8.28644 15.3501 8.21858 15.3907C8.1734 15.4163 8.12266 15.43 8.07098 15.4305C8.01878 15.4309 7.96742 15.4171 7.92211 15.3906C7.87681 15.3641 7.83919 15.3257 7.81309 15.2795ZM31.205 14.7252C31.1712 14.7055 31.1415 14.6792 31.1176 14.6478C31.0938 14.6163 31.0763 14.5803 31.0662 14.5418C31.0561 14.5034 31.0535 14.4632 31.0587 14.4238C31.0639 14.3843 31.0767 14.3463 31.0964 14.3119C31.1358 14.2422 31.2005 14.1912 31.2764 14.1701C31.3524 14.1489 31.4334 14.1594 31.5019 14.1991C31.5698 14.2396 31.6192 14.3061 31.6393 14.3839C31.6593 14.4616 31.6484 14.5444 31.6089 14.614C31.5838 14.6606 31.5469 14.6995 31.5021 14.7266C31.4573 14.7537 31.4063 14.7681 31.3543 14.7683C31.301 14.7661 31.2493 14.7489 31.205 14.7185V14.7252ZM9.18365 14.4696C9.16413 14.4353 9.15141 14.3973 9.14623 14.358C9.14104 14.3186 9.14349 14.2786 9.15343 14.2402C9.16338 14.2019 9.18062 14.1659 9.20417 14.1343C9.22772 14.1027 9.25713 14.0763 9.2907 14.0563C9.32446 14.0364 9.36173 14.0234 9.40038 14.0182C9.43903 14.013 9.4783 14.0157 9.51595 14.026C9.55361 14.0363 9.5889 14.0541 9.61983 14.0784C9.65075 14.1027 9.6767 14.133 9.69619 14.1675C9.71564 14.2019 9.72827 14.24 9.73333 14.2794C9.7384 14.3188 9.73581 14.3588 9.72571 14.3972C9.71562 14.4356 9.69821 14.4716 9.6745 14.5031C9.65078 14.5346 9.62122 14.561 9.58752 14.5808C9.54203 14.6074 9.49067 14.6216 9.4383 14.6223C9.38581 14.6214 9.3345 14.6062 9.28971 14.5782C9.24492 14.5502 9.2083 14.5104 9.18365 14.4629V14.4696ZM29.8345 13.9086C29.8004 13.8892 29.7706 13.8629 29.7466 13.8315C29.7226 13.8 29.7051 13.764 29.695 13.7255C29.6848 13.6869 29.6823 13.6467 29.6876 13.6072C29.6929 13.5677 29.7059 13.5297 29.7258 13.4954C29.7652 13.4261 29.8297 13.3755 29.9053 13.3546C29.981 13.3338 30.0616 13.3444 30.1297 13.3842C30.1634 13.404 30.1929 13.4304 30.2167 13.4619C30.2404 13.4934 30.2578 13.5293 30.2679 13.5677C30.278 13.6061 30.2806 13.6462 30.2755 13.6856C30.2704 13.725 30.2578 13.763 30.2383 13.7974C30.2129 13.844 30.1756 13.8827 30.1306 13.9095C30.0855 13.9364 30.0342 13.9504 29.9821 13.9501C29.9301 13.9506 29.879 13.9362 29.8345 13.9086ZM10.5493 13.6547C10.5108 13.5847 10.5006 13.5021 10.521 13.4246C10.5413 13.347 10.5905 13.2807 10.658 13.2398C10.6918 13.2199 10.729 13.2069 10.7677 13.2017C10.8063 13.1965 10.8456 13.1991 10.8833 13.2095C10.9209 13.2198 10.9562 13.2376 10.9871 13.2619C11.0181 13.2862 11.044 13.3164 11.0635 13.351C11.0832 13.3855 11.096 13.4236 11.1012 13.4632C11.1064 13.5028 11.1039 13.5431 11.0938 13.5817C11.0837 13.6202 11.0662 13.6564 11.0424 13.688C11.0185 13.7196 10.9888 13.7461 10.9548 13.7659C10.9098 13.792 10.859 13.8057 10.8072 13.8057C10.7554 13.8052 10.7047 13.791 10.6598 13.7646C10.6149 13.7381 10.5774 13.7003 10.551 13.6547H10.5493ZM28.4639 13.1004C28.4302 13.0804 28.4006 13.0539 28.3768 13.0223C28.3531 12.9906 28.3357 12.9545 28.3256 12.916C28.3155 12.8774 28.3129 12.8373 28.318 12.7977C28.3231 12.7582 28.3358 12.72 28.3552 12.6855C28.3952 12.6163 28.4601 12.5661 28.536 12.5456C28.6119 12.5251 28.6927 12.536 28.7607 12.576C28.7944 12.5957 28.824 12.6221 28.8477 12.6536C28.8714 12.6851 28.8888 12.7211 28.8989 12.7595C28.909 12.7979 28.9116 12.8379 28.9066 12.8774C28.9015 12.9168 28.8889 12.9548 28.8694 12.9892C28.8439 13.0362 28.8065 13.0753 28.7611 13.1024C28.7157 13.1296 28.6641 13.1438 28.6115 13.1435C28.56 13.1426 28.5096 13.1277 28.4655 13.1004H28.4639ZM11.9199 12.8448C11.9004 12.8104 11.8878 12.7724 11.8828 12.733C11.8777 12.6935 11.8803 12.6535 11.8904 12.6151C11.9005 12.5767 11.9179 12.5407 11.9416 12.5092C11.9653 12.4777 11.9949 12.4513 12.0286 12.4316C12.0623 12.4116 12.0996 12.3987 12.1383 12.3935C12.1769 12.3883 12.2162 12.3909 12.2538 12.4012C12.2915 12.4115 12.3268 12.4294 12.3577 12.4536C12.3886 12.4779 12.4146 12.5082 12.4341 12.5428C12.4535 12.5772 12.4661 12.6152 12.4712 12.6546C12.4763 12.694 12.4737 12.7341 12.4636 12.7725C12.4535 12.8109 12.4361 12.8468 12.4124 12.8783C12.3887 12.9098 12.3591 12.9362 12.3254 12.956C12.2799 12.9826 12.2285 12.9969 12.1762 12.9975C12.1244 12.9971 12.0736 12.9829 12.0289 12.9561C11.9842 12.9293 11.9471 12.8909 11.9215 12.8448H11.9199ZM27.095 12.2922C27.0272 12.2519 26.9778 12.1859 26.9574 12.1084C26.9371 12.031 26.9475 11.9485 26.9863 11.8789C27.0259 11.8094 27.0909 11.7589 27.1669 11.7383C27.2429 11.7178 27.3238 11.729 27.3918 11.7694C27.4256 11.7888 27.4553 11.815 27.4791 11.8463C27.5029 11.8776 27.5204 11.9135 27.5305 11.9518C27.5406 11.9902 27.5432 12.0302 27.538 12.0695C27.5329 12.1088 27.5201 12.1467 27.5005 12.181C27.4751 12.2277 27.4379 12.2667 27.3929 12.2938C27.3478 12.3209 27.2965 12.3353 27.2442 12.3353C27.1916 12.3347 27.1401 12.3198 27.095 12.2922ZM13.2905 12.0366C13.271 12.002 13.2583 11.9639 13.2532 11.9243C13.2481 11.8848 13.2507 11.8446 13.2608 11.8061C13.2709 11.7676 13.2883 11.7314 13.312 11.6998C13.3358 11.6682 13.3654 11.6416 13.3991 11.6217C13.4328 11.6018 13.4699 11.5888 13.5084 11.5837C13.547 11.5785 13.5861 11.5811 13.6236 11.5915C13.6612 11.6018 13.6963 11.6196 13.7271 11.6439C13.7579 11.6681 13.7837 11.6984 13.803 11.7329C13.8225 11.7674 13.8351 11.8055 13.8402 11.8451C13.8453 11.8846 13.8427 11.9248 13.8327 11.9633C13.8226 12.0019 13.8052 12.038 13.7814 12.0696C13.7577 12.1013 13.7281 12.1278 13.6943 12.1478C13.6496 12.1746 13.5986 12.1884 13.5467 12.1876C13.4948 12.1875 13.4439 12.1736 13.3989 12.1471C13.3539 12.1206 13.3165 12.0825 13.2905 12.0366ZM25.7244 11.4823C25.6566 11.4417 25.6071 11.3753 25.5867 11.2977C25.5664 11.22 25.5768 11.1372 25.6158 11.0674C25.6557 10.9982 25.7206 10.9479 25.7965 10.9274C25.8724 10.9069 25.9532 10.9178 26.0212 10.9578C26.055 10.9776 26.0845 11.004 26.1082 11.0355C26.1319 11.067 26.1493 11.103 26.1594 11.1414C26.1695 11.1797 26.1721 11.2198 26.1671 11.2592C26.162 11.2986 26.1494 11.3366 26.1299 11.3711C26.104 11.4177 26.0665 11.4565 26.0212 11.4836C25.9759 11.5107 25.9245 11.5251 25.872 11.5254C25.8205 11.5242 25.7702 11.5094 25.726 11.4823H25.7244ZM14.6594 11.2267C14.6397 11.1922 14.6269 11.154 14.6217 11.1145C14.6165 11.0749 14.619 11.0346 14.6291 10.996C14.6392 10.9574 14.6567 10.9213 14.6805 10.8896C14.7044 10.858 14.7341 10.8316 14.7681 10.8118C14.8365 10.7721 14.9176 10.7617 14.9935 10.7828C15.0695 10.8039 15.1342 10.8549 15.1736 10.9246C15.193 10.959 15.2056 10.9971 15.2107 11.0365C15.2158 11.0759 15.2132 11.1159 15.2031 11.1543C15.193 11.1927 15.1756 11.2287 15.1519 11.2602C15.1281 11.2917 15.0986 11.3181 15.0649 11.3379C15.0201 11.3648 14.9692 11.3791 14.9173 11.3794C14.8652 11.3791 14.8142 11.3649 14.7692 11.3381C14.7242 11.3113 14.6869 11.2729 14.661 11.2267H14.6594ZM24.3539 10.6724C24.2865 10.6321 24.2374 10.5663 24.2174 10.4892C24.1973 10.412 24.2079 10.3299 24.2468 10.2608C24.266 10.2261 24.2917 10.1957 24.3225 10.1713C24.3532 10.1469 24.3884 10.129 24.426 10.1187C24.4636 10.1084 24.5028 10.1058 24.5414 10.1111C24.5799 10.1164 24.6171 10.1295 24.6507 10.1496C24.6845 10.169 24.7142 10.1952 24.738 10.2265C24.7618 10.2579 24.7793 10.2937 24.7894 10.332C24.7995 10.3704 24.8021 10.4104 24.7969 10.4497C24.7918 10.489 24.779 10.5269 24.7594 10.5612C24.7341 10.608 24.6969 10.6471 24.6519 10.6742C24.6068 10.7014 24.5554 10.7156 24.5031 10.7155C24.451 10.7146 24.4001 10.6997 24.3555 10.6724H24.3539ZM16.03 10.4184C16.0102 10.384 15.9974 10.3458 15.9922 10.3062C15.987 10.2666 15.9895 10.2264 15.9996 10.1878C16.0098 10.1492 16.0272 10.113 16.0511 10.0814C16.075 10.0498 16.1047 10.0233 16.1386 10.0035C16.1721 9.98367 16.2092 9.97078 16.2476 9.96562C16.286 9.96046 16.325 9.96312 16.3624 9.97346C16.3998 9.98379 16.4348 10.0016 16.4654 10.0258C16.4961 10.0501 16.5217 10.0803 16.5409 10.1147C16.5607 10.149 16.5737 10.187 16.5792 10.2264C16.5846 10.2659 16.5824 10.3061 16.5726 10.3446C16.5628 10.3832 16.5456 10.4194 16.5221 10.4512C16.4985 10.4829 16.4691 10.5096 16.4354 10.5296C16.39 10.5561 16.3385 10.5699 16.2862 10.5695C16.2346 10.5693 16.1839 10.5552 16.1392 10.5287C16.0945 10.5022 16.0574 10.4642 16.0316 10.4184H16.03ZM22.9866 9.86413C22.9525 9.84467 22.9226 9.81844 22.8987 9.78699C22.8747 9.75553 22.8572 9.71948 22.847 9.68096C22.8369 9.64244 22.8344 9.60224 22.8397 9.56273C22.845 9.52321 22.858 9.48518 22.8779 9.45088C22.8971 9.41623 22.9228 9.38582 22.9535 9.36143C22.9843 9.33704 23.0195 9.31915 23.0571 9.3088C23.0947 9.29846 23.1339 9.29586 23.1724 9.30116C23.211 9.30646 23.2482 9.31956 23.2817 9.33969C23.3495 9.37998 23.399 9.44589 23.4196 9.5232C23.4402 9.60051 23.4303 9.68302 23.392 9.75293C23.3659 9.79927 23.3283 9.83777 23.283 9.86456C23.2378 9.89136 23.1864 9.90552 23.1342 9.90562C23.0827 9.90575 23.0322 9.89139 22.9882 9.86413H22.9866ZM17.3973 9.60855C17.3588 9.53858 17.3486 9.45597 17.3689 9.37841C17.3892 9.30085 17.4384 9.23453 17.5059 9.19364C17.5742 9.1538 17.6551 9.14314 17.731 9.16396C17.8069 9.18478 17.8718 9.2354 17.9114 9.30484C17.9311 9.33932 17.944 9.37747 17.9492 9.41706C17.9544 9.45665 17.9518 9.49691 17.9417 9.5355C17.9316 9.57409 17.9141 9.61024 17.8903 9.64187C17.8664 9.67349 17.8367 9.69996 17.8028 9.71974C17.7587 9.74685 17.7082 9.76119 17.6568 9.76123C17.6045 9.76113 17.5531 9.74697 17.5079 9.72018C17.4626 9.69338 17.425 9.65488 17.3989 9.60855H17.3973ZM21.6144 9.05423C21.5807 9.03461 21.5512 9.00837 21.5275 8.97703C21.5038 8.94568 21.4864 8.90984 21.4763 8.87159C21.4662 8.83333 21.4636 8.7934 21.4686 8.75411C21.4737 8.71482 21.4863 8.67694 21.5057 8.64265C21.5249 8.60777 21.5507 8.57717 21.5815 8.55263C21.6124 8.52809 21.6478 8.51011 21.6856 8.49976C21.7234 8.4894 21.7628 8.48687 21.8015 8.49231C21.8403 8.49775 21.8775 8.51106 21.9112 8.53145C21.945 8.55139 21.9745 8.57794 21.9983 8.60958C22.022 8.64123 22.0394 8.67734 22.0495 8.71587C22.0596 8.7544 22.0622 8.79459 22.0571 8.83413C22.052 8.87368 22.0394 8.91181 22.0199 8.94636C21.9935 8.99239 21.9558 9.03055 21.9106 9.05705C21.8653 9.08354 21.8141 9.09745 21.762 9.09738C21.711 9.09638 21.6611 9.08149 21.6176 9.05423H21.6144ZM18.7694 8.80695C18.75 8.77241 18.7373 8.73427 18.7322 8.69473C18.7271 8.65518 18.7297 8.61499 18.7398 8.57646C18.7499 8.53794 18.7673 8.50182 18.791 8.47018C18.8148 8.43853 18.8444 8.41198 18.8781 8.39204C18.9119 8.3721 18.9491 8.35915 18.9878 8.35395C19.0264 8.34874 19.0657 8.35138 19.1034 8.3617C19.141 8.37203 19.1763 8.38984 19.2073 8.41413C19.2382 8.43841 19.2641 8.46869 19.2836 8.50324C19.3225 8.5731 19.333 8.65586 19.3126 8.73355C19.2923 8.81123 19.2428 8.87756 19.1749 8.91814C19.1293 8.94408 19.0779 8.95778 19.0257 8.95798C18.9738 8.95792 18.9229 8.94394 18.8779 8.91744C18.8329 8.89095 18.7955 8.85285 18.7694 8.80695ZM20.2471 8.25264C20.1793 8.21237 20.1299 8.14634 20.1095 8.06892C20.0892 7.99151 20.0995 7.909 20.1384 7.83939C20.1579 7.80484 20.1838 7.77456 20.2147 7.75028C20.2457 7.72599 20.281 7.70818 20.3186 7.69785C20.3563 7.68753 20.3955 7.68489 20.4342 7.6901C20.4728 7.6953 20.5101 7.70825 20.5439 7.7282C20.5776 7.74813 20.6072 7.77468 20.631 7.80633C20.6547 7.83797 20.6721 7.87409 20.6822 7.91262C20.6923 7.95114 20.6949 7.99133 20.6898 8.03088C20.6847 8.07042 20.672 8.10856 20.6525 8.1431C20.6267 8.18923 20.5894 8.22751 20.5444 8.25404C20.4993 8.28058 20.4482 8.29441 20.3963 8.29413C20.3433 8.29187 20.2918 8.27526 20.2471 8.246V8.25264Z" fill="white"/>
<path id="Vector_23" d="M20.6136 44.9604C20.5942 44.9258 20.5816 44.8876 20.5767 44.848C20.5717 44.8084 20.5744 44.7681 20.5847 44.7296C20.5949 44.691 20.6125 44.655 20.6364 44.6234C20.6603 44.5918 20.69 44.5653 20.7239 44.5455C20.7576 44.5254 20.7949 44.5123 20.8336 44.5069C20.8723 44.5016 20.9116 44.5042 20.9494 44.5145C20.9871 44.5249 21.0224 44.5428 21.0533 44.5672C21.0842 44.5916 21.1101 44.622 21.1294 44.6567C21.1683 44.7266 21.1788 44.8094 21.1584 44.887C21.1381 44.9647 21.0886 45.0311 21.0207 45.0716C20.9756 45.0973 20.9248 45.111 20.8731 45.1115C20.8207 45.112 20.7691 45.0983 20.7235 45.0718C20.6779 45.0452 20.64 45.0068 20.6136 44.9604ZM19.355 44.9688C19.3209 44.9491 19.291 44.9227 19.267 44.8911C19.243 44.8595 19.2255 44.8233 19.2153 44.7847C19.2052 44.746 19.2027 44.7057 19.2081 44.6661C19.2134 44.6264 19.2264 44.5883 19.2463 44.5538C19.2656 44.5194 19.2914 44.4891 19.3222 44.4648C19.353 44.4406 19.3882 44.4228 19.4257 44.4124C19.4632 44.4021 19.5024 44.3995 19.5409 44.4046C19.5794 44.4098 19.6166 44.4227 19.6502 44.4426C19.684 44.4626 19.7135 44.4891 19.7373 44.5208C19.761 44.5524 19.7784 44.5885 19.7885 44.6271C19.7986 44.6656 19.8012 44.7058 19.7961 44.7453C19.791 44.7849 19.7784 44.823 19.7589 44.8576C19.7325 44.9032 19.6951 44.9411 19.6502 44.9676C19.6053 44.9941 19.5544 45.0082 19.5026 45.0086C19.4507 45.0096 19.3996 44.9958 19.355 44.9688ZM21.9842 44.1572C21.9453 44.0873 21.9348 44.0046 21.9552 43.9269C21.9755 43.8492 22.025 43.7829 22.0929 43.7423C22.1264 43.7222 22.1636 43.7091 22.2022 43.7038C22.2407 43.6985 22.28 43.7011 22.3175 43.7114C22.3551 43.7217 22.3903 43.7396 22.4211 43.764C22.4518 43.7884 22.4776 43.8188 22.4967 43.8535C22.5166 43.8877 22.5295 43.9256 22.5348 43.9649C22.5401 44.0043 22.5376 44.0444 22.5275 44.0828C22.5173 44.1212 22.4998 44.1571 22.4758 44.1884C22.4519 44.2197 22.422 44.2458 22.3881 44.2651C22.3437 44.2931 22.2926 44.3081 22.2405 44.3082C22.1886 44.3082 22.1376 44.2942 22.0926 44.2677C22.0477 44.2412 22.0103 44.2031 21.9842 44.1572ZM17.9844 44.1572C17.9507 44.1374 17.9212 44.111 17.8974 44.0795C17.8737 44.048 17.8563 44.0121 17.8462 43.9737C17.8361 43.9353 17.8335 43.8952 17.8386 43.8558C17.8437 43.8164 17.8563 43.7784 17.8758 43.7439C17.8952 43.7094 17.9212 43.6791 17.9521 43.6548C17.983 43.6305 18.0183 43.6127 18.056 43.6024C18.0936 43.5921 18.1329 43.5894 18.1716 43.5947C18.2102 43.5999 18.2475 43.6128 18.2812 43.6328C18.315 43.6525 18.3445 43.6789 18.3682 43.7104C18.3919 43.7419 18.4093 43.7779 18.4194 43.8163C18.4295 43.8547 18.4321 43.8947 18.4271 43.9342C18.422 43.9736 18.4094 44.0116 18.3899 44.046C18.3639 44.0924 18.3263 44.131 18.2811 44.1578C18.2358 44.1847 18.1844 44.1987 18.132 44.1987C18.0801 44.1989 18.029 44.1845 17.9844 44.1572ZM23.3531 43.3407C23.3336 43.3061 23.321 43.268 23.3159 43.2284C23.3108 43.1889 23.3134 43.1487 23.3235 43.1102C23.3336 43.0716 23.351 43.0355 23.3747 43.0039C23.3984 42.9722 23.428 42.9457 23.4618 42.9258C23.4955 42.9056 23.5328 42.8925 23.5715 42.8871C23.6102 42.8818 23.6495 42.8844 23.6872 42.8947C23.7249 42.9051 23.7603 42.923 23.7912 42.9474C23.8221 42.9718 23.848 43.0022 23.8673 43.0369C23.8867 43.0714 23.8994 43.1094 23.9044 43.1488C23.9095 43.1882 23.9069 43.2283 23.8968 43.2667C23.8867 43.3051 23.8693 43.341 23.8456 43.3725C23.8219 43.404 23.7923 43.4304 23.7586 43.4502C23.714 43.4775 23.663 43.4919 23.611 43.4917C23.5579 43.4934 23.5053 43.4805 23.4587 43.4542C23.4122 43.4279 23.3735 43.3893 23.3466 43.3423L23.3531 43.3407ZM16.6139 43.349C16.546 43.3084 16.4965 43.242 16.4762 43.1644C16.4558 43.0867 16.4663 43.0039 16.5052 42.9341C16.5247 42.8995 16.5506 42.8692 16.5816 42.8449C16.6125 42.8207 16.6478 42.8028 16.6854 42.7925C16.7231 42.7822 16.7624 42.7796 16.801 42.7848C16.8397 42.79 16.8769 42.8029 16.9107 42.8229C16.9445 42.8428 16.974 42.8693 16.9978 42.901C17.0215 42.9326 17.0389 42.9688 17.049 43.0073C17.0591 43.0458 17.0617 43.086 17.0566 43.1255C17.0515 43.1651 17.0389 43.2032 17.0194 43.2378C16.9933 43.2837 16.9559 43.3218 16.9109 43.3483C16.866 43.3748 16.815 43.3887 16.7631 43.3888C16.7109 43.3897 16.6595 43.3765 16.6139 43.3506V43.349ZM24.7237 42.5308C24.7042 42.4963 24.6916 42.4583 24.6865 42.4189C24.6815 42.3795 24.6841 42.3394 24.6942 42.3011C24.7043 42.2627 24.7217 42.2267 24.7454 42.1952C24.7691 42.1637 24.7987 42.1373 24.8324 42.1175C24.8661 42.0973 24.9033 42.0842 24.942 42.0789C24.9807 42.0736 25.0201 42.0762 25.0578 42.0865C25.0955 42.0968 25.1308 42.1147 25.1617 42.1392C25.1926 42.1636 25.2185 42.194 25.2378 42.2287C25.2764 42.2987 25.2865 42.3813 25.2662 42.4588C25.2459 42.5364 25.1967 42.6027 25.1292 42.6436C25.0833 42.669 25.0321 42.6826 24.98 42.6834C24.928 42.6836 24.877 42.6697 24.832 42.6431C24.787 42.6166 24.7496 42.5784 24.7237 42.5324V42.5308ZM15.2449 42.5391C15.1772 42.4988 15.1277 42.4328 15.1074 42.3553C15.087 42.2779 15.0974 42.1954 15.1363 42.1258C15.1757 42.0561 15.2404 42.0051 15.3163 41.984C15.3923 41.9628 15.4733 41.9733 15.5418 42.013C15.6096 42.0535 15.6591 42.1199 15.6794 42.1976C15.6998 42.2752 15.6894 42.358 15.6504 42.4279C15.6242 42.4741 15.5865 42.5125 15.5413 42.5393C15.4961 42.5661 15.4448 42.5803 15.3925 42.5806C15.3408 42.5808 15.2898 42.5671 15.2449 42.5407V42.5391ZM26.0926 41.7225C26.0731 41.688 26.0605 41.6499 26.0554 41.6103C26.0503 41.5708 26.0529 41.5306 26.063 41.492C26.0731 41.4535 26.0905 41.4174 26.1142 41.3858C26.1379 41.3541 26.1675 41.3276 26.2013 41.3076C26.235 41.2875 26.2723 41.2743 26.311 41.269C26.3497 41.2637 26.389 41.2663 26.4267 41.2766C26.4644 41.2869 26.4998 41.3048 26.5307 41.3293C26.5616 41.3537 26.5875 41.3841 26.6068 41.4188C26.6457 41.4887 26.6561 41.5714 26.6358 41.6491C26.6154 41.7268 26.566 41.7931 26.4981 41.8337C26.4529 41.8594 26.4022 41.8731 26.3505 41.8736C26.2986 41.8736 26.2475 41.8599 26.2023 41.8337C26.1571 41.8075 26.1193 41.7698 26.0926 41.7242V41.7225ZM13.8744 41.7308C13.8065 41.6903 13.7571 41.6238 13.737 41.546C13.7169 41.4682 13.7278 41.3855 13.7673 41.3159C13.7867 41.2814 13.8125 41.2512 13.8432 41.2269C13.874 41.2027 13.9092 41.1848 13.9467 41.1745C13.9842 41.1642 14.0234 41.1615 14.0619 41.1667C14.1004 41.1719 14.1376 41.1848 14.1712 41.2047C14.2051 41.2245 14.2349 41.251 14.2587 41.2826C14.2826 41.3142 14.3001 41.3504 14.3102 41.389C14.3203 41.4276 14.3228 41.4678 14.3176 41.5074C14.3124 41.547 14.2996 41.5851 14.2799 41.6196C14.2538 41.6655 14.2164 41.7036 14.1714 41.7301C14.1265 41.7566 14.0755 41.7706 14.0236 41.7707C13.9714 41.7717 13.9199 41.7586 13.8744 41.7325V41.7308ZM27.4632 40.9126C27.4435 40.8783 27.4307 40.8403 27.4255 40.8008C27.4203 40.7613 27.4229 40.7212 27.433 40.6827C27.4431 40.6443 27.4606 40.6083 27.4844 40.5768C27.5083 40.5453 27.538 40.519 27.5719 40.4994C27.6054 40.479 27.6425 40.4657 27.6812 40.4603C27.7198 40.4549 27.7591 40.4575 27.7967 40.4678C27.8344 40.4782 27.8696 40.4962 27.9003 40.5207C27.9311 40.5452 27.9567 40.5758 27.9757 40.6106C28.0148 40.6802 28.0255 40.7629 28.0054 40.8405C27.9854 40.9182 27.9363 40.9846 27.8687 41.0255C27.8233 41.0506 27.7727 41.0642 27.7211 41.0653C27.6689 41.0656 27.6176 41.0517 27.5723 41.0252C27.5271 40.9987 27.4894 40.9604 27.4632 40.9143V40.9126ZM12.5071 40.9209C12.473 40.9015 12.4432 40.8752 12.4192 40.8438C12.3952 40.8123 12.3777 40.7763 12.3675 40.7378C12.3574 40.6992 12.3549 40.659 12.3602 40.6195C12.3655 40.58 12.3785 40.542 12.3984 40.5077C12.4378 40.4384 12.5022 40.3878 12.5777 40.3666C12.6533 40.3455 12.7339 40.3557 12.8023 40.3948C12.8702 40.4354 12.9196 40.5018 12.9397 40.5796C12.9597 40.6574 12.9488 40.7402 12.9093 40.8097C12.8838 40.8559 12.8468 40.8944 12.8021 40.9212C12.7574 40.948 12.7065 40.9622 12.6547 40.9624C12.6028 40.9634 12.5517 40.9496 12.5071 40.9226V40.9209ZM28.8337 40.1044C28.8139 40.0701 28.8009 40.0321 28.7954 39.9927C28.79 39.9532 28.7922 39.9131 28.802 39.8745C28.8118 39.8359 28.829 39.7997 28.8525 39.768C28.8761 39.7362 28.9055 39.7095 28.9392 39.6895C28.9729 39.6693 29.0101 39.6562 29.0488 39.6509C29.0875 39.6455 29.1269 39.6481 29.1646 39.6585C29.2023 39.6688 29.2376 39.6867 29.2686 39.7111C29.2995 39.7355 29.3253 39.766 29.3447 39.8007C29.3644 39.8352 29.3772 39.8733 29.3824 39.9129C29.3876 39.9525 29.3851 39.9928 29.375 40.0313C29.3649 40.0699 29.3474 40.1061 29.3235 40.1377C29.2997 40.1693 29.2699 40.1958 29.236 40.2156C29.191 40.2419 29.1401 40.2556 29.0884 40.2554C29.0369 40.2554 28.9863 40.2416 28.9416 40.2154C28.897 40.1892 28.8598 40.1515 28.8337 40.1061V40.1044ZM11.1365 40.1127C11.1026 40.0929 11.0728 40.0664 11.049 40.0348C11.0251 40.0032 11.0076 39.967 10.9975 39.9285C10.9874 39.8899 10.9849 39.8496 10.9901 39.81C10.9953 39.7704 11.0081 39.7323 11.0278 39.6978C11.0473 39.6632 11.0733 39.633 11.1042 39.6087C11.1351 39.5844 11.1704 39.5666 11.2081 39.5563C11.2457 39.5459 11.285 39.5433 11.3236 39.5485C11.3623 39.5537 11.3996 39.5666 11.4333 39.5866C11.5009 39.6275 11.5501 39.6938 11.5704 39.7714C11.5907 39.8489 11.5805 39.9315 11.542 40.0015C11.5156 40.0475 11.478 40.0857 11.4327 40.1122C11.3875 40.1387 11.3362 40.1526 11.2841 40.1525C11.2324 40.1538 11.1814 40.1406 11.1365 40.1144V40.1127ZM30.2011 39.2945C30.1626 39.2248 30.1525 39.1424 30.1728 39.0651C30.1931 38.9879 30.2423 38.9218 30.3097 38.8813C30.3434 38.8609 30.3807 38.8476 30.4194 38.8421C30.4581 38.8367 30.4976 38.8392 30.5353 38.8496C30.5731 38.8599 30.6085 38.8779 30.6394 38.9024C30.6703 38.927 30.696 38.9576 30.7152 38.9925C30.7347 39.0269 30.7473 39.0649 30.7524 39.1043C30.7574 39.1437 30.7548 39.1838 30.7447 39.2222C30.7346 39.2606 30.7172 39.2965 30.6935 39.328C30.6698 39.3595 30.6403 39.3859 30.6065 39.4057C30.5611 39.4325 30.5097 39.4468 30.4573 39.4472C30.4054 39.4471 30.3545 39.4332 30.3095 39.4067C30.2645 39.3802 30.2271 39.3421 30.2011 39.2962V39.2945ZM9.76432 39.3028C9.69646 39.2622 9.64699 39.1959 9.62664 39.1182C9.60629 39.0405 9.61672 38.9578 9.65565 38.8879C9.69531 38.8185 9.76014 38.7678 9.83606 38.747C9.91198 38.7262 9.99286 38.7369 10.0611 38.7767C10.129 38.8173 10.1785 38.8836 10.1988 38.9613C10.2192 39.039 10.2087 39.1217 10.1698 39.1916C10.1441 39.2379 10.1068 39.2764 10.0618 39.3033C10.0168 39.3301 9.96563 39.3442 9.91354 39.3443C9.86178 39.3445 9.81088 39.3307 9.76594 39.3045L9.76432 39.3028ZM31.57 38.4863C31.5505 38.4517 31.5378 38.4136 31.5328 38.374C31.5277 38.3345 31.5302 38.2943 31.5403 38.2558C31.5504 38.2173 31.5678 38.1811 31.5916 38.1495C31.6153 38.1178 31.6449 38.0913 31.6787 38.0714C31.7124 38.0512 31.7496 38.0381 31.7883 38.0327C31.827 38.0274 31.8664 38.03 31.9041 38.0403C31.9418 38.0507 31.9771 38.0686 32.008 38.093C32.039 38.1174 32.0648 38.1478 32.0842 38.1826C32.1231 38.2524 32.1335 38.3352 32.1132 38.4129C32.0928 38.4905 32.0433 38.5569 31.9755 38.5975C31.9298 38.6234 31.8785 38.6371 31.8263 38.6373C31.7748 38.6371 31.7243 38.6233 31.6796 38.5971C31.635 38.5709 31.5978 38.5333 31.5716 38.4879L31.57 38.4863ZM8.39539 38.4946C8.36162 38.4746 8.33203 38.4481 8.3083 38.4164C8.28456 38.3848 8.26715 38.3487 8.25706 38.3101C8.24697 38.2716 8.24439 38.2314 8.24948 38.1919C8.25457 38.1523 8.26722 38.1142 8.28671 38.0797C8.3062 38.0451 8.33215 38.0148 8.36307 37.9905C8.394 37.9663 8.4293 37.9484 8.46695 37.9381C8.5046 37.9278 8.54388 37.9252 8.58253 37.9304C8.62118 37.9356 8.65845 37.9485 8.6922 37.9685C8.76007 38.009 8.80954 38.0754 8.82989 38.1531C8.85023 38.2307 8.83981 38.3135 8.80088 38.3834C8.77453 38.4294 8.73685 38.4676 8.69161 38.4941C8.64636 38.5206 8.59512 38.5345 8.54298 38.5344C8.49187 38.5352 8.44148 38.522 8.39701 38.4962L8.39539 38.4946ZM32.9405 37.6847C32.9017 37.6151 32.8913 37.5325 32.9117 37.4551C32.932 37.3777 32.9815 37.3117 33.0492 37.2714C33.0829 37.251 33.1202 37.2377 33.1589 37.2323C33.1976 37.2268 33.2371 37.2294 33.2748 37.2397C33.3126 37.2501 33.348 37.2681 33.3789 37.2926C33.4098 37.3171 33.4355 37.3477 33.4547 37.3826C33.4742 37.417 33.4868 37.455 33.4919 37.4945C33.4969 37.5339 33.4943 37.5739 33.4842 37.6123C33.4741 37.6507 33.4567 37.6867 33.433 37.7182C33.4093 37.7497 33.3797 37.7761 33.346 37.7959C33.3011 37.8222 33.2503 37.8365 33.1984 37.8374C33.1461 37.8374 33.0947 37.8233 33.0494 37.7965C33.0041 37.7697 32.9666 37.7311 32.9405 37.6847ZM7.02645 37.6847C6.99269 37.6647 6.96309 37.6382 6.93936 37.6065C6.91562 37.5749 6.89822 37.5388 6.88812 37.5002C6.87803 37.4617 6.87546 37.4215 6.88054 37.382C6.88563 37.3424 6.89828 37.3043 6.91778 37.2698C6.95744 37.2003 7.02227 37.1497 7.09819 37.1289C7.17411 37.1081 7.25499 37.1187 7.32327 37.1586C7.35719 37.1783 7.38694 37.2048 7.4108 37.2364C7.43465 37.2681 7.45214 37.3042 7.46225 37.3428C7.47236 37.3814 7.47488 37.4217 7.46968 37.4612C7.46448 37.5008 7.45165 37.539 7.43194 37.5735C7.40618 37.6198 7.36891 37.6583 7.3239 37.6851C7.27889 37.712 7.22775 37.7261 7.17567 37.7262C7.12321 37.7261 7.0717 37.7118 7.02645 37.6847ZM34.3111 36.8681C34.2914 36.8336 34.2786 36.7955 34.2734 36.7559C34.2682 36.7163 34.2707 36.6761 34.2808 36.6375C34.2909 36.5989 34.3084 36.5627 34.3322 36.5311C34.3561 36.4995 34.3859 36.473 34.4198 36.4532C34.4535 36.4331 34.4908 36.4199 34.5295 36.4146C34.5682 36.4093 34.6075 36.4119 34.6452 36.4222C34.6829 36.4326 34.7183 36.4505 34.7492 36.4749C34.7801 36.4993 34.8059 36.5297 34.8253 36.5644C34.8448 36.599 34.8574 36.6371 34.8625 36.6766C34.8676 36.7162 34.865 36.7564 34.8549 36.7949C34.8448 36.8334 34.8274 36.8696 34.8037 36.9012C34.78 36.9328 34.7504 36.9594 34.7166 36.9793C34.6709 37.0053 34.6196 37.019 34.5674 37.0192C34.5156 37.0193 34.4648 37.0056 34.4198 36.9794C34.3749 36.9531 34.3374 36.9154 34.3111 36.8698V36.8681ZM5.65751 36.8764C5.58965 36.8359 5.54018 36.7695 5.51983 36.6918C5.49948 36.6142 5.50991 36.5314 5.54884 36.4615C5.56817 36.427 5.59397 36.3968 5.62475 36.3725C5.65553 36.3483 5.69069 36.3305 5.72821 36.3201C5.76573 36.3098 5.80488 36.3071 5.8434 36.3123C5.88193 36.3175 5.91907 36.3304 5.95271 36.3503C5.98679 36.3699 6.01671 36.3963 6.04069 36.4279C6.06467 36.4596 6.08224 36.4957 6.09236 36.5344C6.10248 36.573 6.10496 36.6134 6.09964 36.653C6.09432 36.6927 6.08131 36.7308 6.06138 36.7652C6.03555 36.8114 5.99821 36.8496 5.95319 36.8762C5.90817 36.9027 5.85707 36.9165 5.80511 36.9163C5.75348 36.9171 5.70255 36.9039 5.65751 36.8781V36.8764ZM35.6817 36.0582C35.6618 36.0239 35.6488 35.9859 35.6435 35.9464C35.6382 35.9069 35.6407 35.8667 35.6508 35.8282C35.6609 35.7896 35.6785 35.7536 35.7025 35.7221C35.7264 35.6907 35.7563 35.6644 35.7903 35.645C35.8239 35.6249 35.8611 35.6118 35.8996 35.6065C35.9382 35.6012 35.9774 35.6038 36.015 35.6141C36.0526 35.6245 36.0878 35.6423 36.1186 35.6667C36.1493 35.6911 36.175 35.7215 36.1942 35.7562C36.2331 35.8258 36.2434 35.9083 36.2231 35.9857C36.2027 36.0631 36.1533 36.1292 36.0855 36.1694C36.0405 36.1956 35.9897 36.2099 35.9379 36.2109C35.8859 36.2114 35.8348 36.1976 35.7897 36.1711C35.7447 36.1445 35.7074 36.1061 35.6817 36.0599V36.0582ZM4.28858 36.0665C4.25465 36.0468 4.2249 36.0203 4.20105 35.9887C4.17719 35.957 4.1597 35.9209 4.1496 35.8823C4.13949 35.8437 4.13696 35.8035 4.14217 35.7639C4.14737 35.7243 4.1602 35.6861 4.1799 35.6516C4.21986 35.5825 4.28468 35.5322 4.36048 35.5114C4.43628 35.4906 4.51702 35.501 4.5854 35.5404C4.65326 35.581 4.70273 35.6474 4.72308 35.725C4.74342 35.8027 4.733 35.8855 4.69407 35.9553C4.66818 36.0015 4.63088 36.04 4.5859 36.0668C4.54092 36.0936 4.48985 36.1078 4.4378 36.108C4.38544 36.1089 4.33383 36.0952 4.28858 36.0682V36.0665ZM37.0522 35.25C37.0133 35.1801 37.0029 35.0974 37.0232 35.0197C37.0436 34.942 37.093 34.8757 37.1609 34.8351C37.1946 34.8149 37.2319 34.8018 37.2706 34.7965C37.3093 34.7912 37.3486 34.7937 37.3863 34.8041C37.424 34.8144 37.4594 34.8323 37.4903 34.8567C37.5212 34.8811 37.5471 34.9116 37.5664 34.9463C37.5861 34.9808 37.5989 35.0189 37.6041 35.0585C37.6093 35.0981 37.6068 35.1384 37.5967 35.177C37.5866 35.2155 37.5691 35.2517 37.5452 35.2833C37.5214 35.3149 37.4916 35.3414 37.4577 35.3612C37.4122 35.3875 37.3608 35.4012 37.3085 35.401C37.2563 35.4014 37.2049 35.3878 37.1594 35.3616C37.1138 35.3354 37.0758 35.2975 37.049 35.2517L37.0522 35.25ZM2.92288 35.2583C2.8888 35.2387 2.85889 35.2123 2.83491 35.1807C2.81093 35.1491 2.79336 35.1129 2.78324 35.0742C2.77311 35.0356 2.77064 34.9953 2.77596 34.9556C2.78128 34.916 2.79428 34.8778 2.81421 34.8434C2.83354 34.8089 2.85934 34.7787 2.89012 34.7544C2.9209 34.7301 2.95606 34.7123 2.99358 34.702C3.0311 34.6917 3.07025 34.689 3.10877 34.6942C3.1473 34.6994 3.18445 34.7123 3.21808 34.7322C3.25184 34.7521 3.28144 34.7787 3.30517 34.8103C3.3289 34.842 3.34632 34.8781 3.35641 34.9166C3.3665 34.9552 3.36907 34.9953 3.36398 35.0349C3.3589 35.0744 3.34624 35.1126 3.32675 35.1471C3.30042 35.1928 3.26297 35.2307 3.21806 35.2572C3.17315 35.2836 3.12231 35.2977 3.07048 35.2981C3.01768 35.3003 2.96537 35.287 2.91964 35.26L2.92288 35.2583ZM37.9313 34.0335C37.9311 33.9937 37.9386 33.9542 37.9533 33.9174C37.9681 33.8806 37.9898 33.8471 38.0172 33.8188C38.0446 33.7906 38.0773 33.7682 38.1132 33.7529C38.1491 33.7377 38.1876 33.7298 38.2265 33.7298C38.2656 33.7296 38.3043 33.7373 38.3404 33.7525C38.3765 33.7676 38.4093 33.79 38.4369 33.8183C38.4645 33.8465 38.4864 33.8801 38.5012 33.917C38.516 33.954 38.5236 33.9936 38.5233 34.0335C38.5233 34.114 38.4921 34.1913 38.4364 34.2483C38.3807 34.3052 38.3052 34.3372 38.2265 34.3372C38.1481 34.3368 38.073 34.3046 38.0177 34.2477C37.9624 34.1908 37.9313 34.1138 37.9313 34.0335ZM2.02269 33.8211C2.02269 33.7405 2.05397 33.6633 2.10963 33.6063C2.16529 33.5494 2.24079 33.5174 2.31951 33.5174C2.39795 33.5178 2.47303 33.55 2.52835 33.6069C2.58366 33.6638 2.61471 33.7408 2.61471 33.8211C2.61428 33.9015 2.58288 33.9785 2.5273 34.0353C2.47173 34.0922 2.39648 34.1243 2.31789 34.1248C2.23958 34.1239 2.16475 34.0916 2.10952 34.0348C2.0543 33.978 2.02311 33.9012 2.02269 33.8211ZM37.9313 32.4071C37.9311 32.3673 37.9386 32.3278 37.9533 32.291C37.9681 32.2541 37.9898 32.2206 38.0172 32.1924C38.0446 32.1642 38.0773 32.1418 38.1132 32.1265C38.1491 32.1112 38.1876 32.1034 38.2265 32.1034C38.2656 32.1031 38.3043 32.1108 38.3404 32.126C38.3765 32.1412 38.4093 32.1636 38.4369 32.1918C38.4645 32.2201 38.4864 32.2536 38.5012 32.2906C38.516 32.3275 38.5236 32.3671 38.5233 32.4071C38.5236 32.447 38.516 32.4866 38.5012 32.5236C38.4864 32.5605 38.4645 32.5941 38.4369 32.6223C38.4093 32.6506 38.3765 32.6729 38.3404 32.6881C38.3043 32.7033 38.2656 32.711 38.2265 32.7108C38.1876 32.7108 38.1491 32.7029 38.1132 32.6876C38.0773 32.6723 38.0446 32.65 38.0172 32.6217C37.9898 32.5935 37.9681 32.56 37.9533 32.5232C37.9386 32.4863 37.9311 32.4469 37.9313 32.4071ZM2.02269 32.2079C2.02269 32.1274 2.05397 32.0501 2.10963 31.9932C2.16529 31.9362 2.24079 31.9042 2.31951 31.9042C2.39795 31.9046 2.47303 31.9368 2.52835 31.9937C2.58366 32.0507 2.61471 32.1277 2.61471 32.2079C2.61428 32.2883 2.58288 32.3653 2.5273 32.4222C2.47173 32.4791 2.39648 32.5112 2.31789 32.5116C2.23958 32.5108 2.16475 32.4784 2.10952 32.4216C2.0543 32.3648 2.02311 32.288 2.02269 32.2079ZM37.9313 30.7939C37.9311 30.7541 37.9386 30.7147 37.9533 30.6778C37.9681 30.641 37.9898 30.6075 38.0172 30.5793C38.0446 30.551 38.0773 30.5286 38.1132 30.5134C38.1491 30.4981 38.1876 30.4902 38.2265 30.4902C38.2656 30.49 38.3043 30.4977 38.3404 30.5129C38.3765 30.5281 38.4093 30.5504 38.4369 30.5787C38.4645 30.6069 38.4864 30.6405 38.5012 30.6774C38.516 30.7144 38.5236 30.754 38.5233 30.7939C38.5236 30.8339 38.516 30.8735 38.5012 30.9104C38.4864 30.9474 38.4645 30.9809 38.4369 31.0092C38.4093 31.0374 38.3765 31.0598 38.3404 31.075C38.3043 31.0901 38.2656 31.0979 38.2265 31.0976C38.1872 31.0976 38.1483 31.0896 38.112 31.074C38.0758 31.0584 38.043 31.0356 38.0155 31.0068C37.988 30.9781 37.9664 30.944 37.9519 30.9066C37.9375 30.8692 37.9305 30.8292 37.9313 30.7889V30.7939ZM2.02269 30.5848C2.02269 30.5043 2.05397 30.427 2.10963 30.3701C2.16529 30.3131 2.24079 30.2811 2.31951 30.2811C2.39795 30.2815 2.47303 30.3137 2.52835 30.3706C2.58366 30.4275 2.61471 30.5045 2.61471 30.5848C2.61471 30.6654 2.58344 30.7426 2.52777 30.7996C2.47211 30.8565 2.39661 30.8885 2.31789 30.8885C2.23945 30.8881 2.16437 30.8559 2.10906 30.799C2.05374 30.7421 2.02269 30.6651 2.02269 30.5848ZM37.9313 29.1708C37.9311 29.131 37.9386 29.0915 37.9533 29.0547C37.9681 29.0179 37.9898 28.9844 38.0172 28.9562C38.0446 28.9279 38.0773 28.9055 38.1132 28.8903C38.1491 28.875 38.1876 28.8671 38.2265 28.8671C38.2656 28.8669 38.3043 28.8746 38.3404 28.8898C38.3765 28.905 38.4093 28.9273 38.4369 28.9556C38.4645 28.9838 38.4864 29.0174 38.5012 29.0543C38.516 29.0913 38.5236 29.1309 38.5233 29.1708C38.5233 29.2514 38.4921 29.3286 38.4364 29.3856C38.3807 29.4425 38.3052 29.4745 38.2265 29.4745C38.1481 29.4741 38.073 29.4419 38.0177 29.385C37.9624 29.3281 37.9313 29.2511 37.9313 29.1708ZM2.02269 28.9667C2.02269 28.8861 2.05397 28.8089 2.10963 28.7519C2.16529 28.695 2.24079 28.663 2.31951 28.663C2.3981 28.6634 2.47335 28.6955 2.52892 28.7524C2.5845 28.8093 2.61591 28.8863 2.61633 28.9667C2.61591 29.0471 2.5845 29.1241 2.52892 29.181C2.47335 29.2378 2.3981 29.27 2.31951 29.2704C2.24079 29.2704 2.16529 29.2384 2.10963 29.1814C2.05397 29.1245 2.02269 29.0472 2.02269 28.9667ZM37.9313 27.561C37.9311 27.5212 37.9386 27.4817 37.9533 27.4449C37.9681 27.408 37.9898 27.3745 38.0172 27.3463C38.0446 27.3181 38.0773 27.2957 38.1132 27.2804C38.1491 27.2651 38.1876 27.2573 38.2265 27.2573C38.2656 27.257 38.3043 27.2648 38.3404 27.2799C38.3765 27.2951 38.4093 27.3175 38.4369 27.3457C38.4645 27.374 38.4864 27.4075 38.5012 27.4445C38.516 27.4814 38.5236 27.521 38.5233 27.561C38.5233 27.6415 38.4921 27.7188 38.4364 27.7757C38.3807 27.8327 38.3052 27.8647 38.2265 27.8647C38.1481 27.8643 38.073 27.8321 38.0177 27.7752C37.9624 27.7182 37.9313 27.6412 37.9313 27.561ZM2.02269 27.3485C2.02269 27.3087 2.03037 27.2692 2.04529 27.2323C2.06021 27.1955 2.08207 27.162 2.10963 27.1338C2.13719 27.1056 2.16991 27.0832 2.20593 27.068C2.24194 27.0527 2.28053 27.0448 2.31951 27.0448C2.3981 27.0453 2.47335 27.0774 2.52892 27.1343C2.5845 27.1911 2.61591 27.2681 2.61633 27.3485C2.61549 27.4288 2.58395 27.5056 2.52846 27.5623C2.47298 27.6191 2.39797 27.6514 2.31951 27.6523C2.24092 27.6518 2.16567 27.6197 2.1101 27.5628C2.05453 27.506 2.02312 27.429 2.02269 27.3485ZM37.9313 25.9345C37.9313 25.8543 37.9624 25.7773 38.0177 25.7204C38.073 25.6635 38.1481 25.6313 38.2265 25.6308C38.2656 25.6306 38.3043 25.6383 38.3404 25.6535C38.3765 25.6687 38.4093 25.6911 38.4369 25.7193C38.4645 25.7476 38.4864 25.7811 38.5012 25.8181C38.516 25.855 38.5236 25.8946 38.5233 25.9345C38.5236 25.9745 38.516 26.0141 38.5012 26.051C38.4864 26.088 38.4645 26.1215 38.4369 26.1498C38.4093 26.178 38.3765 26.2004 38.3404 26.2156C38.3043 26.2308 38.2656 26.2385 38.2265 26.2383C38.1481 26.2378 38.073 26.2056 38.0177 26.1487C37.9624 26.0918 37.9313 26.0148 37.9313 25.9345ZM2.02269 25.7354C2.02269 25.6548 2.05397 25.5776 2.10963 25.5206C2.16529 25.4637 2.24079 25.4317 2.31951 25.4317C2.3981 25.4321 2.47335 25.4643 2.52892 25.5211C2.5845 25.578 2.61591 25.655 2.61633 25.7354C2.61591 25.8158 2.5845 25.8928 2.52892 25.9497C2.47335 26.0065 2.3981 26.0387 2.31951 26.0391C2.24079 26.0391 2.16529 26.0071 2.10963 25.9502C2.05397 25.8932 2.02269 25.8159 2.02269 25.7354ZM37.9313 24.3214C37.9313 24.2411 37.9624 24.1641 38.0177 24.1072C38.073 24.0503 38.1481 24.0181 38.2265 24.0177C38.2656 24.0175 38.3043 24.0252 38.3404 24.0404C38.3765 24.0555 38.4093 24.0779 38.4369 24.1062C38.4645 24.1344 38.4864 24.168 38.5012 24.2049C38.516 24.2419 38.5236 24.2815 38.5233 24.3214C38.5233 24.4019 38.4921 24.4792 38.4364 24.5362C38.3807 24.5931 38.3052 24.6251 38.2265 24.6251C38.1873 24.6247 38.1486 24.6163 38.1126 24.6006C38.0765 24.5848 38.0439 24.562 38.0164 24.5333C37.989 24.5047 37.9674 24.4708 37.9528 24.4335C37.9382 24.3963 37.9309 24.3565 37.9313 24.3164V24.3214ZM2.02269 24.1123C2.02269 24.0317 2.05397 23.9545 2.10963 23.8975C2.16529 23.8406 2.24079 23.8086 2.31951 23.8086C2.3981 23.809 2.47335 23.8411 2.52892 23.898C2.5845 23.9549 2.61591 24.0319 2.61633 24.1123C2.61591 24.1927 2.5845 24.2697 2.52892 24.3266C2.47335 24.3834 2.3981 24.4156 2.31951 24.416C2.28053 24.416 2.24194 24.4081 2.20593 24.3929C2.16991 24.3776 2.13719 24.3552 2.10963 24.327C2.08207 24.2988 2.06021 24.2654 2.04529 24.2285C2.03037 24.1917 2.02269 24.1522 2.02269 24.1123ZM37.9313 22.6983C37.9313 22.618 37.9624 22.541 38.0177 22.4841C38.073 22.4272 38.1481 22.395 38.2265 22.3946C38.2656 22.3944 38.3043 22.4021 38.3404 22.4172C38.3765 22.4324 38.4093 22.4548 38.4369 22.483C38.4645 22.5113 38.4864 22.5449 38.5012 22.5818C38.516 22.6187 38.5236 22.6583 38.5233 22.6983C38.5233 22.7382 38.5157 22.7777 38.5008 22.8145C38.4858 22.8514 38.464 22.8848 38.4364 22.913C38.4088 22.9412 38.3761 22.9636 38.3401 22.9789C38.3041 22.9941 38.2655 23.002 38.2265 23.002C38.1482 23.0011 38.0734 22.9688 38.0182 22.912C37.9629 22.8552 37.9318 22.7784 37.9313 22.6983ZM2.02269 22.4942C2.02269 22.4136 2.05397 22.3364 2.10963 22.2794C2.16529 22.2224 2.24079 22.1904 2.31951 22.1904C2.3981 22.1909 2.47335 22.223 2.52892 22.2799C2.5845 22.3367 2.61591 22.4137 2.61633 22.4942C2.61591 22.5746 2.5845 22.6516 2.52892 22.7084C2.47335 22.7653 2.3981 22.7974 2.31951 22.7979C2.24092 22.7974 2.16567 22.7653 2.1101 22.7084C2.05453 22.6516 2.02312 22.5746 2.02269 22.4942ZM37.9313 21.0885C37.9313 21.0082 37.9624 20.9312 38.0177 20.8743C38.073 20.8174 38.1481 20.7852 38.2265 20.7847C38.2656 20.7845 38.3043 20.7922 38.3404 20.8074C38.3765 20.8226 38.4093 20.845 38.4369 20.8732C38.4645 20.9015 38.4864 20.935 38.5012 20.972C38.516 21.0089 38.5236 21.0485 38.5233 21.0885C38.5236 21.1284 38.516 21.168 38.5012 21.2049C38.4864 21.2419 38.4645 21.2755 38.4369 21.3037C38.4093 21.3319 38.3765 21.3543 38.3404 21.3695C38.3043 21.3847 38.2656 21.3924 38.2265 21.3922C38.1481 21.3917 38.073 21.3595 38.0177 21.3026C37.9624 21.2457 37.9313 21.1687 37.9313 21.0885ZM2.02269 20.876C2.02269 20.7955 2.05397 20.7182 2.10963 20.6613C2.16529 20.6043 2.24079 20.5723 2.31951 20.5723C2.3981 20.5727 2.47335 20.6049 2.52892 20.6617C2.5845 20.7186 2.61591 20.7956 2.61633 20.876C2.61591 20.9564 2.5845 21.0334 2.52892 21.0903C2.47335 21.1472 2.3981 21.1793 2.31951 21.1797C2.24079 21.1797 2.16529 21.1477 2.10963 21.0908C2.05397 21.0338 2.02269 20.9566 2.02269 20.876ZM37.9313 19.462C37.9313 19.3818 37.9624 19.3048 38.0177 19.2479C38.073 19.1909 38.1481 19.1588 38.2265 19.1583C38.2656 19.1581 38.3043 19.1658 38.3404 19.181C38.3765 19.1962 38.4093 19.2185 38.4369 19.2468C38.4645 19.275 38.4864 19.3086 38.5012 19.3455C38.516 19.3825 38.5236 19.4221 38.5233 19.462C38.5233 19.5426 38.4921 19.6198 38.4364 19.6768C38.3807 19.7337 38.3052 19.7657 38.2265 19.7657C38.1482 19.7649 38.0734 19.7325 38.0182 19.6757C37.9629 19.6189 37.9318 19.5422 37.9313 19.462ZM2.02269 19.2629C2.02269 19.223 2.03037 19.1835 2.04529 19.1466C2.06021 19.1098 2.08207 19.0763 2.10963 19.0481C2.13719 19.0199 2.16991 18.9975 2.20593 18.9823C2.24194 18.967 2.28053 18.9592 2.31951 18.9592C2.3981 18.9596 2.47335 18.9917 2.52892 19.0486C2.5845 19.1055 2.61591 19.1825 2.61633 19.2629C2.61591 19.3433 2.5845 19.4203 2.52892 19.4771C2.47335 19.534 2.3981 19.5661 2.31951 19.5666C2.24079 19.5666 2.16529 19.5346 2.10963 19.4776C2.05397 19.4207 2.02269 19.3434 2.02269 19.2629ZM37.9313 17.8489C37.9313 17.7686 37.9624 17.6916 38.0177 17.6347C38.073 17.5778 38.1481 17.5456 38.2265 17.5452C38.2656 17.5449 38.3043 17.5526 38.3404 17.5678C38.3765 17.583 38.4093 17.6054 38.4369 17.6336C38.4645 17.6619 38.4864 17.6954 38.5012 17.7324C38.516 17.7693 38.5236 17.8089 38.5233 17.8489C38.5233 17.9294 38.4921 18.0067 38.4364 18.0636C38.3807 18.1206 38.3052 18.1526 38.2265 18.1526C38.1873 18.1522 38.1486 18.1438 38.1126 18.1281C38.0765 18.1123 38.0439 18.0895 38.0164 18.0608C37.989 18.0321 37.9674 17.9982 37.9528 17.961C37.9382 17.9238 37.9309 17.884 37.9313 17.8439V17.8489ZM2.02269 17.6398C2.02269 17.5592 2.05397 17.482 2.10963 17.425C2.16529 17.368 2.24079 17.3361 2.31951 17.3361C2.3981 17.3365 2.47335 17.3686 2.52892 17.4255C2.5845 17.4823 2.61591 17.5593 2.61633 17.6398C2.61591 17.7202 2.5845 17.7972 2.52892 17.854C2.47335 17.9109 2.3981 17.943 2.31951 17.9435C2.24092 17.943 2.16567 17.9109 2.1101 17.854C2.05453 17.7972 2.02312 17.7202 2.02269 17.6398ZM37.9329 16.2258C37.9327 16.1861 37.9402 16.1468 37.9548 16.11C37.9694 16.0733 37.991 16.0399 38.0183 16.0117C38.0455 15.9835 38.0779 15.9611 38.1137 15.9457C38.1494 15.9303 38.1878 15.9223 38.2265 15.9221C38.2656 15.9218 38.3043 15.9295 38.3404 15.9447C38.3765 15.9599 38.4093 15.9823 38.4369 16.0105C38.4645 16.0388 38.4864 16.0723 38.5012 16.1093C38.516 16.1462 38.5236 16.1858 38.5233 16.2258C38.5236 16.2657 38.516 16.3053 38.5012 16.3422C38.4864 16.3792 38.4645 16.4128 38.4369 16.441C38.4093 16.4693 38.3765 16.4916 38.3404 16.5068C38.3043 16.522 38.2656 16.5297 38.2265 16.5295C38.1877 16.5295 38.1493 16.5216 38.1134 16.5063C38.0776 16.491 38.0451 16.4686 38.0178 16.4403C37.9905 16.4121 37.9689 16.3786 37.9544 16.3417C37.9398 16.3049 37.9325 16.2655 37.9329 16.2258ZM2.02269 16.0216C2.02269 15.9411 2.05397 15.8638 2.10963 15.8069C2.16529 15.7499 2.24079 15.7179 2.31951 15.7179C2.39823 15.7179 2.47373 15.7499 2.5294 15.8069C2.58506 15.8638 2.61633 15.9411 2.61633 16.0216C2.61591 16.102 2.5845 16.179 2.52892 16.2359C2.47335 16.2928 2.3981 16.3249 2.31951 16.3253C2.24092 16.3249 2.16567 16.2928 2.1101 16.2359C2.05453 16.179 2.02312 16.102 2.02269 16.0216ZM37.9329 14.6159C37.9327 14.5763 37.9402 14.5369 37.9548 14.5002C37.9694 14.4635 37.991 14.4301 38.0183 14.4019C38.0455 14.3737 38.0779 14.3512 38.1137 14.3358C38.1494 14.3205 38.1878 14.3124 38.2265 14.3122C38.2656 14.312 38.3043 14.3197 38.3404 14.3349C38.3765 14.3501 38.4093 14.3724 38.4369 14.4007C38.4645 14.4289 38.4864 14.4625 38.5012 14.4994C38.516 14.5364 38.5236 14.576 38.5233 14.6159C38.5233 14.6965 38.4921 14.7737 38.4364 14.8307C38.3807 14.8876 38.3052 14.9196 38.2265 14.9196C38.1878 14.9194 38.1494 14.9114 38.1137 14.896C38.0779 14.8806 38.0455 14.8582 38.0183 14.83C37.991 14.8018 37.9694 14.7684 37.9548 14.7316C37.9402 14.6949 37.9327 14.6556 37.9329 14.6159ZM2.02269 14.4118C2.02269 14.3312 2.05397 14.254 2.10963 14.197C2.16529 14.1401 2.24079 14.1081 2.31951 14.1081C2.39823 14.1081 2.47373 14.1401 2.5294 14.197C2.58506 14.254 2.61633 14.3312 2.61633 14.4118C2.61633 14.4923 2.58506 14.5696 2.5294 14.6266C2.47373 14.6835 2.39823 14.7155 2.31951 14.7155C2.27984 14.7155 2.24057 14.7074 2.20402 14.6916C2.16747 14.6758 2.13438 14.6527 2.10671 14.6236C2.07904 14.5946 2.05735 14.5601 2.04292 14.5223C2.02849 14.4845 2.02161 14.4441 2.02269 14.4035V14.4118ZM2.06324 13.5007C2.04361 13.4664 2.03084 13.4285 2.02567 13.3892C2.02051 13.3499 2.02307 13.3099 2.03318 13.2715C2.0433 13.2332 2.06078 13.1974 2.0846 13.166C2.10842 13.1347 2.1381 13.1085 2.17191 13.0891C2.2399 13.0487 2.32078 13.0375 2.3968 13.058C2.47283 13.0786 2.53778 13.1291 2.5774 13.1986C2.61626 13.2682 2.62664 13.3507 2.60628 13.4281C2.58593 13.5056 2.53648 13.5716 2.46873 13.6119C2.42339 13.6388 2.37194 13.6531 2.31951 13.6533C2.26654 13.6528 2.21471 13.6376 2.16956 13.6092C2.12442 13.5809 2.08767 13.5405 2.06324 13.4924V13.5007ZM37.7821 13.4276C37.7484 13.4079 37.7188 13.3815 37.6951 13.35C37.6714 13.3185 37.654 13.2825 37.6439 13.2441C37.6338 13.2057 37.6312 13.1657 37.6363 13.1262C37.6414 13.0868 37.654 13.0488 37.6734 13.0144C37.6929 12.9799 37.7189 12.9496 37.7498 12.9253C37.7807 12.901 37.816 12.8832 37.8537 12.8729C37.8913 12.8625 37.9306 12.8599 37.9692 12.8651C38.0079 12.8703 38.0452 12.8833 38.0789 12.9032C38.1467 12.9435 38.1961 13.0095 38.2165 13.0869C38.2368 13.1643 38.2265 13.2468 38.1876 13.3164C38.1616 13.3629 38.124 13.4015 38.0787 13.4283C38.0334 13.4551 37.982 13.4692 37.9297 13.4691C37.8778 13.4689 37.8269 13.4546 37.7821 13.4276ZM3.43218 12.6841C3.41257 12.6497 3.39987 12.6116 3.3948 12.572C3.38974 12.5325 3.39242 12.4923 3.40268 12.4539C3.41295 12.4154 3.4306 12.3794 3.4546 12.348C3.4786 12.3166 3.50847 12.2904 3.54247 12.2709C3.57611 12.251 3.61325 12.2381 3.65178 12.2329C3.6903 12.2277 3.72945 12.2303 3.76697 12.2407C3.80449 12.251 3.83965 12.2688 3.87043 12.2931C3.90122 12.3173 3.92701 12.3476 3.94634 12.3821C3.9852 12.4517 3.99558 12.5342 3.97522 12.6116C3.95486 12.689 3.90542 12.7551 3.83767 12.7953C3.79279 12.8218 3.74185 12.8355 3.69007 12.8352C3.63781 12.8359 3.58631 12.8223 3.54094 12.7957C3.49558 12.7692 3.45802 12.7306 3.43218 12.6841ZM36.4099 12.6244C36.3424 12.5835 36.2932 12.5172 36.2729 12.4396C36.2526 12.3621 36.2627 12.2794 36.3013 12.2095C36.3207 12.1749 36.3467 12.1447 36.3776 12.1204C36.4085 12.0961 36.4438 12.0783 36.4815 12.0679C36.5191 12.0576 36.5584 12.055 36.5971 12.0602C36.6357 12.0654 36.673 12.0783 36.7067 12.0983C36.7407 12.1181 36.7704 12.1445 36.7943 12.1762C36.8181 12.2078 36.8356 12.2439 36.8457 12.2825C36.8558 12.3211 36.8584 12.3614 36.8532 12.401C36.848 12.4406 36.8351 12.4787 36.8154 12.5132C36.7893 12.5591 36.7519 12.5972 36.707 12.6237C36.662 12.6502 36.611 12.6642 36.5591 12.6642C36.5068 12.6646 36.4554 12.6509 36.4099 12.6244ZM4.80274 11.8742C4.78325 11.84 4.77057 11.8023 4.7654 11.763C4.76024 11.7238 4.7627 11.6839 4.77265 11.6457C4.7826 11.6074 4.79984 11.5716 4.82337 11.5402C4.8469 11.5087 4.87627 11.4824 4.90979 11.4627C4.94349 11.4425 4.98077 11.4294 5.01947 11.424C5.05816 11.4187 5.09751 11.4213 5.13522 11.4316C5.17293 11.442 5.20826 11.4599 5.23917 11.4843C5.27008 11.5087 5.29595 11.5391 5.31528 11.5738C5.3347 11.6081 5.34729 11.646 5.35233 11.6853C5.35738 11.7246 5.35478 11.7645 5.34467 11.8028C5.33457 11.841 5.31717 11.8769 5.29348 11.9082C5.26978 11.9396 5.24026 11.9658 5.20661 11.9854C5.16265 12.013 5.11221 12.028 5.06063 12.0286C5.00804 12.029 4.95632 12.0149 4.91093 11.9877C4.86553 11.9606 4.82815 11.9213 4.80274 11.8742ZM35.041 11.8095C34.9731 11.769 34.9237 11.7025 34.9036 11.6247C34.8835 11.5469 34.8944 11.4642 34.9339 11.3946C34.973 11.3254 35.0372 11.2748 35.1126 11.254C35.188 11.2332 35.2684 11.2437 35.3362 11.2834C35.3701 11.3032 35.3999 11.3297 35.4237 11.3613C35.4476 11.3929 35.4651 11.4291 35.4752 11.4677C35.4853 11.5062 35.4878 11.5465 35.4826 11.5861C35.4774 11.6257 35.4646 11.6638 35.4449 11.6983C35.4194 11.7449 35.3821 11.7836 35.3371 11.8104C35.292 11.8373 35.2407 11.8513 35.1886 11.851C35.1367 11.8508 35.0857 11.8365 35.041 11.8095ZM6.17005 11.066C6.1312 10.9964 6.12082 10.9139 6.14118 10.8365C6.16153 10.7591 6.21098 10.693 6.27872 10.6528C6.31243 10.6326 6.34971 10.6195 6.3884 10.6141C6.4271 10.6088 6.46644 10.6114 6.50415 10.6217C6.54187 10.6321 6.5772 10.65 6.60811 10.6744C6.63902 10.6988 6.66488 10.7292 6.68421 10.764C6.70411 10.7983 6.71709 10.8363 6.72239 10.8758C6.72769 10.9153 6.7252 10.9555 6.71507 10.994C6.70494 11.0325 6.68738 11.0686 6.66341 11.1001C6.63945 11.1315 6.60957 11.1577 6.57554 11.1772C6.53105 11.2048 6.47995 11.2191 6.42795 11.2187C6.37562 11.2188 6.32421 11.2047 6.27892 11.1779C6.23363 11.151 6.19607 11.1125 6.17005 11.066ZM33.6721 11.0013C33.6381 10.9815 33.6084 10.955 33.5845 10.9234C33.5607 10.8918 33.5432 10.8556 33.5331 10.817C33.523 10.7784 33.5204 10.7382 33.5256 10.6986C33.5308 10.659 33.5437 10.6209 33.5634 10.5864C33.5829 10.5518 33.6088 10.5215 33.6397 10.4973C33.6707 10.473 33.706 10.4552 33.7436 10.4448C33.7813 10.4345 33.8205 10.4319 33.8592 10.4371C33.8978 10.4423 33.9351 10.4552 33.9689 10.4752C34.0368 10.5157 34.0862 10.5822 34.1063 10.66C34.1263 10.7378 34.1154 10.8205 34.0759 10.8901C34.0498 10.9363 34.0122 10.9747 33.9669 11.0012C33.9216 11.0277 33.8702 11.0415 33.818 11.0411C33.7667 11.0417 33.7163 11.0279 33.6721 11.0013ZM7.54061 10.2594C7.50152 10.1891 7.491 10.1058 7.51133 10.0276C7.53166 9.94934 7.5812 9.88241 7.64928 9.8412C7.71785 9.80194 7.79874 9.79177 7.87456 9.81287C7.95038 9.83398 8.01508 9.88467 8.05477 9.95406C8.07423 9.98847 8.08685 10.0265 8.09192 10.0659C8.09698 10.1053 8.09439 10.1454 8.0843 10.1838C8.0742 10.2222 8.0568 10.2581 8.03308 10.2896C8.00937 10.3211 7.97981 10.3475 7.9461 10.3673C7.90142 10.3944 7.85044 10.4087 7.7985 10.4088C7.7465 10.4092 7.6953 10.3956 7.65004 10.3694C7.60478 10.3432 7.56704 10.3053 7.54061 10.2594ZM32.3031 10.1914C32.2694 10.1714 32.2398 10.1449 32.216 10.1132C32.1923 10.0816 32.1749 10.0455 32.1648 10.007C32.1547 9.96843 32.1521 9.92825 32.1572 9.8887C32.1623 9.84915 32.175 9.81102 32.1944 9.77648C32.2338 9.70715 32.2983 9.65656 32.374 9.63573C32.4496 9.6149 32.5303 9.62552 32.5983 9.66528C32.6662 9.70586 32.7156 9.7722 32.736 9.84988C32.7563 9.92756 32.7459 10.0103 32.707 10.0802C32.6812 10.1265 32.644 10.165 32.5989 10.1918C32.5539 10.2187 32.5028 10.2328 32.4507 10.2329C32.3987 10.2333 32.3476 10.2189 32.3031 10.1914ZM8.91117 9.44787C8.89146 9.41338 8.87863 9.37524 8.87343 9.33565C8.86823 9.29605 8.87075 9.2558 8.88086 9.21721C8.89097 9.17862 8.90846 9.14246 8.93231 9.11084C8.95617 9.07921 8.98592 9.05275 9.01984 9.03297C9.08812 8.99313 9.169 8.98246 9.24492 9.00328C9.32084 9.0241 9.38567 9.07472 9.42533 9.14416C9.46426 9.21403 9.47469 9.29679 9.45434 9.37447C9.434 9.45215 9.38452 9.51849 9.31666 9.55907C9.27132 9.586 9.21987 9.6003 9.16744 9.60056C9.11536 9.6005 9.06422 9.58635 9.01921 9.55953C8.9742 9.53271 8.93692 9.49419 8.91117 9.44787ZM30.9326 9.38315C30.8988 9.36321 30.8692 9.33666 30.8455 9.30501C30.8217 9.27337 30.8043 9.23725 30.7942 9.19873C30.7841 9.1602 30.7816 9.12001 30.7867 9.08046C30.7917 9.04092 30.8044 9.00278 30.8239 8.96824C30.8434 8.93369 30.8693 8.90341 30.9002 8.87913C30.9312 8.85484 30.9665 8.83703 31.0041 8.8267C31.0418 8.81638 31.0811 8.81374 31.1197 8.81895C31.1583 8.82416 31.1956 8.8371 31.2294 8.85705C31.2631 8.87699 31.2927 8.90353 31.3165 8.93518C31.3402 8.96682 31.3576 9.00294 31.3677 9.04147C31.3778 9.08 31.3804 9.12018 31.3753 9.15973C31.3702 9.19927 31.3575 9.23741 31.3381 9.27195C31.3117 9.31798 31.274 9.35614 31.2288 9.38264C31.1835 9.40914 31.1323 9.42304 31.0802 9.42298C31.0283 9.42357 30.9773 9.40981 30.9326 9.38315ZM10.2801 8.64129C10.2607 8.60701 10.2481 8.56912 10.2431 8.52983C10.238 8.49054 10.2406 8.45061 10.2507 8.41235C10.2608 8.3741 10.2782 8.33826 10.3019 8.30692C10.3256 8.27557 10.3551 8.24933 10.3888 8.22971C10.4566 8.18915 10.5373 8.17773 10.6133 8.19795C10.6893 8.21816 10.7544 8.26838 10.7943 8.33758C10.8332 8.40745 10.8436 8.49021 10.8233 8.56789C10.8029 8.64558 10.7535 8.71191 10.6856 8.75249C10.6408 8.77943 10.5899 8.79375 10.538 8.79398C10.4856 8.79439 10.4341 8.78045 10.3887 8.7536C10.3434 8.72675 10.3059 8.68798 10.2801 8.64129ZM29.562 8.57657C29.4941 8.53599 29.4447 8.46966 29.4243 8.39197C29.404 8.31429 29.4144 8.23153 29.4533 8.16166C29.493 8.09223 29.5578 8.0416 29.6337 8.02079C29.7097 7.99997 29.7905 8.01063 29.8588 8.05047C29.9267 8.09105 29.9762 8.15738 29.9965 8.23507C30.0168 8.31275 30.0064 8.39551 29.9675 8.46538C29.9417 8.5117 29.9045 8.55022 29.8595 8.57703C29.8144 8.60385 29.7633 8.618 29.7112 8.61806C29.6585 8.6168 29.607 8.60135 29.562 8.57325V8.57657ZM11.6507 7.83306C11.6311 7.79874 11.6184 7.76082 11.6132 7.72147C11.6081 7.68212 11.6105 7.64211 11.6204 7.60372C11.6304 7.56534 11.6476 7.52934 11.6712 7.49779C11.6947 7.46623 11.7241 7.43973 11.7577 7.41981C11.7914 7.39965 11.8287 7.38652 11.8674 7.3812C11.9061 7.37587 11.9454 7.37846 11.9831 7.3888C12.0209 7.39914 12.0562 7.41704 12.0871 7.44145C12.118 7.46586 12.1439 7.4963 12.1632 7.53101C12.1827 7.56542 12.1953 7.60343 12.2003 7.64285C12.2054 7.68227 12.2028 7.72233 12.1927 7.76072C12.1826 7.79911 12.1652 7.83509 12.1415 7.86658C12.1178 7.89808 12.0882 7.92447 12.0545 7.94425C12.0098 7.97107 11.9588 7.98485 11.9069 7.98409C11.8546 7.98421 11.8032 7.96995 11.7582 7.9428C11.7131 7.91565 11.6759 7.8766 11.6507 7.82974V7.83306ZM28.1947 7.76833C28.1268 7.72775 28.0774 7.66142 28.057 7.58374C28.0367 7.50605 28.0471 7.42329 28.086 7.35343C28.1055 7.31888 28.1314 7.2886 28.1624 7.26432C28.1933 7.24003 28.2286 7.22222 28.2663 7.21189C28.3039 7.20157 28.3432 7.19893 28.3818 7.20414C28.4205 7.20934 28.4577 7.22229 28.4915 7.24223C28.5253 7.26217 28.5549 7.28872 28.5786 7.32037C28.6023 7.35201 28.6197 7.38813 28.6298 7.42665C28.6399 7.46518 28.6425 7.50537 28.6374 7.54492C28.6323 7.58446 28.6197 7.6226 28.6002 7.65714C28.5741 7.7034 28.5365 7.74174 28.4912 7.76828C28.4459 7.79481 28.3945 7.80857 28.3423 7.80817C28.2897 7.80781 28.2381 7.7929 28.1931 7.76502L28.1947 7.76833ZM13.0196 7.02316C12.9813 6.9537 12.9712 6.8716 12.9915 6.79458C13.0118 6.71757 13.061 6.65183 13.1283 6.61158C13.1619 6.59119 13.1992 6.57788 13.238 6.57243C13.2767 6.56699 13.3161 6.56952 13.3539 6.57988C13.3917 6.59024 13.427 6.60822 13.4579 6.63275C13.4888 6.65729 13.5146 6.6879 13.5338 6.72277C13.5534 6.75701 13.5662 6.7949 13.5713 6.83424C13.5765 6.87358 13.5739 6.91358 13.5638 6.9519C13.5537 6.99021 13.5362 7.02609 13.5124 7.05741C13.4886 7.08874 13.4589 7.1149 13.4251 7.13436C13.3807 7.16242 13.3296 7.17736 13.2775 7.17751C13.2244 7.1772 13.1724 7.16243 13.1268 7.13472C13.0812 7.10701 13.0436 7.06735 13.018 7.01985L13.0196 7.02316ZM26.8241 6.95844C26.7562 6.91789 26.7068 6.85143 26.6867 6.77364C26.6667 6.69585 26.6776 6.6131 26.7171 6.54353C26.7564 6.47421 26.821 6.42362 26.8966 6.40279C26.9723 6.38196 27.0529 6.39258 27.1209 6.43234C27.1891 6.47264 27.2389 6.53886 27.2596 6.61656C27.2802 6.69427 27.27 6.77718 27.2312 6.84724C27.2051 6.89358 27.1675 6.93208 27.1222 6.95887C27.077 6.98567 27.0256 6.99983 26.9733 6.99993C26.92 6.99921 26.8679 6.98372 26.8225 6.95512L26.8241 6.95844ZM14.3902 6.21493C14.3707 6.18051 14.3581 6.1425 14.353 6.10308C14.348 6.06366 14.3505 6.02361 14.3606 5.98522C14.3707 5.94682 14.3881 5.91085 14.4119 5.87935C14.4356 5.84786 14.4651 5.82146 14.4988 5.80168C14.5325 5.78152 14.5698 5.76839 14.6085 5.76307C14.6472 5.75774 14.6865 5.76033 14.7243 5.77067C14.762 5.78101 14.7973 5.79891 14.8282 5.82332C14.8591 5.84773 14.885 5.87817 14.9043 5.91288C14.9238 5.94729 14.9364 5.9853 14.9415 6.02472C14.9465 6.06414 14.9439 6.1042 14.9338 6.14259C14.9238 6.18098 14.9063 6.21696 14.8826 6.24845C14.8589 6.27995 14.8294 6.30634 14.7957 6.32612C14.7506 6.35366 14.6989 6.36801 14.6464 6.36761C14.5938 6.36752 14.5421 6.35301 14.4967 6.32557C14.4514 6.29814 14.414 6.25879 14.3885 6.21161L14.3902 6.21493ZM25.4552 6.15186C25.4213 6.13208 25.3915 6.10561 25.3677 6.07399C25.3438 6.04236 25.3263 6.00621 25.3162 5.96762C25.3061 5.92903 25.3036 5.88878 25.3088 5.84918C25.314 5.80959 25.3268 5.77144 25.3465 5.73696C25.366 5.70241 25.392 5.67213 25.4229 5.64785C25.4538 5.62356 25.4891 5.60575 25.5268 5.59542C25.5644 5.58509 25.6037 5.58246 25.6423 5.58767C25.681 5.59287 25.7183 5.60582 25.752 5.62576C25.8195 5.66665 25.8687 5.73298 25.8891 5.81053C25.9094 5.88809 25.8992 5.97071 25.8607 6.04067C25.834 6.08636 25.7962 6.12426 25.751 6.15071C25.7059 6.17716 25.6548 6.19127 25.6028 6.19169C25.5509 6.19271 25.4998 6.17892 25.4552 6.15186ZM15.7591 5.40835C15.7396 5.37394 15.727 5.33593 15.722 5.29651C15.7169 5.25709 15.7195 5.21703 15.7296 5.17864C15.7397 5.14025 15.7571 5.10427 15.7808 5.07278C15.8045 5.04128 15.8341 5.01489 15.8678 4.99511C15.9353 4.95463 16.0158 4.94325 16.0915 4.96348C16.1673 4.98371 16.2321 5.03389 16.2716 5.10298C16.3107 5.17335 16.3212 5.25662 16.3009 5.33484C16.2806 5.41307 16.2311 5.47999 16.163 5.52121C16.1176 5.54631 16.067 5.55996 16.0154 5.56104C15.9628 5.56049 15.9113 5.54558 15.8663 5.51786C15.8212 5.49015 15.7842 5.45062 15.7591 5.40337V5.40835ZM24.0846 5.34197C24.0509 5.32203 24.0213 5.29548 23.9975 5.26384C23.9738 5.23219 23.9564 5.19608 23.9463 5.15755C23.9362 5.11902 23.9336 5.07883 23.9387 5.03929C23.9438 4.99974 23.9565 4.96161 23.976 4.92706C24.0156 4.85763 24.0804 4.807 24.1564 4.78618C24.2323 4.76536 24.3132 4.77603 24.3815 4.81587C24.4152 4.83581 24.4448 4.86236 24.4685 4.894C24.4923 4.92564 24.5097 4.96176 24.5198 5.00029C24.5299 5.03882 24.5324 5.079 24.5274 5.11855C24.5223 5.1581 24.5096 5.19623 24.4901 5.23077C24.4644 5.27709 24.4271 5.31562 24.3821 5.34243C24.3371 5.36925 24.2859 5.3834 24.2339 5.38346C24.1809 5.38219 24.1293 5.36612 24.0846 5.33699V5.34197ZM17.128 4.60012C17.0891 4.53025 17.0787 4.44749 17.099 4.36981C17.1194 4.29213 17.1688 4.22579 17.2367 4.18521C17.3047 4.14479 17.3856 4.13362 17.4616 4.15416C17.5376 4.1747 17.6026 4.22526 17.6422 4.29475C17.6816 4.36476 17.6923 4.44792 17.672 4.526C17.6516 4.60409 17.6018 4.67072 17.5335 4.71131C17.4883 4.73698 17.4376 4.75067 17.3859 4.75114C17.3333 4.75071 17.2818 4.73605 17.2365 4.70865C17.1912 4.68125 17.1538 4.64209 17.128 4.59514V4.60012ZM22.7141 4.53373C22.6462 4.49315 22.5967 4.42682 22.5764 4.34914C22.556 4.27145 22.5665 4.18869 22.6054 4.11883C22.6451 4.04939 22.7099 3.99877 22.7858 3.97795C22.8617 3.95713 22.9426 3.9678 23.0109 4.00763C23.0447 4.02757 23.0742 4.05412 23.098 4.08576C23.1217 4.11741 23.1391 4.15352 23.1492 4.19205C23.1593 4.23058 23.1619 4.27077 23.1568 4.31031C23.1517 4.34986 23.1391 4.38799 23.1196 4.42254C23.0935 4.46844 23.0561 4.50653 23.0111 4.53303C22.9662 4.55953 22.9152 4.57351 22.8633 4.57356C22.8105 4.57262 22.759 4.55714 22.7141 4.52875V4.53373ZM18.497 3.78856C18.4773 3.75433 18.4646 3.71644 18.4594 3.6771C18.4542 3.63776 18.4568 3.59776 18.4669 3.55944C18.477 3.52112 18.4945 3.48525 18.5183 3.45392C18.5421 3.42259 18.5718 3.39643 18.6056 3.37698C18.6393 3.35681 18.6766 3.34368 18.7153 3.33836C18.754 3.33304 18.7934 3.33562 18.8311 3.34596C18.8688 3.3563 18.9041 3.3742 18.935 3.39861C18.9659 3.42302 18.9918 3.45346 19.0111 3.48817C19.0495 3.55763 19.0596 3.63974 19.0392 3.71675C19.0189 3.79377 18.9698 3.8595 18.9025 3.89976C18.8572 3.9272 18.8058 3.94207 18.7532 3.94291C18.7008 3.94173 18.6496 3.92636 18.6049 3.89838C18.5602 3.87039 18.5235 3.83079 18.4986 3.78358L18.497 3.78856ZM21.3435 3.72384C21.2757 3.68326 21.2262 3.61692 21.2058 3.53924C21.1855 3.46156 21.1959 3.3788 21.2348 3.30893C21.2745 3.2395 21.3393 3.18887 21.4153 3.16805C21.4912 3.14723 21.5721 3.1579 21.6403 3.19774C21.6741 3.21768 21.7037 3.24423 21.7274 3.27587C21.7512 3.30751 21.7686 3.34363 21.7787 3.38216C21.7888 3.42069 21.7913 3.46087 21.7862 3.50042C21.7811 3.53996 21.7685 3.5781 21.749 3.61264C21.723 3.65909 21.6854 3.69768 21.6401 3.72449C21.5949 3.75131 21.5434 3.7654 21.4911 3.76533C21.4393 3.7633 21.3889 3.74727 21.3451 3.71886L21.3435 3.72384ZM19.8659 2.98033C19.8465 2.94591 19.8338 2.9079 19.8288 2.86848C19.8237 2.82906 19.8263 2.78901 19.8364 2.75062C19.8465 2.71222 19.8639 2.67625 19.8876 2.64475C19.9113 2.61326 19.9409 2.58686 19.9746 2.56708C20.0082 2.54695 20.0453 2.53386 20.0839 2.52855C20.1225 2.52325 20.1617 2.52585 20.1993 2.5362C20.2368 2.54654 20.272 2.56443 20.3028 2.58882C20.3336 2.61322 20.3593 2.64362 20.3784 2.67828C20.3981 2.71263 20.4109 2.75065 20.4161 2.79012C20.4213 2.82959 20.4187 2.86972 20.4086 2.90817C20.3985 2.94662 20.381 2.98264 20.3572 3.01411C20.3334 3.04559 20.3036 3.0719 20.2698 3.09152C20.2257 3.11863 20.1752 3.13297 20.1238 3.13301C20.0712 3.13263 20.0197 3.1178 19.9746 3.09007C19.9295 3.06233 19.8925 3.02271 19.8675 2.97535L19.8659 2.98033Z" fill="white"/>
</g>
</g>
<defs>
<clipPath id="clip0_130_7166">
<rect width="41" height="47" fill="white"/>
</clipPath>
</defs>
</svg>
