<svg width="39" height="55" viewBox="0 0 39 55" fill="none" xmlns="http://www.w3.org/2000/svg">
<g id="46176-O4US4T 4" clip-path="url(#clip0_130_7279)">
<g id="Background">
<path id="Vector" d="M38.1923 57.5505V57.493C38.1344 57.5665 38.0682 57.6329 37.995 57.6911C37.9292 57.7402 37.8558 57.7783 37.7779 57.8039C37.6957 57.8307 37.6097 57.8441 37.5233 57.8435C37.4048 57.8451 37.2877 57.8179 37.1819 57.7643C37.0764 57.7116 36.984 57.6358 36.9115 57.5425C36.8325 57.4412 36.7735 57.3256 36.7378 57.202C36.6973 57.0644 36.6774 56.9216 36.6786 56.7782C36.6627 56.5076 36.7462 56.2406 36.9135 56.0277C36.99 55.9401 37.0849 55.8706 37.1914 55.824C37.2978 55.7775 37.4132 55.7551 37.5292 55.7584C37.6579 55.7542 37.7857 55.7807 37.9022 55.8356C38.0149 55.8937 38.1154 55.973 38.1982 56.0693V55.3148C38.1926 55.2308 38.2148 55.1473 38.2614 55.0772C38.2825 55.05 38.3099 55.0285 38.3412 55.0143C38.3724 55.0002 38.4067 54.9939 38.441 54.996C38.4744 54.994 38.508 54.9996 38.539 55.0122C38.5701 55.0249 38.598 55.0444 38.6206 55.0693C38.666 55.1331 38.6876 55.2109 38.6817 55.2891V57.5544C38.6878 57.6336 38.6638 57.7121 38.6146 57.7742C38.5924 57.798 38.5655 57.8168 38.5356 57.8294C38.5057 57.8421 38.4734 57.8482 38.441 57.8475C38.4081 57.8484 38.3755 57.8419 38.3454 57.8286C38.3154 57.8152 38.2887 57.7953 38.2673 57.7703C38.2149 57.7095 38.1881 57.6307 38.1923 57.5505ZM37.1858 56.796C37.1825 56.9174 37.2047 57.0382 37.2509 57.1505C37.2871 57.2403 37.3489 57.3174 37.4286 57.3722C37.501 57.4207 37.5862 57.4463 37.6733 57.4455C37.7603 57.446 37.8458 57.422 37.92 57.3762C37.9989 57.3232 38.0607 57.2482 38.0976 57.1604C38.1458 57.0452 38.1687 56.9209 38.1647 56.796C38.1682 56.675 38.1453 56.5547 38.0976 56.4435C38.0602 56.3522 37.998 56.2733 37.918 56.2158C37.845 56.1649 37.7582 56.1379 37.6693 56.1386C37.5793 56.1381 37.4915 56.1666 37.4187 56.2198C37.3411 56.2778 37.2816 56.3568 37.247 56.4475C37.2062 56.559 37.1868 56.6773 37.1898 56.796H37.1858Z" fill="white"/>
</g>
<g id="Objects">
<path id="Vector_2" d="M19.3315 15.5407C16.3269 15.5376 13.4462 14.3387 11.3214 12.2071C9.19664 10.0755 8.00131 7.18522 7.99765 4.17041H8.47919C8.47919 5.60065 8.75994 7.01688 9.30542 8.33825C9.8509 9.65962 10.6504 10.8602 11.6583 11.8716C12.6662 12.8829 13.8628 13.6851 15.1797 14.2325C16.4966 14.7798 17.9081 15.0615 19.3335 15.0615C20.7589 15.0615 22.1703 14.7798 23.4872 14.2325C24.8041 13.6851 26.0007 12.8829 27.0086 11.8716C28.0165 10.8602 28.816 9.65962 29.3615 8.33825C29.907 7.01688 30.1878 5.60065 30.1878 4.17041H30.6693C30.6656 7.1859 29.4698 10.0767 27.3441 12.2085C25.2185 14.3402 22.3368 15.5386 19.3315 15.5407Z" fill="white"/>
<path id="Vector_3" d="M8.2325 4.54861C7.83281 4.54861 7.44209 4.42968 7.10976 4.20687C6.77743 3.98406 6.51841 3.66738 6.36546 3.29686C6.2125 2.92635 6.17248 2.51864 6.25046 2.1253C6.32843 1.73196 6.5209 1.37065 6.80352 1.08707C7.08615 0.803488 7.44623 0.610368 7.83824 0.532128C8.23025 0.453888 8.63658 0.494041 9.00585 0.647514C9.37511 0.800988 9.69073 1.06089 9.91279 1.39434C10.1348 1.7278 10.2534 2.11984 10.2534 2.52089C10.2528 3.05851 10.0398 3.57396 9.66089 3.95412C9.28202 4.33428 8.7683 4.54808 8.2325 4.54861ZM8.2325 0.984253C7.92749 0.983862 7.62922 1.07428 7.37545 1.24406C7.12168 1.41385 6.92382 1.65537 6.80692 1.93804C6.69002 2.22071 6.65933 2.53183 6.71873 2.83202C6.77814 3.1322 6.92498 3.40794 7.14065 3.62435C7.35633 3.84076 7.63114 3.98809 7.93031 4.0477C8.22948 4.10731 8.53955 4.07651 8.82127 3.95922C9.10299 3.84192 9.34369 3.64339 9.5129 3.38876C9.68211 3.13413 9.77222 2.83485 9.77183 2.52881C9.77261 2.32538 9.73338 2.1238 9.6564 1.9356C9.57941 1.74741 9.46618 1.57631 9.32319 1.4321C9.1802 1.28789 9.01025 1.1734 8.82309 1.09519C8.63593 1.01698 8.43524 0.97659 8.2325 0.976331V0.984253Z" fill="white"/>
<path id="Vector_4" d="M30.4956 4.54861C30.0959 4.54861 29.7052 4.42968 29.3729 4.20687C29.0406 3.98406 28.7815 3.66738 28.6286 3.29686C28.4756 2.92635 28.4356 2.51864 28.5136 2.1253C28.5916 1.73196 28.784 1.37065 29.0666 1.08707C29.3493 0.803488 29.7094 0.610368 30.1014 0.532128C30.4934 0.453888 30.8997 0.494041 31.269 0.647514C31.6382 0.800988 31.9539 1.06089 32.1759 1.39434C32.398 1.7278 32.5165 2.11984 32.5165 2.52089C32.516 3.05851 32.3029 3.57396 31.924 3.95412C31.5451 4.33428 31.0314 4.54808 30.4956 4.54861ZM30.4956 0.984253C30.1906 0.983862 29.8923 1.07428 29.6386 1.24406C29.3848 1.41385 29.1869 1.65537 29.07 1.93804C28.9531 2.22071 28.9224 2.53183 28.9819 2.83202C29.0413 3.1322 29.1881 3.40794 29.4038 3.62435C29.6195 3.84076 29.8943 3.98809 30.1934 4.0477C30.4926 4.10731 30.8027 4.07651 31.0844 3.95922C31.3661 3.84192 31.6068 3.64339 31.776 3.38876C31.9452 3.13413 32.0353 2.83485 32.035 2.52881C32.0355 2.32545 31.9961 2.12399 31.919 1.93591C31.8419 1.74784 31.7287 1.57684 31.5857 1.43268C31.4428 1.28852 31.273 1.17402 31.0859 1.09572C30.8989 1.01742 30.6983 0.97685 30.4956 0.976331V0.984253Z" fill="white"/>
<path id="Vector_5" d="M19.2979 4.54861C18.8983 4.54822 18.5078 4.42896 18.1758 4.20591C17.8437 3.98287 17.585 3.66604 17.4323 3.29549C17.2797 2.92494 17.2399 2.51729 17.3181 2.12408C17.3963 1.73087 17.5889 1.36975 17.8716 1.08637C18.1544 0.802986 18.5144 0.610063 18.9064 0.531983C19.2984 0.453904 19.7046 0.494171 20.0737 0.647703C20.4429 0.801234 20.7584 1.06114 20.9804 1.39455C21.2023 1.72796 21.3208 2.11993 21.3208 2.52089C21.3203 3.05886 21.1069 3.57461 20.7276 3.95482C20.3483 4.33504 19.8341 4.54861 19.2979 4.54861ZM19.2979 0.984254C18.993 0.984254 18.6949 1.07501 18.4414 1.24503C18.1879 1.41505 17.9904 1.6567 17.8738 1.93941C17.7572 2.22212 17.7268 2.53318 17.7864 2.83323C17.846 3.13328 17.993 3.40884 18.2088 3.62505C18.4245 3.84126 18.6994 3.98839 18.9985 4.04784C19.2976 4.10729 19.6075 4.07639 19.8892 3.95903C20.1708 3.84167 20.4113 3.64314 20.5805 3.38856C20.7496 3.13397 20.8397 2.83477 20.8393 2.52881C20.84 2.32521 20.8007 2.12347 20.7236 1.93515C20.6465 1.74683 20.5331 1.57564 20.3899 1.4314C20.2467 1.28716 20.0765 1.17271 19.8892 1.09462C19.7018 1.01653 19.5009 0.97633 19.2979 0.976332V0.984254Z" fill="white"/>
<path id="Vector_6" d="M19.298 27.0555C18.8984 27.0551 18.5078 26.9358 18.1758 26.7127C17.8437 26.4897 17.585 26.1729 17.4323 25.8023C17.2797 25.4318 17.2399 25.0241 17.3181 24.6309C17.3963 24.2377 17.589 23.8766 17.8717 23.5932C18.1544 23.3098 18.5145 23.1169 18.9064 23.0388C19.2984 22.9607 19.7046 23.001 20.0737 23.1545C20.4429 23.3081 20.7584 23.568 20.9804 23.9014C21.2023 24.2348 21.3208 24.6268 21.3208 25.0277C21.3203 25.5657 21.1069 26.0814 20.7276 26.4617C20.3483 26.8419 19.8341 27.0555 19.298 27.0555ZM19.298 23.4911C18.993 23.4911 18.695 23.5818 18.4415 23.7519C18.1879 23.9219 17.9904 24.1635 17.8738 24.4463C17.7572 24.729 17.7268 25.04 17.7864 25.3401C17.846 25.6401 17.993 25.9157 18.2088 26.1319C18.4245 26.3481 18.6994 26.4952 18.9985 26.5547C19.2976 26.6141 19.6076 26.5832 19.8892 26.4659C20.1708 26.3485 20.4114 26.15 20.5805 25.8954C20.7496 25.6408 20.8397 25.3416 20.8393 25.0356C20.8401 24.8321 20.8008 24.6303 20.7237 24.442C20.6465 24.2537 20.5331 24.0825 20.3899 23.9382C20.2467 23.794 20.0766 23.6795 19.8892 23.6015C19.7018 23.5234 19.5009 23.4832 19.298 23.4832V23.4911Z" fill="white"/>
<path id="Vector_7" d="M25.4695 18H12.9106C12.8728 17.9983 12.836 17.9872 12.8038 17.9677C12.7716 17.9481 12.7452 17.9209 12.727 17.8885C12.7088 17.8562 12.6995 17.8198 12.7 17.783C12.7005 17.7461 12.7107 17.71 12.7297 17.6781L19.0091 7.10729C19.0285 7.07458 19.0565 7.04743 19.0902 7.02859C19.1239 7.00975 19.1621 6.99989 19.2009 7C19.2395 7.00002 19.2774 7.00995 19.3108 7.02879C19.3442 7.04763 19.3718 7.07472 19.3909 7.10729L25.6704 17.6781C25.6898 17.7108 25.7 17.7479 25.7 17.7856C25.6999 17.8233 25.6897 17.8603 25.6702 17.893C25.6508 17.9256 25.6228 17.9527 25.5892 17.9715C25.5555 17.9903 25.5174 18.0001 25.4786 18H25.4695ZM13.2925 17.5708H25.0841L19.1883 7.64198L13.2925 17.5708Z" fill="white"/>
<path id="Vector_8" d="M27.2393 31.8376H11.4237C11.3816 31.8374 11.3404 31.8261 11.304 31.8049C11.2676 31.7837 11.2375 31.7533 11.2164 31.7168C11.1951 31.6801 11.1839 31.6384 11.1839 31.596C11.1839 31.5535 11.1951 31.5119 11.2164 31.4752L19.1243 17.7307C19.1455 17.6938 19.176 17.6633 19.2127 17.642C19.2494 17.6208 19.2911 17.6097 19.3335 17.6099C19.3756 17.6099 19.4169 17.6211 19.4533 17.6423C19.4897 17.6635 19.5198 17.694 19.5407 17.7307L27.4485 31.4752C27.4699 31.5119 27.4811 31.5535 27.4811 31.596C27.4811 31.6384 27.4699 31.6801 27.4485 31.7168C27.427 31.7534 27.3965 31.7837 27.3598 31.8049C27.3231 31.826 27.2816 31.8373 27.2393 31.8376ZM11.846 31.3544H26.8288L19.3394 18.3346L11.846 31.3544Z" fill="white"/>
<path id="Vector_9" d="M19.5742 4.30664H19.0927V27.0195H19.5742V4.30664Z" fill="white"/>
<path id="Vector_10" d="M19.4998 27H18.9998V34H19.4998V27Z" fill="white"/>
<path id="Vector_11" d="M15.3884 33.709H8.01343V34.1922H15.3884V33.709Z" fill="white"/>
<path id="Vector_12" d="M30.6949 33.709H23.3199V34.1922H30.6949V33.709Z" fill="white"/>
<path id="Vector_13" d="M12.5703 25.4138C12.5222 25.3308 12.5089 25.232 12.5333 25.1392C12.5577 25.0464 12.6179 24.9671 12.7005 24.9187C12.7832 24.8705 12.8816 24.8572 12.9741 24.8817C13.0666 24.9062 13.1457 24.9665 13.1939 25.0494C13.2416 25.1323 13.2549 25.2307 13.2309 25.3233C13.2069 25.416 13.1475 25.4954 13.0656 25.5445C13.0101 25.5777 12.9467 25.5955 12.8821 25.596C12.8187 25.5957 12.7566 25.5787 12.7019 25.5467C12.6471 25.5148 12.6017 25.4689 12.5703 25.4138ZM11.5953 23.7504C11.5713 23.7095 11.5556 23.6643 11.5492 23.6173C11.5427 23.5703 11.5457 23.5224 11.5578 23.4766C11.5699 23.4307 11.591 23.3877 11.6198 23.3501C11.6486 23.3124 11.6846 23.2809 11.7256 23.2574C11.7662 23.2328 11.8112 23.2166 11.8581 23.2096C11.905 23.2027 11.9528 23.2052 11.9987 23.217C12.0447 23.2288 12.0878 23.2496 12.1256 23.2783C12.1634 23.307 12.1951 23.343 12.219 23.3841C12.2672 23.4668 12.2808 23.5654 12.2567 23.6582C12.2327 23.751 12.173 23.8304 12.0907 23.8791C12.0358 23.9121 11.9731 23.9299 11.9091 23.9306C11.8455 23.9305 11.783 23.9136 11.728 23.8816C11.6729 23.8497 11.6272 23.8037 11.5953 23.7484V23.7504ZM26.8052 23.6039C26.764 23.5799 26.7279 23.548 26.6991 23.5101C26.6702 23.4721 26.6491 23.4287 26.637 23.3826C26.6249 23.3364 26.622 23.2882 26.6285 23.2409C26.635 23.1936 26.6508 23.148 26.6749 23.1069C26.7242 23.0245 26.8037 22.9649 26.8964 22.9409C26.989 22.9168 27.0874 22.9302 27.1703 22.9781C27.2522 23.0272 27.3115 23.1067 27.3355 23.1993C27.3595 23.2919 27.3462 23.3903 27.2985 23.4732C27.2665 23.5276 27.2209 23.5726 27.1663 23.6039C27.1116 23.6352 27.0497 23.6515 26.9867 23.6514C26.9229 23.6515 26.8602 23.6344 26.8052 23.6019V23.6039ZM10.6224 22.0851C10.5983 22.0443 10.5825 21.9992 10.5759 21.9522C10.5693 21.9053 10.5721 21.8575 10.584 21.8117C10.5959 21.7658 10.6168 21.7228 10.6454 21.6851C10.674 21.6474 10.7098 21.6158 10.7507 21.592C10.7913 21.5677 10.8364 21.5517 10.8832 21.5449C10.9301 21.5381 10.9778 21.5407 11.0236 21.5525C11.0695 21.5642 11.1126 21.585 11.1504 21.6135C11.1882 21.6421 11.22 21.6778 11.2441 21.7187C11.2682 21.7597 11.284 21.805 11.2907 21.852C11.2973 21.8991 11.2945 21.947 11.2826 21.9931C11.2707 22.0391 11.2498 22.0823 11.2212 22.1202C11.1925 22.158 11.1567 22.1899 11.1158 22.2138C11.061 22.247 10.9982 22.2647 10.9342 22.2653C10.8708 22.2654 10.8085 22.2486 10.7537 22.2166C10.6989 22.1846 10.6536 22.1385 10.6224 22.0831V22.0851ZM27.7781 21.9385C27.737 21.9144 27.7012 21.8824 27.6726 21.8443C27.644 21.8062 27.6232 21.7627 27.6114 21.7165C27.5997 21.6703 27.5972 21.6222 27.6041 21.5749C27.6111 21.5277 27.6273 21.4824 27.6518 21.4415C27.6758 21.4006 27.7076 21.3648 27.7455 21.3363C27.7833 21.3078 27.8264 21.287 27.8722 21.2752C27.9181 21.2635 27.9658 21.2609 28.0126 21.2677C28.0595 21.2745 28.1045 21.2905 28.1452 21.3148C28.227 21.3634 28.2863 21.4427 28.3099 21.5351C28.3336 21.6275 28.3198 21.7256 28.2715 21.8078C28.2403 21.8628 28.1953 21.9086 28.1409 21.9406C28.0865 21.9726 28.0247 21.9896 27.9616 21.99C27.8968 21.9887 27.8335 21.9702 27.7781 21.9366V21.9385ZM9.6692 20.3999C9.64611 20.3583 9.63142 20.3126 9.62597 20.2653C9.62051 20.218 9.6244 20.17 9.63742 20.1243C9.65043 20.0785 9.67231 20.0357 9.70181 19.9984C9.7313 19.9611 9.76783 19.93 9.80932 19.9069C9.89287 19.8607 9.99122 19.8496 10.0829 19.8759C10.1746 19.9022 10.2522 19.9639 10.2987 20.0475C10.3219 20.0888 10.3366 20.1343 10.3422 20.1814C10.3478 20.2284 10.344 20.2761 10.3312 20.3218C10.3184 20.3674 10.2967 20.41 10.2674 20.4472C10.2382 20.4844 10.2019 20.5154 10.1606 20.5385C10.107 20.5688 10.0465 20.5845 9.98496 20.5841C9.92049 20.5845 9.85709 20.5675 9.8015 20.5347C9.7459 20.5019 9.70019 20.4547 9.6692 20.3979V20.3999ZM28.7293 20.2593C28.6878 20.2362 28.6513 20.2051 28.6218 20.1678C28.5923 20.1305 28.5704 20.0877 28.5574 20.0419C28.5444 19.9961 28.5405 19.9482 28.546 19.9009C28.5514 19.8536 28.5661 19.8079 28.5892 19.7663C28.6365 19.6829 28.7146 19.6216 28.8065 19.5957C28.8985 19.5698 28.997 19.5812 29.0806 19.6277C29.1221 19.6506 29.1585 19.6815 29.188 19.7187C29.2174 19.7559 29.2392 19.7985 29.252 19.8442C29.2649 19.8899 29.2685 19.9377 29.2628 19.9848C29.2571 20.032 29.2421 20.0775 29.2188 20.1187C29.1878 20.175 29.1423 20.222 29.0871 20.2547C29.032 20.2875 28.9691 20.3048 28.905 20.3049C28.844 20.3074 28.7834 20.2937 28.7293 20.2653V20.2593ZM8.72784 18.7148C8.68226 18.6305 8.6714 18.5317 8.6976 18.4395C8.72379 18.3474 8.78495 18.2692 8.86796 18.2217C8.9518 18.1755 9.05046 18.1643 9.14247 18.1906C9.23449 18.2169 9.31243 18.2786 9.35936 18.3623C9.40562 18.4462 9.41706 18.545 9.3912 18.6373C9.36534 18.7296 9.30426 18.808 9.22121 18.8554C9.16656 18.8848 9.1056 18.9004 9.0436 18.9009C8.97905 18.9005 8.91577 18.8829 8.86027 18.8499C8.80477 18.8168 8.75905 18.7695 8.72784 18.7128V18.7148ZM29.6687 18.5742C29.5857 18.5268 29.5246 18.4484 29.4987 18.3561C29.4729 18.2638 29.4843 18.165 29.5306 18.0811C29.5774 17.9979 29.6552 17.9367 29.7468 17.9107C29.8385 17.8848 29.9367 17.8962 30.02 17.9425C30.1039 17.9896 30.1658 18.0682 30.1921 18.161C30.2183 18.2538 30.2068 18.3532 30.1601 18.4376C30.1285 18.4934 30.0825 18.5398 30.027 18.5718C29.9714 18.6038 29.9084 18.6204 29.8444 18.6197C29.7827 18.6195 29.7221 18.6032 29.6687 18.5722V18.5742ZM7.78845 17.0296C7.7654 16.9882 7.75075 16.9426 7.74532 16.8954C7.73989 16.8483 7.7438 16.8005 7.75682 16.7549C7.76984 16.7092 7.79171 16.6666 7.82119 16.6295C7.85066 16.5924 7.88715 16.5615 7.92856 16.5385C7.96976 16.5153 8.01511 16.5005 8.06202 16.4949C8.10893 16.4893 8.15648 16.4931 8.20194 16.506C8.2474 16.5188 8.28989 16.5406 8.32696 16.57C8.36403 16.5993 8.39497 16.6358 8.418 16.6772C8.44143 16.7186 8.45644 16.7642 8.46218 16.8115C8.46791 16.8588 8.46425 16.9068 8.45141 16.9526C8.43856 16.9984 8.41678 17.0413 8.38734 17.0786C8.35789 17.116 8.32136 17.1471 8.27985 17.1702C8.22625 17.2005 8.16571 17.2162 8.10421 17.2158C8.03966 17.2154 7.97638 17.1978 7.92088 17.1647C7.86538 17.1316 7.81967 17.0843 7.78845 17.0277V17.0296ZM30.6101 16.889C30.5685 16.8663 30.5318 16.8355 30.5022 16.7984C30.4725 16.7613 30.4506 16.7186 30.4375 16.6729C30.4245 16.6272 30.4206 16.5794 30.4262 16.5322C30.4318 16.485 30.4466 16.4393 30.47 16.3979C30.5169 16.3143 30.5948 16.2526 30.6868 16.2262C30.7789 16.1999 30.8775 16.2111 30.9614 16.2574C31.0029 16.2806 31.0395 16.312 31.069 16.3495C31.0985 16.387 31.1202 16.43 31.1331 16.476C31.1459 16.5221 31.1496 16.5702 31.1438 16.6176C31.138 16.665 31.123 16.7108 31.0995 16.7524C31.0681 16.8082 31.0225 16.8546 30.9674 16.887C30.9123 16.9193 30.8496 16.9364 30.7857 16.9366C30.7239 16.9359 30.6633 16.9188 30.6101 16.8871V16.889ZM6.84708 15.3445C6.8016 15.2605 6.7908 15.162 6.81701 15.0702C6.84322 14.9783 6.90434 14.9005 6.9872 14.8534C7.07081 14.807 7.16929 14.7955 7.26127 14.8214C7.35326 14.8474 7.43135 14.9087 7.4786 14.992C7.50204 15.0334 7.51706 15.0791 7.52279 15.1264C7.52852 15.1736 7.52486 15.2216 7.51202 15.2674C7.49917 15.3133 7.4774 15.3561 7.44795 15.3935C7.4185 15.4309 7.38197 15.462 7.34046 15.4851C7.28614 15.5153 7.22497 15.531 7.16285 15.5306C7.0983 15.5303 7.03502 15.5126 6.97952 15.4796C6.92402 15.4465 6.8783 15.3992 6.84708 15.3425V15.3445ZM31.5495 15.2059C31.508 15.1828 31.4714 15.1516 31.442 15.1143C31.4125 15.0769 31.3908 15.0341 31.3779 14.9882C31.3651 14.9424 31.3614 14.8944 31.3671 14.8472C31.3729 14.7999 31.3879 14.7542 31.4113 14.7128C31.4582 14.6297 31.5358 14.5683 31.6274 14.542C31.7189 14.5157 31.8171 14.5266 31.9008 14.5722C31.9847 14.6193 32.0465 14.6979 32.0728 14.7907C32.0991 14.8835 32.0876 14.9829 32.0409 15.0673C32.0093 15.1233 31.9634 15.17 31.9079 15.2023C31.8524 15.2347 31.7893 15.2516 31.7251 15.2514C31.6634 15.2512 31.6029 15.2348 31.5495 15.2039V15.2059ZM5.9077 13.6613C5.8616 13.5772 5.85045 13.4782 5.87669 13.3859C5.90293 13.2935 5.96443 13.2153 6.04781 13.1682C6.13136 13.1221 6.22972 13.111 6.32141 13.1373C6.41311 13.1636 6.4907 13.2253 6.53724 13.3088C6.56044 13.3501 6.57533 13.3955 6.58104 13.4424C6.58675 13.4894 6.58318 13.5371 6.57054 13.5827C6.55789 13.6283 6.53642 13.671 6.50734 13.7082C6.47826 13.7455 6.44215 13.7767 6.40107 13.7999C6.34753 13.8305 6.28706 13.8469 6.22543 13.8475C6.16063 13.847 6.0971 13.8294 6.0413 13.7964C5.98549 13.7633 5.9394 13.716 5.9077 13.6593V13.6613ZM32.4908 13.5207C32.4493 13.4976 32.4128 13.4665 32.3833 13.4292C32.3538 13.3919 32.3319 13.3491 32.3189 13.3033C32.3059 13.2575 32.302 13.2096 32.3075 13.1623C32.3129 13.115 32.3276 13.0693 32.3507 13.0277C32.3979 12.9443 32.4762 12.8831 32.5683 12.8574C32.6604 12.8318 32.7589 12.8439 32.8421 12.891C32.8836 12.9141 32.9201 12.9452 32.9496 12.9825C32.9791 13.0198 33.001 13.0626 33.014 13.1084C33.027 13.1542 33.0309 13.2021 33.0255 13.2494C33.02 13.2967 33.0053 13.3425 32.9822 13.3841C32.9498 13.4393 32.9037 13.4851 32.8483 13.517C32.793 13.5489 32.7303 13.5659 32.6665 13.5663C32.6048 13.5664 32.5441 13.55 32.4908 13.5187V13.5207ZM4.97028 11.9782C4.94672 11.9367 4.93156 11.891 4.92565 11.8436C4.91975 11.7963 4.92323 11.7482 4.93588 11.7022C4.94853 11.6562 4.97011 11.6132 4.99938 11.5756C5.02865 11.538 5.06504 11.5066 5.10645 11.4831C5.1903 11.4368 5.28895 11.4257 5.38097 11.452C5.47299 11.4783 5.55093 11.54 5.59785 11.6237C5.62128 11.6651 5.6363 11.7108 5.64204 11.7581C5.64777 11.8053 5.64411 11.8533 5.63126 11.8991C5.61842 11.945 5.59664 11.9878 5.5672 12.0252C5.53775 12.0625 5.50122 12.0937 5.45971 12.1168C5.40601 12.1468 5.34553 12.1625 5.28407 12.1623C5.21984 12.1628 5.15668 12.1458 5.1014 12.113C5.04611 12.0802 5.00078 12.0329 4.97028 11.9762V11.9782ZM33.4302 11.8356C33.3888 11.8127 33.3523 11.7817 33.3229 11.7445C33.2934 11.7074 33.2717 11.6647 33.2588 11.619C33.246 11.5733 33.2423 11.5255 33.248 11.4784C33.2537 11.4313 33.2687 11.3858 33.2921 11.3445C33.3386 11.261 33.4162 11.1993 33.5079 11.1729C33.5996 11.1466 33.698 11.1577 33.7815 11.2039C33.8654 11.251 33.9273 11.3295 33.9536 11.4223C33.9798 11.5151 33.9683 11.6146 33.9216 11.6989C33.89 11.7548 33.844 11.8011 33.7885 11.8332C33.7329 11.8652 33.6699 11.8817 33.6059 11.8811C33.5442 11.8809 33.4836 11.8645 33.4302 11.8336V11.8356ZM4.02497 10.291C4.00177 10.2498 3.98689 10.2044 3.98117 10.1574C3.97546 10.1104 3.97903 10.0628 3.99167 10.0172C4.00432 9.97157 4.02579 9.92891 4.05487 9.89163C4.08395 9.85436 4.12006 9.8232 4.16114 9.79993C4.24475 9.75352 4.34322 9.74203 4.43521 9.76798C4.5272 9.79392 4.60529 9.85521 4.65254 9.93854C4.69949 10.0221 4.71152 10.1209 4.686 10.2133C4.66047 10.3057 4.59948 10.3842 4.51637 10.4316C4.46277 10.4619 4.40223 10.4776 4.34073 10.4772C4.27677 10.4765 4.21415 10.4587 4.15933 10.4256C4.10451 10.3926 4.05949 10.3454 4.02892 10.289L4.02497 10.291ZM34.3676 10.1524C34.2842 10.1053 34.2228 10.0271 34.1965 9.93478C34.1703 9.84245 34.1814 9.74347 34.2275 9.65933C34.2748 9.576 34.3529 9.51472 34.4449 9.48877C34.5368 9.46283 34.6353 9.4743 34.7189 9.52072C34.8023 9.5678 34.8638 9.64601 34.89 9.73834C34.9163 9.83067 34.9051 9.92965 34.859 10.0138C34.8273 10.0698 34.7814 10.1165 34.7259 10.1492C34.6705 10.1819 34.6075 10.1993 34.5433 10.1999C34.4829 10.1977 34.4239 10.1807 34.3716 10.1504L34.3676 10.1524ZM3.08361 8.60983C3.03673 8.52575 3.02494 8.42646 3.05083 8.33369C3.07672 8.24091 3.13817 8.16221 3.22175 8.11478C3.3059 8.06843 3.40485 8.0572 3.49719 8.08352C3.58953 8.10983 3.66782 8.17156 3.71513 8.25537C3.76113 8.3392 3.77222 8.4379 3.74597 8.52991C3.71972 8.62191 3.65826 8.69976 3.57501 8.74647C3.52152 8.77699 3.4609 8.79271 3.39937 8.79201C3.33572 8.79216 3.2732 8.77514 3.21834 8.74274C3.16349 8.71035 3.11832 8.66376 3.08755 8.60785L3.08361 8.60983ZM35.309 8.46923C35.2673 8.44611 35.2305 8.41492 35.2008 8.37746C35.1712 8.34001 35.1492 8.29703 35.1362 8.25101C35.1231 8.20498 35.1193 8.15682 35.1249 8.10931C35.1305 8.0618 35.1455 8.01587 35.1689 7.97418C35.2161 7.8908 35.2943 7.8296 35.3864 7.80399C35.4785 7.77838 35.577 7.79044 35.6603 7.83755C35.7015 7.86065 35.7378 7.8917 35.7671 7.9289C35.7964 7.9661 35.8181 8.00872 35.8309 8.05434C35.8437 8.09996 35.8475 8.14766 35.8419 8.19473C35.8363 8.2418 35.8215 8.2873 35.7984 8.32864C35.767 8.38495 35.7211 8.43187 35.6656 8.46458C35.6102 8.49729 35.547 8.5146 35.4827 8.51477C35.4231 8.51299 35.3648 8.49669 35.3129 8.46725L35.309 8.46923ZM2.15408 6.9227C2.10714 6.83916 2.09511 6.74036 2.12063 6.64793C2.14615 6.55551 2.20715 6.47701 2.29026 6.42963C2.3744 6.38328 2.47335 6.37205 2.56569 6.39837C2.65803 6.42468 2.73633 6.48642 2.78363 6.57023C2.8298 6.65382 2.84118 6.75233 2.81531 6.84431C2.78944 6.93629 2.7284 7.01428 2.64549 7.06132C2.59194 7.09194 2.53147 7.10829 2.46985 7.10884C2.40413 7.11042 2.33927 7.09367 2.28247 7.06046C2.22568 7.02725 2.17919 6.97887 2.14816 6.92072L2.15408 6.9227ZM36.2563 6.7821C36.1734 6.73506 36.1123 6.65707 36.0865 6.56509C36.0606 6.47312 36.072 6.37461 36.1181 6.29102C36.1412 6.24937 36.1722 6.21271 36.2094 6.18316C36.2466 6.15361 36.2893 6.13177 36.335 6.11889C36.3807 6.106 36.4285 6.10231 36.4756 6.10807C36.5227 6.11382 36.5683 6.12889 36.6095 6.1524C36.6929 6.19949 36.7544 6.27769 36.7807 6.37002C36.8069 6.46235 36.7958 6.56134 36.7497 6.64547C36.7176 6.70115 36.6716 6.74745 36.6162 6.77976C36.5608 6.81206 36.498 6.82926 36.4339 6.82964C36.3695 6.8295 36.3062 6.81243 36.2504 6.78013L36.2563 6.7821ZM34.2453 6.40389C34.245 6.35623 34.2542 6.30898 34.2722 6.2649C34.2903 6.22081 34.3169 6.18077 34.3505 6.14707C34.3841 6.11337 34.424 6.08668 34.4679 6.06856C34.5118 6.05044 34.5589 6.04125 34.6064 6.04151C34.6539 6.04125 34.701 6.05044 34.7449 6.06856C34.7889 6.08668 34.8288 6.11337 34.8624 6.14707C34.896 6.18077 34.9226 6.22081 34.9406 6.2649C34.9587 6.30898 34.9678 6.35623 34.9676 6.40389C34.9676 6.45138 34.9582 6.49841 34.9401 6.54226C34.9219 6.58612 34.8952 6.62593 34.8617 6.65943C34.8281 6.69292 34.7883 6.71942 34.7445 6.73742C34.7007 6.75541 34.6538 6.76455 34.6064 6.76429C34.5591 6.76455 34.5122 6.75541 34.4684 6.73742C34.4246 6.71942 34.3847 6.69292 34.3512 6.65943C34.3176 6.62593 34.291 6.58612 34.2728 6.54226C34.2546 6.49841 34.2453 6.45138 34.2453 6.40389ZM32.3211 6.40389C32.3208 6.35623 32.33 6.30898 32.3481 6.2649C32.3661 6.22081 32.3927 6.18077 32.4263 6.14707C32.4599 6.11337 32.4998 6.08668 32.5437 6.06856C32.5877 6.05044 32.6348 6.04125 32.6823 6.04151C32.7298 6.04125 32.7768 6.05044 32.8208 6.06856C32.8647 6.08668 32.9046 6.11337 32.9382 6.14707C32.9718 6.18077 32.9984 6.22081 33.0165 6.2649C33.0345 6.30898 33.0437 6.35623 33.0434 6.40389C33.0434 6.45138 33.0341 6.49841 33.0159 6.54226C32.9977 6.58612 32.9711 6.62593 32.9375 6.65943C32.904 6.69292 32.8641 6.71942 32.8203 6.73742C32.7765 6.75541 32.7296 6.76455 32.6823 6.76429C32.6346 6.76507 32.5873 6.75634 32.543 6.73858C32.4987 6.72082 32.4584 6.6944 32.4244 6.66085C32.3905 6.62731 32.3635 6.58731 32.3451 6.54319C32.3266 6.49908 32.3172 6.45172 32.3172 6.40389H32.3211ZM30.3969 6.40389C30.3967 6.35623 30.4058 6.30898 30.4239 6.2649C30.442 6.22081 30.4685 6.18077 30.5021 6.14707C30.5357 6.11337 30.5756 6.08668 30.6196 6.06856C30.6635 6.05044 30.7106 6.04125 30.7581 6.04151C30.8056 6.04125 30.8527 6.05044 30.8966 6.06856C30.9405 6.08668 30.9805 6.11337 31.014 6.14707C31.0476 6.18077 31.0742 6.22081 31.0923 6.2649C31.1103 6.30898 31.1195 6.35623 31.1192 6.40389C31.1192 6.45138 31.1099 6.49841 31.0917 6.54226C31.0735 6.58612 31.0469 6.62593 31.0133 6.65943C30.9798 6.69292 30.94 6.71942 30.8961 6.73742C30.8523 6.75541 30.8054 6.76455 30.7581 6.76429C30.7104 6.76507 30.6631 6.75634 30.6188 6.73858C30.5746 6.72082 30.5343 6.6944 30.5003 6.66085C30.4663 6.62731 30.4393 6.58731 30.4209 6.54319C30.4025 6.49908 30.393 6.45172 30.393 6.40389H30.3969ZM28.4728 6.40389C28.4725 6.35623 28.4817 6.30898 28.4997 6.2649C28.5178 6.22081 28.5444 6.18077 28.578 6.14707C28.6116 6.11337 28.6515 6.08668 28.6954 6.06856C28.7393 6.05044 28.7864 6.04125 28.8339 6.04151C28.8814 6.04125 28.9285 6.05044 28.9724 6.06856C29.0164 6.08668 29.0563 6.11337 29.0899 6.14707C29.1235 6.18077 29.1501 6.22081 29.1681 6.2649C29.1862 6.30898 29.1953 6.35623 29.1951 6.40389C29.1951 6.45138 29.1857 6.49841 29.1675 6.54226C29.1494 6.58612 29.1227 6.62593 29.0892 6.65943C29.0556 6.69292 29.0158 6.71942 28.972 6.73742C28.9282 6.75541 28.8813 6.76455 28.8339 6.76429C28.7863 6.76507 28.7389 6.75634 28.6947 6.73858C28.6504 6.72082 28.6101 6.6944 28.5761 6.66085C28.5421 6.62731 28.5151 6.58731 28.4967 6.54319C28.4783 6.49908 28.4688 6.45172 28.4688 6.40389H28.4728ZM26.5486 6.40389C26.5483 6.35623 26.5575 6.30898 26.5756 6.2649C26.5936 6.22081 26.6202 6.18077 26.6538 6.14707C26.6874 6.11337 26.7273 6.08668 26.7712 6.06856C26.8152 6.05044 26.8623 6.04125 26.9098 6.04151C26.9573 6.04125 27.0043 6.05044 27.0483 6.06856C27.0922 6.08668 27.1321 6.11337 27.1657 6.14707C27.1993 6.18077 27.2259 6.22081 27.2439 6.2649C27.262 6.30898 27.2712 6.35623 27.2709 6.40389C27.2709 6.45138 27.2615 6.49841 27.2434 6.54226C27.2252 6.58612 27.1986 6.62593 27.165 6.65943C27.1314 6.69292 27.0916 6.71942 27.0478 6.73742C27.004 6.75541 26.9571 6.76455 26.9098 6.76429C26.8624 6.76455 26.8155 6.75541 26.7717 6.73742C26.7279 6.71942 26.6881 6.69292 26.6545 6.65943C26.6209 6.62593 26.5943 6.58612 26.5761 6.54226C26.558 6.49841 26.5486 6.45138 26.5486 6.40389ZM24.6244 6.40389C24.6242 6.35623 24.6333 6.30898 24.6514 6.2649C24.6694 6.22081 24.696 6.18077 24.7296 6.14707C24.7632 6.11337 24.8031 6.08668 24.8471 6.06856C24.891 6.05044 24.9381 6.04125 24.9856 6.04151C25.0331 6.04125 25.0802 6.05044 25.1241 6.06856C25.168 6.08668 25.208 6.11337 25.2415 6.14707C25.2751 6.18077 25.3017 6.22081 25.3198 6.2649C25.3378 6.30898 25.347 6.35623 25.3467 6.40389C25.3467 6.45138 25.3374 6.49841 25.3192 6.54226C25.301 6.58612 25.2744 6.62593 25.2408 6.65943C25.2073 6.69292 25.1674 6.71942 25.1236 6.73742C25.0798 6.75541 25.0329 6.76455 24.9856 6.76429C24.9379 6.76507 24.8906 6.75634 24.8463 6.73858C24.802 6.72082 24.7618 6.6944 24.7278 6.66085C24.6938 6.62731 24.6668 6.58731 24.6484 6.54319C24.63 6.49908 24.6205 6.45172 24.6205 6.40389H24.6244ZM22.7003 6.40389C22.7 6.35623 22.7092 6.30898 22.7272 6.2649C22.7453 6.22081 22.7719 6.18077 22.8055 6.14707C22.839 6.11337 22.879 6.08668 22.9229 6.06856C22.9668 6.05044 23.0139 6.04125 23.0614 6.04151C23.1089 6.04125 23.156 6.05044 23.1999 6.06856C23.2439 6.08668 23.2838 6.11337 23.3174 6.14707C23.351 6.18077 23.3776 6.22081 23.3956 6.2649C23.4137 6.30898 23.4228 6.35623 23.4226 6.40389C23.4226 6.45138 23.4132 6.49841 23.395 6.54226C23.3769 6.58612 23.3502 6.62593 23.3167 6.65943C23.2831 6.69292 23.2433 6.71942 23.1995 6.73742C23.1557 6.75541 23.1087 6.76455 23.0614 6.76429C23.0138 6.76507 22.9664 6.75634 22.9221 6.73858C22.8779 6.72082 22.8376 6.6944 22.8036 6.66085C22.7696 6.62731 22.7426 6.58731 22.7242 6.54319C22.7058 6.49908 22.6963 6.45172 22.6963 6.40389H22.7003ZM20.7761 6.40389C20.7758 6.35623 20.785 6.30898 20.8031 6.2649C20.8211 6.22081 20.8477 6.18077 20.8813 6.14707C20.9149 6.11337 20.9548 6.08668 20.9987 6.06856C21.0427 6.05044 21.0897 6.04125 21.1372 6.04151C21.1847 6.04125 21.2318 6.05044 21.2758 6.06856C21.3197 6.08668 21.3596 6.11337 21.3932 6.14707C21.4268 6.18077 21.4534 6.22081 21.4714 6.2649C21.4895 6.30898 21.4987 6.35623 21.4984 6.40389C21.4984 6.45138 21.489 6.49841 21.4709 6.54226C21.4527 6.58612 21.4261 6.62593 21.3925 6.65943C21.3589 6.69292 21.3191 6.71942 21.2753 6.73742C21.2315 6.75541 21.1846 6.76455 21.1372 6.76429C21.0896 6.76507 21.0422 6.75634 20.998 6.73858C20.9537 6.72082 20.9134 6.6944 20.8794 6.66085C20.8454 6.62731 20.8185 6.58731 20.8 6.54319C20.7816 6.49908 20.7721 6.45172 20.7721 6.40389H20.7761ZM18.8519 6.40389C18.8517 6.35623 18.8608 6.30898 18.8789 6.2649C18.8969 6.22081 18.9235 6.18077 18.9571 6.14707C18.9907 6.11337 19.0306 6.08668 19.0746 6.06856C19.1185 6.05044 19.1656 6.04125 19.2131 6.04151C19.2606 6.04125 19.3077 6.05044 19.3516 6.06856C19.3955 6.08668 19.4354 6.11337 19.469 6.14707C19.5026 6.18077 19.5292 6.22081 19.5473 6.2649C19.5653 6.30898 19.5745 6.35623 19.5742 6.40389C19.5742 6.45138 19.5649 6.49841 19.5467 6.54226C19.5285 6.58612 19.5019 6.62593 19.4683 6.65943C19.4348 6.69292 19.3949 6.71942 19.3511 6.73742C19.3073 6.75541 19.2604 6.76455 19.2131 6.76429C19.1657 6.76455 19.1188 6.75541 19.075 6.73742C19.0312 6.71942 18.9914 6.69292 18.9578 6.65943C18.9243 6.62593 18.8976 6.58612 18.8795 6.54226C18.8613 6.49841 18.8519 6.45138 18.8519 6.40389ZM16.9278 6.40389C16.9275 6.35623 16.9367 6.30898 16.9547 6.2649C16.9728 6.22081 16.9994 6.18077 17.033 6.14707C17.0665 6.11337 17.1065 6.08668 17.1504 6.06856C17.1943 6.05044 17.2414 6.04125 17.2889 6.04151C17.3364 6.04125 17.3835 6.05044 17.4274 6.06856C17.4714 6.08668 17.5113 6.11337 17.5449 6.14707C17.5785 6.18077 17.605 6.22081 17.6231 6.2649C17.6412 6.30898 17.6503 6.35623 17.6501 6.40389C17.6501 6.45138 17.6407 6.49841 17.6225 6.54226C17.6044 6.58612 17.5777 6.62593 17.5442 6.65943C17.5106 6.69292 17.4708 6.71942 17.427 6.73742C17.3832 6.75541 17.3362 6.76455 17.2889 6.76429C17.2412 6.76507 17.1939 6.75634 17.1496 6.73858C17.1054 6.72082 17.0651 6.6944 17.0311 6.66085C16.9971 6.62731 16.9701 6.58731 16.9517 6.54319C16.9333 6.49908 16.9238 6.45172 16.9238 6.40389H16.9278ZM15.0036 6.40389C15.0033 6.35623 15.0125 6.30898 15.0305 6.2649C15.0486 6.22081 15.0752 6.18077 15.1088 6.14707C15.1424 6.11337 15.1823 6.08668 15.2262 6.06856C15.2702 6.05044 15.3172 6.04125 15.3647 6.04151C15.4122 6.04125 15.4593 6.05044 15.5033 6.06856C15.5472 6.08668 15.5871 6.11337 15.6207 6.14707C15.6543 6.18077 15.6809 6.22081 15.6989 6.2649C15.717 6.30898 15.7262 6.35623 15.7259 6.40389C15.7259 6.45138 15.7165 6.49841 15.6984 6.54226C15.6802 6.58612 15.6536 6.62593 15.62 6.65943C15.5864 6.69292 15.5466 6.71942 15.5028 6.73742C15.459 6.75541 15.4121 6.76455 15.3647 6.76429C15.3171 6.76507 15.2697 6.75634 15.2255 6.73858C15.1812 6.72082 15.1409 6.6944 15.1069 6.66085C15.0729 6.62731 15.046 6.58731 15.0275 6.54319C15.0091 6.49908 14.9996 6.45172 14.9996 6.40389H15.0036ZM13.0794 6.40389C13.0792 6.35623 13.0883 6.30898 13.1064 6.2649C13.1244 6.22081 13.151 6.18077 13.1846 6.14707C13.2182 6.11337 13.2581 6.08668 13.3021 6.06856C13.346 6.05044 13.3931 6.04125 13.4406 6.04151C13.4879 6.04151 13.5348 6.0509 13.5785 6.06914C13.6222 6.08737 13.6619 6.1141 13.6952 6.14777C13.7286 6.18145 13.755 6.2214 13.773 6.26536C13.7909 6.30931 13.8 6.35639 13.7997 6.40389C13.8 6.45129 13.7909 6.49827 13.7729 6.54212C13.755 6.58596 13.7285 6.6258 13.6951 6.65932C13.6617 6.69284 13.622 6.71936 13.5783 6.73738C13.5346 6.7554 13.4878 6.76455 13.4406 6.76429C13.3929 6.76507 13.3456 6.75634 13.3013 6.73858C13.257 6.72082 13.2167 6.6944 13.1828 6.66085C13.1488 6.62731 13.1218 6.58731 13.1034 6.54319C13.0849 6.49908 13.0755 6.45172 13.0755 6.40389H13.0794ZM11.1552 6.40389C11.155 6.35623 11.1641 6.30898 11.1822 6.2649C11.2003 6.22081 11.2269 6.18077 11.2604 6.14707C11.294 6.11337 11.334 6.08668 11.3779 6.06856C11.4218 6.05044 11.4689 6.04125 11.5164 6.04151C11.5637 6.04151 11.6106 6.0509 11.6543 6.06914C11.698 6.08737 11.7377 6.1141 11.7711 6.14777C11.8045 6.18145 11.8309 6.2214 11.8488 6.26536C11.8667 6.30931 11.8758 6.35639 11.8756 6.40389C11.8758 6.45129 11.8667 6.49827 11.8488 6.54212C11.8308 6.58596 11.8044 6.6258 11.771 6.65932C11.7376 6.69284 11.6979 6.71936 11.6542 6.73738C11.6105 6.7554 11.5636 6.76455 11.5164 6.76429C11.4691 6.76455 11.4221 6.75541 11.3783 6.73742C11.3345 6.71942 11.2947 6.69292 11.2611 6.65943C11.2276 6.62593 11.201 6.58612 11.1828 6.54226C11.1646 6.49841 11.1552 6.45138 11.1552 6.40389ZM9.23108 6.40389C9.23082 6.35623 9.23998 6.30898 9.25804 6.2649C9.27609 6.22081 9.30269 6.18077 9.33627 6.14707C9.36986 6.11337 9.40978 6.08668 9.45372 6.06856C9.49765 6.05044 9.54473 6.04125 9.59223 6.04151C9.63957 6.04151 9.68644 6.0509 9.73014 6.06914C9.77385 6.08737 9.81353 6.1141 9.84691 6.14777C9.88029 6.18145 9.9067 6.2214 9.92464 6.26536C9.94257 6.30931 9.95167 6.35639 9.95141 6.40389C9.95167 6.45129 9.94256 6.49827 9.9246 6.54212C9.90664 6.58596 9.8802 6.6258 9.84679 6.65932C9.81339 6.69284 9.77369 6.71936 9.72999 6.73738C9.6863 6.7554 9.63947 6.76455 9.59223 6.76429C9.54457 6.76507 9.49722 6.75634 9.45296 6.73858C9.4087 6.72082 9.3684 6.6944 9.33442 6.66085C9.30043 6.62731 9.27345 6.58731 9.25503 6.54319C9.23661 6.49908 9.22713 6.45172 9.22713 6.40389H9.23108ZM7.30691 6.40389C7.30665 6.35623 7.31581 6.30898 7.33387 6.2649C7.35193 6.22081 7.37852 6.18077 7.41211 6.14707C7.44569 6.11337 7.48561 6.08668 7.52955 6.06856C7.57348 6.05044 7.62056 6.04125 7.66806 6.04151C7.7154 6.04151 7.76227 6.0509 7.80597 6.06914C7.84968 6.08737 7.88936 6.1141 7.92274 6.14777C7.95612 6.18145 7.98253 6.2214 8.00047 6.26536C8.0184 6.30931 8.0275 6.35639 8.02724 6.40389C8.0275 6.45129 8.01839 6.49827 8.00043 6.54212C7.98247 6.58596 7.95603 6.6258 7.92262 6.65932C7.88922 6.69284 7.84952 6.71936 7.80582 6.73738C7.76213 6.7554 7.7153 6.76455 7.66806 6.76429C7.6204 6.76507 7.57305 6.75634 7.52879 6.73858C7.48453 6.72082 7.44423 6.6944 7.41025 6.66085C7.37627 6.62731 7.34928 6.58731 7.33086 6.54319C7.31244 6.49908 7.30296 6.45172 7.30296 6.40389H7.30691ZM5.38274 6.40389C5.38248 6.35623 5.39164 6.30898 5.4097 6.2649C5.42776 6.22081 5.45435 6.18077 5.48794 6.14707C5.52152 6.11337 5.56144 6.08668 5.60538 6.06856C5.64931 6.05044 5.69639 6.04125 5.74389 6.04151C5.79123 6.04151 5.8381 6.0509 5.8818 6.06914C5.92551 6.08737 5.96519 6.1141 5.99857 6.14777C6.03195 6.18145 6.05837 6.2214 6.0763 6.26536C6.09423 6.30931 6.10333 6.35639 6.10307 6.40389C6.10333 6.45129 6.09422 6.49827 6.07626 6.54212C6.05831 6.58596 6.03186 6.6258 5.99845 6.65932C5.96505 6.69284 5.92535 6.71936 5.88165 6.73738C5.83796 6.7554 5.79113 6.76455 5.74389 6.76429C5.69623 6.76507 5.64889 6.75634 5.60462 6.73858C5.56036 6.72082 5.52006 6.6944 5.48608 6.66085C5.4521 6.62731 5.42511 6.58731 5.40669 6.54319C5.38827 6.49908 5.37879 6.45172 5.3788 6.40389H5.38274ZM3.45857 6.40389C3.45831 6.35623 3.46747 6.30898 3.48553 6.2649C3.50359 6.22081 3.53018 6.18077 3.56377 6.14707C3.59736 6.11337 3.63727 6.08668 3.68121 6.06856C3.72514 6.05044 3.77222 6.04125 3.81972 6.04151C3.86706 6.04151 3.91393 6.0509 3.95763 6.06914C4.00134 6.08737 4.04102 6.1141 4.0744 6.14777C4.10778 6.18145 4.1342 6.2214 4.15213 6.26536C4.17006 6.30931 4.17916 6.35639 4.1789 6.40389C4.17916 6.45129 4.17005 6.49827 4.15209 6.54212C4.13414 6.58596 4.10769 6.6258 4.07428 6.65932C4.04088 6.69284 4.00118 6.71936 3.95749 6.73738C3.91379 6.7554 3.86697 6.76455 3.81972 6.76429C3.77239 6.76455 3.72547 6.75541 3.68167 6.73742C3.63786 6.71942 3.59803 6.69292 3.56447 6.65943C3.53091 6.62593 3.50427 6.58612 3.4861 6.54226C3.46793 6.49841 3.45857 6.45138 3.45857 6.40389Z" fill="white"/>
<path id="Vector_14" d="M10.3757 30.5739C10.3523 30.5327 10.3374 30.4872 10.3316 30.44C10.3259 30.3929 10.3296 30.3451 10.3425 30.2994C10.3553 30.2537 10.3771 30.2111 10.4065 30.1739C10.4359 30.1367 10.4724 30.1058 10.5139 30.0829C10.5549 30.0591 10.6003 30.0439 10.6473 30.038C10.6944 30.0321 10.7421 30.0357 10.7877 30.0487C10.8333 30.0616 10.8759 30.0835 10.9129 30.1132C10.9499 30.1429 10.9807 30.1797 11.0033 30.2215C11.0268 30.2628 11.0419 30.3083 11.0478 30.3555C11.0537 30.4027 11.0502 30.4506 11.0375 30.4965C11.0249 30.5423 11.0033 30.5852 10.9741 30.6226C10.9448 30.66 10.9085 30.6913 10.8671 30.7145C10.8135 30.7448 10.753 30.7605 10.6915 30.7601C10.6271 30.7603 10.5637 30.7432 10.5082 30.7104C10.4526 30.6777 10.4069 30.6305 10.3757 30.5739ZM28.4925 29.5838C28.4094 29.5365 28.3484 29.458 28.3229 29.3655C28.2974 29.2731 28.3094 29.1743 28.3563 29.0908C28.4033 29.0076 28.4809 28.9463 28.5724 28.92C28.6639 28.8937 28.7621 28.9045 28.8458 28.9502C28.9293 28.9976 28.9908 29.0762 29.0171 29.1689C29.0433 29.2615 29.0321 29.3608 28.9859 29.4452C28.9542 29.5016 28.908 29.5484 28.8521 29.5808C28.7962 29.6132 28.7327 29.63 28.6682 29.6294C28.6071 29.6303 28.5467 29.616 28.4925 29.5878V29.5838ZM9.43633 28.8848C9.41313 28.8436 9.39825 28.7982 9.39254 28.7512C9.38682 28.7042 9.39039 28.6566 9.40304 28.611C9.41568 28.5654 9.43716 28.5227 9.46624 28.4854C9.49532 28.4482 9.53142 28.417 9.57251 28.3937C9.65606 28.3465 9.75484 28.3344 9.84727 28.36C9.9397 28.3856 10.0183 28.4469 10.0659 28.5304C10.1121 28.6148 10.1233 28.7141 10.097 28.8067C10.0708 28.8994 10.0093 28.978 9.92577 29.0254C9.87227 29.0559 9.81166 29.0717 9.75012 29.071C9.68638 29.0715 9.62366 29.0548 9.56848 29.0228C9.51331 28.9908 9.46768 28.9445 9.43633 28.8888V28.8848ZM29.4339 27.8947C29.3924 27.8716 29.3558 27.8405 29.3264 27.8031C29.2969 27.7658 29.2752 27.723 29.2623 27.6771C29.2495 27.6313 29.2458 27.5833 29.2516 27.536C29.2573 27.4888 29.2723 27.4431 29.2957 27.4017C29.343 27.3183 29.4212 27.2571 29.5133 27.2315C29.6054 27.2058 29.7039 27.2179 29.7871 27.265C29.87 27.3121 29.9311 27.39 29.9573 27.4818C29.9835 27.5737 29.9727 27.6722 29.9273 27.7561C29.8956 27.8123 29.8498 27.8591 29.7943 27.8918C29.7389 27.9245 29.6758 27.9419 29.6115 27.9423C29.5499 27.9441 29.4889 27.9305 29.4339 27.9027V27.8947ZM8.49497 27.1977C8.47154 27.1563 8.45653 27.1106 8.45079 27.0633C8.44506 27.0161 8.44872 26.9681 8.46156 26.9223C8.47441 26.8764 8.49618 26.8336 8.52563 26.7962C8.55508 26.7589 8.59161 26.7277 8.63312 26.7046C8.71691 26.6576 8.81586 26.6458 8.90832 26.6718C9.00079 26.6977 9.07923 26.7594 9.1265 26.8432C9.17259 26.9274 9.18373 27.0264 9.1575 27.1187C9.13126 27.211 9.06976 27.2892 8.98638 27.3363C8.93293 27.3672 8.8724 27.3836 8.81073 27.3838C8.74716 27.3845 8.68453 27.3683 8.62912 27.3371C8.57371 27.3058 8.52745 27.2605 8.49497 27.2056V27.1977ZM30.3733 26.2076C30.332 26.1845 30.2957 26.1535 30.2665 26.1162C30.2372 26.079 30.2157 26.0363 30.203 25.9906C30.1903 25.9449 30.1868 25.8972 30.1927 25.8501C30.1985 25.8031 30.2136 25.7577 30.2371 25.7165C30.2601 25.6749 30.2911 25.6382 30.3284 25.6087C30.3656 25.5791 30.4083 25.5573 30.454 25.5444C30.4997 25.5315 30.5475 25.5278 30.5946 25.5336C30.6417 25.5393 30.6872 25.5544 30.7285 25.5779C30.8116 25.6253 30.8726 25.7037 30.8985 25.796C30.9243 25.8883 30.9129 25.9871 30.8666 26.071C30.8353 26.127 30.7898 26.1737 30.7347 26.2064C30.6796 26.2391 30.6169 26.2566 30.5529 26.2571C30.4907 26.2589 30.429 26.2453 30.3733 26.2175V26.2076ZM7.55558 25.5106C7.53215 25.4692 7.51714 25.4235 7.5114 25.3762C7.50567 25.3289 7.50933 25.281 7.52218 25.2351C7.53502 25.1893 7.55679 25.1464 7.58624 25.1091C7.61569 25.0717 7.65222 25.0406 7.69373 25.0175C7.77758 24.9712 7.87623 24.9601 7.96825 24.9864C8.06026 25.0127 8.13821 25.0744 8.18513 25.1581C8.23123 25.2422 8.24237 25.3412 8.21613 25.4335C8.1899 25.5259 8.1284 25.6041 8.04501 25.6512C7.99152 25.6817 7.93091 25.6974 7.86937 25.6967C7.80632 25.6972 7.74423 25.6812 7.68921 25.6503C7.63419 25.6194 7.58814 25.5747 7.55558 25.5205V25.5106ZM31.3146 24.5205C31.2731 24.4974 31.2366 24.4662 31.2071 24.4289C31.1777 24.3915 31.1559 24.3487 31.1431 24.3028C31.1302 24.257 31.1266 24.209 31.1323 24.1618C31.138 24.1145 31.1531 24.0688 31.1765 24.0274C31.2234 23.9437 31.3015 23.882 31.3936 23.8561C31.4857 23.8301 31.5844 23.8418 31.6679 23.8888C31.7513 23.9359 31.8128 24.0141 31.839 24.1064C31.8653 24.1987 31.8541 24.2977 31.808 24.3819C31.7764 24.438 31.7305 24.4848 31.6751 24.5175C31.6196 24.5502 31.5566 24.5676 31.4923 24.568C31.4312 24.5707 31.3704 24.5592 31.3146 24.5343V24.5205ZM6.61619 23.8294C6.59315 23.7879 6.5785 23.7423 6.57307 23.6952C6.56764 23.648 6.57155 23.6003 6.58457 23.5546C6.59759 23.509 6.61946 23.4664 6.64894 23.4293C6.67841 23.3921 6.7149 23.3612 6.75631 23.3383C6.79744 23.3148 6.84281 23.2998 6.88978 23.2941C6.93674 23.2883 6.98438 23.292 7.02991 23.3049C7.07545 23.3178 7.11797 23.3397 7.15502 23.3692C7.19208 23.3987 7.22291 23.4353 7.24574 23.4769C7.292 23.5608 7.30344 23.6596 7.27758 23.7519C7.25172 23.8442 7.19065 23.9226 7.1076 23.97C7.054 24.0002 6.99346 24.0159 6.93196 24.0155C6.86761 24.0154 6.80446 23.998 6.74898 23.9653C6.69349 23.9326 6.64767 23.8857 6.61619 23.8294ZM32.256 22.8393C32.1729 22.7919 32.1119 22.7134 32.0864 22.621C32.0608 22.5286 32.0729 22.4298 32.1198 22.3462C32.143 22.3047 32.1742 22.2683 32.2115 22.2389C32.2488 22.2096 32.2915 22.1879 32.3372 22.1752C32.3828 22.1625 32.4306 22.159 32.4776 22.1649C32.5247 22.1708 32.5701 22.186 32.6112 22.2096C32.6941 22.2566 32.7552 22.3346 32.781 22.4266C32.8069 22.5186 32.7955 22.6171 32.7494 22.7007C32.7177 22.7573 32.6716 22.8044 32.6157 22.8371C32.5599 22.8698 32.4963 22.887 32.4316 22.8868C32.3702 22.8896 32.3091 22.8767 32.254 22.8492L32.256 22.8393ZM5.67681 22.1423C5.63055 22.0584 5.61911 21.9596 5.64497 21.8673C5.67083 21.775 5.7319 21.6966 5.81495 21.6492C5.85635 21.6258 5.90197 21.6108 5.94917 21.6052C5.99637 21.5996 6.04421 21.6034 6.08992 21.6165C6.13563 21.6296 6.17829 21.6516 6.21545 21.6814C6.2526 21.7111 6.2835 21.748 6.30635 21.7898C6.3294 21.8312 6.34405 21.8768 6.34948 21.924C6.35491 21.9711 6.351 22.0189 6.33798 22.0645C6.32496 22.1102 6.30309 22.1528 6.27361 22.1899C6.24414 22.227 6.20765 22.2579 6.16624 22.2809C6.11286 22.3119 6.05228 22.3283 5.99059 22.3284C5.92728 22.3288 5.86493 22.3128 5.8096 22.282C5.75428 22.2511 5.70785 22.2064 5.67483 22.1522L5.67681 22.1423ZM33.1974 21.1522C33.1559 21.1287 33.1196 21.0973 33.0903 21.0597C33.061 21.0221 33.0394 20.979 33.0268 20.933C33.0141 20.887 33.0107 20.839 33.0166 20.7916C33.0225 20.7443 33.0376 20.6986 33.0612 20.6571C33.0844 20.6159 33.1154 20.5797 33.1526 20.5505C33.1897 20.5213 33.2322 20.4998 33.2777 20.4871C33.3231 20.4744 33.3706 20.4708 33.4175 20.4765C33.4643 20.4823 33.5095 20.4972 33.5506 20.5205C33.5921 20.5436 33.6287 20.5747 33.6581 20.6121C33.6876 20.6494 33.7093 20.6923 33.7222 20.7381C33.735 20.784 33.7387 20.8319 33.7329 20.8792C33.7272 20.9265 33.7122 20.9721 33.6888 21.0135C33.6573 21.0699 33.6115 21.1168 33.556 21.1495C33.5005 21.1822 33.4373 21.1995 33.373 21.1997C33.3119 21.2037 33.2508 21.1922 33.1954 21.166L33.1974 21.1522ZM4.73347 20.463C4.68737 20.3789 4.67623 20.2799 4.70247 20.1876C4.72871 20.0953 4.7902 20.0171 4.87359 19.97C4.91477 19.9463 4.96026 19.9312 5.00737 19.9254C5.05448 19.9197 5.10225 19.9235 5.14788 19.9366C5.1935 19.9497 5.23604 19.9719 5.27299 20.0018C5.30994 20.0316 5.34056 20.0686 5.36302 20.1106C5.38645 20.152 5.40147 20.1977 5.4072 20.2449C5.41294 20.2922 5.40927 20.3402 5.39643 20.386C5.38358 20.4319 5.36181 20.4747 5.33236 20.5121C5.30291 20.5494 5.26638 20.5805 5.22487 20.6036C5.17092 20.633 5.11061 20.6487 5.04923 20.6492C4.98488 20.649 4.92173 20.6317 4.86625 20.599C4.81077 20.5663 4.76494 20.5194 4.73347 20.463ZM34.1387 19.4729C34.0551 19.4255 33.9937 19.3468 33.9678 19.254C33.9419 19.1613 33.9537 19.062 34.0006 18.9779C34.0236 18.9363 34.0546 18.8996 34.0919 18.87C34.1291 18.8405 34.1718 18.8186 34.2175 18.8058C34.2632 18.7929 34.3109 18.7892 34.3581 18.795C34.4052 18.8007 34.4507 18.8158 34.492 18.8393C34.5751 18.8867 34.6361 18.9652 34.6616 19.0576C34.6871 19.15 34.6751 19.2488 34.6282 19.3324C34.5973 19.3888 34.5519 19.4359 34.4967 19.4686C34.4415 19.5014 34.3785 19.5186 34.3144 19.5185C34.2531 19.5223 34.1919 19.51 34.1367 19.4828L34.1387 19.4729ZM3.79408 18.7819C3.77096 18.7405 3.75619 18.695 3.75062 18.648C3.74505 18.6009 3.74879 18.5532 3.76162 18.5076C3.77445 18.4619 3.79613 18.4193 3.8254 18.3821C3.85468 18.3449 3.89098 18.3139 3.93223 18.2908C3.97339 18.2672 4.01879 18.252 4.06583 18.2461C4.11287 18.2402 4.1606 18.2437 4.20628 18.2564C4.25197 18.2691 4.29469 18.2908 4.33199 18.3201C4.36929 18.3495 4.40044 18.3859 4.42363 18.4274C4.47051 18.5115 4.48229 18.6108 4.45641 18.7035C4.43052 18.7963 4.36906 18.875 4.28548 18.9224C4.23178 18.9525 4.17131 18.9681 4.10984 18.968C4.04549 18.9678 3.98234 18.9505 3.92686 18.9178C3.87138 18.8851 3.82555 18.8382 3.79408 18.7819ZM35.0761 17.7918C35.0347 17.7683 34.9983 17.7369 34.9691 17.6993C34.9398 17.6616 34.9182 17.6186 34.9056 17.5726C34.8929 17.5266 34.8894 17.4786 34.8953 17.4312C34.9012 17.3839 34.9164 17.3382 34.94 17.2967C34.963 17.2553 34.9939 17.2189 35.0311 17.1895C35.0682 17.1602 35.1107 17.1386 35.1562 17.1259C35.2018 17.1132 35.2494 17.1096 35.2962 17.1155C35.3431 17.1214 35.3884 17.1365 35.4294 17.1601C35.4708 17.183 35.5073 17.2139 35.5368 17.2511C35.5662 17.2883 35.5879 17.331 35.6008 17.3766C35.6137 17.4223 35.6173 17.4701 35.6116 17.5173C35.6059 17.5644 35.5909 17.6099 35.5675 17.6512C35.5364 17.7078 35.4906 17.7549 35.4351 17.7877C35.3795 17.8204 35.3162 17.8375 35.2518 17.8373C35.1908 17.8393 35.1304 17.8256 35.0761 17.7977V17.7918ZM2.85272 17.0967C2.80662 17.0126 2.79548 16.9136 2.82172 16.8213C2.84795 16.7289 2.90945 16.6507 2.99284 16.6036C3.03391 16.5804 3.07916 16.5654 3.12599 16.5597C3.17281 16.554 3.22031 16.5576 3.26576 16.5702C3.31121 16.5829 3.35372 16.6045 3.39087 16.6336C3.42802 16.6628 3.45908 16.6991 3.48227 16.7403C3.50582 16.7817 3.52099 16.8274 3.52689 16.8748C3.53279 16.9221 3.52932 16.9702 3.51667 17.0162C3.50401 17.0622 3.48243 17.1052 3.45316 17.1428C3.42389 17.1804 3.3875 17.2119 3.34609 17.2353C3.29239 17.2653 3.23192 17.281 3.17045 17.2809C3.10604 17.2808 3.04278 17.2638 2.98701 17.2315C2.93123 17.1992 2.88492 17.1527 2.85272 17.0967ZM36.0214 16.1066C35.9379 16.0592 35.8764 15.9805 35.8505 15.8877C35.8246 15.7949 35.8364 15.6956 35.8833 15.6116C35.9305 15.5282 36.0088 15.467 36.1009 15.4414C36.193 15.4158 36.2915 15.4278 36.3747 15.4749C36.416 15.4982 36.4524 15.5295 36.4816 15.5669C36.5109 15.6043 36.5325 15.6472 36.5451 15.693C36.5578 15.7388 36.5613 15.7867 36.5554 15.8339C36.5495 15.8811 36.5344 15.9267 36.5109 15.968C36.4796 16.0239 36.4341 16.0705 36.3789 16.1029C36.3238 16.1352 36.261 16.1522 36.1971 16.1522C36.1356 16.1526 36.075 16.1369 36.0214 16.1066ZM34.7249 15.3145C34.7246 15.267 34.7337 15.22 34.7516 15.176C34.7696 15.132 34.796 15.0921 34.8294 15.0584C34.8627 15.0247 34.9024 14.998 34.9461 14.9798C34.9898 14.9615 35.0367 14.9522 35.084 14.9522C35.1315 14.9519 35.1786 14.9611 35.2225 14.9792C35.2665 14.9973 35.3064 15.024 35.34 15.0577C35.3736 15.0914 35.4002 15.1315 35.4182 15.1755C35.4363 15.2196 35.4454 15.2669 35.4452 15.3145C35.4454 15.3622 35.4363 15.4094 35.4182 15.4535C35.4002 15.4976 35.3736 15.5377 35.34 15.5714C35.3064 15.6051 35.2665 15.6317 35.2225 15.6499C35.1786 15.668 35.1315 15.6772 35.084 15.6769C35.0364 15.6774 34.9891 15.6684 34.9449 15.6504C34.9007 15.6324 34.8606 15.6058 34.8268 15.5721C34.793 15.5383 34.7662 15.4982 34.748 15.454C34.7299 15.4098 34.7206 15.3624 34.7209 15.3145H34.7249ZM32.8007 15.3145C32.8004 15.267 32.8095 15.22 32.8275 15.176C32.8454 15.132 32.8718 15.0921 32.9052 15.0584C32.9386 15.0247 32.9782 14.998 33.022 14.9798C33.0657 14.9615 33.1125 14.9522 33.1599 14.9522C33.2074 14.9519 33.2544 14.9611 33.2984 14.9792C33.3423 14.9973 33.3822 15.024 33.4158 15.0577C33.4494 15.0914 33.476 15.1315 33.4941 15.1755C33.5121 15.2196 33.5213 15.2669 33.521 15.3145C33.5213 15.3622 33.5121 15.4094 33.4941 15.4535C33.476 15.4976 33.4494 15.5377 33.4158 15.5714C33.3822 15.6051 33.3423 15.6317 33.2984 15.6499C33.2544 15.668 33.2074 15.6772 33.1599 15.6769C33.1122 15.6774 33.0649 15.6684 33.0207 15.6504C32.9766 15.6324 32.9364 15.6058 32.9026 15.5721C32.8688 15.5383 32.8421 15.4982 32.8239 15.454C32.8057 15.4098 32.7965 15.3624 32.7967 15.3145H32.8007ZM30.8765 15.3145C30.8763 15.267 30.8854 15.22 30.9033 15.176C30.9212 15.132 30.9476 15.0921 30.981 15.0584C31.0144 15.0247 31.0541 14.998 31.0978 14.9798C31.1415 14.9615 31.1884 14.9522 31.2357 14.9522C31.2832 14.9519 31.3303 14.9611 31.3742 14.9792C31.4181 14.9973 31.4581 15.024 31.4917 15.0577C31.5252 15.0914 31.5518 15.1315 31.5699 15.1755C31.5879 15.2196 31.5971 15.2669 31.5968 15.3145C31.5971 15.3622 31.5879 15.4094 31.5699 15.4535C31.5518 15.4976 31.5252 15.5377 31.4917 15.5714C31.4581 15.6051 31.4181 15.6317 31.3742 15.6499C31.3303 15.668 31.2832 15.6772 31.2357 15.6769C31.188 15.6774 31.1407 15.6684 31.0966 15.6504C31.0524 15.6324 31.0123 15.6058 30.9785 15.5721C30.9447 15.5383 30.9179 15.4982 30.8997 15.454C30.8815 15.4098 30.8723 15.3624 30.8726 15.3145H30.8765ZM28.9523 15.3145C28.9521 15.267 28.9612 15.22 28.9791 15.176C28.9971 15.132 29.0235 15.0921 29.0568 15.0584C29.0902 15.0247 29.1299 14.998 29.1736 14.9798C29.2173 14.9615 29.2642 14.9522 29.3115 14.9522C29.359 14.9519 29.4061 14.9611 29.45 14.9792C29.494 14.9973 29.5339 15.024 29.5675 15.0577C29.6011 15.0914 29.6277 15.1315 29.6457 15.1755C29.6638 15.2196 29.6729 15.2669 29.6727 15.3145C29.6729 15.3622 29.6638 15.4094 29.6457 15.4535C29.6277 15.4976 29.6011 15.5377 29.5675 15.5714C29.5339 15.6051 29.494 15.6317 29.45 15.6499C29.4061 15.668 29.359 15.6772 29.3115 15.6769C29.2639 15.6774 29.2166 15.6684 29.1724 15.6504C29.1282 15.6324 29.0881 15.6058 29.0543 15.5721C29.0205 15.5383 28.9937 15.4982 28.9755 15.454C28.9574 15.4098 28.9481 15.3624 28.9484 15.3145H28.9523ZM27.0282 15.3145C27.0279 15.267 27.037 15.22 27.0549 15.176C27.0729 15.132 27.0993 15.0921 27.1327 15.0584C27.1661 15.0247 27.2057 14.998 27.2494 14.9798C27.2931 14.9615 27.34 14.9522 27.3874 14.9522C27.4349 14.9519 27.4819 14.9611 27.5259 14.9792C27.5698 14.9973 27.6097 15.024 27.6433 15.0577C27.6769 15.0914 27.7035 15.1315 27.7215 15.1755C27.7396 15.2196 27.7488 15.2669 27.7485 15.3145C27.7488 15.3622 27.7396 15.4094 27.7215 15.4535C27.7035 15.4976 27.6769 15.5377 27.6433 15.5714C27.6097 15.6051 27.5698 15.6317 27.5259 15.6499C27.4819 15.668 27.4349 15.6772 27.3874 15.6769C27.3397 15.6774 27.2924 15.6684 27.2482 15.6504C27.2041 15.6324 27.1639 15.6058 27.1301 15.5721C27.0963 15.5383 27.0695 15.4982 27.0514 15.454C27.0332 15.4098 27.024 15.3624 27.0242 15.3145H27.0282ZM25.104 15.3145C25.1037 15.267 25.1128 15.22 25.1308 15.176C25.1487 15.132 25.1751 15.0921 25.2085 15.0584C25.2419 15.0247 25.2816 14.998 25.3253 14.9798C25.369 14.9615 25.4158 14.9522 25.4632 14.9522C25.5107 14.9519 25.5578 14.9611 25.6017 14.9792C25.6456 14.9973 25.6856 15.024 25.7191 15.0577C25.7527 15.0914 25.7793 15.1315 25.7974 15.1755C25.8154 15.2196 25.8246 15.2669 25.8243 15.3145C25.8246 15.3622 25.8154 15.4094 25.7974 15.4535C25.7793 15.4976 25.7527 15.5377 25.7191 15.5714C25.6856 15.6051 25.6456 15.6317 25.6017 15.6499C25.5578 15.668 25.5107 15.6772 25.4632 15.6769C25.4155 15.6774 25.3682 15.6684 25.3241 15.6504C25.2799 15.6324 25.2397 15.6058 25.2059 15.5721C25.1721 15.5383 25.1454 15.4982 25.1272 15.454C25.109 15.4098 25.0998 15.3624 25.1001 15.3145H25.104ZM23.1798 15.3145C23.1796 15.267 23.1887 15.22 23.2066 15.176C23.2245 15.132 23.251 15.0921 23.2843 15.0584C23.3177 15.0247 23.3574 14.998 23.4011 14.9798C23.4448 14.9615 23.4917 14.9522 23.539 14.9522C23.6348 14.9522 23.7267 14.9903 23.7944 15.0583C23.8621 15.1263 23.9002 15.2184 23.9002 15.3145C23.9002 15.3621 23.8908 15.4092 23.8727 15.4532C23.8545 15.4972 23.8279 15.5371 23.7944 15.5708C23.7609 15.6044 23.721 15.6311 23.6772 15.6493C23.6334 15.6675 23.5864 15.6769 23.539 15.6769C23.4914 15.6774 23.4441 15.6684 23.3999 15.6504C23.3557 15.6324 23.3156 15.6058 23.2818 15.5721C23.248 15.5383 23.2212 15.4982 23.203 15.454C23.1849 15.4098 23.1756 15.3624 23.1759 15.3145H23.1798ZM21.2537 15.3145C21.2537 15.2184 21.2917 15.1263 21.3595 15.0583C21.4272 14.9903 21.5191 14.9522 21.6148 14.9522C21.7106 14.9522 21.8025 14.9903 21.8702 15.0583C21.9379 15.1263 21.976 15.2184 21.976 15.3145C21.976 15.3621 21.9667 15.4092 21.9485 15.4532C21.9304 15.4972 21.9038 15.5371 21.8702 15.5708C21.8367 15.6044 21.7969 15.6311 21.7531 15.6493C21.7092 15.6675 21.6623 15.6769 21.6148 15.6769C21.5671 15.6774 21.5197 15.6684 21.4754 15.6505C21.4312 15.6325 21.3909 15.6059 21.3569 15.5722C21.323 15.5385 21.296 15.4984 21.2776 15.4541C21.2592 15.4099 21.2497 15.3625 21.2497 15.3145H21.2537ZM19.3295 15.3145C19.3295 15.2184 19.3676 15.1263 19.4353 15.0583C19.503 14.9903 19.5949 14.9522 19.6907 14.9522C19.7865 14.9522 19.8783 14.9903 19.9461 15.0583C20.0138 15.1263 20.0518 15.2184 20.0518 15.3145C20.0518 15.3621 20.0425 15.4092 20.0243 15.4532C20.0062 15.4972 19.9796 15.5371 19.9461 15.5708C19.9125 15.6044 19.8727 15.6311 19.8289 15.6493C19.7851 15.6675 19.7381 15.6769 19.6907 15.6769C19.6429 15.6774 19.5955 15.6684 19.5513 15.6505C19.507 15.6325 19.4667 15.6059 19.4327 15.5722C19.3988 15.5385 19.3718 15.4984 19.3534 15.4541C19.335 15.4099 19.3256 15.3625 19.3256 15.3145H19.3295ZM17.4054 15.3145C17.4054 15.2184 17.4434 15.1263 17.5111 15.0583C17.5789 14.9903 17.6707 14.9522 17.7665 14.9522C17.8623 14.9522 17.9542 14.9903 18.0219 15.0583C18.0896 15.1263 18.1277 15.2184 18.1277 15.3145C18.1277 15.3621 18.1183 15.4092 18.1002 15.4532C18.082 15.4972 18.0554 15.5371 18.0219 15.5708C17.9883 15.6044 17.9485 15.6311 17.9047 15.6493C17.8609 15.6675 17.8139 15.6769 17.7665 15.6769C17.7188 15.6774 17.6714 15.6684 17.6271 15.6505C17.5828 15.6325 17.5425 15.6059 17.5086 15.5722C17.4746 15.5385 17.4477 15.4984 17.4293 15.4541C17.4109 15.4099 17.4014 15.3625 17.4014 15.3145H17.4054ZM15.4812 15.3145C15.4812 15.2184 15.5192 15.1263 15.587 15.0583C15.6547 14.9903 15.7466 14.9522 15.8423 14.9522C15.9381 14.9522 16.03 14.9903 16.0977 15.0583C16.1654 15.1263 16.2035 15.2184 16.2035 15.3145C16.2035 15.3621 16.1941 15.4092 16.176 15.4532C16.1579 15.4972 16.1312 15.5371 16.0977 15.5708C16.0642 15.6044 16.0244 15.6311 15.9805 15.6493C15.9367 15.6675 15.8898 15.6769 15.8423 15.6769C15.7946 15.6774 15.7472 15.6684 15.7029 15.6505C15.6586 15.6325 15.6184 15.6059 15.5844 15.5722C15.5505 15.5385 15.5235 15.4984 15.5051 15.4541C15.4867 15.4099 15.4772 15.3625 15.4772 15.3145H15.4812ZM13.557 15.3145C13.557 15.2184 13.5951 15.1263 13.6628 15.0583C13.7305 14.9903 13.8224 14.9522 13.9182 14.9522C14.014 14.9522 14.1058 14.9903 14.1735 15.0583C14.2413 15.1263 14.2793 15.2184 14.2793 15.3145C14.2793 15.3621 14.27 15.4092 14.2518 15.4532C14.2337 15.4972 14.2071 15.5371 14.1735 15.5708C14.14 15.6044 14.1002 15.6311 14.0564 15.6493C14.0126 15.6675 13.9656 15.6769 13.9182 15.6769C13.8704 15.6774 13.823 15.6684 13.7788 15.6505C13.7345 15.6325 13.6942 15.6059 13.6602 15.5722C13.6263 15.5385 13.5993 15.4984 13.5809 15.4541C13.5625 15.4099 13.5531 15.3625 13.5531 15.3145H13.557ZM11.6328 15.3145C11.6328 15.2669 11.6422 15.2198 11.6603 15.1759C11.6785 15.1319 11.7051 15.0919 11.7386 15.0583C11.7722 15.0246 11.812 14.998 11.8558 14.9797C11.8996 14.9615 11.9466 14.9522 11.994 14.9522C12.0898 14.9522 12.1816 14.9903 12.2494 15.0583C12.3171 15.1263 12.3552 15.2184 12.3552 15.3145C12.3552 15.3621 12.3458 15.4092 12.3277 15.4532C12.3095 15.4972 12.2829 15.5371 12.2494 15.5708C12.2158 15.6044 12.176 15.6311 12.1322 15.6493C12.0884 15.6675 12.0414 15.6769 11.994 15.6769C11.9462 15.6774 11.8989 15.6684 11.8546 15.6505C11.8103 15.6325 11.77 15.6059 11.7361 15.5722C11.7021 15.5385 11.6752 15.4984 11.6568 15.4541C11.6384 15.4099 11.6289 15.3625 11.6289 15.3145H11.6328ZM9.70868 15.3145C9.70868 15.2184 9.74673 15.1263 9.81446 15.0583C9.88219 14.9903 9.97405 14.9522 10.0698 14.9522C10.1656 14.9522 10.2575 14.9903 10.3252 15.0583C10.3929 15.1263 10.431 15.2184 10.431 15.3145C10.431 15.3621 10.4216 15.4092 10.4035 15.4532C10.3853 15.4972 10.3587 15.5371 10.3252 15.5708C10.2917 15.6044 10.2519 15.6311 10.208 15.6493C10.1642 15.6675 10.1173 15.6769 10.0698 15.6769C10.0221 15.6774 9.97469 15.6684 9.93041 15.6505C9.88614 15.6325 9.84586 15.6059 9.8119 15.5722C9.77795 15.5385 9.75099 15.4984 9.7326 15.4541C9.7142 15.4099 9.70473 15.3625 9.70473 15.3145H9.70868ZM7.78451 15.3145C7.78451 15.2184 7.82256 15.1263 7.89029 15.0583C7.95802 14.9903 8.04988 14.9522 8.14566 14.9522C8.19309 14.9522 8.24005 14.9615 8.28387 14.9797C8.32769 14.998 8.3675 15.0246 8.40104 15.0583C8.43457 15.0919 8.46117 15.1319 8.47932 15.1759C8.49747 15.2198 8.50681 15.2669 8.50681 15.3145C8.50681 15.3621 8.49747 15.4092 8.47932 15.4532C8.46117 15.4972 8.43457 15.5371 8.40104 15.5708C8.3675 15.6044 8.32769 15.6311 8.28387 15.6493C8.24005 15.6675 8.19309 15.6769 8.14566 15.6769C8.0979 15.6774 8.05052 15.6684 8.00624 15.6505C7.96197 15.6325 7.92169 15.6059 7.88773 15.5722C7.85378 15.5385 7.82682 15.4984 7.80843 15.4541C7.79003 15.4099 7.78056 15.3625 7.78056 15.3145H7.78451ZM5.86034 15.3145C5.86034 15.2184 5.89839 15.1263 5.96612 15.0583C6.03385 14.9903 6.12571 14.9522 6.22149 14.9522C6.31728 14.9522 6.40914 14.9903 6.47687 15.0583C6.5446 15.1263 6.58265 15.2184 6.58265 15.3145C6.58265 15.3621 6.5733 15.4092 6.55515 15.4532C6.537 15.4972 6.5104 15.5371 6.47687 15.5708C6.44333 15.6044 6.40352 15.6311 6.3597 15.6493C6.31588 15.6675 6.26892 15.6769 6.22149 15.6769C6.17374 15.6774 6.12635 15.6684 6.08207 15.6505C6.0378 15.6325 5.99752 15.6059 5.96357 15.5722C5.92961 15.5385 5.90265 15.4984 5.88426 15.4541C5.86586 15.4099 5.85639 15.3625 5.8564 15.3145H5.86034ZM3.93617 15.3145C3.93617 15.2184 3.97422 15.1263 4.04195 15.0583C4.10968 14.9903 4.20154 14.9522 4.29732 14.9522C4.39311 14.9522 4.48497 14.9903 4.5527 15.0583C4.62043 15.1263 4.65848 15.2184 4.65848 15.3145C4.65848 15.3621 4.64913 15.4092 4.63098 15.4532C4.61283 15.4972 4.58623 15.5371 4.5527 15.5708C4.51916 15.6044 4.47935 15.6311 4.43553 15.6493C4.39171 15.6675 4.34475 15.6769 4.29732 15.6769C4.24957 15.6774 4.20218 15.6684 4.15791 15.6505C4.11363 15.6325 4.07335 15.6059 4.0394 15.5722C4.00544 15.5385 3.97849 15.4984 3.96009 15.4541C3.94169 15.4099 3.93222 15.3625 3.93223 15.3145H3.93617ZM2.012 15.3145C2.012 15.2184 2.05005 15.1263 2.11778 15.0583C2.18551 14.9903 2.27737 14.9522 2.37316 14.9522C2.46894 14.9522 2.5608 14.9903 2.62853 15.0583C2.69626 15.1263 2.73431 15.2184 2.73431 15.3145C2.73431 15.3621 2.72496 15.4092 2.70682 15.4532C2.68867 15.4972 2.66206 15.5371 2.62853 15.5708C2.59499 15.6044 2.55518 15.6311 2.51136 15.6493C2.46754 15.6675 2.42058 15.6769 2.37316 15.6769C2.3254 15.6774 2.27801 15.6684 2.23374 15.6505C2.18946 15.6325 2.14918 15.6059 2.11523 15.5722C2.08127 15.5385 2.05432 15.4984 2.03592 15.4541C2.01752 15.4099 2.00805 15.3625 2.00806 15.3145H2.012Z" fill="white"/>
</g>
</g>
<defs>
<clipPath id="clip0_130_7279">
<rect width="39" height="55" fill="white"/>
</clipPath>
</defs>
</svg>
